<svg xmlns="http://www.w3.org/2000/svg" xmlns:xlink="http://www.w3.org/1999/xlink" width="24" height="24" class="rapid-user-name" viewBox="0 0 24 24"><defs><clipPath id="clip-path"><rect id="Rectangle_2226" data-name="Rectangle 2226" width="24" height="24" transform="translate(911 9454)" fill="#1389fd"></rect></clipPath></defs><g id="Mask_Group_209" data-name="Mask Group 209" transform="translate(-911 -9454)" clip-path="url(#clip-path)"><g id="user" transform="translate(914 9454)"><path id="Path_16061" data-name="Path 16061" d="M12.5,12a6,6,0,1,0-6-6,6,6,0,0,0,6,6Zm0-10a4,4,0,1,1-4,4,4,4,0,0,1,4-4Z" transform="translate(-3.5 0)" fill="#1389fd"></path><path id="Path_16062" data-name="Path 16062" d="M12.25,15.167a9.01,9.01,0,0,0-9,9,1,1,0,0,0,2,0,7,7,0,1,1,14,0,1,1,0,0,0,2,0A9.01,9.01,0,0,0,12.25,15.167Z" transform="translate(-3.25 -1.167)" fill="#1389fd"></path></g></g></svg>