<svg xmlns="http://www.w3.org/2000/svg" xmlns:xlink="http://www.w3.org/1999/xlink" width="29" height="29" viewBox="0 0 29 29">
  <defs>
    <linearGradient id="linear-gradient" x1="0.5" x2="0.5" y2="1" gradientUnits="objectBoundingBox">
      <stop offset="0" stop-color="#a8e997"/>
      <stop offset="1" stop-color="#00ae5a"/>
    </linearGradient>
    <clipPath id="clip-path">
      <rect id="Rectangle_67" data-name="Rectangle 67" width="21" height="21" transform="translate(0 -0.049)" fill="#fff"/>
    </clipPath>
  </defs>
  <g id="Group_89636" data-name="Group 89636" transform="translate(0 0.049)">
    <g id="Group_89347" data-name="Group 89347">
      <circle id="Ellipse_8" data-name="Ellipse 8" cx="14.5" cy="14.5" r="14.5" transform="translate(0 -0.049)" fill="url(#linear-gradient)"/>
    </g>
    <g id="Mask_Group_12" data-name="Mask Group 12" transform="translate(4 4)" clip-path="url(#clip-path)">
      <g id="shield-check" transform="translate(2.216 0.605)">
        <path id="Subtraction_1" data-name="Subtraction 1" d="M8.284,19.883a.822.822,0,0,1-.336-.071C7.623,19.668,0,16.228,0,9.941V5.7A4.13,4.13,0,0,1,2.832,1.773L8.022.042a.832.832,0,0,1,.523,0l5.19,1.731A4.13,4.13,0,0,1,16.568,5.7V9.941c0,6.274-7.623,9.726-7.948,9.87A.822.822,0,0,1,8.284,19.883ZM4.9,8.045a.858.858,0,0,0-.2.024.876.876,0,0,0-.412,1.475l2.019,2.1a1.65,1.65,0,0,0,1.178.526h.029a1.662,1.662,0,0,0,1.169-.485l3.742-3.742A.879.879,0,0,0,11.174,6.7L7.506,10.379,5.541,8.33A.877.877,0,0,0,4.9,8.045Z" fill="#fff"/>
      </g>
    </g>
  </g>
</svg>
