<svg xmlns="http://www.w3.org/2000/svg" xmlns:xlink="http://www.w3.org/1999/xlink" width="23" height="23" viewBox="0 0 23 23">
  <defs>
    <clipPath id="clip-path">
      <rect id="Rectangle_2231" data-name="Rectangle 2231" width="13" height="13" transform="translate(683 9397)" fill="#fff"/>
    </clipPath>
  </defs>
  <g id="Group_89480" data-name="Group 89480" transform="translate(-678 -9392)">
    <circle id="Ellipse_910" data-name="Ellipse 910" cx="11.5" cy="11.5" r="11.5" transform="translate(678 9392)" fill="#1389fd"/>
    <g id="Mask_Group_215" data-name="Mask Group 215" clip-path="url(#clip-path)">
      <path id="arrow-right" d="M12.525,5.369l-2.1-2.118a.542.542,0,0,0-.769,0h0a.542.542,0,0,0,0,.764l1.929,1.945H.542A.542.542,0,0,0,0,6.5H0a.542.542,0,0,0,.542.542H11.62L9.659,9a.542.542,0,0,0,0,.769h0a.542.542,0,0,0,.769,0l2.1-2.1A1.625,1.625,0,0,0,12.525,5.369Z" transform="translate(683 9396.991)" fill="#fff"/>
    </g>
  </g>
</svg>
