<svg xmlns="http://www.w3.org/2000/svg" xmlns:xlink="http://www.w3.org/1999/xlink" width="1921.159" height="145.312" viewBox="0 0 1921.159 145.312">
  <defs>
    <clipPath id="clip-path">
      <circle id="Ellipse_6" data-name="Ellipse 6" cx="32.024" cy="32.024" r="32.024" fill="#badcfe"/>
    </clipPath>
  </defs>
  <g id="bannerlinershapes" transform="translate(0.269 -654.063)" opacity="0.6">
    <g id="Group_89364" data-name="Group 89364" transform="translate(0 622.38)">
      <path id="Path_16045" data-name="Path 16045" d="M-2142,2978.45s230.606-146.817,560.156-71.416,257.135,78.808,481.654,78.808,307.58-90.186,488.41-107.927,390.39,124.19,390.39,124.19" transform="translate(2142 -2843.427)" fill="none" stroke="#8ac2f8" stroke-width="1" stroke-dasharray="5 5"/>
      <g id="Group_89362" data-name="Group 89362" transform="translate(65 33.255) rotate(-3)">
        <path id="Polygon_1" data-name="Polygon 1" d="M39.014,0,78.027,73.847H0Z" transform="matrix(0.914, 0.407, -0.407, 0.914, 30.036, 0)" fill="#badcfe"/>
        <path id="Path_56" data-name="Path 56" d="M71.029,37.4,49.346,0,0,5.518Z" transform="translate(0.131 61.911)" fill="#98ccfd"/>
        <path id="Path_59" data-name="Path 59" d="M49.3,46.035,65.526,0,0,51.68Z" transform="translate(0.048 15.785)" fill="#dcedfe"/>
      </g>
      <g id="Group_89363" data-name="Group 89363" transform="translate(1830.722 76.967) rotate(120)">
        <circle id="Ellipse_4" data-name="Ellipse 4" cx="32.024" cy="32.024" r="32.024" fill="#dcedfe"/>
        <g id="Mask_Group_3" data-name="Mask Group 3" clip-path="url(#clip-path)">
          <path id="Path_58" data-name="Path 58" d="M-10556.953,3469.5s0-21.963-12.645-29.284-30.615-1.664-38.27-11.979-7.986-23.294-7.986-23.294l70.881,6.323,5.989,50.581Z" transform="translate(10615.062 -3412.197)" fill="#badcfe"/>
        </g>
      </g>
    </g>
    <g id="Group_89395" data-name="Group 89395" transform="matrix(0.588, 0.809, -0.809, 0.588, 981.785, -546.836)">
      <g id="Group_89396" data-name="Group 89396" transform="translate(999.282 729.994)">
        <path id="Path_16050" data-name="Path 16050" d="M0,0,41.521,1.45,61.366,35.771,20.811,37.864Z" transform="translate(29.824 79.494) rotate(-56)" fill="#98ccfd"/>
        <path id="Path_16051" data-name="Path 16051" d="M17.52.711,58.281,0,41.389,36.467,0,37.189Z" transform="translate(0 57.229) rotate(-53)" fill="#dcedfe"/>
        <path id="Path_16052" data-name="Path 16052" d="M11.484,10.175,49.9,0l-9.55,40.114L0,48.679Z" transform="translate(46.505 59.574) rotate(-103)" fill="#badcfe"/>
      </g>
    </g>
  </g>
</svg>
