<svg xmlns="http://www.w3.org/2000/svg" xmlns:xlink="http://www.w3.org/1999/xlink" width="60" height="60" viewBox="0 0 60 60">
  <defs>
    <linearGradient id="linear-gradient" x1="0.5" x2="0.5" y2="1" gradientUnits="objectBoundingBox">
      <stop offset="0" stop-color="#ffe492"/>
      <stop offset="1" stop-color="#f9bf12"/>
    </linearGradient>
    <clipPath id="clip-path">
      <rect id="Rectangle_61" data-name="Rectangle 61" width="35" height="35" transform="translate(334 905)" fill="#fff"/>
    </clipPath>
  </defs>
  <g id="Group_89347" data-name="Group 89347" transform="translate(-321 -892)">
    <rect id="Rectangle_60" data-name="Rectangle 60" width="60" height="60" rx="8" transform="translate(321 892)" fill="url(#linear-gradient)"/>
    <g id="Mask_Group_7" data-name="Mask Group 7" clip-path="url(#clip-path)">
      <path id="network-cloud" d="M32.729,27.7H22.016a5.113,5.113,0,0,0-2.406-2.4V20.412c1.524,0,2.821-.015,3.5-.028a7.975,7.975,0,0,0,1.613-.194A7.5,7.5,0,0,0,24.948,5.6l-.27-.063c-.082-.019-.206-.048-.188-.013a.665.665,0,0,1-.036-.071A9.072,9.072,0,0,0,14.8.095a8.79,8.79,0,0,0-7.3,6.624,8.65,8.65,0,0,0-.181,3.353,5.453,5.453,0,0,0,1.2,10.123,5.969,5.969,0,0,0,1.312.185c.819.019,3.006.032,5.409.032V25.3a5.113,5.113,0,0,0-2.4,2.4H2.111a2.187,2.187,0,1,0,0,4.374H12.83a5.072,5.072,0,0,0,9.185,0H32.732a2.187,2.187,0,1,0,0-4.374ZM9.6,15.955a1.15,1.15,0,0,1-.8-.761,1.22,1.22,0,0,1,.8-1.375A3.563,3.563,0,0,0,11.7,9.769a4.343,4.343,0,0,1,.038-1.992,4.5,4.5,0,0,1,3.674-3.353,5.167,5.167,0,0,1,.7-.05,4.666,4.666,0,0,1,4.32,2.785,4.445,4.445,0,0,0,3.4,2.658,3.122,3.122,0,0,1-.067,6.093,3.712,3.712,0,0,1-.741.09c-2.257.041-11.254.05-13.088,0a1.593,1.593,0,0,1-.34-.045Z" transform="translate(334.078 905.005)" fill="#fff"/>
    </g>
  </g>
</svg>
