<svg xmlns="http://www.w3.org/2000/svg" xmlns:xlink="http://www.w3.org/1999/xlink" width="40.833" height="40.833" viewBox="0 0 40.833 40.833">
  <defs>
    <clipPath id="clip-path">
      <rect id="Rectangle_61" data-name="Rectangle 61" width="40.833" height="40.833" transform="translate(15.167 15.167)" fill="#fff"/>
    </clipPath>
  </defs>
  <g id="Mask_Group_30" data-name="Mask Group 30" transform="translate(-15.167 -15.167)" clip-path="url(#clip-path)">
    <path id="box-open" d="M40.119,10.94l-3.25-5.4L20.42.061,3.972,5.544.752,10.886A5.151,5.151,0,0,0,3.4,18.373L3.388,35.124,20.4,40.8l17.017-5.672.014-16.751a5.1,5.1,0,0,0,2.684-7.436ZM30.356,6.962l-9.922,3.311-9.926-3.32,9.912-3.3L30.356,6.96ZM3.669,12.64l2.2-3.65L17.861,13l-2.6,4.338a1.714,1.714,0,0,1-2,.739L4.617,15.2a1.746,1.746,0,0,1-.948-2.554Zm3.136,6.871L12.187,21.3a5.077,5.077,0,0,0,5.992-2.216l.538-.9-.009,18.451L6.8,32.676l.01-13.162Zm15.3,17.132.009-18.461.543.905a5.067,5.067,0,0,0,4.358,2.483,5.148,5.148,0,0,0,1.634-.267l5.379-1.792-.01,13.161L22.11,36.642ZM37.34,14.155a1.684,1.684,0,0,1-1.053,1.019l-8.709,2.9a1.712,1.712,0,0,1-2-.739l-2.6-4.327,12-4L37.2,12.695A1.684,1.684,0,0,1,37.34,14.155Z" transform="translate(15.151 15.155)" fill="#fff"/>
  </g>
</svg>
