<svg width="144" height="94" viewBox="0 0 144 94" fill="none" xmlns="http://www.w3.org/2000/svg">
<path d="M122.448 44.6029C134.333 44.6029 144 34.9344 144 23.0498C144 11.1652 134.333 1.4968 122.448 1.4968C110.564 1.4968 100.895 11.1652 100.895 23.0498C100.895 34.9344 110.565 44.6029 122.448 44.6029ZM122.448 5.81114C131.953 5.81114 139.686 13.5439 139.686 23.0484C139.686 32.5529 131.954 40.2885 122.448 40.2885C112.942 40.2885 105.21 32.5558 105.21 23.0498C105.21 13.5439 112.944 5.81114 122.448 5.81114Z" fill="#0B0E30"/>
<path d="M122.448 48.7763C110.564 48.7763 100.895 58.4447 100.895 70.3279C100.895 82.211 110.565 91.8824 122.448 91.8824C134.332 91.8824 144 82.2125 144 70.3293C144 58.4462 134.333 48.7763 122.448 48.7763ZM122.448 87.568C112.944 87.568 105.21 79.8338 105.21 70.3293C105.21 60.8248 112.944 53.0906 122.448 53.0906C131.953 53.0906 139.686 60.8234 139.686 70.3279C139.686 79.8324 131.954 87.568 122.448 87.568Z" fill="#0B0E30"/>
<path d="M130.85 61.9264C130.007 61.0837 128.642 61.0837 127.8 61.9264L122.448 67.2777L117.097 61.9264C116.254 61.0837 114.89 61.0837 114.047 61.9264C113.204 62.7692 113.204 64.1339 114.047 64.9767L119.398 70.3279L114.047 75.6791C113.204 76.5219 113.204 77.8866 114.047 78.7294C114.468 79.1507 115.021 79.3607 115.573 79.3607C116.125 79.3607 116.677 79.1507 117.099 78.7294L122.448 73.3781L127.8 78.7294C128.221 79.1507 128.773 79.3607 129.325 79.3607C129.878 79.3607 130.43 79.1507 130.851 78.7294C131.694 77.8866 131.694 76.5219 130.851 75.6791L125.5 70.3279L130.851 64.9767C131.693 64.1354 131.693 62.7692 130.85 61.9264Z" fill="#0B0E30"/>
<path d="M118.114 31.0357C118.521 31.4556 119.08 31.6929 119.664 31.6929H119.703C120.301 31.6814 120.868 31.4225 121.268 30.9782L132.932 18.0049C133.729 17.119 133.657 15.7557 132.771 14.959C131.885 14.1637 130.522 14.2342 129.725 15.1201L119.607 26.3733L115.12 21.7325C114.293 20.8754 112.925 20.8538 112.07 21.6822C111.214 22.5105 111.191 23.8753 112.019 24.7324L118.114 31.0357Z" fill="#0B0E30"/>
<path d="M85.8178 20.4513V7.92464C85.8178 3.93784 82.8335 0.693909 79.1657 0.693909H7.32367C3.65595 0.693909 0.671631 3.93784 0.671631 7.92464V86.0165C0.671631 90.0033 3.65595 93.2472 7.32367 93.2472H79.1657C82.8335 93.2472 85.8178 90.0033 85.8178 86.0165V28.4397C85.8178 27.6411 85.2221 26.9936 84.4874 26.9936C83.7527 26.9936 83.157 27.6411 83.157 28.4397V86.0165C83.157 88.4089 81.3666 90.3549 79.1657 90.3549H7.32367C5.12278 90.3549 3.33245 88.4089 3.33245 86.0165V7.92464C3.33245 5.53228 5.12278 3.5862 7.32367 3.5862H79.1657C81.3666 3.5862 83.157 5.53228 83.157 7.92464V19.0052H6.52205C5.78733 19.0052 5.19164 19.6527 5.19164 20.4513C5.19164 21.2499 5.78733 21.8975 6.52205 21.8975H84.4874C85.2221 21.8975 85.8178 21.2499 85.8178 20.4513Z" fill="#0B0E30"/>
<path d="M77.8574 12.7418C78.5921 12.7418 79.1878 12.0943 79.1878 11.2957C79.1878 10.4971 78.5921 9.84955 77.8574 9.84955H39.1651C38.4304 9.84955 37.8347 10.4971 37.8347 11.2957C37.8347 12.0943 38.4304 12.7418 39.1651 12.7418H77.8574Z" fill="#0B0E30"/>
<path d="M11.4422 12.7418C12.1769 12.7418 12.7726 12.0943 12.7726 11.2957C12.7726 10.4971 12.1769 9.84955 11.4422 9.84955H8.39749C7.66277 9.84955 7.06708 10.4971 7.06708 11.2957C7.06708 12.0943 7.66277 12.7418 8.39749 12.7418H11.4422Z" fill="#0B0E30"/>
<path d="M19.2889 12.7418C20.0236 12.7418 20.6193 12.0943 20.6193 11.2957C20.6193 10.4971 20.0236 9.84955 19.2889 9.84955H16.2442C15.5095 9.84955 14.9138 10.4971 14.9138 11.2957C14.9138 12.0943 15.5095 12.7418 16.2442 12.7418H19.2889Z" fill="#0B0E30"/>
<path d="M27.1356 12.7418C27.8703 12.7418 28.466 12.0943 28.466 11.2957C28.466 10.4971 27.8703 9.84955 27.1356 9.84955H24.0908C23.3561 9.84955 22.7604 10.4971 22.7604 11.2957C22.7604 12.0943 23.3561 12.7418 24.0908 12.7418H27.1356Z" fill="#0B0E30"/>
<path d="M57.4868 63.3167C56.7521 63.3167 56.1564 63.9642 56.1564 64.7629V76.6632C56.1564 77.4618 56.7521 78.1093 57.4868 78.1093H70.624C71.3587 78.1093 71.9544 77.4618 71.9544 76.6632V64.7629C71.9544 63.9642 71.3587 63.3167 70.624 63.3167H65.3855V55.2146C65.3855 54.416 64.7898 53.7685 64.0551 53.7685H44.5751V48.9322H50.586C51.3207 48.9322 51.9164 48.2847 51.9164 47.4861V35.5864C51.9164 34.7878 51.3207 34.1403 50.586 34.1403H35.9034C35.1687 34.1403 34.573 34.7878 34.573 35.5864V47.4861C34.573 48.2847 35.1687 48.9322 35.9034 48.9322H41.9143V53.7685H22.4337C21.699 53.7685 21.1033 54.416 21.1033 55.2146V63.3167H15.8654C15.1307 63.3167 14.535 63.9642 14.535 64.7629V76.6632C14.535 77.4618 15.1307 78.1093 15.8654 78.1093H29.0026C29.7373 78.1093 30.333 77.4618 30.333 76.6632V64.7629C30.333 63.9642 29.7373 63.3167 29.0026 63.3167H23.7641V56.6608H41.9143V63.3167H36.6765C35.9417 63.3167 35.3461 63.9642 35.3461 64.7629V76.6632C35.3461 77.4618 35.9417 78.1093 36.6765 78.1093H49.8129C50.5477 78.1093 51.1434 77.4618 51.1434 76.6632V64.7629C51.1434 63.9642 50.5477 63.3167 49.8129 63.3167H44.5751V56.6608H62.7247V63.3167H57.4868ZM37.2338 37.0326H49.2556V46.0399H37.2338V37.0326ZM27.6722 75.2171H17.1959V66.209H27.6722V75.2171ZM48.4825 75.2171H38.0069V66.209H48.4825V75.2171ZM69.2936 75.2171H58.8172V66.209H69.2936V75.2171Z" fill="#0B0E30"/>
</svg>
