<svg xmlns="http://www.w3.org/2000/svg" xmlns:xlink="http://www.w3.org/1999/xlink" width="32" height="32" viewBox="0 0 32 32">
  <defs>
    <clipPath id="clip-path">
      <rect id="Rectangle_2325" data-name="Rectangle 2325" width="32" height="32" transform="translate(1425 3321)" fill="#fff"/>
    </clipPath>
  </defs>
  <g id="Mask_Group_234" data-name="Mask Group 234" transform="translate(-1425 -3321)" clip-path="url(#clip-path)">
    <path id="users-alt" d="M16,21.333A5.333,5.333,0,1,1,21.333,16,5.333,5.333,0,0,1,16,21.333Zm0-8A2.667,2.667,0,1,0,18.667,16,2.667,2.667,0,0,0,16,13.333Zm8,17.333a8,8,0,0,0-16,0,1.333,1.333,0,0,0,2.667,0,5.333,5.333,0,1,1,10.667,0,1.333,1.333,0,0,0,2.667,0Zm0-20a5.333,5.333,0,1,1,5.333-5.333A5.333,5.333,0,0,1,24,10.667Zm0-8a2.667,2.667,0,1,0,2.667,2.667A2.667,2.667,0,0,0,24,2.667ZM32,20a8.008,8.008,0,0,0-8-8,1.333,1.333,0,0,0,0,2.667A5.333,5.333,0,0,1,29.333,20,1.333,1.333,0,1,0,32,20ZM8,10.667a5.333,5.333,0,1,1,5.333-5.333A5.333,5.333,0,0,1,8,10.667Zm0-8a2.667,2.667,0,1,0,2.667,2.667A2.667,2.667,0,0,0,8,2.667ZM2.667,20A5.333,5.333,0,0,1,8,14.667,1.333,1.333,0,1,0,8,12a8.008,8.008,0,0,0-8,8,1.333,1.333,0,0,0,2.667,0Z" transform="translate(1425 3321)" fill="#fff"/>
  </g>
</svg>
