<svg xmlns="http://www.w3.org/2000/svg" xmlns:xlink="http://www.w3.org/1999/xlink" width="40.833" height="40.833" viewBox="0 0 40.833 40.833">
  <defs>
    <clipPath id="clip-path">
      <rect id="Rectangle_61" data-name="Rectangle 61" width="40.833" height="40.833" transform="translate(15.167 15.167)" fill="#fff"/>
    </clipPath>
  </defs>
  <g id="Mask_Group_28" data-name="Mask Group 28" transform="translate(-15.167 -15.167)" clip-path="url(#clip-path)">
    <path id="business-time" d="M28.924,17.014a11.91,11.91,0,1,0,11.91,11.91A11.924,11.924,0,0,0,28.924,17.014Zm0,20.417a8.507,8.507,0,1,1,8.507-8.507A8.517,8.517,0,0,1,28.924,37.431Zm2.9-8.008a1.7,1.7,0,1,1-2.406,2.406l-1.7-1.7a1.7,1.7,0,0,1-.5-1.2v-3.4a1.7,1.7,0,0,1,3.4,0v2.7ZM15.313,37.431H8.507a5.11,5.11,0,0,1-5.1-5.1V23.819H13.611a1.7,1.7,0,1,0,0-3.4H3.4v-5.1a5.11,5.11,0,0,1,5.1-5.1H32.326a5.11,5.11,0,0,1,5.1,5.1,1.7,1.7,0,0,0,3.4,0,8.517,8.517,0,0,0-8.507-8.507H30.453A8.523,8.523,0,0,0,22.118,0h-3.4A8.522,8.522,0,0,0,10.38,6.806H8.507A8.517,8.517,0,0,0,0,15.313V32.326a8.517,8.517,0,0,0,8.507,8.507h6.806a1.7,1.7,0,0,0,0-3.4ZM18.715,3.4h3.4a5.112,5.112,0,0,1,4.812,3.4H13.9A5.112,5.112,0,0,1,18.715,3.4Z" transform="translate(15.167 15.167)" fill="#fff"/>
  </g>
</svg>
