<svg xmlns="http://www.w3.org/2000/svg" xmlns:xlink="http://www.w3.org/1999/xlink" width="40.833" height="40.833" viewBox="0 0 40.833 40.833">
  <defs>
    <clipPath id="clip-path">
      <rect id="Rectangle_61" data-name="Rectangle 61" width="40.833" height="40.833" transform="translate(15.167 15.167)" fill="#fff"/>
    </clipPath>
  </defs>
  <g id="Mask_Group_29" data-name="Mask Group 29" transform="translate(-15.167 -15.167)" clip-path="url(#clip-path)">
    <path id="users-alt" d="M20.417,27.222a6.806,6.806,0,1,1,6.806-6.806A6.806,6.806,0,0,1,20.417,27.222Zm0-10.208a3.4,3.4,0,1,0,3.4,3.4A3.4,3.4,0,0,0,20.417,17.014ZM30.625,39.132a10.208,10.208,0,0,0-20.417,0,1.7,1.7,0,1,0,3.4,0,6.806,6.806,0,1,1,13.611,0,1.7,1.7,0,1,0,3.4,0Zm0-25.521a6.806,6.806,0,1,1,6.806-6.806A6.806,6.806,0,0,1,30.625,13.611Zm0-10.208a3.4,3.4,0,1,0,3.4,3.4A3.4,3.4,0,0,0,30.625,3.4ZM40.833,25.521A10.219,10.219,0,0,0,30.625,15.313a1.7,1.7,0,1,0,0,3.4,6.806,6.806,0,0,1,6.806,6.806,1.7,1.7,0,1,0,3.4,0ZM10.208,13.611a6.806,6.806,0,1,1,6.806-6.806A6.806,6.806,0,0,1,10.208,13.611Zm0-10.208a3.4,3.4,0,1,0,3.4,3.4A3.4,3.4,0,0,0,10.208,3.4ZM3.4,25.521a6.806,6.806,0,0,1,6.806-6.806,1.7,1.7,0,0,0,0-3.4A10.219,10.219,0,0,0,0,25.521a1.7,1.7,0,0,0,3.4,0Z" transform="translate(15.167 15.167)" fill="#fff"/>
  </g>
</svg>
