<svg xmlns="http://www.w3.org/2000/svg" width="298.543" height="360.354" viewBox="0 0 298.543 360.354">
  <g id="Group_89702" data-name="Group 89702" transform="translate(58.476 1.03)" opacity="0.8">
    <g id="Group_89710" data-name="Group 89710" transform="translate(168.957 207.356)">
      <path id="Path_16688" data-name="Path 16688" d="M352.532,170.845c-2.821-1.626-4.845-1.659-6.072-.133-1.261,1.526-1.858,4.115-1.858,7.732v19.578a34.6,34.6,0,0,1-1.029,9.258,9.027,9.027,0,0,1-3.451,5.409c-1.559,1.1-3.683,1.36-6.371.863a32.435,32.435,0,0,1-9.822-4.115l-1.858-1.1v-15.43l2.356,1.36c2.82,1.626,4.679,1.825,5.608.664q1.493-1.742,1.493-7.168V170.513a33.751,33.751,0,0,1,1.328-10.652,7.272,7.272,0,0,1,5.243-5.01,32.877,32.877,0,0,1-5.243-11.083,52.535,52.535,0,0,1-1.294-12.178V114.335a22.573,22.573,0,0,0-1.494-8.892A12.563,12.563,0,0,0,324.46,99.6l-2.356-1.36V82.812l1.858,1.095a49.27,49.27,0,0,1,9.822,7.234,33.146,33.146,0,0,1,6.371,8.229,31.919,31.919,0,0,1,3.451,9.391,49.879,49.879,0,0,1,1.029,10.452v19.578a25.611,25.611,0,0,0,1.858,9.888,14.087,14.087,0,0,0,6.073,6.869Z" transform="translate(-281.455 -71.178)" fill="#fff" opacity="0.4"/>
      <path id="Path_16689" data-name="Path 16689" d="M247.969,104.544c2.821,1.626,4.845,1.659,6.072.133,1.261-1.526,1.858-4.115,1.858-7.732V77.367a34.627,34.627,0,0,1,1.029-9.258,9.315,9.315,0,0,1,3.385-5.442c1.626-1.062,3.75-1.327,6.371-.863a32.6,32.6,0,0,1,9.922,4.181l1.858,1.1V82.51l-2.356-1.361c-2.82-1.626-4.711-1.858-5.707-.7-.929,1.195-1.393,3.584-1.393,7.234v17.255a33.887,33.887,0,0,1-1.327,10.651,7.273,7.273,0,0,1-5.243,5.011,32.887,32.887,0,0,1,5.243,11.083,52.54,52.54,0,0,1,1.294,12.178V161.12a23.839,23.839,0,0,0,1.394,8.86,12.734,12.734,0,0,0,5.707,5.873l2.356,1.36v15.43l-1.858-1.1a52.223,52.223,0,0,1-9.922-7.267,35.2,35.2,0,0,1-6.371-8.229,33.277,33.277,0,0,1-3.351-9.324,49.871,49.871,0,0,1-1.029-10.452V136.7a25.61,25.61,0,0,0-1.858-9.888,14.089,14.089,0,0,0-6.072-6.869Z" transform="translate(-247.969 -61.585)" fill="#fff" opacity="0.4"/>
    </g>
    <g id="Group_89712" data-name="Group 89712" transform="translate(86.572 8.725)">
      <path id="Path_16688-2" data-name="Path 16688" d="M346.406,153.141c-2.253-1.3-3.87-1.325-4.851-.106-1.007,1.219-1.484,3.287-1.484,6.177v15.64a27.642,27.642,0,0,1-.822,7.4,7.211,7.211,0,0,1-2.757,4.321,6.557,6.557,0,0,1-5.09.689,25.911,25.911,0,0,1-7.847-3.287l-1.484-.875V170.77l1.882,1.087c2.253,1.3,3.738,1.458,4.48.53q1.193-1.392,1.193-5.726V152.876a26.962,26.962,0,0,1,1.061-8.51,5.81,5.81,0,0,1,4.188-4,26.264,26.264,0,0,1-4.188-8.854,41.968,41.968,0,0,1-1.034-9.729V108a18.035,18.035,0,0,0-1.193-7.1,10.036,10.036,0,0,0-4.48-4.666L322.1,95.139V82.812l1.484.875a39.361,39.361,0,0,1,7.847,5.779,26.48,26.48,0,0,1,5.09,6.574,25.5,25.5,0,0,1,2.757,7.5,39.849,39.849,0,0,1,.822,8.35v15.64a20.459,20.459,0,0,0,1.484,7.9,11.253,11.253,0,0,0,4.851,5.487Z" transform="translate(-289.623 -73.517)" fill="#fff" opacity="0.4"/>
      <path id="Path_16689-2" data-name="Path 16689" d="M247.969,95.9c2.253,1.3,3.87,1.325,4.851.106,1.007-1.219,1.484-3.287,1.484-6.177V74.193a27.661,27.661,0,0,1,.822-7.4,7.441,7.441,0,0,1,2.7-4.348,6.882,6.882,0,0,1,5.09-.689,26.04,26.04,0,0,1,7.926,3.34l1.484.875V78.3l-1.882-1.087c-2.253-1.3-3.764-1.485-4.56-.557-.742.954-1.113,2.863-1.113,5.779V96.223a27.07,27.07,0,0,1-1.061,8.509,5.81,5.81,0,0,1-4.188,4,26.271,26.271,0,0,1,4.188,8.854,41.972,41.972,0,0,1,1.034,9.729V141.1a19.044,19.044,0,0,0,1.114,7.078,10.173,10.173,0,0,0,4.56,4.692l1.882,1.087v12.327l-1.484-.875a41.719,41.719,0,0,1-7.926-5.806,28.121,28.121,0,0,1-5.09-6.574,26.582,26.582,0,0,1-2.677-7.449,39.839,39.839,0,0,1-.822-8.35V121.592a20.46,20.46,0,0,0-1.484-7.9,11.256,11.256,0,0,0-4.851-5.487Z" transform="translate(-247.969 -61.585)" fill="#fff" opacity="0.4"/>
    </g>
    <g id="Group_89711" data-name="Group 89711" transform="translate(168.957 -1.03)">
      <path id="Path_16690" data-name="Path 16690" d="M395.116,69.372l70.048,40.449-.033,167.937-70.048-40.416Z" transform="translate(-395.083 -69.372)" fill="#fff" opacity="0.15"/>
      <path id="Path_16692" data-name="Path 16692" d="M411.792,239.854l52.827,30.495v46.688l-52.827-30.495Z" transform="translate(-402.634 -146.413)" fill="#fff" opacity="0.2"/>
      <path id="Path_16693" data-name="Path 16693" d="M410.823,174.531l53.623,30.959v5.276l-53.623-30.96Z" transform="translate(-402.196 -116.893)" fill="#fff" opacity="0.15"/>
      <path id="Path_16694" data-name="Path 16694" d="M410.823,193.9l46.356,26.745v5.276L410.823,199.18Z" transform="translate(-402.196 -125.647)" fill="#fff" opacity="0.15"/>
      <path id="Path_16695" data-name="Path 16695" d="M410.823,213.035l39.355,22.7v5.276l-39.355-22.7Z" transform="translate(-402.196 -134.293)" fill="#fff" opacity="0.15"/>
      <path id="Path_16696" data-name="Path 16696" d="M395.116,69.372l70.048,40.449v22.5L395.083,91.9Z" transform="translate(-395.083 -69.372)" fill="#fff" opacity="0.2"/>
      <path id="Path_16697" data-name="Path 16697" d="M419.716,100.976c0,3.418-1.991,5.011-4.446,3.583s-4.447-5.309-4.447-8.727,1.991-5.011,4.447-3.584S419.716,97.591,419.716,100.976Z" transform="translate(-402.196 -79.474)" fill="#fff" opacity="0.2"/>
    </g>
    <g id="Group_89709" data-name="Group 89709" transform="translate(-58.476 66.853)">
      <path id="Path_16698" data-name="Path 16698" d="M164.819,163.21l215.62,124.434-.033,168.036L164.786,331.246Z" transform="translate(-164.786 -163.21)" fill="#fff" opacity="0.15"/>
      <g id="Group_89708" data-name="Group 89708" transform="translate(7.152 14.814)">
        <path id="Path_16700" data-name="Path 16700" d="M191.363,316.135l123.7,71.409v5.276l-123.7-71.409Z" transform="translate(-191.363 -316.135)" fill="#fff" opacity="0.15"/>
        <path id="Path_16701" data-name="Path 16701" d="M191.363,335.509,298.078,397.1v5.276L191.363,340.785Z" transform="translate(-191.363 -324.89)" fill="#fff" opacity="0.15"/>
        <path id="Path_16702" data-name="Path 16702" d="M191.363,354.7l90.82,52.429V412.4l-90.82-52.429Z" transform="translate(-191.363 -333.563)" fill="#fff" opacity="0.15"/>
      </g>
      <g id="Group_89706" data-name="Group 89706" transform="translate(5.875 117.058)">
        <path id="Path_16703" data-name="Path 16703" d="M343.684,476.75l108.773,62.781v46.688L343.684,523.438Z" transform="translate(-343.684 -476.75)" fill="#fff" opacity="0.2"/>
        <path id="Path_16704" data-name="Path 16704" d="M358.638,502.238l16.392,9.457v15.43l-16.392-9.457Z" transform="translate(-350.442 -488.268)" fill="#fff" opacity="0.15"/>
        <path id="Path_16705" data-name="Path 16705" d="M395.265,524.759l16.392,9.457v15.43l-16.392-9.457Z" transform="translate(-366.993 -498.445)" fill="#fff" opacity="0.15"/>
        <path id="Path_16706" data-name="Path 16706" d="M432.074,545.645l16.392,9.457v15.43l-16.392-9.457Z" transform="translate(-383.627 -507.884)" fill="#fff" opacity="0.15"/>
        <path id="Path_16707" data-name="Path 16707" d="M468.882,567.864l16.392,9.457v15.43l-16.392-9.457Z" transform="translate(-400.261 -517.924)" fill="#fff" opacity="0.15"/>
      </g>
      <g id="Group_89707" data-name="Group 89707" transform="translate(100.61 111.619)">
        <path id="Path_16708" data-name="Path 16708" d="M154.433,364.265l98.619,56.916v50.845l-98.619-56.952Z" transform="translate(-154.433 -364.265)" fill="#fff" opacity="0.2"/>
        <path id="Path_16709" data-name="Path 16709" d="M171.082,395.686l78.345,45.208v5.746l-78.345-45.208Z" transform="translate(-163.222 -382.062)" fill="#fff" opacity="0.15"/>
        <path id="Path_16710" data-name="Path 16710" d="M171.082,415.059l62.734,36.21v5.746l-62.734-36.245Z" transform="translate(-163.222 -389.872)" fill="#fff" opacity="0.15"/>
      </g>
    </g>
    <path id="Path_16711" data-name="Path 16711" d="M164.847,163.21l215.321,124.3v22.763L164.847,186.006Z" transform="translate(-222.99 -119.866)" fill="#fff" opacity="0.2"/>
    <path id="Path_16712" data-name="Path 16712" d="M200.317,201.05c0,3.418-1.991,5.01-4.446,3.583s-4.447-5.309-4.447-8.727,1.991-5.011,4.447-3.583S200.317,197.665,200.317,201.05Z" transform="translate(-235 -132.786)" fill="#fff" opacity="0.2"/>
  </g>
</svg>
