<svg xmlns="http://www.w3.org/2000/svg" xmlns:xlink="http://www.w3.org/1999/xlink" width="35" height="35" viewBox="0 0 35 35">
  <defs>
    <clipPath id="clip-path">
      <rect id="Rectangle_61" data-name="Rectangle 61" width="35" height="35" transform="translate(13 13)" fill="#fff"/>
    </clipPath>
  </defs>
  <g id="Mask_Group_34" data-name="Mask Group 34" transform="translate(-13 -13)" clip-path="url(#clip-path)">
    <path id="bulb" d="M26.239,3.333A13.121,13.121,0,0,0,8.557,22.723a9.133,9.133,0,0,1,3.109,6.658v.235A5.387,5.387,0,0,0,17.046,35h.9a5.387,5.387,0,0,0,5.381-5.381v-.8a7.762,7.762,0,0,1,2.817-5.833,13.115,13.115,0,0,0,.09-19.652ZM17.95,32.08h-.9a2.467,2.467,0,0,1-2.464-2.464s-.01-.379-.012-.452h5.844v.452A2.467,2.467,0,0,1,17.95,32.08Zm6.27-11.288a11.18,11.18,0,0,0-3.447,5.455H18.956V15.772a4.375,4.375,0,0,0,2.916-4.106,1.458,1.458,0,0,0-2.916,0,1.458,1.458,0,0,1-2.916,0,1.458,1.458,0,0,0-2.916,0,4.375,4.375,0,0,0,2.916,4.106V26.247H14.112a12.59,12.59,0,0,0-3.57-5.659A10.207,10.207,0,0,1,16.3,2.983a10.866,10.866,0,0,1,1.207-.067,10.092,10.092,0,0,1,6.783,2.593,10.2,10.2,0,0,1-.07,15.283Z" transform="translate(13.006 13.004)" fill="#fff"/>
  </g>
</svg>
