<svg xmlns="http://www.w3.org/2000/svg" xmlns:xlink="http://www.w3.org/1999/xlink" width="333.559" height="281" viewBox="0 0 333.559 281">
  <defs>
    <clipPath id="clip-path">
      <rect id="Rectangle_2365" data-name="Rectangle 2365" width="333.559" height="281" fill="none"/>
    </clipPath>
    <clipPath id="clip-path-2">
      <rect id="Rectangle_2363" data-name="Rectangle 2363" width="188.744" height="102.806" fill="none"/>
    </clipPath>
    <clipPath id="clip-path-3">
      <rect id="Rectangle_2364" data-name="Rectangle 2364" width="170.527" height="106.631" fill="none"/>
    </clipPath>
    <clipPath id="clip-path-4">
      <path id="Path_16998" data-name="Path 16998" d="M126.885,43.759,124.468,97.14c-.148,3.279,1.715,7.084,4.163,8.5l66.591,38.444c2.448,1.412,4.553-.1,4.7-3.379l2.417-53.382c.149-3.279-1.715-7.083-4.163-8.5L131.585,40.38a3.571,3.571,0,0,0-1.775-.529c-1.617,0-2.815,1.463-2.925,3.908" transform="translate(-124.459 -39.851)" fill="none"/>
    </clipPath>
    <linearGradient id="linear-gradient" x1="-0.537" y1="2.137" x2="-0.531" y2="2.137" gradientUnits="objectBoundingBox">
      <stop offset="0" stop-color="#474648"/>
      <stop offset="0.027" stop-color="#474648"/>
      <stop offset="0.152" stop-color="#43606e"/>
      <stop offset="1" stop-color="#43606e"/>
    </linearGradient>
    <clipPath id="clip-path-5">
      <path id="Path_16999" data-name="Path 16999" d="M126.887,43.759,124.47,97.14a79.24,79.24,0,0,1,15.463-2.459c5.938-.338,12.213-34.787,7.9-44.132-.167-.363-.366-.74-.587-1.13L131.588,40.38a3.571,3.571,0,0,0-1.775-.529c-1.617,0-2.815,1.463-2.926,3.908" transform="translate(-124.47 -39.851)" fill="none"/>
    </clipPath>
    <linearGradient id="linear-gradient-2" x1="-1.395" y1="7.968" x2="-1.381" y2="7.968" gradientUnits="objectBoundingBox">
      <stop offset="0" stop-color="#403f41"/>
      <stop offset="0.027" stop-color="#403f41"/>
      <stop offset="0.347" stop-color="#43606e"/>
      <stop offset="1" stop-color="#43606e"/>
    </linearGradient>
    <clipPath id="clip-path-7">
      <rect id="Rectangle_2368" data-name="Rectangle 2368" width="26.91" height="47.678" fill="none"/>
    </clipPath>
  </defs>
  <g id="Group_89789" data-name="Group 89789" transform="translate(-1103 -3286.536)">
    <g id="Group_89779" data-name="Group 89779" transform="translate(1103 3286.536)" clip-path="url(#clip-path)">
      <path id="Path_16736" data-name="Path 16736" d="M26.307,132.466v.512c0,1.611-1.237,12.742-4.312,17.9h-.037a5.459,5.459,0,0,1-1.94,1.794,13.534,13.534,0,0,1-12.264-.037,5.869,5.869,0,0,1-1.977-1.757s-4-9.822-4.367-18.278v-.257c.074-8.054,24.9.119,24.9.119" transform="translate(-0.317 -28.967)" fill="#cecfd7"/>
      <path id="Path_16737" data-name="Path 16737" d="M25.325,133.377c0,1.611-.256,13.373-3.331,18.536h-.036a5.467,5.467,0,0,1-1.941,1.794,13.534,13.534,0,0,1-12.264-.036,5.885,5.885,0,0,1-1.977-1.757s-4-9.823-4.367-18.279v-.257l3.658,1.987s1.478,17.244,8.287,18.2,10.323-8.5,11.971-20.183" transform="translate(-0.317 -29.997)" fill="#cecfd7"/>
      <path id="Path_16738" data-name="Path 16738" d="M22.688,136.326c-4.847,2.8-12.729,2.784-17.606-.032s-4.9-7.367-.055-10.164,12.729-2.784,17.6.031,4.9,7.367.056,10.165" transform="translate(-0.317 -27.897)" fill="#e3e4e8"/>
      <path id="Path_16739" data-name="Path 16739" d="M21.659,126.17a15.789,15.789,0,0,0-14.285-.026c-3.932,2.27-3.912,5.963.046,8.247a15.783,15.783,0,0,0,14.284.025c3.931-2.269,3.912-5.961-.045-8.246" transform="translate(-0.998 -27.989)" fill="#85683e"/>
      <path id="Path_16740" data-name="Path 16740" d="M7.378,128.135a15.79,15.79,0,0,1,14.284.026,5.736,5.736,0,0,1,2.807,3.119c.584-1.827-.35-3.789-2.807-5.206a15.785,15.785,0,0,0-14.284-.027c-2.412,1.393-3.322,3.319-2.763,5.13a5.7,5.7,0,0,1,2.763-3.041" transform="translate(-1.002 -27.967)" fill="#cecfd7"/>
      <path id="Path_16741" data-name="Path 16741" d="M10.145,129.412a9.82,9.82,0,0,1,8.885-.016c2.446,1.413,2.434,3.71-.028,5.13a9.817,9.817,0,0,1-8.885.015c-2.446-1.411-2.434-3.707.028-5.129" transform="translate(-1.865 -28.865)" fill="#6e4c1a"/>
      <path id="Path_16742" data-name="Path 16742" d="M11.326,127.865a7.448,7.448,0,0,1,6.741-.012c1.856,1.072,1.847,2.814-.021,3.893a7.45,7.45,0,0,1-6.741.012c-1.856-1.071-1.846-2.814.021-3.892" transform="translate(-2.231 -28.575)" fill="#c9923b"/>
      <path id="Path_16743" data-name="Path 16743" d="M15.694,127.919h0a8.235,8.235,0,0,1-8.211-8.211v-12.5a8.211,8.211,0,1,1,16.421,0v12.5a8.235,8.235,0,0,1-8.211,8.211" transform="translate(-1.683 -22.266)" fill="#5fbe2c"/>
      <path id="Path_16744" data-name="Path 16744" d="M19.4,116.129h0a4.74,4.74,0,0,1-4.74-4.74v-5.757a4.74,4.74,0,1,1,9.481,0v5.757a4.741,4.741,0,0,1-4.74,4.74" transform="translate(-3.298 -22.691)" fill="#68d130"/>
      <path id="Path_16745" data-name="Path 16745" d="M2.416,116.809a4.776,4.776,0,0,0,4.87,4.676,4.68,4.68,0,1,0,0-9.352,4.776,4.776,0,0,0-4.87,4.676" transform="translate(-0.543 -25.219)" fill="#5fbe2c"/>
      <path id="Path_16746" data-name="Path 16746" d="M5.446,116.1a3.221,3.221,0,0,0,3.285,3.155,3.157,3.157,0,1,0,0-6.309A3.221,3.221,0,0,0,5.446,116.1" transform="translate(-1.225 -25.402)" fill="#68d130"/>
      <rect id="Rectangle_2340" data-name="Rectangle 2340" width="4.147" height="0.508" transform="translate(17.568 80.841) rotate(-40.981)" fill="#494855"/>
      <rect id="Rectangle_2341" data-name="Rectangle 2341" width="3.06" height="0.508" transform="matrix(0.983, -0.182, 0.182, 0.983, 20.18, 84.154)" fill="#494855"/>
      <rect id="Rectangle_2342" data-name="Rectangle 2342" width="0.507" height="3.118" transform="translate(20.508 90.439) rotate(-80.934)" fill="#494855"/>
      <rect id="Rectangle_2343" data-name="Rectangle 2343" width="0.508" height="2.582" transform="translate(20.905 95.637) rotate(-73.823)" fill="#494855"/>
      <rect id="Rectangle_2344" data-name="Rectangle 2344" width="0.507" height="1.662" transform="translate(3.509 87.312) rotate(-23.613)" fill="#494855"/>
      <rect id="Rectangle_2345" data-name="Rectangle 2345" width="2.776" height="0.508" transform="matrix(0.823, -0.568, 0.568, 0.823, 0.804, 94.702)" fill="#494855"/>
      <rect id="Rectangle_2346" data-name="Rectangle 2346" width="0.508" height="1.57" transform="translate(1.186 90.429) rotate(-71.735)" fill="#494855"/>
      <rect id="Rectangle_2347" data-name="Rectangle 2347" width="0.508" height="1.737" transform="translate(8.62 76.843) rotate(-24.884)" fill="#494855"/>
      <rect id="Rectangle_2348" data-name="Rectangle 2348" width="0.508" height="2.461" transform="translate(5.751 82.727) rotate(-79.034)" fill="#494855"/>
      <rect id="Rectangle_2349" data-name="Rectangle 2349" width="1.966" height="0.508" transform="translate(5.042 97.614)" fill="#494855"/>
      <rect id="Rectangle_2350" data-name="Rectangle 2350" width="0.508" height="2.224" transform="translate(20.826 99.842) rotate(-68.811)" fill="#494855"/>
      <rect id="Rectangle_2351" data-name="Rectangle 2351" width="0.508" height="2.253" transform="translate(19.157 102.694) rotate(-55.709)" fill="#494855"/>
      <rect id="Rectangle_2352" data-name="Rectangle 2352" width="2.068" height="0.507" transform="translate(15.069 77.5) rotate(-83.517)" fill="#494855"/>
      <rect id="Rectangle_2353" data-name="Rectangle 2353" width="0.508" height="1.925" transform="translate(8.989 94.593) rotate(-39.986)" fill="#494855"/>
      <rect id="Rectangle_2354" data-name="Rectangle 2354" width="1.32" height="0.508" transform="translate(8.866 88.789) rotate(-38.619)" fill="#494855"/>
      <rect id="Rectangle_2355" data-name="Rectangle 2355" width="1.289" height="0.508" transform="translate(5.775 93.862) rotate(-80.064)" fill="#494855"/>
      <rect id="Rectangle_2356" data-name="Rectangle 2356" width="2.003" height="0.508" transform="translate(6.518 103.007) rotate(-31.144)" fill="#494855"/>
      <rect id="Rectangle_2357" data-name="Rectangle 2357" width="1.451" height="0.508" transform="matrix(0.7, -0.714, 0.714, 0.7, 14.317, 85.149)" fill="#494855"/>
      <rect id="Rectangle_2358" data-name="Rectangle 2358" width="0.508" height="1.167" transform="translate(14.708 90.419) rotate(-65.087)" fill="#494855"/>
      <rect id="Rectangle_2359" data-name="Rectangle 2359" width="1.395" height="0.508" transform="translate(14.719 94.933) rotate(-22.419)" fill="#494855"/>
      <rect id="Rectangle_2360" data-name="Rectangle 2360" width="0.507" height="1.259" transform="matrix(0.914, -0.405, 0.405, 0.914, 14.774, 98.8)" fill="#494855"/>
      <rect id="Rectangle_2361" data-name="Rectangle 2361" width="1.095" height="0.508" transform="matrix(0.807, -0.591, 0.591, 0.807, 14.079, 103.548)" fill="#494855"/>
      <path id="Path_16748" data-name="Path 16748" d="M70.237,131.469V91.609l-2.9-4.5-5.857-2.593-5.7-.384-4.526.754L46.573,86.9l-3.248,4.63V131.4l10.358,6.049Z" transform="translate(-9.744 -18.922)" fill="#a4a4a0"/>
      <path id="Path_16749" data-name="Path 16749" d="M66.266,137.437c-5.271-3.043-13.791-3.059-19.029-.034s-5.212,7.943.06,10.986,13.791,3.059,19.029.034,5.211-7.942-.06-10.986" transform="translate(-9.744 -30.395)" fill="#8e8e89"/>
      <path id="Path_16750" data-name="Path 16750" d="M66.266,85.988C61,82.944,52.475,82.929,47.237,85.954S42.025,93.9,47.3,96.94s13.791,3.059,19.029.034,5.211-7.943-.06-10.986m-.842,10.466c-4.744,2.738-12.459,2.725-17.232-.031s-4.8-7.211-.054-9.949S60.6,83.748,65.37,86.5s4.8,7.21.054,9.949" transform="translate(-9.744 -18.823)" fill="#ddd6d6"/>
      <path id="Path_16751" data-name="Path 16751" d="M54.456,114.859,58.427,52.8c-.016.251.193.507.572.708l-3.972,62.054c-.378-.2-.588-.456-.571-.708" transform="translate(-12.247 -11.876)" fill="#fea424"/>
      <path id="Path_16752" data-name="Path 16752" d="M55.193,115.773l3.972-62.054a3.127,3.127,0,0,0,.785.276,4.509,4.509,0,0,0,1.339.089l-3.972,62.054a4.516,4.516,0,0,1-1.34-.089,3.132,3.132,0,0,1-.784-.276" transform="translate(-12.413 -12.082)" fill="#fec424"/>
      <path id="Path_16753" data-name="Path 16753" d="M57.934,116.1l3.972-62.054a2.106,2.106,0,0,0,1.36-.505l-3.972,62.054a2.1,2.1,0,0,1-1.36.505" transform="translate(-13.03 -12.041)" fill="#fea424"/>
      <path id="Path_16754" data-name="Path 16754" d="M63.635,53.135a3.176,3.176,0,0,1-2.7.415c-1.083-.24-1.63-.815-1.222-1.284a3.175,3.175,0,0,1,2.7-.415c1.084.24,1.63.815,1.222,1.284" transform="translate(-13.399 -11.638)" fill="#ffdd9f"/>
      <path id="Path_16755" data-name="Path 16755" d="M62.771,53.035a1.146,1.146,0,0,1-.974.15c-.391-.086-.588-.294-.44-.463a1.144,1.144,0,0,1,.973-.15c.391.087.588.295.441.464" transform="translate(-13.788 -11.815)" fill="#58544b"/>
      <path id="Path_16756" data-name="Path 16756" d="M50.193,51.391l-.1,10.63a4.411,4.411,0,0,0,2.935-.283c.06-.029.116-.06.168-.09Z" transform="translate(-11.266 -11.558)" fill="#fec424"/>
      <path id="Path_16757" data-name="Path 16757" d="M49.424,64.515,58.717,127.4c.027.183.2.346.516.458L49.94,64.972c-.319-.112-.489-.274-.516-.457" transform="translate(-11.116 -14.51)" fill="#ce8c24"/>
      <path id="Path_16758" data-name="Path 16758" d="M49.422,64.123l9.812,63.416a2.372,2.372,0,0,0,.407.1L50.124,63.265a5.9,5.9,0,0,1-.64-.159Z" transform="translate(-11.115 -14.193)" fill="#fea424"/>
      <path id="Path_16759" data-name="Path 16759" d="M53.557,60.878a.752.752,0,0,0-.5-.388,4.406,4.406,0,0,0-2.936.285c-.45.221-.687.478-.7.713l.326-5.315.294-4.781,1.644,4.435Z" transform="translate(-11.115 -11.559)" fill="#ffdd9f"/>
      <path id="Path_16760" data-name="Path 16760" d="M51.779,55.828a4.8,4.8,0,0,0-1.938.345l.295-4.781Z" transform="translate(-11.209 -11.558)" fill="#58544b"/>
      <path id="Path_16761" data-name="Path 16761" d="M50.616,65.159l9.293,62.883a4.748,4.748,0,0,0,2.227-.252L52.844,64.906a4.753,4.753,0,0,1-2.228.253" transform="translate(-11.384 -14.598)" fill="#fec424"/>
      <path id="Path_16762" data-name="Path 16762" d="M53.489,64.64l9.293,62.883c.1-.039.206-.082.3-.129.5-.246.737-.536.7-.79L54.49,63.722c.037.253-.2.544-.7.789-.1.047-.2.09-.3.129" transform="translate(-12.03 -14.331)" fill="#fea424"/>
      <path id="Path_16763" data-name="Path 16763" d="M54.514,63.561l9.293,62.883c-.027-.183-.2-.346-.517-.457a2.37,2.37,0,0,0-.407-.1L53.591,63a2.235,2.235,0,0,1,.407.1c.319.112.489.274.516.457" transform="translate(-12.053 -14.17)" fill="#fea424"/>
      <path id="Path_16764" data-name="Path 16764" d="M67.456,98.139a4.759,4.759,0,0,1-1.393.187,7.114,7.114,0,0,1-3.227-.752,3.3,3.3,0,0,1-.466-.3,1.057,1.057,0,0,1-.522-.93L55.863,134.2a1.057,1.057,0,0,0,.522.93,3.371,3.371,0,0,0,.466.3,7.134,7.134,0,0,0,3.227.752A4.76,4.76,0,0,0,61.47,136c.559-.177.863-.452.912-.766l5.986-37.861c-.05.314-.353.589-.912.766" transform="translate(-12.562 -21.668)" fill="#942323"/>
      <path id="Path_16765" data-name="Path 16765" d="M70.017,96.716l-.488-.917c.191.36.022.7-.511.915-.047.019-.1.036-.15.053a3.465,3.465,0,0,1-.833.142,5.74,5.74,0,0,1-2.866-.594,2.324,2.324,0,0,1-.522-.374.773.773,0,0,1-.274-.553l-.793.815a.966.966,0,0,0,.343.691,2.905,2.905,0,0,0,.652.467,7.164,7.164,0,0,0,3.579.742,4.338,4.338,0,0,0,1.04-.177c.065-.021.128-.043.186-.066.666-.265.877-.694.638-1.143" transform="translate(-14.299 -21.453)" fill="#61211f"/>
      <path id="Path_16766" data-name="Path 16766" d="M73.228,66.59A5.236,5.236,0,0,1,71.7,66.8a7.806,7.806,0,0,1-3.539-.825,3.656,3.656,0,0,1-.512-.333,1.158,1.158,0,0,1-.572-1.019l-3.813,24.11a1.162,1.162,0,0,0,.573,1.02,3.716,3.716,0,0,0,.511.333,7.811,7.811,0,0,0,3.54.825,5.21,5.21,0,0,0,1.528-.2c.613-.194.946-.5,1-.84L74.228,65.75c-.054.345-.388.646-1,.84" transform="translate(-14.227 -14.533)" fill="#942323"/>
      <path id="Path_16767" data-name="Path 16767" d="M74.334,66.287a7.482,7.482,0,0,1-5.068-.62c-1.422-.777-1.459-1.758-.083-2.192a7.482,7.482,0,0,1,5.068.62c1.422.776,1.46,1.758.083,2.192" transform="translate(-15.333 -14.23)" fill="#a72828"/>
      <path id="Path_16768" data-name="Path 16768" d="M56.2,137.036l.018-7.012a1.456,1.456,0,0,0,.614-1Z" transform="translate(-12.639 -29.017)" fill="#ce8c24"/>
      <path id="Path_16769" data-name="Path 16769" d="M55.2,137.252l-3.431-7.27a1.259,1.259,0,0,0,.508.533,2.81,2.81,0,0,0,2.941-.275Z" transform="translate(-11.644 -29.234)" fill="#ce8c24"/>
      <path id="Path_16770" data-name="Path 16770" d="M53.548,115.351,44.335,65.04a1.332,1.332,0,0,0,.6-1.259l9.212,50.311a1.33,1.33,0,0,1-.6,1.259" transform="translate(-9.971 -14.345)" fill="#fec424"/>
      <path id="Path_16771" data-name="Path 16771" d="M49,115.07,39.784,64.759a1.162,1.162,0,0,0,.586.776,2.81,2.81,0,0,0,2.941-.275l9.213,50.311a2.81,2.81,0,0,1-2.941.275A1.162,1.162,0,0,1,49,115.07" transform="translate(-8.948 -14.565)" fill="#fea424"/>
      <path id="Path_16772" data-name="Path 16772" d="M43.307,64.728A2.811,2.811,0,0,1,40.365,65c-.808-.486-.8-1.4.015-2.035a2.811,2.811,0,0,1,2.942-.275c.808.486.8,1.4-.016,2.035" transform="translate(-8.943 -14.033)" fill="#ffdd9f"/>
      <path id="Path_16773" data-name="Path 16773" d="M42.718,64.414a.883.883,0,0,1-.925.087c-.254-.153-.252-.439,0-.64a.883.883,0,0,1,.925-.087c.254.153.252.439,0,.64" transform="translate(-9.357 -14.322)" fill="#58544b"/>
      <path id="Path_16774" data-name="Path 16774" d="M59.5,121.83,72.668,73.1a1.388,1.388,0,0,0,.56,1.384,2.746,2.746,0,0,0,2.914.412,1.16,1.16,0,0,0,.577-.7L63.557,122.927a1.163,1.163,0,0,1-.577.7,2.744,2.744,0,0,1-2.914-.412,1.388,1.388,0,0,1-.56-1.384" transform="translate(-13.375 -16.441)" fill="#fea424"/>
      <path id="Path_16775" data-name="Path 16775" d="M79.979,72.541c.8.688.792,1.62-.017,2.081a2.743,2.743,0,0,1-2.914-.412c-.8-.688-.793-1.62.017-2.081a2.745,2.745,0,0,1,2.914.412" transform="translate(-17.194 -16.165)" fill="#ffdd9f"/>
      <path id="Path_16776" data-name="Path 16776" d="M79.473,73.281c.334.288.331.676-.007.869a1.146,1.146,0,0,1-1.217-.172c-.333-.287-.33-.676.008-.869a1.145,1.145,0,0,1,1.216.172" transform="translate(-17.543 -16.419)" fill="#58544b"/>
      <path id="Path_16777" data-name="Path 16777" d="M53.155,146.947l-1.436-8.439a1.266,1.266,0,0,0,.568.794,3.048,3.048,0,0,0,2.962.179,1.227,1.227,0,0,0,.6-.659Z" transform="translate(-11.632 -31.151)" fill="#ffdd9f"/>
      <path id="Path_16778" data-name="Path 16778" d="M51.705,122.545l4.12-54.1a1.156,1.156,0,0,0,.578,1,3.046,3.046,0,0,0,2.962.178,1.12,1.12,0,0,0,.645-.861l-4.12,54.1a1.119,1.119,0,0,1-.645.86,3.046,3.046,0,0,1-2.962-.178,1.155,1.155,0,0,1-.578-1" transform="translate(-11.628 -15.395)" fill="#fea424"/>
      <path id="Path_16779" data-name="Path 16779" d="M60.627,67.429a1.013,1.013,0,0,1-.067,1.862,3.045,3.045,0,0,1-2.962-.178,1.013,1.013,0,0,1,.067-1.862,3.045,3.045,0,0,1,2.962.178" transform="translate(-12.824 -15.057)" fill="#ffdd9f"/>
      <path id="Path_16780" data-name="Path 16780" d="M60.044,68.217a.362.362,0,0,1-.024.665,1.088,1.088,0,0,1-1.057-.064.362.362,0,0,1,.023-.665,1.088,1.088,0,0,1,1.058.064" transform="translate(-13.214 -15.304)" fill="#58544b"/>
      <path id="Path_16781" data-name="Path 16781" d="M65.428,98.775c-4.744,2.738-12.459,2.725-17.232-.031-2.221-1.282-3.412-2.931-3.576-4.6l-1.28-.125c.118,1.9,1.435,3.789,3.959,5.247,5.271,3.043,13.791,3.059,19.029.034,2.3-1.325,3.579-3.014,3.855-4.75q-.684.162-1.36.36a6.723,6.723,0,0,1-3.4,3.87" transform="translate(-9.748 -21.144)" fill="#ddd6d6"/>
      <g id="Group_89775" data-name="Group 89775" transform="translate(0 142.301)" style="mix-blend-mode: multiply;isolation: isolate">
        <g id="Group_89774" data-name="Group 89774">
          <g id="Group_89773" data-name="Group 89773" clip-path="url(#clip-path-2)">
            <path id="Path_16782" data-name="Path 16782" d="M75.293,183.591l2.913,7.847-13.591-7.847L0,220.9l113.451,65.5h10.679l64.614-37.3Z" transform="translate(0 -183.591)" fill="#bdbbb3"/>
          </g>
        </g>
      </g>
      <g id="Group_89778" data-name="Group 89778" transform="translate(85.206 75.758)" style="mix-blend-mode: multiply;isolation: isolate">
        <g id="Group_89777" data-name="Group 89777">
          <g id="Group_89776" data-name="Group 89776" clip-path="url(#clip-path-3)">
            <path id="Path_16783" data-name="Path 16783" d="M109.93,145.879,176.6,97.74,280.457,157.7l-69.211,46.671-19.9-14.324-61.87-35.72-4.925-.01Z" transform="translate(-109.93 -97.74)" fill="#bdbbb3"/>
          </g>
        </g>
      </g>
      <path id="Path_16784" data-name="Path 16784" d="M237.267,279.183,214.485,266.03a10.658,10.658,0,0,1,0-18.459l23.454-13.541a3.081,3.081,0,0,0,0-5.336,5.06,5.06,0,0,1,0-8.765l94.469-54.543a15.091,15.091,0,0,0,.133-26.061l-6.433-3.8a29.629,29.629,0,0,0-29.851-.153l-20.824,12.022-.99-1.715,20.823-12.022a31.614,31.614,0,0,1,31.849.163l6.433,3.8A17.071,17.071,0,0,1,333.4,167.1l-94.469,54.542a3.081,3.081,0,0,0,0,5.336,5.06,5.06,0,0,1,0,8.765l-23.454,13.542a8.677,8.677,0,0,0,0,15.028l22.782,13.153Z" transform="translate(-47.04 -29.11)" fill="#888278"/>
      <path id="Path_16785" data-name="Path 16785" d="M211.051,221.179a28.063,28.063,0,0,1-14.036-3.749l-44.951-25.953a10.2,10.2,0,0,0-10.17,0l-1.649.953-.991-1.715,1.65-.953a12.186,12.186,0,0,1,12.15,0L198,215.715a26.166,26.166,0,0,0,26.093,0l78.519-45.333a11.271,11.271,0,0,0,.14-19.439l-8.231-4.911a17.4,17.4,0,0,0-17.6-.126l-12.689,7.325-.99-1.715,12.688-7.325a19.382,19.382,0,0,1,19.607.14l8.231,4.911a13.252,13.252,0,0,1-.164,22.855L225.088,217.43a28.066,28.066,0,0,1-14.037,3.749" transform="translate(-31.319 -31.846)" fill="#888278"/>
      <path id="Path_16786" data-name="Path 16786" d="M383.773,199.674l-.99-1.715,4.483-2.589a5.525,5.525,0,0,0,0-9.569l-10.978-6.339a10.746,10.746,0,0,1,0-18.612,10.631,10.631,0,0,0,.063-18.378l-28.191-16.53a29.606,29.606,0,0,0-30,.04l-28.094,16.574-1.006-1.706,28.094-16.574a31.589,31.589,0,0,1,32.01-.043l28.19,16.53a12.612,12.612,0,0,1-.074,21.8,8.766,8.766,0,0,0,0,15.183l10.978,6.338a7.505,7.505,0,0,1,0,13Z" transform="translate(-65.01 -26.966)" fill="#888278"/>
      <path id="Path_16787" data-name="Path 16787" d="M265.725,349.659l33.039-19.075.012-2.124-35.958-23.15-3.679.007L226.1,326.781l-.012,2.124,35.959,20.761Z" transform="translate(-50.848 -68.666)" fill="#aba090"/>
      <path id="Path_16788" data-name="Path 16788" d="M299.777,325.7l.016-3.041-37.077-23.8-5.267.009-35.357,22.8-.016,3.041,37.078,21.407,5.266-.01Z" transform="translate(-49.946 -67.216)" fill="#b4c0d8"/>
      <path id="Path_16789" data-name="Path 16789" d="M298.357,313.321l.016-3.041-31.615-18.253-5.267.009-33.585,19.391.908,2.509,31.615,18.253,4.342.522Z" transform="translate(-51.257 -65.678)" fill="#bbb3a5"/>
      <path id="Path_16790" data-name="Path 16790" d="M266.426,327.906l29.222-16.872.012-2.124-30.5-17.607-3.679.007-29.223,16.871-.012,2.124,30.5,17.607Z" transform="translate(-52.234 -65.515)" fill="#dddbd1"/>
      <path id="Path_16791" data-name="Path 16791" d="M272.65,320.727l11.995-6.925c1.794-1.036,1.569-2.845-.5-4.04l-10.875-6.279a7.781,7.781,0,0,0-7-.29l-11.995,6.925c-1.794,1.036-1.569,2.845.5,4.041l10.875,6.278a7.778,7.778,0,0,0,7,.29" transform="translate(-56.915 -68.032)" fill="#18181d"/>
      <path id="Path_16792" data-name="Path 16792" d="M284.142,311.725l-10.875-6.278a7.776,7.776,0,0,0-7-.29l-11.995,6.925a2.714,2.714,0,0,0-.9.8,1.879,1.879,0,0,1,.9-2.762l11.995-6.925a7.778,7.778,0,0,1,7,.29l10.875,6.278c1.606.927,2.1,2.223,1.407,3.241a3.9,3.9,0,0,0-1.407-1.277" transform="translate(-56.915 -68.032)" fill="#908b83"/>
      <path id="Path_16793" data-name="Path 16793" d="M281,310.158l3.871,3.526-8.378,4.6-9.614,2.321-12.248-6.8,3.963-3.648Z" transform="translate(-57.266 -69.756)" fill="#18181d"/>
      <path id="Path_16794" data-name="Path 16794" d="M273.1,315.837l8.581-4.954c1.283-.74,1.122-2.035-.36-2.89l-7.78-4.491a5.563,5.563,0,0,0-5.006-.208l-8.58,4.954c-1.284.741-1.122,2.035.359,2.891l7.78,4.491a5.563,5.563,0,0,0,5.006.208" transform="translate(-58.269 -68.1)" fill="#2a2a2f"/>
      <path id="Path_16795" data-name="Path 16795" d="M309.053,319.5l2.731,10.843-35.357,20.414-.96-11.866Z" transform="translate(-61.954 -71.857)" fill="#aba090"/>
      <path id="Path_16796" data-name="Path 16796" d="M310.149,336.921l1.914-3.432L276.707,353.9l.4,2.094Z" transform="translate(-62.233 -75.003)" fill="#aba090"/>
      <path id="Path_16797" data-name="Path 16797" d="M318.815,315.576l2.731,10.843-.016,3.041L318.8,318.617Z" transform="translate(-71.699 -70.974)" fill="#aba090"/>
      <path id="Path_16798" data-name="Path 16798" d="M227.5,320.293l31.615,18.253.035,12.4-37.078-21.407Z" transform="translate(-49.946 -72.035)" fill="#cbc9c0"/>
      <path id="Path_16799" data-name="Path 16799" d="M274.209,344.364l.96,11.866-5.266.009-.035-12.4Z" transform="translate(-60.694 -77.332)" fill="#d9d6cb"/>
      <path id="Path_16800" data-name="Path 16800" d="M259.153,353.626l1.99,2.092-35.958-20.761-3.11-2.738Z" transform="translate(-49.946 -74.718)" fill="#aba090"/>
      <path id="Path_16801" data-name="Path 16801" d="M226.595,317.056l-4.5,8.712-.016,3.041,5.428-9.244Z" transform="translate(-49.946 -71.307)" fill="#e2e1e8"/>
      <path id="Path_16802" data-name="Path 16802" d="M231.286,313.079l-3.379,3.083.908,2.509,2.459-3.468Z" transform="translate(-51.257 -70.413)" fill="#e2e1e8"/>
      <path id="Path_16803" data-name="Path 16803" d="M314.055,314.02l3.691,1.207-.017,3.041-3.686-2.124Z" transform="translate(-70.63 -70.624)" fill="#bbb3a5"/>
      <path id="Path_16804" data-name="Path 16804" d="M277.285,291.864,308.9,310.117l-3.69-1.206-30.5-17.607Z" transform="translate(-61.784 -65.516)" fill="#bbb3a5"/>
      <path id="Path_16805" data-name="Path 16805" d="M274.886,338.527l-.677,4.642-4.341-.522,1.34-4.113Z" transform="translate(-60.694 -76.136)" fill="#e2e1e8"/>
      <path id="Path_16806" data-name="Path 16806" d="M270.723,312.242l-.824-.476c-1.061-.612-.926-1.692.3-2.4L271,308.9a4.636,4.636,0,0,1,4.156-.172l.824.475c1.06.612.926,1.692-.3,2.4l-.806.465a4.636,4.636,0,0,1-4.155.172" transform="translate(-60.541 -69.342)" fill="#4f3c38"/>
      <path id="Path_16807" data-name="Path 16807" d="M276.7,304.369V282.187l-7.515.692v21.973Z" transform="translate(-60.541 -63.465)" fill="#4f3c38"/>
      <path id="Path_16808" data-name="Path 16808" d="M268.742,285.172l-.825-.476c-1.06-.612-.926-1.692.3-2.4l.805-.465a4.633,4.633,0,0,1,4.156-.172l.824.475c1.06.612.926,1.692-.3,2.4l-.8.465a4.638,4.638,0,0,1-4.156.172" transform="translate(-60.095 -63.253)" fill="#2a2a2f"/>
      <path id="Path_16809" data-name="Path 16809" d="M269.08,291.182a8.006,8.006,0,0,0,3.891-.974l4.437-2.562a3.193,3.193,0,0,0,1.852-2.6,2.47,2.47,0,0,0-1.4-2.118l-2.979-1.72a6.213,6.213,0,0,0-3.055-.712,8,8,0,0,0-3.891.974l-4.438,2.563a3.193,3.193,0,0,0-1.852,2.6,2.471,2.471,0,0,0,1.4,2.119l2.979,1.72A6.221,6.221,0,0,0,269.08,291.182Z" transform="translate(-58.846 -63.084)" fill="#3d3d42"/>
      <path id="Path_16810" data-name="Path 16810" d="M278.636,245.942s-1.878,11.99.626,31.258c.763,5.877-17.613,1.661-17.613,1.661a109.086,109.086,0,0,0,.615-31.519Z" transform="translate(-58.846 -55.313)" fill="#3d3d42"/>
      <path id="Path_16811" data-name="Path 16811" d="M266.51,249.459l-2.979-1.72c-1.616-.933-1.411-2.578.455-3.655l4.439-2.563a7.062,7.062,0,0,1,6.331-.262l2.979,1.72c1.616.933,1.411,2.578-.455,3.655l-4.439,2.562a7.062,7.062,0,0,1-6.331.263" transform="translate(-59.024 -54.118)" fill="#545458"/>
      <path id="Path_16812" data-name="Path 16812" d="M264.864,242.248c-.746.51-2.422,2.219-2.422,4.064s9.357,2.106,9.357,2.106,7.027-2.775,7.027-3.734-1.2-2.518-2.273-3.155-11.688.719-11.688.719" transform="translate(-59.024 -54.283)" fill="#545458"/>
      <path id="Path_16813" data-name="Path 16813" d="M267.925,245.925l-2.527-1.459c-1.371-.792-1.2-2.187.385-3.1l3.1-1.79a5.988,5.988,0,0,1,5.37-.223l2.528,1.46c1.37.791,1.2,2.187-.386,3.1l-3.1,1.79a5.992,5.992,0,0,1-5.371.222" transform="translate(-59.481 -53.711)" fill="#5e5e62"/>
      <path id="Path_16814" data-name="Path 16814" d="M300.674,314.484h0l0-.007a.367.367,0,0,1,.034-.107l.626-2.349,5.655.2.637,2.29h0a.433.433,0,0,1-.253.515l-2.445,1.412a1.754,1.754,0,0,1-1.579-.065l-2.293-1.324c-.278-.16-.408-.37-.382-.563" transform="translate(-67.622 -70.175)" fill="#d34245"/>
      <path id="Path_16815" data-name="Path 16815" d="M301.8,312.068l2,1.155a1.331,1.331,0,0,0,1.2.05l1.97-1.137c.308-.177.269-.488-.086-.692l-2-1.156a1.333,1.333,0,0,0-1.2-.05l-1.97,1.138c-.308.177-.269.488.086.692" transform="translate(-67.811 -69.747)" fill="#ff7373"/>
      <path id="Path_16816" data-name="Path 16816" d="M262.034,333.426l-1.34,4.113-31.615-18.253,2.459-3.468Z" transform="translate(-51.521 -71.029)" fill="#d9d6cb"/>
      <path id="Path_16817" data-name="Path 16817" d="M46.9,178.577l113.03,65.258L114.814,274.47,2.809,209.8Z" transform="translate(-0.632 -40.163)" fill="#cdcdc8"/>
      <path id="Path_16818" data-name="Path 16818" d="M1.051,222.183l112,64.665v3.744l-112-64.666Z" transform="translate(-0.236 -49.97)" fill="#c2c2bb"/>
      <path id="Path_16819" data-name="Path 16819" d="M1.051,221.437l112,64.665,1.363-2.572-112-64.665Z" transform="translate(-0.236 -49.224)" fill="#d5d5d0"/>
      <path id="Path_16820" data-name="Path 16820" d="M2.771,229.729l112,64.665-1.719-2.716-112-64.666Z" transform="translate(-0.237 -51.056)" fill="#b1b1a8"/>
      <path id="Path_16821" data-name="Path 16821" d="M30.369,208.744l97.374,56.219,25.75-18.218L56.12,190.527Z" transform="translate(-6.83 -42.85)" fill="#0d0007"/>
      <path id="Path_16822" data-name="Path 16822" d="M54.3,238.055l59.92,34.595,6.009-4.251L60.31,233.8Z" transform="translate(-12.213 -52.584)" fill="#0d0007"/>
      <path id="Path_16823" data-name="Path 16823" d="M57.3,194.722h0l0-.01a.57.57,0,0,1,.051-.162l.944-3.539,8.52.3.96,3.452h0a.653.653,0,0,1-.382.777l-3.686,2.128a2.643,2.643,0,0,1-2.379-.1l-3.454-1.994c-.419-.242-.614-.557-.576-.848" transform="translate(-12.886 -42.959)" fill="#d3ced3"/>
      <path id="Path_16824" data-name="Path 16824" d="M59.006,191.081l3.014,1.741a2.01,2.01,0,0,0,1.808.074l2.968-1.714c.464-.267.405-.734-.129-1.043l-3.015-1.74a2.006,2.006,0,0,0-1.807-.075l-2.968,1.714c-.464.267-.405.735.129,1.043" transform="translate(-13.171 -42.314)" fill="#eff1fe"/>
      <path id="Path_16825" data-name="Path 16825" d="M65.652,199.543h0l0-.01a.57.57,0,0,1,.051-.162l.944-3.539,8.52.3.96,3.451h0a.654.654,0,0,1-.382.777l-3.686,2.128a2.641,2.641,0,0,1-2.379-.1l-3.454-1.994c-.419-.242-.614-.557-.576-.848" transform="translate(-14.764 -44.043)" fill="#d3ced3"/>
      <path id="Path_16826" data-name="Path 16826" d="M67.357,195.9l3.015,1.741a2.009,2.009,0,0,0,1.807.074L75.146,196c.464-.267.405-.734-.129-1.043L72,193.221a2.006,2.006,0,0,0-1.807-.075l-2.968,1.714c-.464.267-.405.735.129,1.043" transform="translate(-15.049 -43.399)" fill="#eff1fe"/>
      <path id="Path_16827" data-name="Path 16827" d="M74,204.364h0l0-.01a.571.571,0,0,1,.051-.162L75,200.652l8.52.3.96,3.452h0a.653.653,0,0,1-.382.777l-3.686,2.128a2.641,2.641,0,0,1-2.378-.1l-3.455-1.994c-.419-.242-.614-.557-.576-.848" transform="translate(-16.642 -45.127)" fill="#d3ced3"/>
      <path id="Path_16828" data-name="Path 16828" d="M75.707,200.724l3.014,1.741a2.009,2.009,0,0,0,1.807.074l2.968-1.714c.464-.267.406-.734-.129-1.043l-3.015-1.74a2.006,2.006,0,0,0-1.807-.075l-2.968,1.714c-.464.267-.4.735.13,1.043" transform="translate(-16.927 -44.483)" fill="#eff1fe"/>
      <path id="Path_16829" data-name="Path 16829" d="M82.354,209.186h0l0-.01a.57.57,0,0,1,.051-.162l.944-3.539,8.52.3.96,3.452h0a.653.653,0,0,1-.382.777l-3.686,2.128a2.643,2.643,0,0,1-2.379-.1l-3.454-1.994c-.419-.242-.614-.557-.576-.848" transform="translate(-18.521 -46.212)" fill="#d3ced3"/>
      <path id="Path_16830" data-name="Path 16830" d="M84.058,205.545l3.014,1.741a2.01,2.01,0,0,0,1.808.074l2.968-1.714c.464-.267.405-.734-.129-1.043l-3.015-1.74a2.006,2.006,0,0,0-1.807-.075L83.928,204.5c-.464.267-.405.735.129,1.043" transform="translate(-18.805 -45.567)" fill="#eff1fe"/>
      <path id="Path_16831" data-name="Path 16831" d="M90.7,214.007h0l0-.01a.563.563,0,0,1,.051-.162l.944-3.539,8.52.3.96,3.452h0a.654.654,0,0,1-.382.777l-3.686,2.128a2.639,2.639,0,0,1-2.378-.1l-3.455-1.994c-.419-.242-.614-.557-.576-.848" transform="translate(-20.399 -47.296)" fill="#d3ced3"/>
      <path id="Path_16832" data-name="Path 16832" d="M92.409,210.366l3.014,1.741a2.009,2.009,0,0,0,1.807.074l2.969-1.714c.464-.267.405-.734-.129-1.043l-3.015-1.74a2.006,2.006,0,0,0-1.807-.075l-2.968,1.714c-.464.267-.405.735.129,1.043" transform="translate(-20.684 -46.651)" fill="#eff1fe"/>
      <path id="Path_16833" data-name="Path 16833" d="M99.055,218.828h0l0-.01a.57.57,0,0,1,.051-.162l.944-3.539,8.52.3.96,3.452h0a.653.653,0,0,1-.382.777l-3.686,2.128a2.643,2.643,0,0,1-2.379-.1l-3.454-1.994c-.419-.242-.614-.557-.576-.848" transform="translate(-22.277 -48.38)" fill="#d3ced3"/>
      <path id="Path_16834" data-name="Path 16834" d="M100.76,215.188l3.014,1.741a2.01,2.01,0,0,0,1.808.074l2.968-1.714c.464-.267.405-.734-.129-1.043l-3.015-1.74a2.009,2.009,0,0,0-1.807-.075l-2.968,1.714c-.464.267-.405.735.129,1.043" transform="translate(-22.562 -47.736)" fill="#eff1fe"/>
      <path id="Path_16835" data-name="Path 16835" d="M107.406,223.65h0l0-.01a.563.563,0,0,1,.051-.162l.944-3.539,8.52.3.96,3.452h0a.653.653,0,0,1-.382.777l-3.686,2.128a2.643,2.643,0,0,1-2.379-.1l-3.454-1.994c-.419-.242-.614-.557-.576-.848" transform="translate(-24.155 -49.465)" fill="#d3ced3"/>
      <path id="Path_16836" data-name="Path 16836" d="M109.11,220.009l3.015,1.741a2.009,2.009,0,0,0,1.807.074l2.968-1.714c.464-.267.405-.734-.129-1.043l-3.015-1.74a2.006,2.006,0,0,0-1.807-.075l-2.968,1.714c-.464.267-.405.735.129,1.043" transform="translate(-24.44 -48.82)" fill="#eff1fe"/>
      <path id="Path_16837" data-name="Path 16837" d="M115.756,228.471h0l0-.01a.57.57,0,0,1,.051-.162l.944-3.539,8.52.3.96,3.452h0a.654.654,0,0,1-.382.777l-3.686,2.128a2.641,2.641,0,0,1-2.378-.1l-3.455-1.994c-.419-.242-.614-.557-.576-.848" transform="translate(-26.033 -50.549)" fill="#d3ced3"/>
      <path id="Path_16838" data-name="Path 16838" d="M117.461,224.83l3.015,1.741a2.009,2.009,0,0,0,1.807.074l2.968-1.714c.464-.267.405-.734-.129-1.043l-3.015-1.74a2.006,2.006,0,0,0-1.807-.075l-2.968,1.714c-.464.267-.405.735.129,1.043" transform="translate(-26.318 -49.904)" fill="#eff1fe"/>
      <path id="Path_16839" data-name="Path 16839" d="M124.107,233.292h0l0-.01a.57.57,0,0,1,.051-.162l.944-3.539,8.52.3.96,3.451h0a.653.653,0,0,1-.382.777l-3.686,2.128a2.643,2.643,0,0,1-2.379-.1l-3.454-1.994c-.419-.242-.614-.557-.576-.848" transform="translate(-27.911 -51.634)" fill="#d3ced3"/>
      <path id="Path_16840" data-name="Path 16840" d="M125.812,229.651l3.014,1.741a2.01,2.01,0,0,0,1.808.074l2.968-1.714c.464-.267.405-.734-.129-1.043l-3.015-1.74a2.006,2.006,0,0,0-1.807-.075l-2.968,1.714c-.464.267-.405.735.129,1.043" transform="translate(-28.196 -50.989)" fill="#eff1fe"/>
      <path id="Path_16841" data-name="Path 16841" d="M132.458,238.113h0l0-.01a.571.571,0,0,1,.051-.162l.944-3.539,8.52.3.96,3.452h0a.653.653,0,0,1-.382.777l-3.686,2.128a2.643,2.643,0,0,1-2.379-.1l-3.454-1.994c-.419-.242-.614-.557-.576-.848" transform="translate(-29.789 -52.718)" fill="#d3ced3"/>
      <path id="Path_16842" data-name="Path 16842" d="M134.162,234.473l3.014,1.741a2.01,2.01,0,0,0,1.808.074l2.968-1.714c.464-.267.405-.734-.129-1.043l-3.015-1.74a2.006,2.006,0,0,0-1.807-.075l-2.968,1.714c-.464.267-.405.735.129,1.043" transform="translate(-30.074 -52.073)" fill="#eff1fe"/>
      <path id="Path_16843" data-name="Path 16843" d="M140.808,242.935h0l0-.01a.563.563,0,0,1,.051-.162l.944-3.539,8.52.3.96,3.452h0a.654.654,0,0,1-.382.777l-3.686,2.128a2.641,2.641,0,0,1-2.378-.1l-3.455-1.994c-.419-.242-.614-.557-.576-.848" transform="translate(-31.667 -53.802)" fill="#d3ced3"/>
      <path id="Path_16844" data-name="Path 16844" d="M142.513,239.294l3.014,1.741a2.009,2.009,0,0,0,1.807.074L150.3,239.4c.464-.267.405-.734-.129-1.043l-3.015-1.74a2.006,2.006,0,0,0-1.807-.075l-2.968,1.714c-.463.267-.405.735.129,1.043" transform="translate(-31.952 -53.157)" fill="#eff1fe"/>
      <path id="Path_16845" data-name="Path 16845" d="M149.159,247.756h0l0-.01a.571.571,0,0,1,.051-.162l.944-3.539,8.52.3.96,3.452h0a.653.653,0,0,1-.382.777l-3.686,2.128a2.643,2.643,0,0,1-2.379-.1l-3.454-1.994c-.419-.242-.614-.557-.576-.848" transform="translate(-33.545 -54.887)" fill="#d3ced3"/>
      <path id="Path_16846" data-name="Path 16846" d="M150.864,244.115l3.015,1.741a2.009,2.009,0,0,0,1.807.074l2.968-1.714c.464-.267.405-.734-.129-1.043l-3.015-1.74a2.009,2.009,0,0,0-1.807-.075l-2.968,1.714c-.464.267-.405.735.129,1.043" transform="translate(-33.83 -54.242)" fill="#eff1fe"/>
      <path id="Path_16847" data-name="Path 16847" d="M157.51,252.577h0l0-.01a.562.562,0,0,1,.051-.162l.944-3.539,8.52.3.96,3.451h0a.653.653,0,0,1-.382.777l-3.686,2.128a2.643,2.643,0,0,1-2.379-.1l-3.454-1.994c-.419-.242-.614-.557-.576-.848" transform="translate(-35.424 -55.971)" fill="#d3ced3"/>
      <path id="Path_16848" data-name="Path 16848" d="M159.214,248.936l3.014,1.741a2.01,2.01,0,0,0,1.808.074L167,249.037c.464-.267.405-.734-.129-1.043l-3.015-1.74a2.006,2.006,0,0,0-1.807-.075l-2.968,1.714c-.464.267-.405.735.129,1.043" transform="translate(-35.708 -55.326)" fill="#eff1fe"/>
      <path id="Path_16849" data-name="Path 16849" d="M165.86,257.4h0l0-.01a.57.57,0,0,1,.051-.162l.944-3.539,8.52.3.96,3.452h0a.654.654,0,0,1-.382.777l-3.686,2.128a2.641,2.641,0,0,1-2.378-.1l-3.455-1.994c-.419-.242-.614-.557-.576-.848" transform="translate(-37.301 -57.055)" fill="#d3ced3"/>
      <path id="Path_16850" data-name="Path 16850" d="M167.565,253.758l3.015,1.741a2.009,2.009,0,0,0,1.807.074l2.968-1.714c.464-.267.405-.734-.129-1.043l-3.015-1.74A2.006,2.006,0,0,0,170.4,251l-2.968,1.714c-.464.267-.405.735.129,1.043" transform="translate(-37.586 -56.41)" fill="#eff1fe"/>
      <path id="Path_16851" data-name="Path 16851" d="M174.211,262.22h0l0-.01a.57.57,0,0,1,.051-.162l.944-3.539,8.52.3.96,3.452h0a.653.653,0,0,1-.382.777l-3.686,2.128a2.643,2.643,0,0,1-2.379-.1l-3.454-1.994c-.419-.242-.614-.557-.576-.848" transform="translate(-39.18 -58.14)" fill="#d3ced3"/>
      <path id="Path_16852" data-name="Path 16852" d="M175.916,258.579l3.014,1.741a2.01,2.01,0,0,0,1.808.074l2.968-1.714c.464-.267.405-.734-.129-1.043l-3.015-1.74a2.007,2.007,0,0,0-1.807-.075l-2.968,1.714c-.464.267-.405.735.129,1.043" transform="translate(-39.465 -57.495)" fill="#eff1fe"/>
      <path id="Path_16853" data-name="Path 16853" d="M48.782,200.691h0l1.115-2.942,2.7.558.24-.138a2.645,2.645,0,0,1,2.379.1l1.563.9,5.6,1.156,1.1,2.962h0a.647.647,0,0,1-.369.81l-3.686,2.128a2.645,2.645,0,0,1-2.379-.1l-7.723-4.459c-.483-.279-.67-.656-.543-.979" transform="translate(-10.963 -44.475)" fill="#d3ced3"/>
      <path id="Path_16854" data-name="Path 16854" d="M50.649,197.268l6.983,4.032a1.341,1.341,0,0,0,1.807.629l2.969-1.714c.464-.267.405-.735-.129-1.043l-6.984-4.032a2.009,2.009,0,0,0-1.807-.074l-2.968,1.714c-.464.267-.405.734.129.489" transform="translate(-11.292 -43.83)" fill="#eff1fe"/>
      <path id="Path_16855" data-name="Path 16855" d="M62.868,208.949h0l0-.01a.571.571,0,0,1,.051-.162l.944-2.986,8.52.3.96,2.9h0a.653.653,0,0,1-.382.777l-3.686,2.128a2.641,2.641,0,0,1-2.378-.1L63.444,209.8c-.419-.242-.614-.557-.576-.848" transform="translate(-14.138 -46.283)" fill="#d3ced3"/>
      <path id="Path_16856" data-name="Path 16856" d="M64.573,205.147l3.015,1.741a2.009,2.009,0,0,0,1.807.074l2.968-1.714c.464-.267.405-.734-.129-1.043l-3.015-1.74a2.006,2.006,0,0,0-1.807-.075L64.443,204.1c-.464.267-.405.735.129,1.043" transform="translate(-14.423 -45.478)" fill="#eff1fe"/>
      <path id="Path_16857" data-name="Path 16857" d="M71.219,213.609h0l0-.01a.57.57,0,0,1,.051-.162l.944-3.539,8.52.3.96,3.452h0a.653.653,0,0,1-.382.777l-3.686,2.128a2.643,2.643,0,0,1-2.379-.1l-3.454-1.994c-.419-.242-.614-.557-.576-.848" transform="translate(-16.016 -47.207)" fill="#d3ced3"/>
      <path id="Path_16858" data-name="Path 16858" d="M72.924,209.968l3.014,1.741a2.01,2.01,0,0,0,1.808.074l2.968-1.714c.464-.267.405-.734-.129-1.043l-3.015-1.74a2.006,2.006,0,0,0-1.807-.075l-2.968,1.714c-.464.267-.405.735.129,1.043" transform="translate(-16.301 -46.562)" fill="#eff1fe"/>
      <path id="Path_16859" data-name="Path 16859" d="M79.57,218.43h0l0-.01a.57.57,0,0,1,.051-.162l.944-3.539,8.52.3.96,3.452h0a.654.654,0,0,1-.382.777l-3.686,2.128a2.643,2.643,0,0,1-2.379-.1l-3.454-1.994c-.419-.242-.614-.557-.576-.848" transform="translate(-17.894 -48.291)" fill="#d3ced3"/>
      <path id="Path_16860" data-name="Path 16860" d="M81.274,214.79l3.015,1.741a2.009,2.009,0,0,0,1.807.074l2.968-1.714c.464-.267.405-.734-.129-1.043l-3.015-1.74a2.006,2.006,0,0,0-1.807-.075l-2.968,1.714c-.464.267-.405.735.129,1.043" transform="translate(-18.179 -47.646)" fill="#eff1fe"/>
      <path id="Path_16861" data-name="Path 16861" d="M87.92,223.252h0l0-.01a.57.57,0,0,1,.051-.162l.944-3.539,8.52.3.96,3.452h0a.653.653,0,0,1-.382.777l-3.686,2.128a2.641,2.641,0,0,1-2.378-.1L88.5,224.1c-.419-.242-.614-.557-.576-.848" transform="translate(-19.772 -49.375)" fill="#d3ced3"/>
      <path id="Path_16862" data-name="Path 16862" d="M89.625,219.611l3.015,1.741a2.009,2.009,0,0,0,1.807.074l2.968-1.714c.464-.267.405-.734-.129-1.043l-3.015-1.74a2.006,2.006,0,0,0-1.807-.075L89.5,218.567c-.464.267-.405.735.129,1.043" transform="translate(-20.057 -48.731)" fill="#eff1fe"/>
      <path id="Path_16863" data-name="Path 16863" d="M96.271,228.073h0l0-.01a.57.57,0,0,1,.051-.162l.944-3.539,8.52.3.96,3.451h0a.653.653,0,0,1-.382.777l-3.686,2.128a2.643,2.643,0,0,1-2.379-.1l-3.454-1.994c-.419-.242-.614-.557-.576-.848" transform="translate(-21.651 -50.46)" fill="#d3ced3"/>
      <path id="Path_16864" data-name="Path 16864" d="M97.976,224.432l3.014,1.741a2.009,2.009,0,0,0,1.807.074l2.969-1.714c.464-.267.405-.734-.129-1.043l-3.015-1.74a2.006,2.006,0,0,0-1.807-.075l-2.968,1.714c-.464.267-.405.735.129,1.043" transform="translate(-21.936 -49.815)" fill="#eff1fe"/>
      <path id="Path_16865" data-name="Path 16865" d="M104.622,232.894h0l0-.01a.57.57,0,0,1,.051-.162l.944-3.539,8.52.3.96,3.452h0a.653.653,0,0,1-.382.777l-3.686,2.128a2.643,2.643,0,0,1-2.379-.1l-3.454-1.994c-.419-.242-.614-.557-.576-.848" transform="translate(-23.529 -51.544)" fill="#d3ced3"/>
      <path id="Path_16866" data-name="Path 16866" d="M106.326,229.253l3.015,1.741a2.009,2.009,0,0,0,1.807.074l2.968-1.714c.464-.267.405-.734-.129-1.043l-3.015-1.74a2.006,2.006,0,0,0-1.807-.075l-2.968,1.714c-.464.267-.405.735.129,1.043" transform="translate(-23.814 -50.899)" fill="#eff1fe"/>
      <path id="Path_16867" data-name="Path 16867" d="M112.972,237.715h0l0-.01a.57.57,0,0,1,.051-.162l.944-3.539,8.52.3.96,3.451h0a.654.654,0,0,1-.382.777l-3.686,2.128a2.643,2.643,0,0,1-2.379-.1l-3.454-1.994c-.419-.242-.614-.557-.576-.848" transform="translate(-25.407 -52.628)" fill="#d3ced3"/>
      <path id="Path_16868" data-name="Path 16868" d="M114.677,234.075l3.014,1.741a2.01,2.01,0,0,0,1.808.074l2.968-1.714c.464-.267.405-.734-.129-1.043l-3.015-1.74a2.006,2.006,0,0,0-1.807-.075l-2.968,1.714c-.464.267-.405.735.129,1.043" transform="translate(-25.692 -51.984)" fill="#eff1fe"/>
      <path id="Path_16869" data-name="Path 16869" d="M121.323,242.536h0l0-.01a.57.57,0,0,1,.051-.162l.944-3.539,8.52.3.96,3.452h0a.653.653,0,0,1-.382.777l-3.686,2.128a2.641,2.641,0,0,1-2.378-.1l-3.455-1.994c-.419-.242-.614-.557-.576-.848" transform="translate(-27.285 -53.713)" fill="#d3ced3"/>
      <path id="Path_16870" data-name="Path 16870" d="M123.028,238.9l3.014,1.741a2.009,2.009,0,0,0,1.807.074L130.817,239c.464-.267.405-.734-.129-1.043l-3.015-1.74a2.006,2.006,0,0,0-1.807-.075l-2.968,1.714c-.464.267-.405.735.129,1.043" transform="translate(-27.57 -53.068)" fill="#eff1fe"/>
      <path id="Path_16871" data-name="Path 16871" d="M129.674,247.358h0l0-.01a.57.57,0,0,1,.051-.162l.944-3.539,8.52.3.96,3.451h0a.653.653,0,0,1-.382.777l-3.686,2.128a2.643,2.643,0,0,1-2.379-.1l-3.454-1.994c-.419-.242-.614-.557-.576-.848" transform="translate(-29.163 -54.797)" fill="#d3ced3"/>
      <path id="Path_16872" data-name="Path 16872" d="M131.378,243.717l3.015,1.741a2.009,2.009,0,0,0,1.807.074l2.968-1.714c.464-.267.405-.734-.129-1.043l-3.015-1.74a2.006,2.006,0,0,0-1.807-.075l-2.968,1.714c-.464.267-.405.735.129,1.043" transform="translate(-29.448 -54.152)" fill="#eff1fe"/>
      <path id="Path_16873" data-name="Path 16873" d="M138.024,252.179h0l0-.01a.57.57,0,0,1,.051-.162l.944-3.539,8.52.3.96,3.452h0a.653.653,0,0,1-.382.777l-3.686,2.128a2.643,2.643,0,0,1-2.379-.1l-3.454-1.994c-.419-.242-.614-.557-.576-.848" transform="translate(-31.041 -55.881)" fill="#d3ced3"/>
      <path id="Path_16874" data-name="Path 16874" d="M139.729,248.538l3.014,1.741a2.01,2.01,0,0,0,1.808.074l2.968-1.714c.464-.267.405-.734-.129-1.043l-3.015-1.74a2.006,2.006,0,0,0-1.807-.075l-2.968,1.714c-.464.267-.405.735.129,1.043" transform="translate(-31.326 -55.236)" fill="#eff1fe"/>
      <path id="Path_16875" data-name="Path 16875" d="M146.375,257h0l0-.01a.57.57,0,0,1,.051-.162l.944-3.539,8.52.3.96,3.451h0a.654.654,0,0,1-.382.777l-3.686,2.128a2.641,2.641,0,0,1-2.378-.1l-3.455-1.994c-.419-.242-.614-.557-.576-.848" transform="translate(-32.919 -56.966)" fill="#d3ced3"/>
      <path id="Path_16876" data-name="Path 16876" d="M148.08,253.359l3.015,1.741a2.009,2.009,0,0,0,1.807.074l2.968-1.714c.464-.267.405-.734-.129-1.043l-3.015-1.74a2.006,2.006,0,0,0-1.807-.075l-2.968,1.714c-.464.267-.405.735.129,1.043" transform="translate(-33.204 -56.321)" fill="#eff1fe"/>
      <path id="Path_16877" data-name="Path 16877" d="M154.726,261.821h0l0-.01a.57.57,0,0,1,.051-.162l.944-3.539,8.52.3.96,3.452h0a.653.653,0,0,1-.382.777l-3.686,2.128a2.643,2.643,0,0,1-2.379-.1l-3.454-1.994c-.419-.242-.614-.557-.576-.848" transform="translate(-34.797 -58.05)" fill="#d3ced3"/>
      <path id="Path_16878" data-name="Path 16878" d="M156.43,258.181l3.015,1.741a2.008,2.008,0,0,0,1.807.074l2.968-1.714c.464-.267.405-.734-.129-1.043l-3.015-1.74a2.006,2.006,0,0,0-1.807-.075l-2.968,1.714c-.464.267-.405.735.129,1.043" transform="translate(-35.082 -57.405)" fill="#eff1fe"/>
      <path id="Path_16879" data-name="Path 16879" d="M163.483,266.752h0l1.118-3.5,3.123.341c.623.3,1.558.37,2.2.739l.116-.487,4.485.49,1.033,3.4a.688.688,0,0,1,.11.3l0,0h0a.686.686,0,0,1-.408.647l-3.686,2.128a2.643,2.643,0,0,1-2.379-.1l-5.166-2.983c-.483-.279-.67-.656-.544-.978" transform="translate(-36.759 -59.206)" fill="#d3ced3"/>
      <path id="Path_16880" data-name="Path 16880" d="M165.35,263.331l4.427,2.556a2.006,2.006,0,0,0,1.807.075l2.969-1.714c.463-.267.4-.735-.13-1.043l-4.427-2.555a2.006,2.006,0,0,0-1.807-.075l-2.968,1.714c-.464.267-.405.735.129,1.043" transform="translate(-37.088 -58.563)" fill="#eff1fe"/>
      <path id="Path_16881" data-name="Path 16881" d="M40.509,206.448h0l.011-.029.007-.02,1.077-3.458,2.526.652.452.292a2.643,2.643,0,0,1,2.379.1l2.8,1.063,6.608,1.706,1.071,3.553h0a.652.652,0,0,1-.379.782l-3.686,2.128a2.645,2.645,0,0,1-2.379-.1l-9.927-5.731c-.463-.267-.653-.625-.556-.939" transform="translate(-9.105 -45.642)" fill="#d3ced3"/>
      <path id="Path_16882" data-name="Path 16882" d="M42.242,202.892l9.457,5.461a1.852,1.852,0,0,0,1.672,0l2.969-1.714a.509.509,0,0,0,.005-.965l-9.458-5.46a1.847,1.847,0,0,0-1.672,0l-2.968,1.714a.509.509,0,0,0-.005.965" transform="translate(-9.423 -44.984)" fill="#eff1fe"/>
      <path id="Path_16883" data-name="Path 16883" d="M57.191,216.148h0l0-.01a.571.571,0,0,1,.051-.162l.944-3.539,8.52.3.96,3.452h0a.654.654,0,0,1-.382.777L63.6,219.089a2.641,2.641,0,0,1-2.378-.1L57.767,217c-.419-.242-.614-.557-.576-.848" transform="translate(-12.861 -47.778)" fill="#d3ced3"/>
      <path id="Path_16884" data-name="Path 16884" d="M58.9,212.507l3.015,1.741a2.009,2.009,0,0,0,1.807.074l2.968-1.714c.464-.267.405-.734-.129-1.043l-3.015-1.74a2.006,2.006,0,0,0-1.807-.075l-2.968,1.714c-.464.267-.405.735.129,1.043" transform="translate(-13.146 -47.133)" fill="#eff1fe"/>
      <path id="Path_16885" data-name="Path 16885" d="M65.542,220.969h0l0-.01a.571.571,0,0,1,.051-.162l.944-3.539,8.52.3.96,3.451h0a.653.653,0,0,1-.382.777L71.95,223.91a2.643,2.643,0,0,1-2.379-.1l-3.454-1.994c-.419-.242-.614-.557-.576-.848" transform="translate(-14.74 -48.862)" fill="#d3ced3"/>
      <path id="Path_16886" data-name="Path 16886" d="M67.247,217.328l3.014,1.741a2.01,2.01,0,0,0,1.808.074l2.968-1.714c.464-.267.405-.734-.129-1.043l-3.015-1.74a2.006,2.006,0,0,0-1.807-.075l-2.968,1.714c-.464.267-.405.735.129,1.043" transform="translate(-15.025 -48.217)" fill="#eff1fe"/>
      <path id="Path_16887" data-name="Path 16887" d="M73.893,225.79h0l0-.01a.57.57,0,0,1,.051-.162l.944-3.539,8.52.3.96,3.452h0a.653.653,0,0,1-.382.777L80.3,228.731a2.642,2.642,0,0,1-2.378-.1l-3.455-1.994c-.419-.242-.614-.557-.576-.848" transform="translate(-16.618 -49.946)" fill="#d3ced3"/>
      <path id="Path_16888" data-name="Path 16888" d="M75.6,222.15l3.015,1.741a2.009,2.009,0,0,0,1.807.074l2.968-1.714c.464-.267.405-.734-.129-1.043l-3.015-1.74a2.006,2.006,0,0,0-1.807-.075l-2.968,1.714c-.464.267-.405.735.129,1.043" transform="translate(-16.903 -49.302)" fill="#eff1fe"/>
      <path id="Path_16889" data-name="Path 16889" d="M82.243,230.612h0l0-.01a.563.563,0,0,1,.051-.162l.944-3.539,8.52.3.96,3.451h0a.653.653,0,0,1-.382.777l-3.686,2.128a2.643,2.643,0,0,1-2.379-.1l-3.454-1.994c-.419-.242-.614-.557-.576-.848" transform="translate(-18.496 -51.031)" fill="#d3ced3"/>
      <path id="Path_16890" data-name="Path 16890" d="M83.948,226.971l3.015,1.741a2.009,2.009,0,0,0,1.807.074l2.968-1.714c.464-.267.405-.734-.129-1.043l-3.015-1.74a2.006,2.006,0,0,0-1.807-.075l-2.968,1.714c-.464.267-.405.735.129,1.043" transform="translate(-18.781 -50.386)" fill="#eff1fe"/>
      <path id="Path_16891" data-name="Path 16891" d="M90.594,235.433h0l0-.01a.57.57,0,0,1,.051-.162l.944-3.539,8.52.3.96,3.452h0a.653.653,0,0,1-.382.777L97,238.374a2.643,2.643,0,0,1-2.379-.1l-3.454-1.994c-.419-.242-.614-.557-.576-.848" transform="translate(-20.374 -52.115)" fill="#d3ced3"/>
      <path id="Path_16892" data-name="Path 16892" d="M92.3,231.792l3.014,1.741a2.01,2.01,0,0,0,1.808.074l2.968-1.714c.464-.267.405-.734-.129-1.043l-3.015-1.74a2.009,2.009,0,0,0-1.807-.075l-2.968,1.714c-.464.267-.405.735.129,1.043" transform="translate(-20.659 -51.47)" fill="#eff1fe"/>
      <path id="Path_16893" data-name="Path 16893" d="M98.945,240.254h0l0-.01a.57.57,0,0,1,.051-.162l.944-3.539,8.52.3.96,3.451h0a.653.653,0,0,1-.382.777l-3.686,2.128a2.642,2.642,0,0,1-2.378-.1L99.521,241.1c-.419-.242-.614-.557-.576-.848" transform="translate(-22.252 -53.199)" fill="#d3ced3"/>
      <path id="Path_16894" data-name="Path 16894" d="M100.649,236.613l3.015,1.741a2.009,2.009,0,0,0,1.807.074l2.968-1.714c.464-.267.405-.734-.129-1.043l-3.015-1.74a2.006,2.006,0,0,0-1.807-.075l-2.968,1.714c-.464.267-.405.735.129,1.043" transform="translate(-22.537 -52.554)" fill="#eff1fe"/>
      <path id="Path_16895" data-name="Path 16895" d="M107.3,245.075h0l0-.01a.545.545,0,0,1,.05-.162l.944-3.539,8.521.3.96,3.452h0a.655.655,0,0,1-.383.777l-3.686,2.128a2.643,2.643,0,0,1-2.379-.1l-3.454-1.994c-.419-.242-.614-.557-.575-.848" transform="translate(-24.13 -54.284)" fill="#d3ced3"/>
      <path id="Path_16896" data-name="Path 16896" d="M109,241.435l3.014,1.741a2.01,2.01,0,0,0,1.808.074l2.968-1.714c.464-.267.405-.734-.129-1.043l-3.015-1.74a2.006,2.006,0,0,0-1.807-.075l-2.968,1.714c-.464.267-.405.735.129,1.043" transform="translate(-24.415 -53.639)" fill="#eff1fe"/>
      <path id="Path_16897" data-name="Path 16897" d="M115.646,249.9h0l0-.01a.57.57,0,0,1,.051-.162l.944-3.539,8.52.3.96,3.452h0a.653.653,0,0,1-.382.777l-3.686,2.128a2.643,2.643,0,0,1-2.379-.1l-3.454-1.994c-.419-.242-.614-.557-.576-.848" transform="translate(-26.008 -55.368)" fill="#d3ced3"/>
      <path id="Path_16898" data-name="Path 16898" d="M117.351,246.256,120.366,248a2.009,2.009,0,0,0,1.807.074l2.968-1.714c.464-.267.405-.734-.129-1.043L122,243.574a2.006,2.006,0,0,0-1.807-.075l-2.968,1.714c-.464.267-.405.735.129,1.043" transform="translate(-26.293 -54.723)" fill="#eff1fe"/>
      <path id="Path_16899" data-name="Path 16899" d="M124,254.718h0l0-.01a.57.57,0,0,1,.051-.162l.944-3.539,8.52.3.96,3.451h0a.653.653,0,0,1-.382.777l-3.686,2.128a2.643,2.643,0,0,1-2.379-.1l-3.454-1.994c-.419-.242-.614-.557-.576-.848" transform="translate(-27.886 -56.452)" fill="#d3ced3"/>
      <path id="Path_16900" data-name="Path 16900" d="M125.7,251.077l3.015,1.741a2.009,2.009,0,0,0,1.807.074l2.968-1.714c.464-.267.405-.734-.129-1.043l-3.015-1.74a2.006,2.006,0,0,0-1.807-.075l-2.968,1.714c-.464.267-.405.735.129,1.043" transform="translate(-28.171 -55.808)" fill="#eff1fe"/>
      <path id="Path_16901" data-name="Path 16901" d="M132.347,259.539h0l0-.01a.562.562,0,0,1,.051-.162l.944-3.539,8.52.3.96,3.452h0a.653.653,0,0,1-.382.777l-3.686,2.128a2.642,2.642,0,0,1-2.378-.1l-3.455-1.994c-.419-.242-.614-.557-.576-.848" transform="translate(-29.764 -57.537)" fill="#d3ced3"/>
      <path id="Path_16902" data-name="Path 16902" d="M134.052,255.9l3.015,1.741a2.008,2.008,0,0,0,1.807.074L141.841,256c.464-.267.405-.734-.129-1.043l-3.015-1.74a2.006,2.006,0,0,0-1.807-.075l-2.968,1.714c-.464.267-.405.735.129,1.043" transform="translate(-30.049 -56.892)" fill="#eff1fe"/>
      <path id="Path_16903" data-name="Path 16903" d="M140.7,264.36h0l0-.01a.57.57,0,0,1,.051-.162l.944-3.539,8.52.3.96,3.452h0a.653.653,0,0,1-.382.777l-3.686,2.128a2.643,2.643,0,0,1-2.379-.1l-3.454-1.994c-.419-.242-.614-.557-.576-.848" transform="translate(-31.642 -58.621)" fill="#d3ced3"/>
      <path id="Path_16904" data-name="Path 16904" d="M142.4,260.72l3.014,1.741a2.01,2.01,0,0,0,1.808.074l2.968-1.714c.464-.267.405-.734-.129-1.043l-3.015-1.74a2.007,2.007,0,0,0-1.807-.075l-2.968,1.714c-.464.267-.405.735.129,1.043" transform="translate(-31.927 -57.976)" fill="#eff1fe"/>
      <path id="Path_16905" data-name="Path 16905" d="M149.049,269.182h0l0-.01a.571.571,0,0,1,.051-.162l.944-3.539,8.52.3.96,3.452h0a.653.653,0,0,1-.382.777l-3.686,2.128a2.641,2.641,0,0,1-2.378-.1l-3.455-1.994c-.419-.242-.614-.557-.576-.848" transform="translate(-33.521 -59.705)" fill="#d3ced3"/>
      <path id="Path_16906" data-name="Path 16906" d="M150.753,265.541l3.015,1.741a2.009,2.009,0,0,0,1.807.074l2.968-1.714c.464-.267.405-.734-.129-1.043l-3.015-1.74a2.006,2.006,0,0,0-1.807-.075l-2.968,1.714c-.464.267-.405.735.129,1.043" transform="translate(-33.805 -59.061)" fill="#eff1fe"/>
      <path id="Path_16907" data-name="Path 16907" d="M157.4,274h0l0-.01a.57.57,0,0,1,.051-.162l.944-3.539,8.52.3.96,3.451h0a.653.653,0,0,1-.382.777l-3.686,2.128a2.643,2.643,0,0,1-2.379-.1l-3.454-1.994c-.419-.242-.614-.557-.576-.848" transform="translate(-35.399 -60.79)" fill="#d3ced3"/>
      <path id="Path_16908" data-name="Path 16908" d="M159.1,270.362l3.015,1.741a2.009,2.009,0,0,0,1.807.074l2.968-1.714c.464-.267.405-.734-.129-1.043l-3.015-1.74a2.006,2.006,0,0,0-1.807-.075l-2.968,1.714c-.464.267-.405.735.129,1.043" transform="translate(-35.684 -60.145)" fill="#eff1fe"/>
      <path id="Path_16909" data-name="Path 16909" d="M55.758,238.072h0l1.1-2.89,1.931.965,1.025-.592a2.643,2.643,0,0,1,2.379.1l28.363,16.375,27.685,13.841,1.1,2.982a.652.652,0,0,1,.047.129l0,.009h0a.664.664,0,0,1-.395.73l-3.686,2.128a2.644,2.644,0,0,1-2.378-.1L56.3,239.056c-.486-.28-.673-.66-.542-.984" transform="translate(-12.531 -52.893)" fill="#d3ced3"/>
      <path id="Path_16910" data-name="Path 16910" d="M57.623,234.48l55.889,32.267a2.007,2.007,0,0,0,1.807.075l2.968-1.714c.464-.267.405-.735-.129-1.043L62.268,231.8a2.006,2.006,0,0,0-1.807-.075l-2.968,1.714c-.464.267-.405.735.129,1.043" transform="translate(-12.86 -52.075)" fill="#eff1fe"/>
      <path id="Path_16911" data-name="Path 16911" d="M32.026,212.422h0l0-.01a.57.57,0,0,1,.051-.162l.944-3.539,8.52.3.96,3.452h0a.653.653,0,0,1-.382.777l-3.686,2.128a2.641,2.641,0,0,1-2.378-.1L32.6,213.27c-.419-.242-.614-.557-.576-.848" transform="translate(-7.202 -46.94)" fill="#d3ced3"/>
      <path id="Path_16912" data-name="Path 16912" d="M33.731,208.781l3.015,1.741a2.009,2.009,0,0,0,1.807.074l2.968-1.714c.464-.267.405-.734-.129-1.043l-3.015-1.74a2.006,2.006,0,0,0-1.807-.075L33.6,207.737c-.464.267-.405.735.129,1.043" transform="translate(-7.487 -46.295)" fill="#eff1fe"/>
      <path id="Path_16913" data-name="Path 16913" d="M40.377,217.243h0l0-.01a.57.57,0,0,1,.051-.162l.944-3.539,8.52.3.96,3.452h0a.654.654,0,0,1-.382.777l-3.686,2.128a2.641,2.641,0,0,1-2.379-.1l-3.454-1.994c-.419-.242-.614-.557-.576-.848" transform="translate(-9.08 -48.024)" fill="#d3ced3"/>
      <path id="Path_16914" data-name="Path 16914" d="M42.081,213.6l3.014,1.741a2.01,2.01,0,0,0,1.808.074L49.87,213.7c.464-.267.405-.734-.129-1.043l-3.015-1.74a2.006,2.006,0,0,0-1.807-.075l-2.968,1.714c-.464.267-.405.735.129,1.043" transform="translate(-9.365 -47.379)" fill="#eff1fe"/>
      <path id="Path_16915" data-name="Path 16915" d="M48.728,222.065h0l0-.01a.6.6,0,0,1,.051-.162l.944-3.539,8.521.3.96,3.451h0a.653.653,0,0,1-.382.777l-3.686,2.128a2.641,2.641,0,0,1-2.378-.1L49.3,222.913c-.419-.242-.614-.557-.575-.848" transform="translate(-10.958 -49.109)" fill="#d3ced3"/>
      <path id="Path_16916" data-name="Path 16916" d="M50.432,218.424l3.015,1.741a2.009,2.009,0,0,0,1.807.074l2.968-1.714c.464-.267.405-.734-.129-1.043l-3.015-1.74a2.006,2.006,0,0,0-1.807-.075L50.3,217.38c-.464.267-.405.735.129,1.043" transform="translate(-11.243 -48.464)" fill="#eff1fe"/>
      <path id="Path_16917" data-name="Path 16917" d="M57.078,226.886h0l0-.01a.563.563,0,0,1,.051-.162l.944-3.539,8.52.3.96,3.452h0a.653.653,0,0,1-.382.777l-3.686,2.128a2.643,2.643,0,0,1-2.379-.1l-3.454-1.994c-.419-.242-.614-.557-.576-.848" transform="translate(-12.836 -50.193)" fill="#d3ced3"/>
      <path id="Path_16918" data-name="Path 16918" d="M58.783,223.245l3.015,1.741a2.009,2.009,0,0,0,1.807.074l2.968-1.714c.464-.267.405-.734-.129-1.043l-3.015-1.74a2.006,2.006,0,0,0-1.807-.075L58.653,222.2c-.464.267-.405.735.129,1.043" transform="translate(-13.121 -49.548)" fill="#eff1fe"/>
      <path id="Path_16919" data-name="Path 16919" d="M65.429,231.707h0l0-.01a.571.571,0,0,1,.051-.162l.944-3.539,8.52.3.96,3.451h0a.653.653,0,0,1-.382.777l-3.686,2.128a2.643,2.643,0,0,1-2.379-.1L66,232.555c-.419-.242-.614-.557-.576-.848" transform="translate(-14.714 -51.277)" fill="#d3ced3"/>
      <path id="Path_16920" data-name="Path 16920" d="M67.133,228.066l3.015,1.741a2.009,2.009,0,0,0,1.807.074l2.968-1.714c.464-.267.405-.734-.129-1.043l-3.015-1.74a2.006,2.006,0,0,0-1.807-.075L67,227.022c-.464.267-.405.735.129,1.043" transform="translate(-14.999 -50.632)" fill="#eff1fe"/>
      <path id="Path_16921" data-name="Path 16921" d="M73.78,236.528h0l0-.01a.545.545,0,0,1,.05-.162l.944-3.539,8.521.3.96,3.451h0a.654.654,0,0,1-.383.777l-3.685,2.128a2.643,2.643,0,0,1-2.379-.1l-3.455-1.994c-.419-.242-.614-.557-.575-.848" transform="translate(-16.592 -52.361)" fill="#d3ced3"/>
      <path id="Path_16922" data-name="Path 16922" d="M75.484,232.888l3.015,1.741a2.008,2.008,0,0,0,1.807.074l2.968-1.714c.464-.267.405-.734-.129-1.043l-3.015-1.74a2.006,2.006,0,0,0-1.807-.075l-2.968,1.714c-.464.267-.405.735.129,1.043" transform="translate(-16.877 -51.717)" fill="#eff1fe"/>
      <path id="Path_16923" data-name="Path 16923" d="M82.13,241.35h0l0-.01a.57.57,0,0,1,.051-.162l.944-3.539,8.52.3.96,3.452h0a.653.653,0,0,1-.382.777l-3.686,2.128a2.643,2.643,0,0,1-2.379-.1L82.706,242.2c-.419-.242-.614-.557-.576-.848" transform="translate(-18.47 -53.446)" fill="#d3ced3"/>
      <path id="Path_16924" data-name="Path 16924" d="M83.835,237.709l3.014,1.741a2.01,2.01,0,0,0,1.808.074l2.968-1.714c.464-.267.405-.734-.129-1.043l-3.015-1.74a2.006,2.006,0,0,0-1.807-.075l-2.968,1.714c-.464.267-.405.735.129,1.043" transform="translate(-18.755 -52.801)" fill="#eff1fe"/>
      <path id="Path_16925" data-name="Path 16925" d="M90.481,246.171h0l0-.01a.57.57,0,0,1,.051-.162l.944-3.539,8.52.3.96,3.451h0a.654.654,0,0,1-.382.777l-3.686,2.128a2.641,2.641,0,0,1-2.379-.1l-3.454-1.994c-.419-.242-.614-.557-.576-.848" transform="translate(-20.348 -54.53)" fill="#d3ced3"/>
      <path id="Path_16926" data-name="Path 16926" d="M92.185,242.53,95.2,244.27a2.009,2.009,0,0,0,1.807.074l2.968-1.714c.464-.267.405-.734-.129-1.043l-3.015-1.74a2.006,2.006,0,0,0-1.807-.075l-2.968,1.714c-.464.267-.405.735.129,1.043" transform="translate(-20.633 -53.885)" fill="#eff1fe"/>
      <path id="Path_16927" data-name="Path 16927" d="M98.832,250.992h0l0-.01a.57.57,0,0,1,.051-.162l.944-3.539,8.52.3.96,3.452h0a.653.653,0,0,1-.382.777l-3.686,2.128a2.643,2.643,0,0,1-2.379-.1l-3.454-1.994c-.419-.242-.614-.557-.576-.848" transform="translate(-22.227 -55.614)" fill="#d3ced3"/>
      <path id="Path_16928" data-name="Path 16928" d="M100.536,247.351l3.015,1.741a2.009,2.009,0,0,0,1.807.074l2.968-1.714c.464-.267.405-.734-.129-1.043l-3.015-1.74a2.009,2.009,0,0,0-1.807-.075l-2.968,1.714c-.464.267-.405.735.129,1.043" transform="translate(-22.511 -54.97)" fill="#eff1fe"/>
      <path id="Path_16929" data-name="Path 16929" d="M107.182,255.813h0l0-.01a.562.562,0,0,1,.051-.162l.944-3.539,8.52.3.96,3.452h0a.653.653,0,0,1-.382.777l-3.686,2.128a2.641,2.641,0,0,1-2.378-.1l-3.455-1.994c-.419-.242-.614-.557-.576-.848" transform="translate(-24.105 -56.699)" fill="#d3ced3"/>
      <path id="Path_16930" data-name="Path 16930" d="M108.887,252.173l3.015,1.741a2.009,2.009,0,0,0,1.807.074l2.968-1.714c.464-.267.405-.734-.129-1.043l-3.015-1.74a2.006,2.006,0,0,0-1.807-.075l-2.968,1.714c-.464.267-.405.735.129,1.043" transform="translate(-24.39 -56.054)" fill="#eff1fe"/>
      <path id="Path_16931" data-name="Path 16931" d="M115.533,260.635h0l0-.01a.57.57,0,0,1,.051-.162l.944-3.539,8.52.3.96,3.452h0a.653.653,0,0,1-.382.777l-3.686,2.128a2.643,2.643,0,0,1-2.379-.1l-3.454-1.994c-.419-.242-.614-.557-.576-.848" transform="translate(-25.983 -57.783)" fill="#d3ced3"/>
      <path id="Path_16932" data-name="Path 16932" d="M117.237,256.994l3.014,1.741a2.01,2.01,0,0,0,1.808.074l2.968-1.714c.464-.267.405-.734-.129-1.043l-3.015-1.74a2.006,2.006,0,0,0-1.807-.075l-2.968,1.714c-.464.267-.405.735.129,1.043" transform="translate(-26.268 -57.138)" fill="#eff1fe"/>
      <path id="Path_16933" data-name="Path 16933" d="M123.884,265.456h0l0-.01a.57.57,0,0,1,.051-.162l.944-3.539,8.52.3.96,3.451h0a.653.653,0,0,1-.382.777l-3.686,2.128a2.641,2.641,0,0,1-2.378-.1L124.46,266.3c-.419-.242-.614-.557-.576-.848" transform="translate(-27.861 -58.867)" fill="#d3ced3"/>
      <path id="Path_16934" data-name="Path 16934" d="M125.588,261.815l3.014,1.741a2.01,2.01,0,0,0,1.808.074l2.968-1.714c.464-.267.405-.734-.129-1.043l-3.015-1.74a2.007,2.007,0,0,0-1.807-.075l-2.968,1.714c-.464.267-.405.735.129,1.043" transform="translate(-28.146 -58.223)" fill="#eff1fe"/>
      <path id="Path_16935" data-name="Path 16935" d="M132.234,270.277h0l0-.01a.571.571,0,0,1,.051-.162l.944-3.539,8.52.3.96,3.452h0a.653.653,0,0,1-.382.777l-3.686,2.128a2.643,2.643,0,0,1-2.379-.1l-3.454-1.994c-.419-.242-.614-.557-.576-.848" transform="translate(-29.739 -59.952)" fill="#d3ced3"/>
      <path id="Path_16936" data-name="Path 16936" d="M133.939,266.637l3.014,1.741a2.009,2.009,0,0,0,1.807.074l2.969-1.714c.464-.267.405-.734-.129-1.043l-3.015-1.74a2.006,2.006,0,0,0-1.807-.075l-2.968,1.714c-.464.267-.405.735.129,1.043" transform="translate(-30.024 -59.307)" fill="#eff1fe"/>
      <path id="Path_16937" data-name="Path 16937" d="M140.585,275.1h0l0-.01a.57.57,0,0,1,.051-.162l.944-3.539,8.52.3.96,3.451h0a.654.654,0,0,1-.382.777l-3.686,2.128a2.641,2.641,0,0,1-2.379-.1l-3.454-1.994c-.419-.242-.614-.557-.576-.848" transform="translate(-31.617 -61.036)" fill="#d3ced3"/>
      <path id="Path_16938" data-name="Path 16938" d="M142.289,271.458,145.3,273.2a2.008,2.008,0,0,0,1.807.074l2.968-1.714c.464-.267.405-.734-.129-1.043l-3.015-1.74a2.006,2.006,0,0,0-1.807-.075l-2.968,1.714c-.464.267-.405.735.129,1.043" transform="translate(-31.902 -60.391)" fill="#eff1fe"/>
      <path id="Path_16939" data-name="Path 16939" d="M148.936,279.92h0l0-.01a.57.57,0,0,1,.051-.162l.944-3.539,8.52.3.96,3.452h0a.653.653,0,0,1-.382.777l-3.686,2.128a2.643,2.643,0,0,1-2.379-.1l-3.454-1.994c-.419-.242-.614-.557-.576-.848" transform="translate(-33.495 -62.12)" fill="#d3ced3"/>
      <path id="Path_16940" data-name="Path 16940" d="M150.64,276.279l3.014,1.741a2.01,2.01,0,0,0,1.808.074l2.968-1.714c.464-.267.405-.734-.129-1.043l-3.015-1.74a2.006,2.006,0,0,0-1.807-.075l-2.968,1.714c-.464.267-.405.735.129,1.043" transform="translate(-33.78 -61.476)" fill="#eff1fe"/>
      <path id="Path_16941" data-name="Path 16941" d="M75.582,170.832l113.03,65.258,4.63-2.673L80.211,168.159Z" transform="translate(-16.999 -37.82)" fill="#ccd0bc"/>
      <path id="Path_16942" data-name="Path 16942" d="M146.918,291.062l45.111-30.636,12.319-7.112v1.711l4.63-2.673v12.116l-61.7,35.625-1.719-2.717v-3.743Z" transform="translate(-32.736 -56.755)" fill="#adaa92"/>
      <path id="Path_16943" data-name="Path 16943" d="M185.038,234.656l-2.028,1.171-1.012.585-1.013.586-1.015.585-1.013.586-1.012.585h0l-1.01.583-1.015.585-3.2,1.848L59.688,176.513l3.2-1.847.461.266.554-.32v-.532l1.013-.585.46.266.552-.317v-.532l1.015-.585.459.265.554-.319v-.532l1.012-.585.461.266.552-.32v-.532l2.028-1.171Z" transform="translate(-13.424 -38.098)" fill="#dddfd2"/>
      <path id="Path_16944" data-name="Path 16944" d="M185.835,236.167l-1.013.586L72.254,171.761l.552-.32v-.532Z" transform="translate(-16.25 -38.438)" fill="#cac6b7"/>
      <path id="Path_16945" data-name="Path 16945" d="M183.221,237.678l-1.015.585L69.637,173.272l.555-.32v-.532Z" transform="translate(-15.662 -38.778)" fill="#cac6b7"/>
      <path id="Path_16946" data-name="Path 16946" d="M180.605,239.189l-1.012.585h0L67.024,174.78l.552-.317v-.532Z" transform="translate(-15.074 -39.118)" fill="#cac6b7"/>
      <path id="Path_16947" data-name="Path 16947" d="M177.992,240.7l-1.015.585L64.407,176.291l.555-.32v-.532Z" transform="translate(-14.485 -39.457)" fill="#cac6b7"/>
      <path id="Path_16948" data-name="Path 16948" d="M291.753,259.116l46.654,26.935V269.187l-46.654-26.935Z" transform="translate(-65.616 -54.483)" fill="#cbc9c0"/>
      <path id="Path_16949" data-name="Path 16949" d="M295.4,237.153l43.616,25.182-.61,5.705-46.654-26.935Z" transform="translate(-65.616 -53.337)" fill="#d9d6cb"/>
      <path id="Path_16950" data-name="Path 16950" d="M351.944,283.687,412.712,248.6V231.738l-60.768,35.085Z" transform="translate(-79.154 -52.119)" fill="#aba090"/>
      <path id="Path_16951" data-name="Path 16951" d="M396.876,220.026l-2.2,1.267-1.1.633-1.1.634-1.1.634L387,225.729l-.408.234h0l-.687.4-1.1.633-1.1.634-1.094.634-3.293,1.9-1.1.634-1.1.633-3.293,1.9-1.1.631-1.1.633-1.1.634-29.109,16.806-1.355.784L296.46,227.638l30.464-17.589.5.288.6-.345v-.577l1.1-.633.5.288.6-.345v-.574l1.1-.634.5.286.6-.345v-.574l1.1-.634.5.286.6-.345v-.574l1.1-.634.5.289.6-.348v-.574l1.1-.634.5.289.6-.348v-.574l1.1-.634.5.289.6-.345v-.577l1.1-.634.5.289.6-.346v-.577l1.094-.634.5.289.6-.346v-.577l1.1-.634.5.289.6-.346v-.577l1.1-.634.5.289.6-.346v-.577l1.1-.634.5.288.6-.345v-.577l1.1-.634Z" transform="translate(-66.675 -43.821)" fill="#dddbd1"/>
      <path id="Path_16952" data-name="Path 16952" d="M352.554,260.126l56.8-32.794,3.358,3.414-60.768,35.085Z" transform="translate(-79.154 -51.128)" fill="#bbb3a5"/>
      <path id="Path_16953" data-name="Path 16953" d="M294.988,260.623l41.639,24.04V273.288l-41.639-24.04Z" transform="translate(-66.344 -56.057)" fill="#584642"/>
      <path id="Path_16954" data-name="Path 16954" d="M307.621,264.043l14.752,8.517v-4.055l-14.752-8.518Z" transform="translate(-69.185 -58.472)" fill="#382720"/>
      <path id="Path_16955" data-name="Path 16955" d="M337.177,277.212l6.747,3.9.93-.537-6.747-3.9Z" transform="translate(-75.832 -62.225)" fill="#6f605d"/>
      <path id="Path_16956" data-name="Path 16956" d="M337.177,280.059l6.747,3.9v-2.691l-6.747-3.9Z" transform="translate(-75.832 -62.381)" fill="#584642"/>
      <path id="Path_16957" data-name="Path 16957" d="M346.812,284.392l-.93.537v-2.691l.93-.537Z" transform="translate(-77.79 -63.356)" fill="#43332d"/>
      <path id="Path_16958" data-name="Path 16958" d="M339.877,286.121l3.2,1.849v-1.282l-3.2-1.849Z" transform="translate(-76.44 -64.061)" fill="#95ff40"/>
      <path id="Path_16959" data-name="Path 16959" d="M307.621,259.988l14.752,8.517v2.669l-14.752-8.517Z" transform="translate(-69.185 -58.472)" fill="#382720"/>
      <path id="Path_16960" data-name="Path 16960" d="M322.373,273.555l-14.752-6.463v-2.68l14.752,8.517Z" transform="translate(-69.185 -59.468)" fill="#382720"/>
      <path id="Path_16961" data-name="Path 16961" d="M309.2,266.4,322.373,274v2.055l-14.752-8.517Z" transform="translate(-69.185 -59.913)" fill="#43332d"/>
      <path id="Path_16962" data-name="Path 16962" d="M298.29,258.043l7.232,4.175v.762L298.29,258.8Z" transform="translate(-67.087 -58.035)" fill="#220c04"/>
      <path id="Path_16963" data-name="Path 16963" d="M333.886,278.595v.761l-7.232-4.175v-.761Z" transform="translate(-73.466 -61.718)" fill="#220c04"/>
      <path id="Path_16964" data-name="Path 16964" d="M322.831,271.392v.761l-13.173-7.605v-.761Z" transform="translate(-69.643 -59.327)" fill="#220c04"/>
      <path id="Path_16965" data-name="Path 16965" d="M307.621,263.431l1.579.276v.761l-1.579-.276Z" transform="translate(-69.185 -59.247)" fill="#220c04"/>
      <path id="Path_16966" data-name="Path 16966" d="M411.767,220.843l-1.1.634-43.119-24.894.6-.345v-.577Z" transform="translate(-82.664 -44.005)" fill="#cac6b7"/>
      <path id="Path_16967" data-name="Path 16967" d="M408.936,222.478l-1.1.634-43.116-24.894.6-.345V197.3Z" transform="translate(-82.028 -44.373)" fill="#cac6b7"/>
      <path id="Path_16968" data-name="Path 16968" d="M406.1,224.113l-1.1.633L361.89,199.854l.6-.345v-.577Z" transform="translate(-81.391 -44.74)" fill="#cac6b7"/>
      <path id="Path_16969" data-name="Path 16969" d="M403.272,225.748l-1.1.634-43.116-24.894.6-.345v-.577Z" transform="translate(-80.754 -45.108)" fill="#cac6b7"/>
      <path id="Path_16970" data-name="Path 16970" d="M400.44,227.383l-.407.235h0l-.688.4-40.353-23.3-2.763-1.6.6-.345V202.2Z" transform="translate(-80.117 -45.476)" fill="#cac6b7"/>
      <path id="Path_16971" data-name="Path 16971" d="M397.608,229.018l-1.1.634-38.359-22.147-4.758-2.747.6-.345v-.577l4.261,2.459Z" transform="translate(-79.48 -45.844)" fill="#cac6b7"/>
      <path id="Path_16972" data-name="Path 16972" d="M394.778,230.653l-1.1.633-36.37-21-6.75-3.895.6-.348v-.574l6.251,3.61Z" transform="translate(-78.843 -46.211)" fill="#cac6b7"/>
      <path id="Path_16973" data-name="Path 16973" d="M391.947,232.288l-1.1.633-34.379-19.849-8.738-5.044.6-.348v-.574l8.243,4.758Z" transform="translate(-78.207 -46.579)" fill="#cac6b7"/>
      <path id="Path_16974" data-name="Path 16974" d="M388.97,233.923l-1.1.633-32.387-18.7-11.23-6.483.5.285.6-.345v-.574l10.234,5.909Z" transform="translate(-77.424 -46.947)" fill="#cac6b7"/>
      <path id="Path_16975" data-name="Path 16975" d="M386.138,235.559l-1.1.633-30.4-17.547-13.222-7.635.5.285.6-.345v-.574l12.226,7.058Z" transform="translate(-76.788 -47.315)" fill="#cac6b7"/>
      <path id="Path_16976" data-name="Path 16976" d="M383.451,237.193l-1.1.631-28.4-16.4-14.712-8.5.6-.345v-.574l14.218,8.209Z" transform="translate(-76.296 -47.682)" fill="#cac6b7"/>
      <path id="Path_16977" data-name="Path 16977" d="M380.619,238.825l-1.1.634-26.412-15.25-16.7-9.644.6-.345v-.577L353.211,223Z" transform="translate(-75.659 -48.049)" fill="#cac6b7"/>
      <path id="Path_16978" data-name="Path 16978" d="M302.109,260.463l.693.4-.662.381-1.041.6-.693.4-2.421-1.4v-1.363l.585-.3.7-.36,2.351,1.358Z" transform="translate(-67.018 -58.21)" fill="#5e66ad"/>
      <path id="Path_16979" data-name="Path 16979" d="M297.985,259.68v1.36l2.421,1.4v-1.363Z" transform="translate(-67.018 -58.403)" fill="#5d65ac"/>
      <path id="Path_16980" data-name="Path 16980" d="M333.678,278.877l.97.56v.24l-.45.26-1.674.967-2.481-1.363,1.208-.7.526-.3.66-.382Z" transform="translate(-74.228 -62.559)" fill="#5e66ad"/>
      <path id="Path_16981" data-name="Path 16981" d="M325.928,274.4l-.659.382-.526.3-1.208.7-22.427-12.948.693-.4,1.042-.6.662-.381,2.65,1.533,1.581.274,13.171,7.607v.633l3.845,2.221.484.28Z" transform="translate(-67.721 -58.802)" fill="#5e66ad"/>
      <path id="Path_16982" data-name="Path 16982" d="M324.752,273.607l.484.28-.659.382-.543.311-.5.289L301.8,262.323l-.693-.4,1.041-.6.662-.379.693.4,2.651,1.533,1.581.274,13.17,7.607v.633Z" transform="translate(-67.721 -58.686)" fill="#5e67af"/>
      <path id="Path_16983" data-name="Path 16983" d="M299.269,258.811l2.351,1.358-.66.382-.554.319-2.421-1.4.554-.319.662-.382Z" transform="translate(-67.018 -58.199)" fill="#616ab3"/>
      <path id="Path_16984" data-name="Path 16984" d="M332.436,277.961l1.242.719-.659.379-.5.286-1.273-.7-.71-.39-.5-.272.555-.319.662-.382.484.28Z" transform="translate(-74.228 -62.362)" fill="#616ab3"/>
      <path id="Path_16985" data-name="Path 16985" d="M330.043,278.187v1.36l2.481,1.363v-1.363Z" transform="translate(-74.228 -62.565)" fill="#5d65ac"/>
      <path id="Path_16986" data-name="Path 16986" d="M334.4,279.085l.97.559v.242l-2.125,1.228V279.75Z" transform="translate(-74.948 -62.767)" fill="#525aa8"/>
      <path id="Path_16987" data-name="Path 16987" d="M301.109,262.206v.8l22.427,12.947v-.8Z" transform="translate(-67.721 -58.971)" fill="#5d65ac"/>
      <path id="Path_16988" data-name="Path 16988" d="M293.591,106.437,283.526,45.569a6.5,6.5,0,0,0-2.938-4.045L209.4.424c-1.417-.818-2.5-.421-2.489.913l-13.2,63.2,1.5,16.538,99.526,48.3Z" transform="translate(-43.567 0)" fill="#dddbd1"/>
      <path id="Path_16989" data-name="Path 16989" d="M120.847,17.17,191.407.033,264.259,51.26,219.337,105.62,145.255,83.275Z" transform="translate(-27.179 -0.007)" fill="#dddbd1"/>
      <path id="Path_16990" data-name="Path 16990" d="M208.513,154.791l-101.4-58.538,9.05-72.156c.231-1.845,1.7-2.517,3.376-1.548l83.68,48.309a6.793,6.793,0,0,1,3.067,5.268Z" transform="translate(-24.091 -4.972)" fill="#dddbd1"/>
      <path id="Path_16991" data-name="Path 16991" d="M110.487,98.927l8.806-70.208c.166-1.322,1.217-1.8,2.42-1.11L202.3,74.133a4.87,4.87,0,0,1,2.2,3.775l2.163,76.541Z" transform="translate(-24.849 -6.138)" fill="#36505d"/>
      <path id="Path_16992" data-name="Path 16992" d="M208.51,176.308v18.421l-99.294-56.367-2.1-2.175V117.769Z" transform="translate(-24.091 -26.487)" fill="#cbc9c0"/>
      <path id="Path_16993" data-name="Path 16993" d="M135.056,159.025l-2.618,7.443,69.152,39.924-2.617-10.465Z" transform="translate(-29.786 -35.765)" fill="#aba090"/>
      <path id="Path_16994" data-name="Path 16994" d="M133.475,158.622l-2.618,7.443-2.829,1.633-2.618-10.465Z" transform="translate(-28.205 -35.362)" fill="#bbb3a5"/>
      <path id="Path_16995" data-name="Path 16995" d="M211.222,202.877,109.827,144.338v11.975l14.7,8.485,2.618-7.443,63.917,36.9,2.617,10.465,17.547,10.13Z" transform="translate(-24.701 -32.462)" fill="#c5c2b8"/>
      <path id="Path_16996" data-name="Path 16996" d="M208.51,200.074l2.1,2.173-101.4-58.539-2.1-2.173Z" transform="translate(-24.091 -31.832)" fill="#aba090"/>
      <path id="Path_16997" data-name="Path 16997" d="M204.87,184.286l-92.6-53.461a4.279,4.279,0,0,1-1.786-3.413v-7.7l96.17,55.524v7.7c0,1.315-.8,1.92-1.785,1.35" transform="translate(-24.849 -26.924)" fill="#43606e"/>
    </g>
    <g id="Group_89781" data-name="Group 89781" transform="translate(1199.467 3317.424)" clip-path="url(#clip-path-4)">
      <rect id="Rectangle_2366" data-name="Rectangle 2366" width="130.573" height="120.517" transform="matrix(0.5, -0.866, 0.866, 0.5, -45.884, 79.231)" fill="url(#linear-gradient)"/>
    </g>
    <g id="Group_89783" data-name="Group 89783" transform="translate(1199.476 3317.424)" clip-path="url(#clip-path-5)">
      <rect id="Rectangle_2367" data-name="Rectangle 2367" width="58.22" height="29.659" transform="translate(-1.998 57.219) rotate(-88)" fill="url(#linear-gradient-2)"/>
    </g>
    <g id="Group_89788" data-name="Group 89788" transform="translate(1103 3286.536)" clip-path="url(#clip-path)">
      <path id="Path_17000" data-name="Path 17000" d="M198.435,135.791c-21.117-8.364-49.5-25.35-58.458-33.749a15.347,15.347,0,0,1-4.622-9.431c-.667-9-.261-28.658,1.959-43.26.364-2.39,1.346-3.95,2.761-4.27L200.561,80c2.447,1.413,4.311,5.217,4.163,8.5l-2.116,46.742c-.93,1.063-2.408,1.253-4.173.553" transform="translate(-30.376 -10.139)" fill="#bed4fe"/>
      <path id="Path_17001" data-name="Path 17001" d="M198.719,128.5s-29.5-11.844-53.986-31.167c0,0-1.4-19.832,1.723-38.066a622.839,622.839,0,0,0,53.986,31.167,289.913,289.913,0,0,0-1.723,38.066" transform="translate(-32.481 -13.33)" fill="#5e81f2"/>
      <path id="Path_17002" data-name="Path 17002" d="M226.871,194.765l-3.186-1.84a2.155,2.155,0,0,1-.9-1.72c0-.663.4-.968.9-.681l3.186,1.839a2.156,2.156,0,0,1,.9,1.721c0,.663-.4.967-.9.681" transform="translate(-50.105 -42.825)" fill="#8df23d"/>
      <path id="Path_17003" data-name="Path 17003" d="M304.039,142.607,237.29,163.042l-2.222-78.664,57.759-25.586,10.065,60.867Z" transform="translate(-52.868 -13.222)" fill="#bbb3a5"/>
      <path id="Path_17004" data-name="Path 17004" d="M240.033,213.273V201.3l-2.1-2.173V180.7l65.6-43.385,1.5,29.941Z" transform="translate(-53.512 -30.884)" fill="#aba090"/>
      <path id="Path_17005" data-name="Path 17005" d="M153.434,75.025l-4.139-2.734.274-1.962,4.139,2.733Z" transform="translate(-33.577 -15.817)" fill="#bed4fe"/>
      <path id="Path_17006" data-name="Path 17006" d="M132.87,110.865c-1.308-2.776-1.061-6.047-1.132-6.612s-3.748,4.066-5.41,4.774-1.732.035-1.732.035-.086,1.636-.124,2.334a14.7,14.7,0,0,0,1.556,5.722c.447.837,2.413-1.46,4.641-2.309s6.2,1.409,6.2,1.409a27.069,27.069,0,0,1-4-5.352" transform="translate(-27.994 -23.436)" fill="#4f6a77"/>
      <path id="Path_17007" data-name="Path 17007" d="M55.853,138.823l-1.663,5-1.036,3.121-.537-3.162-.9-5.276a1.277,1.277,0,0,0,.569.794,3.047,3.047,0,0,0,2.962.178,1.232,1.232,0,0,0,.605-.659" transform="translate(-11.631 -31.151)" fill="#ffdd9f"/>
      <path id="Path_17008" data-name="Path 17008" d="M63.454,137.389l-2.241,3.847-1.748,3V140.9l0-4.589a1.516,1.516,0,0,0,.6,1.118,2.745,2.745,0,0,0,2.914.41,1.259,1.259,0,0,0,.475-.45" transform="translate(-13.374 -30.657)" fill="#ffdd9f"/>
      <path id="Path_17009" data-name="Path 17009" d="M61.214,142.567l-1.748,3v-3.338a2.937,2.937,0,0,0,1.748.336" transform="translate(-13.374 -31.988)"/>
      <path id="Path_17010" data-name="Path 17010" d="M54.451,145.358l-1.036,3.121-.537-3.163a3.248,3.248,0,0,0,1.573.043" transform="translate(-11.892 -32.682)"/>
      <g id="Group_89787" data-name="Group 89787" transform="translate(33.583 72.609)" opacity="0.5">
        <g id="Group_89786" data-name="Group 89786">
          <g id="Group_89785" data-name="Group 89785" clip-path="url(#clip-path-7)">
            <path id="Path_17011" data-name="Path 17011" d="M70.238,93.756a4.712,4.712,0,0,1-.057.713c0,.009,0,.019-.005.028-.009.062-.02.122-.034.184a4.833,4.833,0,0,1-.357,1.075c-.022.053-.048.1-.077.159-.014.028-.028.059-.042.088-.026.045-.048.09-.074.136s-.068.119-.1.175a6.179,6.179,0,0,1-.357.532L69,97.012c-.042.057-.09.113-.141.17a8.386,8.386,0,0,1-1.2,1.142c-.065.053-.133.1-.2.156s-.139.1-.209.153-.144.1-.218.15-.15.1-.226.147-.136.088-.206.13c-.088.053-.176.108-.266.158-5.237,3.024-13.756,3.01-19.029-.033a10.522,10.522,0,0,1-2.011-1.48c-.057-.051-.111-.1-.164-.159s-.1-.107-.155-.161a6.663,6.663,0,0,1-1.008-1.369c-.059-.1-.11-.209-.158-.311a5.227,5.227,0,0,1-.212-.526c-.043-.116-.076-.233-.107-.351a1.652,1.652,0,0,1-.043-.178,4.365,4.365,0,0,1-.111-.973v39.862c0,2,1.325,4,3.97,5.523,5.271,3.043,13.791,3.059,19.029.034,2.617-1.511,3.919-3.494,3.911-5.48h0Z" transform="translate(-43.327 -93.677)" fill="#a4a4a0"/>
          </g>
        </g>
      </g>
    </g>
    <rect id="Rectangle_2370" data-name="Rectangle 2370" width="333.559" height="281" transform="translate(1103 3286.536)" fill="none"/>
  </g>
</svg>
