<svg id="Group_89347" data-name="Group 89347" xmlns="http://www.w3.org/2000/svg" xmlns:xlink="http://www.w3.org/1999/xlink" width="60" height="60" viewBox="0 0 60 60">
  <defs>
    <linearGradient id="linear-gradient" x1="0.5" x2="0.5" y2="1" gradientUnits="objectBoundingBox">
      <stop offset="0" stop-color="#82c1ff"/>
      <stop offset="1" stop-color="#1389fd"/>
    </linearGradient>
    <clipPath id="clip-path">
      <rect id="Rectangle_61" data-name="Rectangle 61" width="35" height="35" fill="#fff"/>
    </clipPath>
  </defs>
  <rect id="Rectangle_60" data-name="Rectangle 60" width="60" height="60" rx="8" fill="url(#linear-gradient)"/>
  <g id="Mask_Group_4" data-name="Mask Group 4" transform="translate(13 13)" clip-path="url(#clip-path)">
    <path id="solar-system" d="M11.667,14.583a2.917,2.917,0,1,1,2.917-2.917A2.916,2.916,0,0,1,11.667,14.583Zm16.771-4.375a3.646,3.646,0,1,0-3.646-3.646A3.645,3.645,0,0,0,28.438,10.208ZM19.688,17.5A2.187,2.187,0,1,0,17.5,19.687,2.188,2.188,0,0,0,19.688,17.5Zm14.653-4.772a1.457,1.457,0,1,0-2.8.795A14.565,14.565,0,1,1,21.478,3.465a1.457,1.457,0,0,0,.795-2.8A17.482,17.482,0,1,0,34.341,12.728ZM16.042,8.75A1.457,1.457,0,0,0,17.5,10.208,7.292,7.292,0,1,1,10.208,17.5a1.458,1.458,0,1,0-2.917,0A10.208,10.208,0,1,0,17.5,7.291,1.457,1.457,0,0,0,16.042,8.75Z" transform="translate(-0.083 0)" fill="#fff"/>
  </g>
</svg>
