<svg xmlns="http://www.w3.org/2000/svg" xmlns:xlink="http://www.w3.org/1999/xlink" width="35" height="35" viewBox="0 0 35 35">
  <defs>
    <clipPath id="clip-path">
      <rect id="Rectangle_61" data-name="Rectangle 61" width="35" height="35" transform="translate(334 905)" fill="#fff"/>
    </clipPath>
  </defs>
  <g id="Mask_Group_5" data-name="Mask Group 5" transform="translate(-334 -905)" clip-path="url(#clip-path)">
    <path id="mobile-notch" d="M21.941,0C21.9,0,13.1,0,13.06,0A7.3,7.3,0,0,0,5.833,7.29V27.707A7.3,7.3,0,0,0,13.125,35h8.75a7.3,7.3,0,0,0,7.292-7.292V7.292A7.3,7.3,0,0,0,21.941,0ZM26.25,27.707a4.38,4.38,0,0,1-4.375,4.375h-8.75A4.38,4.38,0,0,1,8.75,27.707V7.292A4.383,4.383,0,0,1,12.266,3l1.012,2.026a1.458,1.458,0,0,0,1.305.806h5.833a1.46,1.46,0,0,0,1.305-.806L22.734,3a4.382,4.382,0,0,1,3.516,4.29V27.709Zm-7.292,1.458H16.042a1.459,1.459,0,0,1-1.458-1.458h0a1.459,1.459,0,0,1,1.458-1.458h2.917a1.459,1.459,0,0,1,1.458,1.458h0A1.459,1.459,0,0,1,18.959,29.166Z" transform="translate(334 905.001)" fill="#fff"/>
  </g>
</svg>
