<svg xmlns="http://www.w3.org/2000/svg" width="220" height="25.757" viewBox="0 0 220 25.757">
  <path id="LegacyTransform_Logo" data-name="LegacyTransform Logo" d="M5.414-.532H10.98v3.2H1.239V-14.594H5.414Zm20.435-3.98a5.759,5.759,0,0,1-.122,1.123H16.278a3.158,3.158,0,0,0,.781,2.21,2.52,2.52,0,0,0,1.807.671A2.469,2.469,0,0,0,20.4-.971a2.166,2.166,0,0,0,.806-1.2h4.419A5.774,5.774,0,0,1,24.457.408a6.246,6.246,0,0,1-2.295,1.782,7.267,7.267,0,0,1-3.1.647A7.322,7.322,0,0,1,15.509,2,6.018,6.018,0,0,1,13.08-.434,7.537,7.537,0,0,1,12.2-4.145a7.606,7.606,0,0,1,.867-3.723A5.94,5.94,0,0,1,15.5-10.285a7.393,7.393,0,0,1,3.565-.842,7.39,7.39,0,0,1,3.565.83,5.864,5.864,0,0,1,2.38,2.332A6.941,6.941,0,0,1,25.849-4.511Zm-4.224-.635A2.51,2.51,0,0,0,20.9-7.16a2.651,2.651,0,0,0-1.843-.671,2.734,2.734,0,0,0-1.9.684,2.862,2.862,0,0,0-.855,2ZM33.2-11.127a4.932,4.932,0,0,1,2.686.708,4.257,4.257,0,0,1,1.66,1.929v-2.466h4.15V2.594a7.827,7.827,0,0,1-.732,3.43,5.617,5.617,0,0,1-2.246,2.429,7.226,7.226,0,0,1-3.76.9A7.728,7.728,0,0,1,30.036,7.9a5.91,5.91,0,0,1-2.21-3.943h4.126a2.068,2.068,0,0,0,.891,1.294,3.224,3.224,0,0,0,1.819.464,2.927,2.927,0,0,0,2.087-.745,3.133,3.133,0,0,0,.793-2.38V.2a4.257,4.257,0,0,1-1.66,1.929,4.932,4.932,0,0,1-2.686.708A5.518,5.518,0,0,1,30.183,2a5.763,5.763,0,0,1-2.1-2.429,8.419,8.419,0,0,1-.769-3.711,8.4,8.4,0,0,1,.769-3.723,5.777,5.777,0,0,1,2.1-2.417A5.518,5.518,0,0,1,33.2-11.127Zm1.343,3.662a2.812,2.812,0,0,0-2.161.879,3.446,3.446,0,0,0-.818,2.441A3.446,3.446,0,0,0,32.38-1.7a2.812,2.812,0,0,0,2.161.879,2.822,2.822,0,0,0,2.161-.9,3.4,3.4,0,0,0,.842-2.417A3.393,3.393,0,0,0,36.7-6.574,2.841,2.841,0,0,0,34.541-7.465Zm15.21-3.662a4.932,4.932,0,0,1,2.686.708A4.256,4.256,0,0,1,54.1-8.491v-2.466h4.15V2.667H54.1V.2a4.256,4.256,0,0,1-1.66,1.929,4.932,4.932,0,0,1-2.686.708A5.518,5.518,0,0,1,46.736,2a5.763,5.763,0,0,1-2.1-2.429,8.419,8.419,0,0,1-.769-3.711,8.4,8.4,0,0,1,.769-3.723,5.777,5.777,0,0,1,2.1-2.417A5.518,5.518,0,0,1,49.751-11.127Zm1.343,3.662a2.812,2.812,0,0,0-2.161.879,3.446,3.446,0,0,0-.818,2.441A3.446,3.446,0,0,0,48.933-1.7a2.812,2.812,0,0,0,2.161.879,2.823,2.823,0,0,0,2.161-.9A3.4,3.4,0,0,0,54.1-4.145a3.393,3.393,0,0,0-.842-2.429A2.841,2.841,0,0,0,51.094-7.465Zm16.187-3.662A6.766,6.766,0,0,1,71.7-9.675a6.441,6.441,0,0,1,2.246,3.992H69.527a2.331,2.331,0,0,0-.806-1.367,2.384,2.384,0,0,0-1.538-.488,2.231,2.231,0,0,0-1.807.867,3.912,3.912,0,0,0-.708,2.527,3.912,3.912,0,0,0,.708,2.527,2.231,2.231,0,0,0,1.807.867,2.384,2.384,0,0,0,1.538-.488,2.331,2.331,0,0,0,.806-1.367h4.419A6.441,6.441,0,0,1,71.7,1.385a6.766,6.766,0,0,1-4.419,1.453A7.322,7.322,0,0,1,63.728,2,6.018,6.018,0,0,1,61.3-.434a7.537,7.537,0,0,1-.879-3.711,7.606,7.606,0,0,1,.867-3.723,5.94,5.94,0,0,1,2.429-2.417A7.393,7.393,0,0,1,67.281-11.127Zm11.988.171,3.272,8.35,3.052-8.35h4.614L81.71,9.161H77.12l3.2-7.007L74.6-10.957ZM104-14.594v3.32H99.312V2.667h-4.2V-11.274H90.474v-3.32Zm5.933,6.2a5.924,5.924,0,0,1,2.014-1.978,5.142,5.142,0,0,1,2.673-.732v4.468h-1.2a4.126,4.126,0,0,0-2.576.708,2.844,2.844,0,0,0-.916,2.393v6.2h-4.175V-10.957h4.175Zm11.621-2.734a4.932,4.932,0,0,1,2.686.708,4.256,4.256,0,0,1,1.66,1.929v-2.466h4.15V2.667H125.9V.2a4.256,4.256,0,0,1-1.66,1.929,4.932,4.932,0,0,1-2.686.708A5.517,5.517,0,0,1,118.539,2a5.763,5.763,0,0,1-2.1-2.429,8.419,8.419,0,0,1-.769-3.711,8.4,8.4,0,0,1,.769-3.723,5.776,5.776,0,0,1,2.1-2.417A5.518,5.518,0,0,1,121.554-11.127ZM122.9-7.465a2.812,2.812,0,0,0-2.161.879,3.446,3.446,0,0,0-.818,2.441,3.446,3.446,0,0,0,.818,2.441,2.812,2.812,0,0,0,2.161.879,2.822,2.822,0,0,0,2.161-.9,3.4,3.4,0,0,0,.842-2.417,3.393,3.393,0,0,0-.842-2.429A2.841,2.841,0,0,0,122.9-7.465ZM141.574-11.1A4.716,4.716,0,0,1,145.3-9.54a6.267,6.267,0,0,1,1.379,4.3v7.91H142.5V-4.755a3,3,0,0,0-.72-2.136,2.5,2.5,0,0,0-1.917-.769,2.609,2.609,0,0,0-2.014.806,3.259,3.259,0,0,0-.745,2.295V2.667h-4.175V-10.957h4.175v2.49a4.494,4.494,0,0,1,1.746-1.929A5.121,5.121,0,0,1,141.574-11.1Zm12.818-.024a6.251,6.251,0,0,1,4.138,1.294,5.622,5.622,0,0,1,1.941,3.418h-3.906a2.164,2.164,0,0,0-.769-1.306,2.336,2.336,0,0,0-1.5-.476,1.641,1.641,0,0,0-1.074.305,1.065,1.065,0,0,0-.366.867,1.017,1.017,0,0,0,.671.952,10.705,10.705,0,0,0,2.112.635,20.973,20.973,0,0,1,2.564.745,4.229,4.229,0,0,1,1.733,1.233,3.407,3.407,0,0,1,.732,2.295,3.519,3.519,0,0,1-.635,2.075A4.179,4.179,0,0,1,158.2,2.325a7.155,7.155,0,0,1-2.832.513,7.293,7.293,0,0,1-4.419-1.221,5.151,5.151,0,0,1-2.026-3.491h4.028A1.813,1.813,0,0,0,153.7-.532a2.8,2.8,0,0,0,1.672.464,1.557,1.557,0,0,0,1.074-.33,1.11,1.11,0,0,0,.366-.867,1.042,1.042,0,0,0-.671-1.013,12.343,12.343,0,0,0-2.185-.647,17.473,17.473,0,0,1-2.49-.684,4.111,4.111,0,0,1-1.685-1.184,3.3,3.3,0,0,1-.708-2.234,3.646,3.646,0,0,1,1.392-2.966A6.064,6.064,0,0,1,154.392-11.127Zm15.284-1.685a2.115,2.115,0,0,0-1.489.439,2.024,2.024,0,0,0-.513,1.416h2.466v3.516h-2.466V2.667H163.5V-7.441h-1.636v-3.516H163.5V-11.1a5.1,5.1,0,0,1,1.477-3.919A6.054,6.054,0,0,1,169.26-16.4q.586,0,.879.024v3.589Zm8.667,1.685a7.661,7.661,0,0,1,3.626.842,6.175,6.175,0,0,1,2.515,2.429,7.3,7.3,0,0,1,.916,3.711,7.3,7.3,0,0,1-.916,3.711A6.175,6.175,0,0,1,181.968,2a7.661,7.661,0,0,1-3.626.842A7.734,7.734,0,0,1,174.7,2a6.156,6.156,0,0,1-2.527-2.429,7.3,7.3,0,0,1-.916-3.711,7.3,7.3,0,0,1,.916-3.711,6.156,6.156,0,0,1,2.527-2.429A7.734,7.734,0,0,1,178.343-11.127Zm0,3.613a2.66,2.66,0,0,0-2.014.867,3.511,3.511,0,0,0-.818,2.5,3.466,3.466,0,0,0,.818,2.49,2.678,2.678,0,0,0,2.014.855,2.64,2.64,0,0,0,2-.855,3.5,3.5,0,0,0,.806-2.49,3.545,3.545,0,0,0-.806-2.5A2.622,2.622,0,0,0,178.343-7.514Zm13.4-.879a5.924,5.924,0,0,1,2.014-1.978,5.142,5.142,0,0,1,2.673-.732v4.468h-1.2a4.126,4.126,0,0,0-2.576.708,2.844,2.844,0,0,0-.916,2.393v6.2h-4.175V-10.957h4.175Zm24.1-2.71a5.134,5.134,0,0,1,3.955,1.55,6.088,6.088,0,0,1,1.44,4.309v7.91h-4.15V-4.755a2.779,2.779,0,0,0-.7-2.014,2.508,2.508,0,0,0-1.892-.72,2.562,2.562,0,0,0-1.965.769,3.039,3.039,0,0,0-.72,2.161V2.667H207.64V-4.755a2.809,2.809,0,0,0-.684-2.014,2.468,2.468,0,0,0-1.88-.72,2.624,2.624,0,0,0-1.978.757,3,3,0,0,0-.732,2.173V2.667h-4.175V-10.957h4.175v2.319a4.065,4.065,0,0,1,1.648-1.807,5,5,0,0,1,2.6-.659,5.244,5.244,0,0,1,2.759.72A4.524,4.524,0,0,1,211.18-8.32a5.457,5.457,0,0,1,1.941-2.026A5.1,5.1,0,0,1,215.843-11.1Z" transform="translate(-1.239 16.401)" fill="#1389fd"/>
</svg>
