<svg id="Group_89347" data-name="Group 89347" xmlns="http://www.w3.org/2000/svg" xmlns:xlink="http://www.w3.org/1999/xlink" width="60" height="60" viewBox="0 0 60 60">
  <defs>
    <linearGradient id="linear-gradient" x1="0.5" x2="0.5" y2="1" gradientUnits="objectBoundingBox">
      <stop offset="0" stop-color="#82c1ff"/>
      <stop offset="1" stop-color="#1389fd"/>
    </linearGradient>
    <clipPath id="clip-path">
      <rect id="Rectangle_61" data-name="Rectangle 61" width="35" height="35" transform="translate(13 13)" fill="#fff"/>
    </clipPath>
  </defs>
  <rect id="Rectangle_60" data-name="Rectangle 60" width="60" height="60" rx="8" fill="url(#linear-gradient)"/>
  <g id="Mask_Group_16" data-name="Mask Group 16" clip-path="url(#clip-path)">
    <g id="refresh" transform="translate(13.001 13.001)">
      <path id="Path_16048" data-name="Path 16048" d="M17.5,2.917A14.629,14.629,0,0,1,27.885,7.291H23.332A1.458,1.458,0,0,0,21.874,8.75h0a1.458,1.458,0,0,0,1.458,1.458h6.042A2.709,2.709,0,0,0,32.082,7.5V1.458A1.458,1.458,0,0,0,30.624,0h0a1.458,1.458,0,0,0-1.458,1.458v3.03A17.472,17.472,0,0,0,.073,15.9a1.468,1.468,0,0,0,1.458,1.6h0a1.432,1.432,0,0,0,1.442-1.28A14.6,14.6,0,0,1,17.5,2.917Z" fill="#fff"/>
      <path id="Path_16049" data-name="Path 16049" d="M33.469,17.5a1.432,1.432,0,0,0-1.442,1.28A14.562,14.562,0,0,1,7.113,27.707h4.553a1.458,1.458,0,0,0,1.458-1.458h0a1.458,1.458,0,0,0-1.458-1.458H5.625A2.707,2.707,0,0,0,2.917,27.5V33.54A1.458,1.458,0,0,0,4.375,35h0A1.458,1.458,0,0,0,5.833,33.54V30.51A17.472,17.472,0,0,0,34.926,19.1a1.468,1.468,0,0,0-1.458-1.6Z" fill="#fff"/>
    </g>
  </g>
</svg>
