<svg xmlns="http://www.w3.org/2000/svg" xmlns:xlink="http://www.w3.org/1999/xlink" width="40.833" height="40.833" viewBox="0 0 40.833 40.833">
  <defs>
    <clipPath id="clip-path">
      <rect id="Rectangle_61" data-name="Rectangle 61" width="40.833" height="40.833" fill="#fff"/>
    </clipPath>
  </defs>
  <g id="Mask_Group_25" data-name="Mask Group 25" clip-path="url(#clip-path)">
    <path id="stopwatch" d="M23.795,22.1a3.4,3.4,0,1,1-5.1-2.928V11.9a1.7,1.7,0,1,1,3.4,0v7.269a3.389,3.389,0,0,1,1.7,2.928Zm10.3-12.681a18.7,18.7,0,1,1-27.4,0L5.554,8.145A6.241,6.241,0,0,1,3.4,8.5a1.7,1.7,0,1,1,0-3.4c1.334,0,1.7-.365,1.7-1.7a1.7,1.7,0,1,1,3.4,0,5.971,5.971,0,0,1-.476,2.408l1.2,1.333A18.565,18.565,0,0,1,18.7,3.486V1.7a1.7,1.7,0,1,1,3.4,0V3.486a18.565,18.565,0,0,1,9.474,3.653l1.2-1.333A5.971,5.971,0,0,1,32.293,3.4a1.7,1.7,0,1,1,3.4,0c0,1.334.365,1.7,1.7,1.7a1.7,1.7,0,1,1,0,3.4,6.241,6.241,0,0,1-2.155-.354Zm1.6,12.681a15.3,15.3,0,1,0-15.3,15.3A15.3,15.3,0,0,0,35.692,22.1Z" transform="translate(0.021)" fill="#fff"/>
  </g>
</svg>
