<svg xmlns="http://www.w3.org/2000/svg" xmlns:xlink="http://www.w3.org/1999/xlink" width="35" height="35" viewBox="0 0 35 35">
  <defs>
    <clipPath id="clip-path">
      <rect id="Rectangle_61" data-name="Rectangle 61" width="35" height="35" transform="translate(13 13)" fill="#fff"/>
    </clipPath>
  </defs>
  <g id="Mask_Group_217" data-name="Mask Group 217" transform="translate(-13 -13)" clip-path="url(#clip-path)">
    <path id="envelope" d="M27.708,1.458H7.292A7.3,7.3,0,0,0,0,8.75v17.5a7.3,7.3,0,0,0,7.292,7.292H27.708A7.3,7.3,0,0,0,35,26.25V8.75a7.3,7.3,0,0,0-7.292-7.292ZM7.292,4.375H27.708a4.375,4.375,0,0,1,4.054,2.752L20.595,18.3a4.385,4.385,0,0,1-6.189,0L3.238,7.127A4.375,4.375,0,0,1,7.292,4.375Zm20.417,26.25H7.292A4.375,4.375,0,0,1,2.917,26.25V10.938l9.427,9.421a7.3,7.3,0,0,0,10.313,0l9.427-9.421V26.25A4.375,4.375,0,0,1,27.708,30.625Z" transform="translate(13 13)" fill="#fff"/>
  </g>
</svg>
