<svg xmlns="http://www.w3.org/2000/svg" width="221.345" height="51.726" viewBox="0 0 221.345 51.726">
  <g id="Group_89398" data-name="Group 89398" transform="translate(-383.009 -266.999)">
    <g id="Group_89338" data-name="Group 89338" transform="translate(383.009 266.999)">
      <path id="Path_109" data-name="Path 109" d="M18.594,24.247H42.84V0H18.594Z" transform="translate(8.886 0)" fill="#4caf50"/>
      <path id="Path_110" data-name="Path 110" d="M24.247,24.247V0H0V24.247Z" transform="translate(0 0)" fill="#f44336"/>
      <path id="Path_111" data-name="Path 111" d="M24.247,18.594H0V42.84H24.247Z" transform="translate(0 8.886)" fill="#2196f3"/>
      <path id="Path_112" data-name="Path 112" d="M18.594,18.594V42.84H42.84V18.594Z" transform="translate(8.886 8.886)" fill="#ffc107"/>
    </g>
    <g id="Group_89341" data-name="Group 89341" transform="translate(447.521 266.999)">
      <path id="Path_16038" data-name="Path 16038" d="M12.485,5.8,6.714-13.007H6.566q.312,5.739.312,7.657V5.8H2.336V-18.172H9.255L14.928.159h.1l6.018-18.331h6.919V5.8H23.225V-5.547q0-.8.025-1.853t.221-5.575h-.148L17.142,5.8ZM33.391-17.27q0-2.443,2.722-2.443t2.722,2.443a2.382,2.382,0,0,1-.68,1.812,2.86,2.86,0,0,1-2.041.648Q33.391-14.811,33.391-17.27ZM38.605,5.8h-5V-12.532h5ZM51.3,6.128q-8.559,0-8.559-9.4,0-4.673,2.328-7.141a8.734,8.734,0,0,1,6.673-2.468,12.722,12.722,0,0,1,5.706,1.246L55.969-7.76q-1.181-.475-2.2-.779a7.079,7.079,0,0,0-2.033-.3q-3.9,0-3.9,5.542,0,5.378,3.9,5.378a8.9,8.9,0,0,0,2.673-.385A9.65,9.65,0,0,0,56.871.487v4.28A8.06,8.06,0,0,1,54.42,5.833,13.785,13.785,0,0,1,51.3,6.128Zm20.053-19a8.065,8.065,0,0,1,1.689.148l-.377,4.689A5.729,5.729,0,0,0,71.185-8.2a5.3,5.3,0,0,0-3.73,1.23A4.445,4.445,0,0,0,66.119-3.53V5.8h-5V-12.532h3.788l.738,3.083h.246a6.891,6.891,0,0,1,2.3-2.484A5.68,5.68,0,0,1,71.349-12.876Zm9,9.477A7.694,7.694,0,0,0,81.244.717a3.2,3.2,0,0,0,2.91,1.394A3.145,3.145,0,0,0,87.032.725,7.8,7.8,0,0,0,87.91-3.4a7.572,7.572,0,0,0-.885-4.083,3.2,3.2,0,0,0-2.9-1.361A3.191,3.191,0,0,0,81.236-7.49,7.565,7.565,0,0,0,80.351-3.4Zm12.675,0a9.851,9.851,0,0,1-2.361,7,8.561,8.561,0,0,1-6.575,2.525,9.2,9.2,0,0,1-4.657-1.156,7.692,7.692,0,0,1-3.1-3.32A11.157,11.157,0,0,1,75.251-3.4,9.8,9.8,0,0,1,77.6-10.384a8.611,8.611,0,0,1,6.591-2.492,9.25,9.25,0,0,1,4.657,1.148,7.661,7.661,0,0,1,3.1,3.3A11.054,11.054,0,0,1,93.025-3.4ZM109.947.356a5.047,5.047,0,0,1-1.959,4.3q-1.959,1.476-5.862,1.476a18.411,18.411,0,0,1-3.41-.271,12.9,12.9,0,0,1-2.64-.8V.93a17.433,17.433,0,0,0,3.14,1.1,12.714,12.714,0,0,0,3.074.443q2.722,0,2.722-1.574a1.314,1.314,0,0,0-.361-.959A5.23,5.23,0,0,0,103.4-.9q-.885-.467-2.361-1.09a14.832,14.832,0,0,1-3.107-1.64,4.615,4.615,0,0,1-1.443-1.73,5.71,5.71,0,0,1-.451-2.4,4.355,4.355,0,0,1,1.894-3.779,9.225,9.225,0,0,1,5.37-1.336,15.242,15.242,0,0,1,6.444,1.443l-1.508,3.607q-1.377-.59-2.574-.967a8.084,8.084,0,0,0-2.443-.377q-2.214,0-2.214,1.2a1.407,1.407,0,0,0,.713,1.164,19.4,19.4,0,0,0,3.124,1.459A14.511,14.511,0,0,1,108-3.727a4.8,4.8,0,0,1,1.476,1.738A5.341,5.341,0,0,1,109.947.356ZM117.833-3.4a7.694,7.694,0,0,0,.894,4.116,3.2,3.2,0,0,0,2.91,1.394A3.145,3.145,0,0,0,124.515.725a7.8,7.8,0,0,0,.877-4.124,7.572,7.572,0,0,0-.885-4.083,3.2,3.2,0,0,0-2.9-1.361,3.191,3.191,0,0,0-2.886,1.353A7.565,7.565,0,0,0,117.833-3.4Zm12.675,0a9.851,9.851,0,0,1-2.361,7,8.561,8.561,0,0,1-6.575,2.525,9.2,9.2,0,0,1-4.657-1.156,7.692,7.692,0,0,1-3.1-3.32,11.157,11.157,0,0,1-1.082-5.05,9.8,9.8,0,0,1,2.345-6.985,8.611,8.611,0,0,1,6.591-2.492,9.25,9.25,0,0,1,4.657,1.148,7.661,7.661,0,0,1,3.1,3.3A11.054,11.054,0,0,1,130.508-3.4Zm14.265-5.378h-4.329V5.8h-5V-8.777h-2.755v-2.41l2.755-1.345v-1.345a6.006,6.006,0,0,1,1.541-4.575q1.541-1.443,4.935-1.443a12.844,12.844,0,0,1,4.607.771l-1.279,3.673a9.321,9.321,0,0,0-2.787-.475,1.8,1.8,0,0,0-1.541.631,2.611,2.611,0,0,0-.475,1.615v1.148h4.329Zm10.592,10.92a10.841,10.841,0,0,0,3.148-.574V5.292a11.225,11.225,0,0,1-4.591.836,5.619,5.619,0,0,1-4.37-1.517,6.6,6.6,0,0,1-1.369-4.55V-8.777h-2.394v-2.115l2.755-1.672,1.443-3.87h3.2v3.9h5.132v3.755h-5.132V.061a1.952,1.952,0,0,0,.6,1.574A2.361,2.361,0,0,0,155.365,2.143Z" transform="translate(-1.68 19.894)" fill="#393939"/>
      <path id="Path_16039" data-name="Path 16039" d="M10.111-.381A3.618,3.618,0,0,1,8.7,2.656a6.125,6.125,0,0,1-3.834,1.09A9.6,9.6,0,0,1,.828,3.07V1.415a10.626,10.626,0,0,0,1.978.605,10.405,10.405,0,0,0,2.119.222,4.275,4.275,0,0,0,2.583-.651A2.136,2.136,0,0,0,8.376-.22a2.325,2.325,0,0,0-.308-1.256,2.859,2.859,0,0,0-1.029-.9,14.4,14.4,0,0,0-2.195-.938A7.005,7.005,0,0,1,1.9-5.063,3.854,3.854,0,0,1,1.02-7.7,3.275,3.275,0,0,1,2.3-10.411a5.325,5.325,0,0,1,3.39-1.009,9.992,9.992,0,0,1,4.046.807L9.2-9.119a9.144,9.144,0,0,0-3.552-.767A3.437,3.437,0,0,0,3.522-9.3a1.929,1.929,0,0,0-.767,1.625A2.49,2.49,0,0,0,3.038-6.42a2.66,2.66,0,0,0,.954.9,11.847,11.847,0,0,0,2.053.9A8.129,8.129,0,0,1,9.238-2.843,3.493,3.493,0,0,1,10.111-.381ZM22.421-2a6.1,6.1,0,0,1-1.362,4.223A4.8,4.8,0,0,1,17.3,3.746a4.985,4.985,0,0,1-2.634-.7,4.6,4.6,0,0,1-1.776-2A6.963,6.963,0,0,1,12.26-2a6.091,6.091,0,0,1,1.352-4.213,4.782,4.782,0,0,1,3.754-1.508,4.678,4.678,0,0,1,3.688,1.544A6.074,6.074,0,0,1,22.421-2ZM14-2a5.249,5.249,0,0,0,.848,3.229,2.942,2.942,0,0,0,2.492,1.11,2.962,2.962,0,0,0,2.5-1.1A5.222,5.222,0,0,0,20.686-2a5.138,5.138,0,0,0-.853-3.2,3,3,0,0,0-2.518-1.095,2.948,2.948,0,0,0-2.482,1.08A5.2,5.2,0,0,0,14-2Zm13.037,5.54H25.357v-15.7h1.675ZM32.158-7.515V-.341a2.886,2.886,0,0,0,.616,2.018,2.507,2.507,0,0,0,1.927.666,3.144,3.144,0,0,0,2.538-.948,4.785,4.785,0,0,0,.8-3.1V-7.515h1.675V3.544H38.333l-.242-1.483H38a3.339,3.339,0,0,1-1.428,1.251,4.8,4.8,0,0,1-2.084.434,4.227,4.227,0,0,1-3.022-.959,4.081,4.081,0,0,1-1-3.067V-7.515ZM46.839,2.364A5.471,5.471,0,0,0,47.7,2.3a5.552,5.552,0,0,0,.656-.136V3.443a3.062,3.062,0,0,1-.8.217,6.024,6.024,0,0,1-.954.086q-3.209,0-3.209-3.38V-6.213H41.8V-7.02l1.584-.7.706-2.361h.969v2.563h3.209v1.3H45.063V.3a2.239,2.239,0,0,0,.474,1.534A1.65,1.65,0,0,0,46.839,2.364Zm5.4,1.181H50.563V-7.515h1.675ZM50.421-10.512a1.113,1.113,0,0,1,.283-.843.987.987,0,0,1,.706-.267.987.987,0,0,1,.7.272,1.092,1.092,0,0,1,.293.837,1.11,1.11,0,0,1-.293.843.977.977,0,0,1-.7.277.967.967,0,0,1-.706-.277A1.133,1.133,0,0,1,50.421-10.512ZM65.335-2a6.1,6.1,0,0,1-1.362,4.223,4.8,4.8,0,0,1-3.764,1.519,4.985,4.985,0,0,1-2.634-.7,4.6,4.6,0,0,1-1.776-2A6.963,6.963,0,0,1,55.174-2a6.091,6.091,0,0,1,1.352-4.213A4.782,4.782,0,0,1,60.28-7.717a4.678,4.678,0,0,1,3.688,1.544A6.074,6.074,0,0,1,65.335-2ZM56.909-2a5.249,5.249,0,0,0,.848,3.229,2.942,2.942,0,0,0,2.492,1.11,2.962,2.962,0,0,0,2.5-1.1A5.222,5.222,0,0,0,63.6-2a5.138,5.138,0,0,0-.853-3.2,3,3,0,0,0-2.517-1.095,2.948,2.948,0,0,0-2.482,1.08A5.2,5.2,0,0,0,56.909-2Zm18.929,5.54V-3.61a2.886,2.886,0,0,0-.616-2.018A2.507,2.507,0,0,0,73.3-6.294a3.179,3.179,0,0,0-2.543.938,4.738,4.738,0,0,0-.807,3.1v5.8H68.271V-7.515h1.362L69.906-6h.081a3.42,3.42,0,0,1,1.443-1.266A4.688,4.688,0,0,1,73.5-7.717a4.2,4.2,0,0,1,3.007.964A4.1,4.1,0,0,1,77.514-3.67V3.544ZM95.928-6.909A4.132,4.132,0,0,1,94.4-3.464a6.925,6.925,0,0,1-4.374,1.206H88.29v5.8H86.575V-11.208H90.4Q95.928-11.208,95.928-6.909ZM88.29-3.731h1.544a5.737,5.737,0,0,0,3.3-.737,2.715,2.715,0,0,0,1.019-2.361,2.545,2.545,0,0,0-.959-2.179,5.008,5.008,0,0,0-2.987-.716H88.29Zm17.274,7.275-.333-1.574h-.081a4.654,4.654,0,0,1-1.65,1.408,5.028,5.028,0,0,1-2.053.368A3.694,3.694,0,0,1,98.869,2.9,3.091,3.091,0,0,1,97.936.487q0-3.35,5.358-3.511l1.877-.061v-.686a2.8,2.8,0,0,0-.56-1.922,2.3,2.3,0,0,0-1.791-.621,7.3,7.3,0,0,0-3.128.848l-.515-1.281a7.871,7.871,0,0,1,1.791-.7,7.757,7.757,0,0,1,1.952-.252,4.212,4.212,0,0,1,2.931.878A3.664,3.664,0,0,1,106.805-4V3.544ZM101.78,2.364a3.4,3.4,0,0,0,2.457-.858,3.173,3.173,0,0,0,.893-2.4v-1l-1.675.071a6.092,6.092,0,0,0-2.881.621,1.871,1.871,0,0,0-.883,1.71,1.726,1.726,0,0,0,.55,1.382A2.283,2.283,0,0,0,101.78,2.364ZM115.3-7.717a6.554,6.554,0,0,1,1.322.121l-.232,1.554a5.706,5.706,0,0,0-1.211-.151,2.947,2.947,0,0,0-2.3,1.09,3.974,3.974,0,0,0-.954,2.714V3.544h-1.675V-7.515h1.382l.192,2.048h.081a4.862,4.862,0,0,1,1.483-1.665A3.339,3.339,0,0,1,115.3-7.717Zm6.962,10.08a5.472,5.472,0,0,0,.858-.066,5.552,5.552,0,0,0,.656-.136V3.443a3.062,3.062,0,0,1-.8.217,6.024,6.024,0,0,1-.954.086q-3.209,0-3.209-3.38V-6.213h-1.584V-7.02l1.584-.7.706-2.361h.969v2.563H123.7v1.3h-3.209V.3a2.239,2.239,0,0,0,.474,1.534A1.65,1.65,0,0,0,122.264,2.364Zm11.291,1.181V-3.61a2.886,2.886,0,0,0-.616-2.018,2.507,2.507,0,0,0-1.927-.666,3.179,3.179,0,0,0-2.543.938,4.738,4.738,0,0,0-.807,3.1v5.8h-1.675V-7.515h1.362L127.621-6h.081a3.42,3.42,0,0,1,1.443-1.266,4.688,4.688,0,0,1,2.068-.449,4.2,4.2,0,0,1,3.007.964,4.1,4.1,0,0,1,1.009,3.083V3.544Zm9.787.2a5.081,5.081,0,0,1-3.87-1.493,5.781,5.781,0,0,1-1.418-4.147,6.412,6.412,0,0,1,1.317-4.248,4.374,4.374,0,0,1,3.537-1.574A4.17,4.17,0,0,1,146.2-6.349a5.24,5.24,0,0,1,1.211,3.607v1.059H139.79a4.384,4.384,0,0,0,.984,2.956A3.4,3.4,0,0,0,143.4,2.283a8.907,8.907,0,0,0,3.532-.747V3.029a8.864,8.864,0,0,1-1.68.55A9.441,9.441,0,0,1,143.342,3.746Zm-.454-10.06a2.735,2.735,0,0,0-2.124.868,4,4,0,0,0-.933,2.4h5.782a3.683,3.683,0,0,0-.706-2.427A2.486,2.486,0,0,0,142.888-6.314Zm12.421-1.4a6.554,6.554,0,0,1,1.322.121L156.4-6.042a5.705,5.705,0,0,0-1.211-.151,2.947,2.947,0,0,0-2.3,1.09,3.973,3.973,0,0,0-.954,2.714V3.544h-1.675V-7.515h1.382l.192,2.048h.081A4.861,4.861,0,0,1,153.4-7.131,3.339,3.339,0,0,1,155.309-7.717Z" transform="translate(-0.828 47.98)" fill="#393939"/>
    </g>
  </g>
</svg>
