<svg xmlns="http://www.w3.org/2000/svg" xmlns:xlink="http://www.w3.org/1999/xlink" width="35" height="35" viewBox="0 0 35 35">
  <defs>
    <clipPath id="clip-path">
      <rect id="Rectangle_61" data-name="Rectangle 61" width="35" height="35" transform="translate(13 13)" fill="#fff"/>
    </clipPath>
  </defs>
  <g id="Mask_Group_31" data-name="Mask Group 31" transform="translate(-13 -13)" clip-path="url(#clip-path)">
    <path id="head-side-thinking" d="M22.887,10.4l-2.7,1.554a5.831,5.831,0,0,0-2.7-1.542V7.289H14.578v3.123a5.831,5.831,0,0,0-2.7,1.542L9.184,10.4,7.726,12.925l2.713,1.564a5.77,5.77,0,0,0-.235,1.547,5.77,5.77,0,0,0,.235,1.547L7.726,19.147l1.458,2.525,2.7-1.554a5.831,5.831,0,0,0,2.7,1.542v3.123h2.916V21.66a5.831,5.831,0,0,0,2.7-1.542l2.7,1.554,1.458-2.525-2.707-1.564a5.277,5.277,0,0,0-.006-3.093l2.713-1.564Zm-6.852,8.551a2.916,2.916,0,1,1,2.916-2.916A2.916,2.916,0,0,1,16.036,18.951Zm17.89-2.723a47.961,47.961,0,0,0-5.061-9.786A16.025,16.025,0,1,0,3.707,26.283a2.878,2.878,0,0,1,.666,1.84v6.865H23.325V30.614H26.6a4.385,4.385,0,0,0,4.335-3.8l.655-4.948h3.4V18.642S34.238,16.942,33.926,16.228Zm-4.891,2.723-.988,7.48A1.458,1.458,0,0,1,26.6,27.7H20.409v4.373H7.289V28.122a5.8,5.8,0,0,0-1.341-3.706A13.111,13.111,0,1,1,26.565,8.235,47.67,47.67,0,0,1,31.254,17.4c.227.52.455,1.042.682,1.558Z" transform="translate(13.006 13.013)" fill="#fff"/>
  </g>
</svg>
