<svg xmlns="http://www.w3.org/2000/svg" xmlns:xlink="http://www.w3.org/1999/xlink" width="40.833" height="40.833" viewBox="0 0 40.833 40.833">
  <defs>
    <clipPath id="clip-path">
      <rect id="Rectangle_61" data-name="Rectangle 61" width="40.833" height="40.833" transform="translate(15.167 15.167)" fill="#fff"/>
    </clipPath>
  </defs>
  <g id="Mask_Group_27" data-name="Mask Group 27" transform="translate(-15.167 -15.167)" clip-path="url(#clip-path)">
    <path id="chart-line-up" d="M40.833,39.132a1.7,1.7,0,0,1-1.7,1.7H5.1a5.11,5.11,0,0,1-5.1-5.1V1.7a1.7,1.7,0,0,1,3.4,0V35.729a1.7,1.7,0,0,0,1.7,1.7H39.132A1.7,1.7,0,0,1,40.833,39.132Zm-5.1-30.625H28.924a1.7,1.7,0,1,0,0,3.4h6.062l-8.264,8.008a1.739,1.739,0,0,1-2.4,0c-.07-.068-2.108-1.519-2.108-1.519a5.242,5.242,0,0,0-7.081.087L7.326,26a1.7,1.7,0,0,0,2.36,2.453l7.826-7.534a1.739,1.739,0,0,1,2.4,0c.07.068,2.108,1.519,2.108,1.519a5.234,5.234,0,0,0,7.085-.092l8.32-8.065v6.137a1.7,1.7,0,0,0,3.4,0V13.609a5.11,5.11,0,0,0-5.1-5.1Z" transform="translate(15.167 15.167)" fill="#fff"/>
  </g>
</svg>
