<svg xmlns="http://www.w3.org/2000/svg" width="142.331" height="28.589" viewBox="0 0 142.331 28.589">
  <path id="Path_1" data-name="Path 1" d="M1.22,6.712V-14.372H9.768a7.1,7.1,0,0,1,4.953,1.508,5.605,5.605,0,0,1,1.637,4.338,5.775,5.775,0,0,1-.622,2.78,5,5,0,0,1-1.53,1.78,3.646,3.646,0,0,1-1.751.7,4.4,4.4,0,0,1,1.651.436,3.069,3.069,0,0,1,1.279,1.194,4.152,4.152,0,0,1,.5,2.187V4.568a7.286,7.286,0,0,0,.107,1.294,1.872,1.872,0,0,0,.322.851H11.869a2.533,2.533,0,0,1-.3-.865,6.617,6.617,0,0,1-.114-1.279q0-.915,0-1.751t0-1.751a2.687,2.687,0,0,0-.643-1.923,2.725,2.725,0,0,0-2.058-.679H4.379L5.566-2.951V6.712ZM5.566-3.351,4.379-4.966H8.81a3.015,3.015,0,0,0,1.53-.386,2.787,2.787,0,0,0,1.065-1.1A3.416,3.416,0,0,0,11.8-8.125a2.694,2.694,0,0,0-.808-2.087,3.222,3.222,0,0,0-2.266-.743H4.279L5.566-12.4ZM24.32,7.027A7.746,7.746,0,0,1,21.368,6.5a4.571,4.571,0,0,1-2.023-1.53,4.015,4.015,0,0,1-.729-2.43A3.854,3.854,0,0,1,19.5-.092a5.6,5.6,0,0,1,2.351-1.551,12.986,12.986,0,0,1,3.181-.708q2.5-.243,3.452-.443t.951-.7v-.029a1.489,1.489,0,0,0-.808-1.329,4.376,4.376,0,0,0-2.251-.486,4.142,4.142,0,0,0-2.337.55,1.893,1.893,0,0,0-.808,1.68h-4.36A4.827,4.827,0,0,1,19.867-6.2,6.131,6.131,0,0,1,22.562-8.1a10.7,10.7,0,0,1,3.845-.65,10.933,10.933,0,0,1,3.7.608,6.29,6.29,0,0,1,2.737,1.823,4.591,4.591,0,0,1,1.036,3.088V3.325q0,.586.036,1.122a4.612,4.612,0,0,0,.164.979,3.053,3.053,0,0,0,.357.829,2.452,2.452,0,0,0,.357.457h-4.36a3.041,3.041,0,0,1-.307-.415,3.236,3.236,0,0,1-.35-.729,5.876,5.876,0,0,1-.25-1.008,7.9,7.9,0,0,1-.079-1.194L30.367,4a3.978,3.978,0,0,1-1.294,1.622,6.555,6.555,0,0,1-2.116,1.044A9.189,9.189,0,0,1,24.32,7.027Zm1.186-3.316a5.015,5.015,0,0,0,1.951-.379,3.352,3.352,0,0,0,1.479-1.194,3.631,3.631,0,0,0,.572-2.13v-1.53l1.1,1.072a13.25,13.25,0,0,1-2.18.565q-1.236.222-2.466.35a6.743,6.743,0,0,0-2.18.493,1.212,1.212,0,0,0-.722,1.179,1.307,1.307,0,0,0,.615,1.179A3.435,3.435,0,0,0,25.507,3.711Zm11.622,9.249V-8.468h4.446V12.959Zm9.134-5.9a5.983,5.983,0,0,1-3.3-.965,7.1,7.1,0,0,1-2.4-2.6,7.507,7.507,0,0,1-.9-3.681V-.421l1.915-.043v.172a3.325,3.325,0,0,0,.515,1.851,3.517,3.517,0,0,0,1.329,1.222,3.605,3.605,0,0,0,1.7.429A3.6,3.6,0,0,0,47.656,2.2,4.125,4.125,0,0,0,48.735-.949a4.044,4.044,0,0,0-1.072-3.123,3.646,3.646,0,0,0-2.544-.979,3.654,3.654,0,0,0-1.7.422,3.519,3.519,0,0,0-1.329,1.194,3.247,3.247,0,0,0-.515,1.844l-1.915-.114a7.215,7.215,0,0,1,.9-3.638,6.82,6.82,0,0,1,2.4-2.494,6.223,6.223,0,0,1,3.3-.915,6.871,6.871,0,0,1,3.445.908A6.876,6.876,0,0,1,52.3-5.195,8.453,8.453,0,0,1,53.3-.949a9.114,9.114,0,0,1-.972,4.4A6.663,6.663,0,0,1,49.75,6.148,6.952,6.952,0,0,1,46.262,7.056Zm9.62-.343V-8.468h4.388V6.712ZM58.07-10.941a3.018,3.018,0,0,1-1.794-.543,1.767,1.767,0,0,1-.765-1.53,1.781,1.781,0,0,1,.765-1.544A3.018,3.018,0,0,1,58.07-15.1a3.041,3.041,0,0,1,1.808.543,1.781,1.781,0,0,1,.765,1.544,1.763,1.763,0,0,1-.765,1.537A3.07,3.07,0,0,1,58.07-10.941Zm11.822,18a6.979,6.979,0,0,1-3.5-.908,6.663,6.663,0,0,1-2.573-2.695,9.114,9.114,0,0,1-.972-4.4,8.453,8.453,0,0,1,.993-4.246,6.86,6.86,0,0,1,2.6-2.652,6.91,6.91,0,0,1,3.452-.908,6.187,6.187,0,0,1,3.295.915,6.84,6.84,0,0,1,2.394,2.494,7.215,7.215,0,0,1,.9,3.638v.272l-1.915.029v-.186a3.247,3.247,0,0,0-.515-1.844A3.519,3.519,0,0,0,72.722-4.63a3.654,3.654,0,0,0-1.7-.422,3.646,3.646,0,0,0-2.544.979A4.044,4.044,0,0,0,67.4-.949,4.125,4.125,0,0,0,68.483,2.2,3.6,3.6,0,0,0,71.021,3.21a3.613,3.613,0,0,0,1.73-.436,3.447,3.447,0,0,0,1.315-1.236,3.486,3.486,0,0,0,.5-1.887l1.915.1a7.738,7.738,0,0,1-.879,3.7,7.034,7.034,0,0,1-2.373,2.63A5.957,5.957,0,0,1,69.891,7.056Zm4.674-.343V-15.63h4.446V6.712Zm19.441,0H89.561V-14.372h7.219a8.55,8.55,0,0,1,4.138.936,6.539,6.539,0,0,1,2.63,2.53,7.135,7.135,0,0,1,.908,3.6,7.334,7.334,0,0,1-.922,3.638A6.925,6.925,0,0,1,100.9-1.028a8.08,8.08,0,0,1-4.117.993H94.006Zm0-8.119-2-2.058h4.3a4.012,4.012,0,0,0,1.944-.45,3.115,3.115,0,0,0,1.287-1.315A4.4,4.4,0,0,0,100-7.311a4.144,4.144,0,0,0-.45-2.037,2.819,2.819,0,0,0-1.272-1.2,4.519,4.519,0,0,0-1.966-.393h-4.3l2-2.116Zm13.223,8.119V-8.468h4.446v5.232l-.915-.572a7.185,7.185,0,0,1,.572-1.973A5.433,5.433,0,0,1,112.4-7.346a4.654,4.654,0,0,1,1.565-1.036,5.453,5.453,0,0,1,2.08-.372,5.965,5.965,0,0,1,1.437.136,3.686,3.686,0,0,1,.65.207l-.729,3.974a4.757,4.757,0,0,0-.572-.229,3.48,3.48,0,0,0-1.144-.157,4.26,4.26,0,0,0-1.915.386,3.358,3.358,0,0,0-1.236,1.022,4.117,4.117,0,0,0-.665,1.408,6.185,6.185,0,0,0-.2,1.558V6.712Zm20.47.329a8.948,8.948,0,0,1-4.331-1.015,7.436,7.436,0,0,1-2.923-2.795,7.931,7.931,0,0,1-1.051-4.11,7.9,7.9,0,0,1,1.051-4.1,7.287,7.287,0,0,1,2.923-2.773,9.938,9.938,0,0,1,8.663,0,7.287,7.287,0,0,1,2.923,2.773A7.9,7.9,0,0,1,136-.878a7.931,7.931,0,0,1-1.051,4.11,7.436,7.436,0,0,1-2.923,2.795A8.948,8.948,0,0,1,127.7,7.041Zm0-3.516a3.687,3.687,0,0,0,2.016-.543,3.592,3.592,0,0,0,1.329-1.537,5.362,5.362,0,0,0,.472-2.323,5.268,5.268,0,0,0-.472-2.309,3.513,3.513,0,0,0-1.329-1.508,3.762,3.762,0,0,0-2.016-.529,3.772,3.772,0,0,0-2.008.529,3.5,3.5,0,0,0-1.337,1.508,5.268,5.268,0,0,0-.472,2.309,5.362,5.362,0,0,0,.472,2.323,3.575,3.575,0,0,0,1.337,1.537A3.7,3.7,0,0,0,127.7,3.525Zm13.508,3.617a2.343,2.343,0,0,1-2.359-2.359,2.343,2.343,0,0,1,2.359-2.344,2.259,2.259,0,0,1,1.658.686,2.259,2.259,0,0,1,.686,1.658,2.276,2.276,0,0,1-.686,1.672A2.259,2.259,0,0,1,141.207,7.141Z" transform="translate(-1.22 15.63)" fill="#1389fd"/>
</svg>
