<svg xmlns="http://www.w3.org/2000/svg" xmlns:xlink="http://www.w3.org/1999/xlink" width="70" height="70" viewBox="0 0 70 70">
  <defs>
    <linearGradient id="linear-gradient" x1="0.5" x2="0.5" y2="1" gradientUnits="objectBoundingBox">
      <stop offset="0" stop-color="#82c1ff"/>
      <stop offset="1" stop-color="#1389fd"/>
    </linearGradient>
    <clipPath id="clip-path">
      <rect id="Rectangle_61" data-name="Rectangle 61" width="40.833" height="40.833" fill="#fff"/>
    </clipPath>
  </defs>
  <g id="Group_89347" data-name="Group 89347" transform="translate(-0.328)">
    <rect id="Rectangle_60" data-name="Rectangle 60" width="70" height="70" rx="8" transform="translate(0.328)" fill="url(#linear-gradient)"/>
    <g id="Mask_Group_22" data-name="Mask Group 22" transform="translate(15.167 15.167)" clip-path="url(#clip-path)">
      <g id="vector_1_" data-name="vector (1)" transform="translate(0 0)">
        <path id="Path_16057" data-name="Path 16057" d="M17.026,5.1,13.611,5.08A5.1,5.1,0,0,0,8.507,0H5.1A5.1,5.1,0,0,0,0,5.1v3.4a5.1,5.1,0,0,0,5.092,5.1L5.068,17A1.7,1.7,0,0,0,6.76,18.715h.01a1.7,1.7,0,0,0,1.7-1.69L8.5,13.611h.012a5.1,5.1,0,0,0,5.1-5.1V8.483L17,8.507h.012a1.7,1.7,0,1,0,.012-3.4Zm-6.817,3.4a1.7,1.7,0,0,1-1.7,1.7H5.1a1.7,1.7,0,0,1-1.7-1.7V5.1A1.7,1.7,0,0,1,5.1,3.4h3.4a1.7,1.7,0,0,1,1.7,1.7Z" transform="translate(0 0)" fill="#fff"/>
        <path id="Path_16058" data-name="Path 16058" d="M35.729,0h-3.4a5.1,5.1,0,0,0-5.1,5.092L23.83,5.068h-.01a1.7,1.7,0,0,0-.012,3.4l3.415.024v.012a5.1,5.1,0,0,0,5.1,5.1h.024L32.326,17a1.7,1.7,0,0,0,1.689,1.713h.012a1.7,1.7,0,0,0,1.7-1.69l.024-3.415a5.1,5.1,0,0,0,5.08-5.1V5.1A5.1,5.1,0,0,0,35.729,0Zm1.7,8.507a1.7,1.7,0,0,1-1.7,1.7h-3.4a1.7,1.7,0,0,1-1.7-1.7V5.1a1.7,1.7,0,0,1,1.7-1.7h3.4a1.7,1.7,0,0,1,1.7,1.7Z" transform="translate(0 0)" fill="#fff"/>
        <path id="Path_16059" data-name="Path 16059" d="M35.741,27.222l.024-3.393a1.7,1.7,0,0,0-1.691-1.712h-.01a1.7,1.7,0,0,0-1.7,1.69l-.024,3.415h-.012a5.1,5.1,0,0,0-5.1,5.1v.024l-3.391-.024h-.012a1.7,1.7,0,0,0-.012,3.4l3.415.024a5.1,5.1,0,0,0,5.1,5.08h3.4a5.1,5.1,0,0,0,5.1-5.1v-3.4a5.1,5.1,0,0,0-5.092-5.1Zm1.689,8.507a1.7,1.7,0,0,1-1.7,1.7h-3.4a1.7,1.7,0,0,1-1.7-1.7v-3.4a1.7,1.7,0,0,1,1.7-1.7h3.4a1.7,1.7,0,0,1,1.7,1.7Z" transform="translate(0 0)" fill="#fff"/>
        <path id="Path_16060" data-name="Path 16060" d="M17.026,32.362l-3.415-.024v-.012a5.1,5.1,0,0,0-5.1-5.1H8.483l.024-3.391a1.7,1.7,0,0,0-1.689-1.713H6.806a1.7,1.7,0,0,0-1.7,1.69L5.08,27.222A5.1,5.1,0,0,0,0,32.326v3.4a5.1,5.1,0,0,0,5.1,5.1h3.4a5.1,5.1,0,0,0,5.1-5.092L17,35.765h.01a1.7,1.7,0,0,0,.012-3.4Zm-6.817,3.367a1.7,1.7,0,0,1-1.7,1.7H5.1a1.7,1.7,0,0,1-1.7-1.7v-3.4a1.7,1.7,0,0,1,1.7-1.7h3.4a1.7,1.7,0,0,1,1.7,1.7Z" transform="translate(0 0)" fill="#fff"/>
      </g>
    </g>
  </g>
</svg>
