<svg xmlns="http://www.w3.org/2000/svg" xmlns:xlink="http://www.w3.org/1999/xlink" width="60" height="60" viewBox="0 0 60 60">
  <defs>
    <linearGradient id="linear-gradient" x1="0.5" x2="0.5" y2="1" gradientUnits="objectBoundingBox">
      <stop offset="0" stop-color="#daceff"/>
      <stop offset="1" stop-color="#c481fc"/>
    </linearGradient>
    <clipPath id="clip-path">
      <rect id="Rectangle_61" data-name="Rectangle 61" width="35" height="35" transform="translate(334 905)" fill="#fff"/>
    </clipPath>
  </defs>
  <g id="Group_89347" data-name="Group 89347" transform="translate(-321 -892)">
    <rect id="Rectangle_60" data-name="Rectangle 60" width="60" height="60" rx="8" transform="translate(321 892)" fill="url(#linear-gradient)"/>
    <g id="Mask_Group_6" data-name="Mask Group 6" clip-path="url(#clip-path)">
      <path id="send-back" d="M29.167,18.958H26.25V14.583A5.839,5.839,0,0,0,20.417,8.75H16.042V5.833A5.839,5.839,0,0,0,10.208,0H5.833A5.839,5.839,0,0,0,0,5.833v4.375a5.839,5.839,0,0,0,5.833,5.833H8.75v4.375a5.839,5.839,0,0,0,5.833,5.833h4.375v2.917A5.839,5.839,0,0,0,24.792,35h4.375A5.839,5.839,0,0,0,35,29.167V24.792A5.839,5.839,0,0,0,29.167,18.958Zm-26.25-8.75V5.833A2.92,2.92,0,0,1,5.833,2.917h4.375a2.92,2.92,0,0,1,2.917,2.917v4.375a2.92,2.92,0,0,1-2.917,2.917H5.833A2.92,2.92,0,0,1,2.917,10.208Zm8.75,10.208v-4.56a5.851,5.851,0,0,0,4.19-4.19h4.56a2.92,2.92,0,0,1,2.917,2.917v4.56a5.851,5.851,0,0,0-4.19,4.19h-4.56A2.92,2.92,0,0,1,11.667,20.417Zm20.417,8.75a2.92,2.92,0,0,1-2.917,2.917H24.792a2.92,2.92,0,0,1-2.917-2.917V24.792a2.92,2.92,0,0,1,2.917-2.917h4.375a2.92,2.92,0,0,1,2.917,2.917Z" transform="translate(334 905)" fill="#fff"/>
    </g>
  </g>
</svg>
