<svg xmlns="http://www.w3.org/2000/svg" width="71.231" height="10.257" viewBox="0 0 71.231 10.257">
  <g id="stars" transform="translate(-1186 -185)">
    <path id="Polygon_6" data-name="Polygon 6" d="M5.523,0,7.1,3.555l3.949.363L8.07,6.478l.867,3.779L5.523,8.285,2.11,10.257l.867-3.779L0,3.918l3.949-.363Z" transform="translate(1246.184 185)" fill="#fff"/>
    <path id="Polygon_5" data-name="Polygon 5" d="M5.523,0,7.1,3.555l3.949.363L8.07,6.478l.867,3.779L5.523,8.285,2.11,10.257l.867-3.779L0,3.918l3.949-.363Z" transform="translate(1231.138 185)" fill="#fff"/>
    <path id="Polygon_4" data-name="Polygon 4" d="M5.523,0,7.1,3.555l3.949.363L8.07,6.478l.867,3.779L5.523,8.285,2.11,10.257l.867-3.779L0,3.918l3.949-.363Z" transform="translate(1216.092 185)" fill="#fff"/>
    <path id="Polygon_3" data-name="Polygon 3" d="M5.523,0,7.1,3.555l3.949.363L8.07,6.478l.867,3.779L5.523,8.285,2.11,10.257l.867-3.779L0,3.918l3.949-.363Z" transform="translate(1201.046 185)" fill="#fff"/>
    <path id="Polygon_2" data-name="Polygon 2" d="M5.523,0,7.1,3.555l3.949.363L8.07,6.478l.867,3.779L5.523,8.285,2.11,10.257l.867-3.779L0,3.918l3.949-.363Z" transform="translate(1186 185)" fill="#fff"/>
  </g>
</svg>
