<svg id="Group_89347" data-name="Group 89347" xmlns="http://www.w3.org/2000/svg" xmlns:xlink="http://www.w3.org/1999/xlink" width="70" height="70" viewBox="0 0 70 70">
  <defs>
    <linearGradient id="linear-gradient" x1="0.5" x2="0.5" y2="1" gradientUnits="objectBoundingBox">
      <stop offset="0" stop-color="#82c1ff"/>
      <stop offset="1" stop-color="#1389fd"/>
    </linearGradient>
    <clipPath id="clip-path">
      <rect id="Rectangle_61" data-name="Rectangle 61" width="40.833" height="40.833" fill="#fff"/>
    </clipPath>
  </defs>
  <rect id="Rectangle_60" data-name="Rectangle 60" width="70" height="70" rx="8" fill="url(#linear-gradient)"/>
  <g id="Mask_Group_24" data-name="Mask Group 24" transform="translate(15.167 15.167)" clip-path="url(#clip-path)">
    <path id="badge-dollar" d="M17.013,17.013a1.307,1.307,0,0,0,1.1,1.293l5.174.863a4.7,4.7,0,0,1,3.939,4.65,5.11,5.11,0,0,1-5.1,5.1v3.4h-3.4v-3.4a5.11,5.11,0,0,1-5.1-5.1h3.4a1.7,1.7,0,0,0,1.7,1.7h3.4a1.7,1.7,0,0,0,1.7-1.7,1.307,1.307,0,0,0-1.1-1.293l-5.175-.863a4.7,4.7,0,0,1-3.939-4.65,5.11,5.11,0,0,1,5.1-5.1v-3.4h3.4v3.4a5.11,5.11,0,0,1,5.1,5.1h-3.4a1.7,1.7,0,0,0-1.7-1.7h-3.4a1.7,1.7,0,0,0-1.7,1.7ZM37.565,27.519A9.358,9.358,0,0,1,27.519,37.565a9.358,9.358,0,0,1-14.208,0A9.358,9.358,0,0,1,3.265,27.519a9.356,9.356,0,0,1,0-14.206A9.358,9.358,0,0,1,13.311,3.267a9.358,9.358,0,0,1,14.208,0A9.358,9.358,0,0,1,37.565,13.313a9.356,9.356,0,0,1,0,14.206Zm-.136-7.1a5.952,5.952,0,0,0-2.63-4.941l-.936-.629.216-1.106a5.954,5.954,0,0,0-6.987-6.986l-1.1.214-.629-.934a5.955,5.955,0,0,0-9.881,0l-.629.934-1.106-.214a5.955,5.955,0,0,0-6.987,6.987l.214,1.106-.934.629a5.955,5.955,0,0,0,0,9.881l.934.629-.214,1.106a5.955,5.955,0,0,0,6.987,6.987l1.106-.214.629.934a5.955,5.955,0,0,0,9.881,0l.629-.934,1.1.214A5.954,5.954,0,0,0,34.079,27.1l-.216-1.106.936-.629a5.954,5.954,0,0,0,2.63-4.941Z" transform="translate(0.002 0.001)" fill="#fff"/>
  </g>
</svg>
