<svg xmlns="http://www.w3.org/2000/svg" xmlns:xlink="http://www.w3.org/1999/xlink" width="35" height="35" viewBox="0 0 35 35">
  <defs>
    <clipPath id="clip-path">
      <rect id="Rectangle_61" data-name="Rectangle 61" width="35" height="35" transform="translate(13 13)" fill="#fff"/>
    </clipPath>
  </defs>
  <g id="Mask_Group_32" data-name="Mask Group 32" transform="translate(-13 -13)" clip-path="url(#clip-path)">
    <path id="user-time" d="M24.792,35A10.208,10.208,0,1,1,35,24.792,10.208,10.208,0,0,1,24.792,35Zm0-17.5a7.292,7.292,0,1,0,7.292,7.292A7.292,7.292,0,0,0,24.792,17.5Zm2.489,9.781a1.458,1.458,0,0,0,0-2.062L26.25,24.188V21.875a1.458,1.458,0,0,0-2.917,0v2.917a1.458,1.458,0,0,0,.427,1.031l1.459,1.459a1.458,1.458,0,0,0,2.062,0ZM2.917,33.541a12.1,12.1,0,0,1,9.072-11.7,1.459,1.459,0,0,0-.645-2.847A14.894,14.894,0,0,0,0,33.541a1.458,1.458,0,1,0,2.917,0Zm9.441-17.5a8.021,8.021,0,1,1,8.021-8.021A8.021,8.021,0,0,1,12.358,16.042Zm0-13.125a5.1,5.1,0,1,0,5.1,5.1A5.1,5.1,0,0,0,12.358,2.917Z" transform="translate(13 13)" fill="#fff"/>
  </g>
</svg>
