<svg xmlns="http://www.w3.org/2000/svg" xmlns:xlink="http://www.w3.org/1999/xlink" width="35" height="35" viewBox="0 0 35 35">
  <defs>
    <clipPath id="clip-path">
      <rect id="Rectangle_61" data-name="Rectangle 61" width="35" height="35" transform="translate(13 13)" fill="#fff"/>
    </clipPath>
  </defs>
  <g id="Mask_Group_216" data-name="Mask Group 216" transform="translate(-13 -13)" clip-path="url(#clip-path)">
    <path id="phone-call" d="M18.989,1.461A1.461,1.461,0,0,1,20.45,0,14.623,14.623,0,0,1,35.057,14.607a1.461,1.461,0,0,1-2.921,0A11.7,11.7,0,0,0,20.45,2.921a1.461,1.461,0,0,1-1.461-1.461Zm1.461,7.3a5.843,5.843,0,0,1,5.843,5.843,1.461,1.461,0,0,0,2.921,0A8.773,8.773,0,0,0,20.45,5.843a1.461,1.461,0,1,0,0,2.921ZM33.732,24.451a4.528,4.528,0,0,1,0,6.395L32.4,32.378C20.44,43.832-8.672,14.727,2.6,2.726l1.68-1.461a4.5,4.5,0,0,1,6.32.058c.045.045,2.752,3.561,2.752,3.561a4.528,4.528,0,0,1-.01,6.255l-1.692,2.127A18.669,18.669,0,0,0,21.779,23.411l2.14-1.7a4.528,4.528,0,0,1,6.253-.009S33.687,24.406,33.732,24.451Zm-2.01,2.124s-3.5-2.689-3.541-2.734a1.607,1.607,0,0,0-2.263,0c-.039.041-2.986,2.388-2.986,2.388a1.461,1.461,0,0,1-1.43.222A21.924,21.924,0,0,1,8.618,13.585a1.461,1.461,0,0,1,.212-1.461s2.347-2.948,2.387-2.986a1.607,1.607,0,0,0,0-2.263c-.045-.044-2.734-3.542-2.734-3.542a1.607,1.607,0,0,0-2.206.057L4.6,4.851C-3.644,14.76,21.583,38.589,30.267,30.383L31.6,28.849a1.637,1.637,0,0,0,.124-2.274Z" transform="translate(12.943 13.003)" fill="#fff"/>
  </g>
</svg>
