<svg xmlns="http://www.w3.org/2000/svg" xmlns:xlink="http://www.w3.org/1999/xlink" width="35" height="35" viewBox="0 0 35 35">
  <defs>
    <clipPath id="clip-path">
      <rect id="Rectangle_61" data-name="Rectangle 61" width="35" height="35" transform="translate(13 13)" fill="#fff"/>
    </clipPath>
  </defs>
  <g id="Mask_Group_33" data-name="Mask Group 33" transform="translate(-13 -13)" clip-path="url(#clip-path)">
    <path id="hands-holding-diamond" d="M15.455,10.812a2.919,2.919,0,0,0,4.124,0l2.9-2.9a2.92,2.92,0,0,0,0-4.126l-2.9-2.9a2.919,2.919,0,0,0-4.124,0l-2.9,2.9a2.92,2.92,0,0,0,0,4.126l2.9,2.9ZM17.517,2.95l2.9,2.9-2.9,2.9-2.9-2.9,2.9-2.9ZM35,8.75V23.481a11.59,11.59,0,0,1-3.417,8.25l-2.844,2.844a1.458,1.458,0,0,1-2.062-2.062l2.844-2.844a8.693,8.693,0,0,0,2.562-6.188V8.75a1.458,1.458,0,0,0-2.917,0s-.017,11.728-.019,11.761a4.341,4.341,0,0,1-1,2.708l-3.76,3.916a1.458,1.458,0,1,1-2.1-2.021l3.694-3.841a1.3,1.3,0,0,0,.274-.852v-.069a1.487,1.487,0,0,0-.372-.909,1.443,1.443,0,0,0-1-.481,1.416,1.416,0,0,0-1.05.369l-4.613,4.245a10.2,10.2,0,0,1,1.2,4.778v5.19a1.458,1.458,0,0,1-2.917,0v-5.19a7.316,7.316,0,0,0-2.355-5.367l-3.986-3.669a1.417,1.417,0,0,0-1.035-.356,1.443,1.443,0,0,0-1,.481,1.458,1.458,0,0,0-.032,1.9l3.749,3.894a1.458,1.458,0,0,1-2.1,2.023L6.923,23.3a4.541,4.541,0,0,1-1.088-2.708c-.007-.058,0-11.836,0-11.836a1.458,1.458,0,1,0-2.917,0V23.482A8.7,8.7,0,0,0,5.48,29.67l2.844,2.844a1.458,1.458,0,1,1-2.062,2.062L3.418,31.732A11.59,11.59,0,0,1,0,23.482V8.75a4.375,4.375,0,1,1,8.75,0v7.56a4.249,4.249,0,0,1,4.368.846s4.242,3.929,4.362,4.051l4.388-4.038a4.25,4.25,0,0,1,4.382-.859V8.75a4.375,4.375,0,1,1,8.75,0Z" transform="translate(12.999 12.98)" fill="#fff"/>
  </g>
</svg>
