<svg xmlns="http://www.w3.org/2000/svg" xmlns:xlink="http://www.w3.org/1999/xlink" width="1920" height="452" viewBox="0 0 1920 452">
  <defs>
    <clipPath id="clip-path">
      <rect id="Rectangle_2333" data-name="Rectangle 2333" width="1920" height="452" transform="translate(0 7759)" fill="#1389fd"/>
    </clipPath>
  </defs>
  <g id="Mask_Group_239" data-name="Mask Group 239" transform="translate(0 -7759)" opacity="0.09" clip-path="url(#clip-path)">
    <g id="Group_89731" data-name="Group 89731" transform="translate(1)">
      <path id="Path_16713" data-name="Path 16713" d="M52.089,90.352q17.021-9.9,24.661-.535c5.093,6.156,7.595,16.594,7.595,31.315v79.313c0,15.078,1.43,27.568,4.2,37.472,2.77,10.259,7.505,17.575,14.028,21.858,6.343,4.372,14.921,5.531,25.822,3.48q15.949-2.944,39.85-16.684l7.6-4.372V179.746l-9.471,5.442c-11.348,6.6-18.942,7.405-22.784,2.588-4.021-4.639-6.076-14.364-6.076-29.085V88.835c0-18.2-1.787-32.564-5.361-43.181-3.574-10.528-10.632-17.308-21.265-20.341q15.949-22.884,21.265-44.787c3.574-14.632,5.272-31.047,5.272-49.248v-69.857c0-14.721,2.055-26.676,6.076-36.044,3.752-9.189,11.348-17.04,22.784-23.642l9.471-5.442v-62.452l-7.594,4.372c-15.994,9.278-29.307,19-39.85,29.352a136.154,136.154,0,0,0-25.822,33.278A132.288,132.288,0,0,0,88.454-161.15a204.435,204.435,0,0,0-4.2,42.289v79.314c0,14.721-2.5,28.1-7.595,40.058A56.777,56.777,0,0,1,52,28.346Z" transform="translate(-52 7876.267)" fill="#fff" opacity="0.12"/>
      <path id="Path_16714" data-name="Path 16714" d="M457.874-173q-17.021,9.9-24.661.535c-5.092-6.156-7.594-16.593-7.594-31.313v-79.309c0-15.077-1.43-27.566-4.2-37.469-2.77-10.259-7.327-17.664-13.671-22.035-6.612-4.283-15.189-5.442-25.822-3.48Q365.576-343,341.719-329.214l-7.594,4.371v62.448l9.471-5.442c11.348-6.6,19.121-7.494,23.142-2.855,3.752,4.818,5.718,14.541,5.718,29.261v69.853c0,18.2,1.787,32.562,5.361,43.178,3.574,10.527,10.632,17.307,21.265,20.34q-15.949,22.883-21.265,44.784c-3.574,14.63-5.272,31.045-5.272,49.244V55.822c0,14.719-1.877,26.674-5.719,35.863-4.021,9.367-11.794,17.307-23.141,23.82l-9.471,5.442v62.448l7.595-4.372q23.856-13.783,40.207-29.439a144.716,144.716,0,0,0,25.822-33.276,135.6,135.6,0,0,0,13.67-37.826,205,205,0,0,0,4.2-42.286V-43.113c0-14.72,2.5-28.1,7.594-40.056A56.774,56.774,0,0,1,457.964-111Z" transform="translate(-169.967 7910.069)" fill="#fff" opacity="0.2"/>
      <g id="Group_89722" data-name="Group 89722" transform="translate(35.519 7636.988)" opacity="0.7">
        <path id="Path_16715" data-name="Path 16715" d="M113.133,136.549q17.02-9.9,24.66-.535c5.093,6.156,7.6,16.594,7.6,31.315v79.314c0,15.077,1.43,27.568,4.2,37.471,2.77,10.26,7.505,17.576,14.028,21.858,6.343,4.372,14.921,5.532,25.822,3.48q15.949-2.944,39.85-16.683l7.6-4.372V225.943l-9.471,5.443c-11.348,6.6-18.943,7.4-22.785,2.587-4.021-4.639-6.075-14.364-6.075-29.085V135.032c0-18.2-1.787-32.564-5.361-43.181-3.574-10.528-10.632-17.308-21.265-20.341q15.949-22.884,21.265-44.787c3.574-14.632,5.272-31.047,5.272-49.247V-92.381c0-14.721,2.055-26.676,6.076-36.044,3.752-9.189,11.348-17.04,22.784-23.643l9.471-5.442v-62.452l-7.594,4.372q-23.856,13.784-39.85,29.263a136.142,136.142,0,0,0-25.822,33.278A132.29,132.29,0,0,0,149.5-115.042a205.94,205.94,0,0,0-4.2,42.378V6.649c0,14.721-2.5,28.1-7.594,40.058a56.728,56.728,0,0,1-24.661,27.835Z" transform="translate(-113.043 219.961)" fill="#fff"/>
      </g>
      <g id="Group_89723" data-name="Group 89723" transform="translate(319.479 7589.949)" opacity="0.7">
        <path id="Path_16716" data-name="Path 16716" d="M519.262-126.81q-16.955,9.9-24.565.535c-5.073-6.156-7.565-16.593-7.565-31.313V-236.9c0-15.077-1.424-27.566-4.184-37.469-2.759-10.259-7.3-17.664-13.617-22.035-6.586-4.282-15.13-5.442-25.722-3.48q-16.287,3.078-40.051,16.861l-7.565,4.372V-216.2l9.434-5.442c11.3-6.6,19.047-7.494,23.052-2.855,3.738,4.817,5.7,14.541,5.7,29.261v69.852c0,18.2,1.78,32.562,5.34,43.178,3.56,10.527,10.591,17.307,21.183,20.34Q444.81-38.981,439.515-17.08c-3.56,14.631-5.251,31.045-5.251,49.245v69.852c0,14.72-1.869,26.674-5.7,35.863-4,9.367-11.748,17.307-23.052,23.819l-9.434,5.442V229.59l7.565-4.371q23.764-13.783,40.052-29.44A144.632,144.632,0,0,0,469.42,162.5a135.92,135.92,0,0,0,13.617-37.826,205.789,205.789,0,0,0,4.184-42.286V3.082c0-14.719,2.492-28.1,7.565-40.056a56.7,56.7,0,0,1,24.565-27.834Z" transform="translate(-395.992 300.805)" fill="#fff"/>
      </g>
      <g id="Group_89724" data-name="Group 89724" transform="translate(880.443 7501.974)" opacity="0.5">
        <path id="Path_16717" data-name="Path 16717" d="M1198.406-452,962-315.532l.138,565.92,236.407-136.468Z" transform="translate(-962 452)" fill="#fff"/>
      </g>
      <path id="Path_16718" data-name="Path 16718" d="M1188.3,86.217,1007.64,190.469v81.023L1188.3,167.24Z" transform="translate(-102.318 7728.926)" fill="#94d8ff" opacity="0.15"/>
      <path id="Path_16719" data-name="Path 16719" d="M1188.347-82.258,1007.41,22.133v18.8l180.937-104.39Z" transform="translate(-102.217 7799.371)" fill="#94d8ff" opacity="0.15"/>
      <g id="Group_89725" data-name="Group 89725" transform="translate(171.975 8143.77)" opacity="0.5">
        <path id="Path_16720" data-name="Path 16720" d="M583.965,651,347.559,787.468l.138,565.918L584.1,1216.922Z" transform="translate(-347.559 -651)" fill="#fff"/>
      </g>
      <path id="Path_16721" data-name="Path 16721" d="M463.991,934.008,276,1042.544v51.99L463.991,985.993Z" transform="translate(-145.662 7374.434)" fill="#fff"/>
      <path id="Path_16722" data-name="Path 16722" d="M573.767,1026.45l-180.8,104.392v80.885l180.8-104.392Z" transform="translate(-69.938 7335.781)" fill="#94d8ff" opacity="0.15"/>
      <g id="Group_89726" data-name="Group 89726" transform="translate(171.975 8143.77)" opacity="0.4">
        <path id="Path_16723" data-name="Path 16723" d="M583.965,651,347.559,787.468v75.906L583.965,726.908Z" transform="translate(-347.559 -651)" fill="#fff"/>
      </g>
      <path id="Path_16724" data-name="Path 16724" d="M652.336,753.372c0,11.476,6.778,16.868,15.078,12.167,8.3-4.839,14.94-17.975,14.94-29.451s-6.778-16.869-15.078-12.167S652.336,741.9,652.336,753.372Z" transform="translate(-110.726 7462.988)" fill="#94d8ff" opacity="0.2"/>
      <g id="Group_89727" data-name="Group 89727" transform="translate(1508.331 7876.694)" opacity="0.5">
        <path id="Path_16725" data-name="Path 16725" d="M1491,429.54,1902.669,192l-.14,214.45L1527.244,623.112,1491,676.9Z" transform="translate(-1491 -192)" fill="#fff"/>
      </g>
      <path id="Path_16726" data-name="Path 16726" d="M1672.87,547.676l90.189-51.988v18.8L1672.87,566.48Z" transform="translate(-183.598 7557.711)" fill="#94d8ff" opacity="0.15"/>
      <path id="Path_16727" data-name="Path 16727" d="M1672.87,557.3l223.4-128.864v18.8l-223.4,128.864Z" transform="translate(-58.715 7585.83)" fill="#94d8ff" opacity="0.15"/>
      <path id="Path_16728" data-name="Path 16728" d="M1672.87,603l269.467-155.549v18.8L1672.87,621.8Z" transform="translate(-58.715 7577.883)" fill="#94d8ff" opacity="0.15"/>
      <path id="Path_16729" data-name="Path 16729" d="M1601.233,625.591c0,17.7-10.514,38.023-23.379,45.49s-23.374-.83-23.374-18.528,10.509-38.023,23.374-45.489S1601.233,607.893,1601.233,625.591Z" transform="translate(-152.277 7512.289)" fill="#fff" opacity="0.7"/>
      <path id="Path_16730" data-name="Path 16730" d="M1719.462-41.176l67.508-39.048V-103l-67.508,39.048a67.663,67.663,0,0,0-20.388,19.524c-7.372,10.618-12.685,23.977-12.685,38.534,0,16.1,4.114,25.175,11.823,27.916,7.372,2.4,15.937-1.713,21.25-4.8l27.755-16.1.175-.171c2.4-1.37,6.168-2.74,9.077-1.884,2.4.685,5.313,3.254,5.313,12.16s-2.741,14.386-5.138,17.64a27.407,27.407,0,0,1-9.083,8.221l-.343.171L1662.23,86.243v22.778l84.475-48.81c5.824-3.083,14.221-9.419,21.418-19.524A70.845,70.845,0,0,0,1781.489-.245c0-15.585-5.487-23.634-13.2-25.861-7.2-2.055-15.588,1.028-21.418,4.453L1719.288-5.725c-3.939,2.226-7.023,3.254-8.908,2.569-1.542-.514-4.283-2.74-4.283-14.215a26.028,26.028,0,0,1,4.795-15.756A30.088,30.088,0,0,1,1719.462-41.176Z" transform="translate(-54.267 7808.045)" fill="#85d3ff" opacity="0.15"/>
      <path id="Path_16731" data-name="Path 16731" d="M1612,239.568c0,19.524,11.48,28.773,25.532,20.552s25.526-30.485,25.526-50.009-11.48-28.772-25.526-20.551C1623.311,197.78,1612,220.215,1612,239.568Z" transform="translate(-155.826 7686.971)" fill="#fff" opacity="0.7"/>
      <g id="Group_89728" data-name="Group 89728" transform="translate(910.631 8302.037)" opacity="0.7">
        <path id="Path_16732" data-name="Path 16732" d="M1092.82,925.083c-8.3,4.839-14.937,16.315-14.937,25.994v42.171l-27.941,16.036c-8.3,4.841-14.942,16.315-14.942,26,0,9.537,6.779,13.412,14.942,8.711l27.941-16.042v42.174c0,9.542,6.779,13.412,14.937,8.71,8.3-4.841,14.942-16.315,14.942-25.992V1010.67l27.941-16.036c8.3-4.841,14.942-16.315,14.942-26,0-9.539-6.779-13.41-14.942-8.709l-27.941,16.041V933.794C1107.762,924.115,1101.123,920.244,1092.82,925.083Z" transform="translate(-1035 -923)" fill="#fff"/>
      </g>
    </g>
  </g>
</svg>
