<svg xmlns="http://www.w3.org/2000/svg" xmlns:xlink="http://www.w3.org/1999/xlink" width="35" height="35" viewBox="0 0 35 35">
  <defs>
    <clipPath id="clip-path">
      <rect id="Rectangle_61" data-name="Rectangle 61" width="35" height="35" transform="translate(13 13)" fill="#fff"/>
    </clipPath>
  </defs>
  <g id="Mask_Group_218" data-name="Mask Group 218" transform="translate(-13 -13)" clip-path="url(#clip-path)">
    <g id="WA_Logo" transform="translate(13.001 13)">
      <g id="Group_89484" data-name="Group 89484">
        <path id="Path_16063" data-name="Path 16063" d="M29.842,5.087a17.348,17.348,0,0,0-27.3,20.927L.083,35l9.193-2.412A17.326,17.326,0,0,0,17.564,34.7h.007A17.352,17.352,0,0,0,29.842,5.087ZM17.573,31.77h-.006a14.378,14.378,0,0,1-7.337-2.01L9.7,29.448,4.248,30.879l1.457-5.32-.343-.545A14.414,14.414,0,1,1,17.573,31.77Zm7.907-10.8c-.433-.217-2.564-1.266-2.962-1.41s-.685-.217-.976.216-1.119,1.41-1.372,1.7-.506.325-.939.108a11.828,11.828,0,0,1-3.485-2.151,13.045,13.045,0,0,1-2.411-3c-.252-.435-.026-.668.19-.884.2-.194.433-.506.65-.76a2.88,2.88,0,0,0,.436-.722.8.8,0,0,0-.036-.76c-.109-.216-.976-2.349-1.336-3.217-.351-.846-.709-.731-.976-.744s-.541-.015-.831-.015a1.588,1.588,0,0,0-1.155.543A4.866,4.866,0,0,0,8.76,13.491a8.433,8.433,0,0,0,1.769,4.483c.216.289,3.055,4.667,7.4,6.544a25.075,25.075,0,0,0,2.47.913,5.957,5.957,0,0,0,2.73.172,4.464,4.464,0,0,0,2.925-2.061,3.606,3.606,0,0,0,.252-2.061C26.2,21.3,25.913,21.191,25.48,20.974Z" fill="#fff" fill-rule="evenodd"/>
      </g>
    </g>
  </g>
</svg>
