<svg xmlns="http://www.w3.org/2000/svg" width="47.214" height="47.214" viewBox="0 0 47.214 47.214">
  <g id="ai" transform="matrix(0.921, 0.391, -0.391, 0.921, 14.069, 0)" opacity="0.1">
    <g id="Group_62" data-name="Group 62" transform="translate(0 0)">
      <path id="Path_47" data-name="Path 47" d="M1.674,0H1.629C1.4.92,1.172,2.088.918,2.983L0,6.262H3.417L2.454,2.983C2.18,2.065,1.9.92,1.674,0Z" transform="translate(12.879 12.819)" fill="#1389fd"/>
      <path id="Path_48" data-name="Path 48" d="M33.8,0H2.2A2.2,2.2,0,0,0,0,2.2V33.8a2.2,2.2,0,0,0,2.2,2.2H33.8a2.206,2.206,0,0,0,2.2-2.2V2.2A2.207,2.207,0,0,0,33.8,0ZM18.692,27.543l-1.415-4.7H12.033l-1.306,4.7H6.433l5.6-18.318h5.434L23.15,27.543Zm10.746,0H25.3V14.253h4.134ZM27.346,12.622A2.025,2.025,0,0,1,25.2,10.554a2.02,2.02,0,0,1,2.179-2.089,2.083,2.083,0,1,1-.03,4.158Z" fill="#1389fd"/>
    </g>
  </g>
</svg>
