<svg xmlns="http://www.w3.org/2000/svg" width="51.71" height="56.305" viewBox="0 0 51.71 56.305">
  <path id="android" d="M6.047,18.117V30.274A2.877,2.877,0,0,1,3.16,33.182,3.134,3.134,0,0,1,0,30.274V18.117A3.131,3.131,0,0,1,3.16,15.23,2.9,2.9,0,0,1,6.047,18.117ZM7.181,34.6a3.1,3.1,0,0,0,3.107,3.107h2.089l.031,6.414c0,3.874,5.8,3.842,5.8,0V37.707h3.905v6.414c0,3.853,5.827,3.863,5.827,0V37.707h2.121A3.1,3.1,0,0,0,33.143,34.6V15.765H7.181V34.6ZM33.216,14.747H7.065A11.8,11.8,0,0,1,13.742,4.312L11.737.606a.4.4,0,1,1,.7-.4l2.037,3.737a14.184,14.184,0,0,1,11.37,0L27.873.217a.4.4,0,1,1,.7.4l-2.005,3.7A11.826,11.826,0,0,1,33.216,14.747ZM15.3,8.92a1.1,1.1,0,0,0-1.1-1.1,1.1,1.1,0,0,0,0,2.2A1.1,1.1,0,0,0,15.3,8.92Zm11.905,0a1.087,1.087,0,1,0-1.071,1.1A1.1,1.1,0,0,0,27.2,8.92Zm9.952,6.309a2.879,2.879,0,0,0-2.887,2.887V30.274a2.9,2.9,0,0,0,2.887,2.908,3.126,3.126,0,0,0,3.16-2.908V18.117A3.108,3.108,0,0,0,37.153,15.23Z" transform="translate(12.959) rotate(16)" fill="#1389fd" opacity="0.1"/>
</svg>
