<svg xmlns="http://www.w3.org/2000/svg" width="41.662" height="42.395" viewBox="0 0 41.662 42.395">
  <g id="apple" transform="matrix(0.914, 0.407, -0.407, 0.914, 15.951, -6.515)" opacity="0.1">
    <path id="Path_59" data-name="Path 59" d="M10.665,30.182C4.828,30.148,0,18.234,0,12.166,0,2.254,7.436.084,10.3.084a11.853,11.853,0,0,1,3.887.956,8.688,8.688,0,0,0,2.219.636A6.906,6.906,0,0,0,18,1.16,12.761,12.761,0,0,1,22.8,0h.011A9.836,9.836,0,0,1,31.04,4.157l.6.9-.864.652a7.27,7.27,0,0,0-3.486,5.995,6.766,6.766,0,0,0,3.776,6.255c.541.325,1.1.661,1.1,1.395,0,.479-3.824,10.767-9.377,10.767a7.541,7.541,0,0,1-3.166-.769,6.421,6.421,0,0,0-2.819-.679,7.25,7.25,0,0,0-2.232.6,10.931,10.931,0,0,1-3.871.9Z" transform="translate(0 9.035)" fill="#1389fd"/>
    <path id="Path_60" data-name="Path 60" d="M7.368,0C7.512,5.214,3.783,8.832.058,8.6-.555,4.444,3.783,0,7.368,0Z" transform="translate(16.019 0)" fill="#1389fd"/>
  </g>
</svg>
