<svg xmlns="http://www.w3.org/2000/svg" width="46.65" height="50.577" viewBox="0 0 46.65 50.577">
  <g id="css" transform="matrix(0.966, -0.259, 0.259, 0.966, 0, 9.555)" opacity="0.1">
    <path id="Subtraction_1" data-name="Subtraction 1" d="M18.458,42.47h0l-15.1-4.247L0,0H36.916L33.549,38.225,18.458,42.47ZM8.224,24.168,8.891,31.7l9.559,2.665.008,0L28.022,31.7,29.3,17.3l.425-4.8.417-4.685H6.771l.3,4.43,18.036-.05-.348,4.762-17.227.2L8,21.609l16.37-.045L23.66,28.07l-5.205,1.412,0,0-5.2-1.412-.348-3.9Z" transform="translate(0 0)" fill="#1389fd"/>
  </g>
</svg>
