<svg xmlns="http://www.w3.org/2000/svg" width="56.577" height="56.577" viewBox="0 0 56.577 56.577">
  <g id="dreamweaver" transform="matrix(0.695, -0.719, 0.719, 0.695, 0, 28.782)" opacity="0.1">
    <path id="Union_1" data-name="Union 1" d="M3.517,40.012A3.521,3.521,0,0,1,0,36.5V3.517A3.521,3.521,0,0,1,3.517,0H36.5a3.521,3.521,0,0,1,3.517,3.517V36.5A3.521,3.521,0,0,1,36.5,40.012ZM30.63,29.8a1.173,1.173,0,0,0,1.1.76l.066,0a1.17,1.17,0,0,0,1.07-.886l2.344-9.378a1.172,1.172,0,0,0-2.274-.568L31.5,25.444c-.082-.246-2.121-5.655-2.217-5.885-.362-.872-1.5-1.079-2.174.034l-2.194,5.853-1.432-5.725a1.172,1.172,0,1,0-2.273.568l2.344,9.378a1.17,1.17,0,0,0,1.07.886l.066,0a1.173,1.173,0,0,0,1.1-.76l2.419-6.45ZM4.767,10.628V29.384a1.171,1.171,0,0,0,1.172,1.172h4.689a8.215,8.215,0,0,0,8.206-8.205V17.661a8.215,8.215,0,0,0-8.206-8.206H5.939A1.172,1.172,0,0,0,4.767,10.628ZM7.111,28.211V11.8h3.517a5.868,5.868,0,0,1,5.861,5.861V22.35a5.868,5.868,0,0,1-5.861,5.861Z" transform="translate(0 0)" fill="#1389fd"/>
    <g id="Group_68" data-name="Group 68" transform="translate(31.086 24.961)">
      <g id="Group_67" data-name="Group 67">
        <g id="Group_66" data-name="Group 66">
          <path id="Path_52" data-name="Path 52" d="M.016,0,0,.064C.112.321.108.277.016,0Z" fill="#1389fd"/>
        </g>
      </g>
    </g>
  </g>
</svg>
