<svg xmlns="http://www.w3.org/2000/svg" width="49.744" height="53.999" viewBox="0 0 49.744 53.999">
  <path id="html" d="M.711,0A.7.7,0,0,0,0,.774l3.6,40.41a1.21,1.21,0,0,0,.818.982L19.711,46.41a3.316,3.316,0,0,0,1.5,0l15.334-4.252a1.21,1.21,0,0,0,.818-.982L40.97.774A.7.7,0,0,0,40.262,0ZM33.3,9.268c-.034.38-.093,1.039-.131,1.464l-.095,1.06c-.038.425-.093,1.034-.121,1.352s-.056.579-.061.579H13.983a.7.7,0,0,0-.708.774l.333,3.722a.868.868,0,0,0,.846.774H31.736a.623.623,0,0,1,.63.69c-.035.38-.094,1.039-.132,1.464l-1.071,12c-.038.426-.087.969-.107,1.208s-.375.528-.787.642l-9.034,2.5-.76.21c-.006,0-.348-.091-.76-.205L10.671,35a1.209,1.209,0,0,1-.818-.982l-.582-6.534a.7.7,0,0,1,.708-.774h3.61a.868.868,0,0,1,.846.774l.228,2.558a1.2,1.2,0,0,0,.819.976l4.23,1.142.753.2.753-.2,4.238-1.145a1.2,1.2,0,0,0,.819-.976l.46-5.124a.7.7,0,0,0-.708-.774H9.749a.868.868,0,0,1-.846-.774L7.776,10.732c-.038-.426-.1-1.084-.131-1.464a.666.666,0,0,1,.715-.69H32.582A.665.665,0,0,1,33.3,9.268Z" transform="matrix(0.978, 0.208, -0.208, 0.978, 9.667, 0)" fill="#1389fd" opacity="0.1"/>
</svg>
