<svg xmlns="http://www.w3.org/2000/svg" width="56.16" height="56.16" viewBox="0 0 56.16 56.16">
  <g id="joomla-logo" transform="matrix(0.883, -0.469, 0.469, 0.883, 0, 19.495)" opacity="0.1">
    <path id="Path_46" data-name="Path 46" d="M.053,5.562a5.554,5.554,0,0,1,11.036-.9A9.184,9.184,0,0,1,19.7,7.115l.319.321-4.1,4.1-.317-.319a3.414,3.414,0,0,0-4.825,4.831l.8.8,4.1,4.1,4.336,4.338-4.1,4.105-4.34-4.341-4.1-4.1-.8-.8a9.215,9.215,0,0,1-2.3-9.164A5.562,5.562,0,0,1,.053,5.562Zm12.016,10.8,4.1,4.1,4.338-4.336,4.1-4.1.8-.8a3.4,3.4,0,1,1,4.811,4.816l-.316.319,4.1,4.1.319-.321a9.219,9.219,0,0,0,2.335-9.067A5.563,5.563,0,1,0,30.417,4.8a9.2,9.2,0,0,0-9.109,2.326l-.8.8-4.1,4.1ZM36.752,30.458a9.207,9.207,0,0,0-2.436-8.7l-.8-.807-4.1-4.1-4.325-4.335-4.1,4.1,4.328,4.338,4.1,4.1.8.8A3.4,3.4,0,1,1,25.4,30.677l-.316-.314-4.1,4.107.314.313a9.2,9.2,0,0,0,9.221,2.291,5.556,5.556,0,1,0,6.224-6.616ZM28.93,25.542l-4.1-4.1L20.5,25.776l-4.1,4.1-.8.8a3.413,3.413,0,0,1-4.825-4.829l.317-.314L7,21.438l-.314.311a9.215,9.215,0,0,0-2.41,8.8,5.562,5.562,0,1,0,6.7,6.661A9.192,9.192,0,0,0,19.7,34.786l.8-.805,4.1-4.107Z" transform="translate(0 0)" fill="#1389fd"/>
  </g>
</svg>
