<svg xmlns="http://www.w3.org/2000/svg" width="57.348" height="58.629" viewBox="0 0 57.348 58.629">
  <g id="json" transform="translate(29.797) rotate(40)" opacity="0.1">
    <path id="Path_61" data-name="Path 61" d="M3.437.7A1.678,1.678,0,0,0,2.8.164,1.761,1.761,0,0,0,2.054,0a1.975,1.975,0,0,0-.77.153A1.651,1.651,0,0,0,.628.671a2.679,2.679,0,0,0-.453.945A5.536,5.536,0,0,0,0,3.037a5.647,5.647,0,0,0,.169,1.4,2.739,2.739,0,0,0,.437.945,1.752,1.752,0,0,0,.634.535,1.709,1.709,0,0,0,.749.169,1.924,1.924,0,0,0,.77-.158,1.717,1.717,0,0,0,.655-.519,2.619,2.619,0,0,0,.453-.945,5.642,5.642,0,0,0,.175-1.426,5.574,5.574,0,0,0-.169-1.393A2.8,2.8,0,0,0,3.437.7Z" transform="translate(18.266 36.056)" fill="#1389fd"/>
    <path id="Path_62" data-name="Path 62" d="M35.966,31.17v-20a1.846,1.846,0,0,0-.44-1.432l-9.3-9.3A1.512,1.512,0,0,0,25.164,0H1.969A2.072,2.072,0,0,0,0,2.339V31.17Zm-17.583-4.8a.8.8,0,1,1-1.6,0v-2.4a.8.8,0,0,1,1.6,0ZM24.776,2.71a.41.41,0,0,1,.7-.29l8.068,8.068a.41.41,0,0,1-.29.7H24.776Zm-.8,16.471v-3.2a.8.8,0,0,0-.8-.8.8.8,0,1,1,0-1.6,2.4,2.4,0,0,1,2.4,2.4v3.2a1.6,1.6,0,0,0,1.6,1.6.8.8,0,0,1,0,1.6,1.6,1.6,0,0,0-1.6,1.6v3.2a2.4,2.4,0,0,1-2.4,2.4.8.8,0,1,1,0-1.6.8.8,0,0,0,.8-.8v-3.2a3.177,3.177,0,0,1,1.1-2.4A3.177,3.177,0,0,1,23.977,19.182Zm-6.394-1.6a1.2,1.2,0,1,1-1.2,1.2A1.2,1.2,0,0,1,17.583,17.583Zm-9.591,3.2a1.6,1.6,0,0,0,1.6-1.6v-3.2a2.4,2.4,0,0,1,2.4-2.4.8.8,0,1,1,0,1.6.8.8,0,0,0-.8.8v3.2a3.177,3.177,0,0,1-1.1,2.4,3.177,3.177,0,0,1,1.1,2.4v3.2a.8.8,0,0,0,.8.8.8.8,0,1,1,0,1.6,2.4,2.4,0,0,1-2.4-2.4v-3.2a1.6,1.6,0,0,0-1.6-1.6.8.8,0,0,1,0-1.6Z" transform="translate(0 0)" fill="#1389fd"/>
    <path id="Path_63" data-name="Path 63" d="M0,0V11.989a1.939,1.939,0,0,0,1.969,1.6H34a1.939,1.939,0,0,0,1.969-1.6V0ZM9.208,8.445A2.006,2.006,0,0,1,9,9.4a1.7,1.7,0,0,1-.557.623,2.22,2.22,0,0,1-.8.328,4.671,4.671,0,0,1-.934.093,3.8,3.8,0,0,1-.563-.05,4.806,4.806,0,0,1-.667-.153q-.344-.1-.661-.235a2.453,2.453,0,0,1-.535-.295l.557-.885a1.631,1.631,0,0,0,.312.158q.2.082.443.153t.5.125a2.394,2.394,0,0,0,.492.054,1.678,1.678,0,0,0,.923-.224.884.884,0,0,0,.366-.759V2.172H9.208Zm6.344.585a2.2,2.2,0,0,1-.508.721,2.436,2.436,0,0,1-.809.5,3.014,3.014,0,0,1-1.093.185c-.175,0-.355-.01-.541-.027a4.39,4.39,0,0,1-.563-.093,2.946,2.946,0,0,1-.541-.181,1.749,1.749,0,0,1-.443-.279l.229-.94a2.333,2.333,0,0,0,.388.169c.157.054.318.105.486.153s.335.086.5.115a2.708,2.708,0,0,0,.47.044,1.5,1.5,0,0,0,1.021-.312,1.163,1.163,0,0,0,.355-.923.881.881,0,0,0-.251-.634,2.721,2.721,0,0,0-.628-.476q-.376-.213-.814-.426a4.967,4.967,0,0,1-.819-.5,2.623,2.623,0,0,1-.634-.683,1.789,1.789,0,0,1-.251-.983,2.2,2.2,0,0,1,.2-.95,2.126,2.126,0,0,1,.53-.7,2.345,2.345,0,0,1,.776-.443,2.831,2.831,0,0,1,.934-.153,5.731,5.731,0,0,1,1.016.093,2.239,2.239,0,0,1,.83.3c-.044.094-.094.2-.153.312s-.113.218-.164.316-.094.181-.131.246a1.01,1.01,0,0,1-.066.109,1.319,1.319,0,0,1-.148-.087,1.112,1.112,0,0,0-.235-.109,1.676,1.676,0,0,0-.4-.077,3.821,3.821,0,0,0-.645.011,1.129,1.129,0,0,0-.416.125,1.438,1.438,0,0,0-.35.257,1.17,1.17,0,0,0-.241.344.882.882,0,0,0-.087.366.988.988,0,0,0,.251.7,2.464,2.464,0,0,0,.623.47q.37.2.809.393a4.385,4.385,0,0,1,.814.464,2.347,2.347,0,0,1,.628.683,1.985,1.985,0,0,1,.251,1.054A2.033,2.033,0,0,1,15.552,9.03Zm7.835-.913a3.654,3.654,0,0,1-.711,1.289,2.983,2.983,0,0,1-1.06.776,3.492,3.492,0,0,1-2.655,0,2.973,2.973,0,0,1-1.06-.776,3.661,3.661,0,0,1-.711-1.289,5.708,5.708,0,0,1-.257-1.792,5.654,5.654,0,0,1,.257-1.786A3.663,3.663,0,0,1,17.9,3.255a3.047,3.047,0,0,1,1.06-.782,3.425,3.425,0,0,1,2.655,0,3.037,3.037,0,0,1,1.06.782,3.67,3.67,0,0,1,.711,1.284,5.654,5.654,0,0,1,.257,1.786A5.708,5.708,0,0,1,23.386,8.117Zm7.928,2.273H29.981L26.823,4.839V10.39H25.49V2.337h1.333l3.158,5.551V2.337h1.333Z" transform="translate(0 32.769)" fill="#1389fd"/>
  </g>
</svg>
