<svg xmlns="http://www.w3.org/2000/svg" width="60.103" height="41.516" viewBox="0 0 60.103 41.516">
  <g id="php" transform="translate(-3.179 15.976) rotate(-19)" opacity="0.1">
    <path id="Subtraction_5" data-name="Subtraction 5" d="M-7325.7-1117.018a48.657,48.657,0,0,1-18.768-3.475l1.006-4.019h4.383a7.179,7.179,0,0,0,6.972-5.444l.218-.88a4.927,4.927,0,0,0-.9-4.257,4.934,4.934,0,0,0-3.912-1.91h-5.237a1.245,1.245,0,0,0-1.21.947l-3.617,14.466a15.967,15.967,0,0,1-4.7-3.659,6.663,6.663,0,0,1-1.713-4.26c0-6.771,12.585-12.492,27.482-12.492s27.481,5.72,27.481,12.492S-7310.8-1117.018-7325.7-1117.018Zm12.958-20.22a1.249,1.249,0,0,0-1.21.947l-2.493,9.965a.352.352,0,0,1-.013.052l-1.242,4.974a1.234,1.234,0,0,0,.141.944,1.244,1.244,0,0,0,.769.569,1.236,1.236,0,0,0,.3.039,1.244,1.244,0,0,0,1.209-.947l1.013-4.051h4.383a7.18,7.18,0,0,0,6.974-5.444l.218-.88a4.922,4.922,0,0,0-.9-4.257,4.93,4.93,0,0,0-3.913-1.91Zm-13.379,2.5h4.414a1.628,1.628,0,0,1,1.27.6,1.64,1.64,0,0,1,.334,1.367l-1.356,6.52a1.238,1.238,0,0,0,.178.937,1.243,1.243,0,0,0,.792.54,1.179,1.179,0,0,0,.254.026,1.255,1.255,0,0,0,1.222-.995l1.356-6.52a4.135,4.135,0,0,0-.841-3.453,4.131,4.131,0,0,0-3.209-1.524h-3.96l.413-2.275a1.233,1.233,0,0,0-.2-.933,1.234,1.234,0,0,0-.8-.517,1.245,1.245,0,0,0-.227-.021,1.243,1.243,0,0,0-1.225,1.025l-2.5,13.741a1.239,1.239,0,0,0,.2.934,1.242,1.242,0,0,0,.8.518,1.154,1.154,0,0,0,.224.02,1.247,1.247,0,0,0,1.229-1.026l1.629-8.966Zm16.24,7.494h-3.757l1.875-7.494h4.259a2.449,2.449,0,0,1,1.943.948,2.441,2.441,0,0,1,.447,2.117l-.218.878A4.685,4.685,0,0,1-7309.878-1127.245Z" transform="translate(7355.56 1144.85)" fill="#1389fd"/>
    <g id="Group_78" data-name="Group 78" transform="translate(12.442 9.759)">
      <path id="SVGCleanerId_0_1_" d="M0,8.67,2.038,0H6.672A2.607,2.607,0,0,1,8.783,1.1,2.971,2.971,0,0,1,9.27,3.545L9.033,4.562A5.162,5.162,0,0,1,4.086,8.67Z" fill="#1389fd"/>
    </g>
  </g>
</svg>
