<svg xmlns="http://www.w3.org/2000/svg" width="54" height="54" viewBox="0 0 54 54">
  <g id="ps" opacity="0.1">
    <g id="Group_63" data-name="Group 63" transform="matrix(0.883, -0.469, 0.469, 0.883, 0, 18.745)">
      <path id="Union_2" data-name="Union 2" d="M2.446,39.929A2.446,2.446,0,0,1,0,37.484V2.439A2.443,2.443,0,0,1,2.446,0H37.485a2.442,2.442,0,0,1,2.444,2.442V37.484a2.445,2.445,0,0,1-2.444,2.444ZM22.6,29.016a11.264,11.264,0,0,0,5.161,1.109c4.562,0,6.917-2.188,6.917-5.162-.03-2.345-1.305-3.882-4.341-4.924-1.958-.688-2.573-1.079-2.573-1.829,0-.816.683-1.306,1.887-1.306a7.8,7.8,0,0,1,3.46.913l.88-3.43a10.738,10.738,0,0,0-4.5-.914c-3.949,0-6.5,2.259-6.5,5.226-.031,1.893,1.244,3.69,4.54,4.8,1.859.622,2.347,1.013,2.347,1.827s-.621,1.339-2.119,1.339a9.768,9.768,0,0,1-4.281-1.2ZM6.557,8.091V29.8h4.93V21.931a12.3,12.3,0,0,0,1.7.1c2.933,0,5.45-.717,7.143-2.318a7.025,7.025,0,0,0,2.027-5.219A6.421,6.421,0,0,0,20,9.4c-1.465-1.178-3.655-1.763-6.72-1.763A40.966,40.966,0,0,0,6.557,8.091ZM11.2,19.153v-7.97a10.138,10.138,0,0,1,2.519-.244c3.044,0,4.766,1.483,4.769,3.964,0,2.766-2,4.407-5.249,4.407A9.476,9.476,0,0,1,11.2,19.153Z" fill="#1389fd"/>
    </g>
  </g>
</svg>
