<svg xmlns="http://www.w3.org/2000/svg" width="27.538" height="38.995" viewBox="0 0 27.538 38.995">
  <g id="server" opacity="0.1">
    <g id="Group_81" data-name="Group 81" transform="translate(0.008)">
      <g id="Group_80" data-name="Group 80" transform="translate(0)">
        <path id="Path_72" data-name="Path 72" d="M78.378,1.5A30.652,30.652,0,0,0,68.339,0,30.64,30.64,0,0,0,58.3,1.5c-2.331.844-3.722,1.944-3.722,2.946s1.391,2.1,3.722,2.945h0a30.635,30.635,0,0,0,10.039,1.5,30.636,30.636,0,0,0,10.039-1.5C80.708,6.545,82.1,5.444,82.1,4.443S80.708,2.341,78.378,1.5Z" transform="translate(-54.578)" fill="#1389fd"/>
      </g>
    </g>
    <g id="Group_83" data-name="Group 83" transform="translate(0 27.369)">
      <g id="Group_82" data-name="Group 82" transform="translate(0)">
        <path id="Path_73" data-name="Path 73" d="M68.272,263.619c-5.393,0-11.036-1.114-13.769-3.225v7.182c0,1,1.4,2.1,3.726,2.947a30.675,30.675,0,0,0,10.044,1.5,36.1,36.1,0,0,0,6.677-.6c4.172-.8,7.09-2.382,7.09-3.846v-7.182C79.308,262.5,73.665,263.619,68.272,263.619Zm2.417,4.879H65.854a.841.841,0,1,1,0-1.682h4.835a.841.841,0,1,1,0,1.682Z" transform="translate(-54.503 -260.394)" fill="#1389fd"/>
      </g>
    </g>
    <g id="Group_85" data-name="Group 85" transform="translate(0 17.356)">
      <g id="Group_84" data-name="Group 84" transform="translate(0)">
        <path id="Path_74" data-name="Path 74" d="M68.272,168.355c-5.393,0-11.036-1.114-13.769-3.225v7.112c0,1,1.4,2.1,3.726,2.947a30.672,30.672,0,0,0,10.044,1.5,30.653,30.653,0,0,0,10.041-1.5c2.33-.843,3.725-1.945,3.725-2.947V165.13C79.308,167.241,73.665,168.355,68.272,168.355Zm2.417,4.7H65.854a.841.841,0,0,1,0-1.682h4.835a.841.841,0,0,1,0,1.682Z" transform="translate(-54.503 -165.13)" fill="#1389fd"/>
      </g>
    </g>
    <g id="Group_87" data-name="Group 87" transform="translate(0 7.343)">
      <g id="Group_86" data-name="Group 86" transform="translate(0)">
        <path id="Path_75" data-name="Path 75" d="M68.272,73.093c-5.393,0-11.036-1.114-13.769-3.225V76.98c0,1,1.4,2.1,3.726,2.947a30.672,30.672,0,0,0,10.044,1.5,30.653,30.653,0,0,0,10.041-1.5c2.33-.843,3.725-1.945,3.725-2.947V69.868C79.308,71.979,73.665,73.093,68.272,73.093Zm2.417,4.829H65.854a.841.841,0,0,1,0-1.682h4.835a.841.841,0,0,1,0,1.682Z" transform="translate(-54.503 -69.868)" fill="#1389fd"/>
      </g>
    </g>
  </g>
</svg>
