<svg xmlns="http://www.w3.org/2000/svg" width="52.357" height="46.808" viewBox="0 0 52.357 46.808">
  <g id="swift" transform="matrix(0.996, 0.087, -0.087, 0.996, 3.723, 0)" opacity="0.1">
    <g id="Group_69" data-name="Group 69" transform="translate(0 0)">
      <path id="Path_54" data-name="Path 54" d="M44.593,30.06S51.552,14.322,30.09,0c0,0,8.787,10.853,4.266,22.978,0,0-15.768-10.972-23.7-18.841,0,0,9.913,14,13.471,16.852,0,0-5.916-3.005-19.625-14.45,0,0,15.726,20.135,23.14,24.339,0,0-11.219,7.524-27.64-3.094,0,0,8.638,14.932,26.859,14.932,8.192,0,10.594-4.128,14.652-4.128,4.2,0,6.728,4.128,6.728,4.128C50.689,36.806,44.593,30.06,44.593,30.06Z" transform="translate(0 0)" fill="#1389fd"/>
    </g>
  </g>
</svg>
