<svg xmlns="http://www.w3.org/2000/svg" width="55.333" height="55.332" viewBox="0 0 55.333 55.332">
  <path id="wordpress" d="M21.1,0A21.1,21.1,0,1,0,42.2,21.1,21.123,21.123,0,0,0,21.1,0ZM2.128,21.1A18.818,18.818,0,0,1,3.77,13.38l9.052,24.792A18.979,18.979,0,0,1,2.128,21.1ZM21.1,40.071A18.852,18.852,0,0,1,15.74,39.3l5.692-16.538L27.26,38.735A2.855,2.855,0,0,0,27.4,39a19,19,0,0,1-6.3,1.073Zm2.611-27.86v0c1.139-.06,2.168-.178,2.168-.178a.786.786,0,0,0-.12-1.567s-3.072.237-5.053.237c-1.864,0-5-.237-5-.237a.786.786,0,0,0-.118,1.567s.969.12,1.99.178l2.952,8.1L16.384,32.755,9.477,12.209c1.141-.06,2.17-.178,2.17-.178a.786.786,0,0,0-.12-1.567s-3.072.237-5.053.237c-.357,0-.775-.009-1.226-.025A18.974,18.974,0,0,1,33.912,7.1a2.343,2.343,0,0,0-.246-.016,3.283,3.283,0,0,0-3.182,3.369c0,1.565.9,2.884,1.864,4.45a9.959,9.959,0,0,1,1.567,5.233c0,1.625-.621,3.5-1.447,6.135l-1.89,6.321ZM37.75,12a18.974,18.974,0,0,1-7.112,25.5l0,0L36.43,20.741a17.962,17.962,0,0,0,1.447-6.8A14.05,14.05,0,0,0,37.75,12Z" transform="matrix(0.921, 0.391, -0.391, 0.921, 16.488, 0)" fill="#1389fd" opacity="0.1"/>
</svg>
