<svg xmlns="http://www.w3.org/2000/svg" xmlns:xlink="http://www.w3.org/1999/xlink" width="47" height="47" viewBox="0 0 47 47">
  <defs>
    <clipPath id="clip-path">
      <rect id="Rectangle_2327" data-name="Rectangle 2327" width="47" height="47" transform="translate(334 905)" fill="#fff"/>
    </clipPath>
  </defs>
  <g id="api-integration" transform="translate(-334 -905)" clip-path="url(#clip-path)">
    <path id="api" d="M41.12,27.187l-.881-.509a17.49,17.49,0,0,0,0-6.384l.881-.509A5.873,5.873,0,1,0,35.264,9.6l-.881.509a17.588,17.588,0,0,0-5.6-3.231V5.86a5.875,5.875,0,0,0-11.75,0V6.879a17.588,17.588,0,0,0-5.6,3.231L10.55,9.6A5.878,5.878,0,1,0,4.675,19.784l.881.509a17.491,17.491,0,0,0,0,6.384l-.881.509A5.873,5.873,0,1,0,10.531,37.37l.881-.509a17.588,17.588,0,0,0,5.6,3.231V41.11a5.875,5.875,0,1,0,11.75,0V40.092a17.588,17.588,0,0,0,5.6-3.231l.881.509a5.826,5.826,0,0,0,4.465.587,5.881,5.881,0,0,0,1.41-10.771Zm-5.013-7.324a13.284,13.284,0,0,1,0,7.285,1.949,1.949,0,0,0,.92,2.213l2.135,1.234a1.979,1.979,0,0,1,.725,2.683,1.954,1.954,0,0,1-1.195.92A1.886,1.886,0,0,1,37.2,34l-2.135-1.234a1.931,1.931,0,0,0-2.37.333,13.667,13.667,0,0,1-6.365,3.682,1.952,1.952,0,0,0-1.469,1.9V41.15a1.958,1.958,0,0,1-3.917,0V38.682a1.969,1.969,0,0,0-1.469-1.9A13.667,13.667,0,0,1,13.116,33.1a1.923,1.923,0,0,0-1.41-.587,1.976,1.976,0,0,0-.979.255L8.592,34a1.971,1.971,0,0,1-1.488.2,2.009,2.009,0,0,1-1.195-.92,1.979,1.979,0,0,1,.725-2.683L8.768,29.36a1.949,1.949,0,0,0,.92-2.213,13.284,13.284,0,0,1,0-7.285,1.949,1.949,0,0,0-.92-2.213L6.634,16.416a1.979,1.979,0,0,1-.725-2.683,1.961,1.961,0,0,1,2.683-.725l2.135,1.234a1.931,1.931,0,0,0,2.37-.333,13.667,13.667,0,0,1,6.365-3.682,1.952,1.952,0,0,0,1.469-1.9V5.86a1.958,1.958,0,0,1,3.917,0V8.328a1.969,1.969,0,0,0,1.469,1.9,13.667,13.667,0,0,1,6.365,3.682,1.934,1.934,0,0,0,2.37.333l2.135-1.234a1.971,1.971,0,0,1,1.488-.2,2.009,2.009,0,0,1,1.195.92,1.979,1.979,0,0,1-.725,2.683L37.007,17.65a1.949,1.949,0,0,0-.92,2.213Zm-9.713-3.8L23.26,31.73A1.931,1.931,0,0,1,21.341,33.3a1.4,1.4,0,0,1-.392-.039,1.952,1.952,0,0,1-1.528-2.311L22.555,15.28a1.959,1.959,0,1,1,3.838.783Zm-8.95,5.19-2.37,2.37,2.37,2.33a1.95,1.95,0,0,1,0,2.761,1.923,1.923,0,0,1-1.39.568,2.006,2.006,0,0,1-1.39-.568l-2.37-2.37a3.877,3.877,0,0,1,0-5.5l2.37-2.37a1.952,1.952,0,0,1,2.761,2.761Zm16.078-.392a3.877,3.877,0,0,1,0,5.5l-2.37,2.37a1.923,1.923,0,0,1-1.39.568,2.006,2.006,0,0,1-1.39-.568,1.95,1.95,0,0,1,0-2.761l2.37-2.37-2.37-2.35a1.952,1.952,0,0,1,2.761-2.761l2.37,2.37Z" transform="translate(334.602 905.015)" fill="#fff"/>
  </g>
</svg>
