<svg xmlns="http://www.w3.org/2000/svg" width="35" height="9" viewBox="0 0 35 9">
  <path id="autoLeave" d="M-8.574,4.6-5-4.129h2.075L.62,4.6H-1.33L-2.213,2.3H-5.8L-6.7,4.6Zm3.33-3.74h2.485L-4-2.359ZM4.708,4.722a4.187,4.187,0,0,1-2.044-.474A3.278,3.278,0,0,1,1.328,2.9,4.3,4.3,0,0,1,.856.832V-4.129h1.8V.832A2.583,2.583,0,0,0,2.913,2.01a1.806,1.806,0,0,0,.721.773,2.142,2.142,0,0,0,1.087.268A2.108,2.108,0,0,0,5.8,2.783a1.818,1.818,0,0,0,.714-.773A2.583,2.583,0,0,0,6.77.832V-4.129H8.559V.832a4.269,4.269,0,0,1-.472,2.051A3.318,3.318,0,0,1,6.752,4.242,4.142,4.142,0,0,1,4.708,4.722ZM12.374,4.6v-7.13H9.442v-1.6H17.1v1.6h-2.92V4.6Zm9.455.137a4.685,4.685,0,0,1-1.8-.343A4.509,4.509,0,0,1,17.586,2,4.385,4.385,0,0,1,17.232.234a4.385,4.385,0,0,1,.354-1.764,4.509,4.509,0,0,1,2.441-2.393,4.685,4.685,0,0,1,1.8-.343,4.732,4.732,0,0,1,1.808.343,4.492,4.492,0,0,1,1.466.96,4.421,4.421,0,0,1,.975,1.434A4.452,4.452,0,0,1,26.426.234,4.452,4.452,0,0,1,26.078,2,4.421,4.421,0,0,1,25.1,3.431a4.492,4.492,0,0,1-1.466.96A4.732,4.732,0,0,1,21.829,4.734Zm0-1.658a2.691,2.691,0,0,0,1.093-.218,2.758,2.758,0,0,0,.87-.6,2.738,2.738,0,0,0,.584-.9A2.97,2.97,0,0,0,24.587.234a2.956,2.956,0,0,0-.211-1.128,2.754,2.754,0,0,0-.584-.9,2.758,2.758,0,0,0-.87-.6,2.691,2.691,0,0,0-1.093-.218,2.66,2.66,0,0,0-1.081.218,2.758,2.758,0,0,0-.87.6,2.754,2.754,0,0,0-.584.9A2.923,2.923,0,0,0,19.083.222a3,3,0,0,0,.211,1.134,2.738,2.738,0,0,0,.584.9,2.758,2.758,0,0,0,.87.6A2.66,2.66,0,0,0,21.829,3.076Z" transform="translate(8.574 4.266)" fill="#e95b6d"/>
</svg>
