<svg xmlns="http://www.w3.org/2000/svg" xmlns:xlink="http://www.w3.org/1999/xlink" width="47" height="47" viewBox="0 0 47 47">
  <defs>
    <clipPath id="clip-path">
      <rect id="Rectangle_61" data-name="Rectangle 61" width="47" height="47" transform="translate(334 905)" fill="#fff"/>
    </clipPath>
  </defs>
  <g id="cloud-migration" transform="translate(-334 -905)" clip-path="url(#clip-path)">
    <path id="network-cloud" d="M43.976,37.2H29.59a6.866,6.866,0,0,0-3.23-3.229V27.412c2.046,0,3.788-.02,4.7-.037a10.71,10.71,0,0,0,2.165-.26,10.065,10.065,0,0,0,.3-19.6l-.362-.084c-.11-.025-.276-.065-.253-.018a.894.894,0,0,1-.049-.1A12.182,12.182,0,0,0,19.894.129a11.8,11.8,0,0,0-9.805,8.895,11.616,11.616,0,0,0-.243,4.5A7.322,7.322,0,0,0,11.456,27.12a8.016,8.016,0,0,0,1.762.249c1.1.025,4.037.043,7.264.043v6.561A6.866,6.866,0,0,0,17.255,37.2H2.861a2.937,2.937,0,1,0,0,5.874H17.255a6.811,6.811,0,0,0,12.335,0H43.98a2.937,2.937,0,1,0,0-5.874ZM12.915,21.427A1.545,1.545,0,0,1,11.84,20.4a1.639,1.639,0,0,1,1.069-1.846,4.785,4.785,0,0,0,2.827-5.439,5.832,5.832,0,0,1,.051-2.674,6.038,6.038,0,0,1,4.934-4.5,6.939,6.939,0,0,1,.94-.067,6.265,6.265,0,0,1,5.8,3.74,5.97,5.97,0,0,0,4.57,3.569,4.192,4.192,0,0,1-.09,8.182,4.985,4.985,0,0,1-.995.121c-3.031.055-15.113.067-17.576,0A2.14,2.14,0,0,1,12.915,21.427Z" transform="translate(334.079 905.005)" fill="#fff"/>
  </g>
</svg>
