<svg xmlns="http://www.w3.org/2000/svg" xmlns:xlink="http://www.w3.org/1999/xlink" width="47" height="47" viewBox="0 0 47 47">
  <defs>
    <clipPath id="clip-path">
      <rect id="Rectangle_2326" data-name="Rectangle 2326" width="47" height="47" transform="translate(334 905)" fill="#fff"/>
    </clipPath>
  </defs>
  <g id="desktop-web-app-migration" transform="translate(-334 -905)" clip-path="url(#clip-path)">
    <path id="browser" d="M37.208,1.458H9.792A9.8,9.8,0,0,0,0,11.25v23.5a9.8,9.8,0,0,0,9.792,9.792H37.208A9.8,9.8,0,0,0,47,34.75V11.25a9.8,9.8,0,0,0-9.792-9.792ZM9.792,5.375H37.208a5.875,5.875,0,0,1,5.875,5.875v1.958H3.917V11.25A5.875,5.875,0,0,1,9.792,5.375Zm27.417,35.25H9.792A5.875,5.875,0,0,1,3.917,34.75V17.125H43.083V34.75A5.875,5.875,0,0,1,37.208,40.625Zm0-15.667a1.958,1.958,0,0,1-1.958,1.958H11.75a1.958,1.958,0,0,1,0-3.917h23.5A1.958,1.958,0,0,1,37.208,24.958Zm-7.833,7.833a1.958,1.958,0,0,1-1.958,1.958H11.75a1.958,1.958,0,1,1,0-3.917H27.417A1.958,1.958,0,0,1,29.375,32.792Zm-23.5-23.5A1.958,1.958,0,1,1,7.833,11.25,1.958,1.958,0,0,1,5.875,9.292Zm5.875,0a1.958,1.958,0,1,1,1.958,1.958A1.958,1.958,0,0,1,11.75,9.292Zm5.875,0a1.958,1.958,0,1,1,1.958,1.958A1.958,1.958,0,0,1,17.625,9.292Z" transform="translate(334 905.5)" fill="#fff"/>
  </g>
</svg>
