<svg id="foxpro" xmlns="http://www.w3.org/2000/svg" xmlns:xlink="http://www.w3.org/1999/xlink" width="361.187" height="288.059" viewBox="0 0 361.187 288.059">
  <defs>
    <clipPath id="clip-path">
      <path id="Path_16442" data-name="Path 16442" d="M261.135,383.2c-.135,9.374-8.325,35.669-12.225,47.682h41.117l10.5-68.96-9.848-4.746s-7.564-3.519-12.69-2.293-11.608,5.076-11.608,5.076l-5.448,1.937S261.3,370.89,261.135,383.2Z" transform="translate(-248.91 -354.623)" fill="#fff" stroke="#263238" stroke-linejoin="round" stroke-width="1.055"/>
    </clipPath>
    <clipPath id="clip-path-2">
      <path id="Path_16446" data-name="Path 16446" d="M269.18,347.459s3.3,3.6,3.9,6.3-1.5,13.215,3.6,15.914,10.8-2.4,13.807-8.41S292,351.689,292,351.689s-7.208-7.208-10.508-12.606A46.813,46.813,0,0,1,276.684,328s-1.8,9.907-4.23,13.536A32.726,32.726,0,0,0,269.18,347.459Z" transform="translate(-269.18 -328)" fill="#fff" stroke="#263238" stroke-linecap="round" stroke-linejoin="round" stroke-width="1.055"/>
    </clipPath>
  </defs>
  <g id="freepik--Plants--inject-13" transform="translate(0 122.04)">
    <path id="Path_16340" data-name="Path 16340" d="M442.524,269.465s.338-4.137-4.983-10.415-8.782-9.89-8.782-9.89-3.68,9.306,1.227,15.525a101.7,101.7,0,0,0,11.929,12.259Z" transform="translate(-99.17 -249.16)" fill="#1389fd"/>
    <path id="Path_16341" data-name="Path 16341" d="M430.065,299.215s.338-4.137-4.975-10.415-8.782-9.89-8.782-9.89-3.68,9.306,1.227,15.525a101.7,101.7,0,0,0,11.921,12.234Z" transform="translate(-97.253 -253.741)" fill="#1389fd"/>
    <path id="Path_16342" data-name="Path 16342" d="M443.9,278.575s.778-4.086,7.614-8.714,11.1-7.191,11.1-7.191,1.066,9.932-5.322,14.636a102.381,102.381,0,0,1-14.755,8.613Z" transform="translate(-101.496 -251.24)" fill="#1389fd"/>
    <path id="Path_16343" data-name="Path 16343" d="M428.779,314.058s1.2-3.976,8.46-7.868,11.794-5.99,11.794-5.99,0,9.992-6.836,14a102.763,102.763,0,0,1-15.567,7.014Z" transform="translate(-99.046 -257.019)" fill="#1389fd"/>
    <path id="Path_16344" data-name="Path 16344" d="M428.079,352.884s.338-4.137,6.616-9.459,10.271-8.325,10.271-8.325,2.115,9.763-3.74,15.118a102,102,0,0,1-13.756,10.152Z" transform="translate(-99.175 -262.392)" fill="#1389fd"/>
    <path id="Path_16345" data-name="Path 16345" d="M424.876,361.709s.922-4.053-3.452-11-7.276-11.041-7.276-11.041-4.966,8.672-1,15.541a101.692,101.692,0,0,0,10.059,13.807Z" transform="translate(-96.734 -263.096)" fill="#1389fd"/>
    <path id="Path_16346" data-name="Path 16346" d="M418.078,390.4s.338-4.146,6.616-9.467,10.271-8.325,10.271-8.325,2.115,9.763-3.748,15.119a101.852,101.852,0,0,1-13.756,10.152Z" transform="translate(-97.634 -268.168)" fill="#1389fd"/>
    <path id="Path_16347" data-name="Path 16347" d="M420.633,415.919s-.719-4.095,4-10.829,7.834-10.66,7.834-10.66,4.518,8.909.2,15.575a101.926,101.926,0,0,1-10.745,13.274Z" transform="translate(-98.117 -271.527)" fill="#1389fd"/>
    <path id="Path_16348" data-name="Path 16348" d="M441.593,272a119.277,119.277,0,0,1-2.64,12.69c-3.266,11.658-9.628,18.824-12.8,29.332s2.276,24.823-.618,38.41-8.866,20.8-8.088,30.085,6.768,34.78,6.768,34.78" transform="translate(-97.621 -252.677)" fill="none" stroke="#263238" stroke-linecap="round" stroke-linejoin="round" stroke-width="0.528"/>
    <line id="Line_28" data-name="Line 28" y1="4.281" x2="6.641" transform="translate(342.127 25.795)" fill="none" stroke="#263238" stroke-linecap="round" stroke-linejoin="round" stroke-width="0.528"/>
    <line id="Line_29" data-name="Line 29" x1="2.234" y1="4.865" transform="translate(340.638 19.721)" fill="none" stroke="#263238" stroke-linecap="round" stroke-linejoin="round" stroke-width="0.528"/>
    <path id="Path_16349" data-name="Path 16349" d="M428.2,319.851s5.558-3.494,11.252-6.971" transform="translate(-99.288 -258.971)" fill="none" stroke="#263238" stroke-linecap="round" stroke-linejoin="round" stroke-width="0.528"/>
    <path id="Path_16350" data-name="Path 16350" d="M430.61,308.995s-3.655-8.9-8.13-14.975" transform="translate(-98.407 -256.067)" fill="none" stroke="#263238" stroke-linecap="round" stroke-linejoin="round" stroke-width="0.528"/>
    <path id="Path_16351" data-name="Path 16351" d="M427.86,360.554a65.034,65.034,0,0,1,12.42-14.044" transform="translate(-99.235 -264.149)" fill="none" stroke="#263238" stroke-linecap="round" stroke-linejoin="round" stroke-width="0.528"/>
    <path id="Path_16352" data-name="Path 16352" d="M424.661,366.861a73.129,73.129,0,0,0-4.78-11.218c-2.682-4.755-3.071-5.372-3.071-5.372" transform="translate(-97.534 -264.728)" fill="none" stroke="#263238" stroke-linecap="round" stroke-linejoin="round" stroke-width="0.528"/>
    <path id="Path_16353" data-name="Path 16353" d="M417.45,399.6a69.887,69.887,0,0,1,5.491-9.137,60.714,60.714,0,0,1,6.768-7.487" transform="translate(-97.633 -269.764)" fill="none" stroke="#263238" stroke-linecap="round" stroke-linejoin="round" stroke-width="0.528"/>
    <path id="Path_16354" data-name="Path 16354" d="M422.17,424.8a17.808,17.808,0,0,1,2.318-9.036c2.538-4.036,5.457-9.357,6.65-11.455" transform="translate(-98.359 -273.049)" fill="none" stroke="#263238" stroke-linecap="round" stroke-linejoin="round" stroke-width="0.528"/>
    <path id="Path_16355" data-name="Path 16355" d="M395,332.5s-.237-2.631,3.122-6.65,5.533-6.337,5.533-6.337,2.394,5.922-.7,9.89a65.293,65.293,0,0,1-7.53,7.843Z" transform="translate(-94.175 -259.992)" fill="#1389fd"/>
    <path id="Path_16356" data-name="Path 16356" d="M403.089,351.376s-.237-2.64,3.122-6.65,5.533-6.337,5.533-6.337,2.386,5.922-.7,9.882a65.3,65.3,0,0,1-7.53,7.843Z" transform="translate(-95.421 -262.899)" fill="#1389fd"/>
    <path id="Path_16357" data-name="Path 16357" d="M393.588,338.314s-.516-2.6-4.865-5.508-7.09-4.526-7.09-4.526-.643,6.328,3.452,9.306A65.274,65.274,0,0,0,394.51,343Z" transform="translate(-92.112 -261.342)" fill="#1389fd"/>
    <path id="Path_16358" data-name="Path 16358" d="M403.114,360.831s-.787-2.538-5.415-4.966-7.53-3.765-7.53-3.765,0,6.362,4.408,8.883a65.743,65.743,0,0,0,9.941,4.391Z" transform="translate(-93.432 -265.01)" fill="#1389fd"/>
    <path id="Path_16359" data-name="Path 16359" d="M404.262,385.534s-.237-2.64-4.23-5.99-6.582-5.254-6.582-5.254-1.3,6.218,2.453,9.6a64.68,64.68,0,0,0,8.807,6.379Z" transform="translate(-93.904 -268.426)" fill="#1389fd"/>
    <path id="Path_16360" data-name="Path 16360" d="M406.88,391.116s-.609-2.538,2.149-7.022,4.577-7.064,4.577-7.064,3.2,5.491.711,9.89a65.312,65.312,0,0,1-6.337,8.832Z" transform="translate(-95.996 -268.848)" fill="#1389fd"/>
    <path id="Path_16361" data-name="Path 16361" d="M413.291,417.325s.516-2.6,4.865-5.508,7.1-4.518,7.1-4.518.635,6.328-3.46,9.306a64.708,64.708,0,0,1-9.433,5.4Z" transform="translate(-96.849 -273.509)" fill="#1389fd"/>
    <path id="Path_16362" data-name="Path 16362" d="M410.8,409.364s-.237-2.64-4.23-6-6.582-5.245-6.582-5.245-1.3,6.218,2.454,9.6a65.715,65.715,0,0,0,8.8,6.379Z" transform="translate(-94.911 -272.096)" fill="#1389fd"/>
    <path id="Path_16363" data-name="Path 16363" d="M409.75,425.6s.44-2.606-2.6-6.87-5.025-6.768-5.025-6.768-2.843,5.685-.059,9.907a65.076,65.076,0,0,0,6.9,8.4Z" transform="translate(-95.076 -274.227)" fill="#1389fd"/>
    <path id="Path_16364" data-name="Path 16364" d="M394.55,334.1a77.3,77.3,0,0,0,1.743,8.088c2.132,7.4,6.21,11.929,8.283,18.613s-1.337,15.8.567,24.442,5.744,13.19,5.288,19.112-4.129,22.157-4.129,22.157" transform="translate(-94.107 -262.238)" fill="none" stroke="#263238" stroke-linecap="round" stroke-linejoin="round" stroke-width="0.528"/>
    <line id="Line_30" data-name="Line 30" x1="4.247" y1="2.699" transform="translate(297.423 76.024)" fill="none" stroke="#263238" stroke-linecap="round" stroke-linejoin="round" stroke-width="0.528"/>
    <line id="Line_31" data-name="Line 31" y1="3.105" x2="1.396" transform="translate(301.171 72.115)" fill="none" stroke="#263238" stroke-linecap="round" stroke-linejoin="round" stroke-width="0.528"/>
    <path id="Path_16365" data-name="Path 16365" d="M404.791,364.5s-3.545-2.191-7.191-4.382" transform="translate(-94.576 -266.245)" fill="none" stroke="#263238" stroke-linecap="round" stroke-linejoin="round" stroke-width="0.528"/>
    <path id="Path_16366" data-name="Path 16366" d="M403.59,357.6a53.2,53.2,0,0,1,5.076-9.569" transform="translate(-95.498 -264.383)" fill="none" stroke="#263238" stroke-linecap="round" stroke-linejoin="round" stroke-width="0.528"/>
    <path id="Path_16367" data-name="Path 16367" d="M405.07,390.383a41.529,41.529,0,0,0-7.97-8.883" transform="translate(-94.499 -269.537)" fill="none" stroke="#263238" stroke-linecap="round" stroke-linejoin="round" stroke-width="0.528"/>
    <path id="Path_16368" data-name="Path 16368" d="M407.67,394.392a46.927,46.927,0,0,1,2.995-7.157c1.692-3.046,1.929-3.435,1.929-3.435" transform="translate(-96.127 -269.891)" fill="none" stroke="#263238" stroke-linecap="round" stroke-linejoin="round" stroke-width="0.528"/>
    <path id="Path_16369" data-name="Path 16369" d="M412.65,421.135a38.817,38.817,0,0,1,5.178-4.56,25.5,25.5,0,0,0,3.325-2.445" transform="translate(-96.893 -274.561)" fill="none" stroke="#263238" stroke-linecap="round" stroke-linejoin="round" stroke-width="0.528"/>
    <path id="Path_16370" data-name="Path 16370" d="M411.888,415.215a44,44,0,0,0-3.536-5.8,38.922,38.922,0,0,0-4.332-4.729" transform="translate(-95.565 -273.107)" fill="none" stroke="#263238" stroke-linecap="round" stroke-linejoin="round" stroke-width="0.528"/>
    <path id="Path_16371" data-name="Path 16371" d="M409.384,431.265a11.278,11.278,0,0,0-1.523-5.745c-1.624-2.538-3.511-5.922-4.281-7.25" transform="translate(-95.497 -275.198)" fill="none" stroke="#263238" stroke-linecap="round" stroke-linejoin="round" stroke-width="0.528"/>
    <path id="Path_16372" data-name="Path 16372" d="M100.365,269.465s.338-4.137-4.983-10.415-8.773-9.89-8.773-9.89-3.68,9.306,1.218,15.525a101.706,101.706,0,0,0,11.921,12.259Z" transform="translate(-46.488 -249.16)" fill="#1389fd"/>
    <path id="Path_16373" data-name="Path 16373" d="M87.905,299.215s.338-4.137-4.983-10.415-8.773-9.89-8.773-9.89-3.68,9.306,1.227,15.525a101.252,101.252,0,0,0,11.912,12.234Z" transform="translate(-44.57 -253.741)" fill="#1389fd"/>
    <path id="Path_16374" data-name="Path 16374" d="M101.752,278.575s.778-4.086,7.614-8.714,11.091-7.191,11.091-7.191,1.074,9.932-5.322,14.636a102.479,102.479,0,0,1-14.746,8.613Z" transform="translate(-48.814 -251.24)" fill="#1389fd"/>
    <path id="Path_16375" data-name="Path 16375" d="M86.607,314.058s1.193-3.976,8.46-7.868,11.794-5.99,11.794-5.99,0,9.992-6.827,14a102.68,102.68,0,0,1-15.584,6.98Z" transform="translate(-46.36 -257.019)" fill="#1389fd"/>
    <path id="Path_16376" data-name="Path 16376" d="M85.894,352.884s.338-4.137,6.607-9.459,10.313-8.325,10.313-8.325,2.115,9.763-3.748,15.118A101.422,101.422,0,0,1,85.31,360.371Z" transform="translate(-46.492 -262.392)" fill="#1389fd"/>
    <path id="Path_16377" data-name="Path 16377" d="M82.706,361.709s.931-4.053-3.452-11-7.276-11.041-7.276-11.041-4.966,8.655-1,15.508A102.511,102.511,0,0,0,81.04,368.985Z" transform="translate(-44.049 -263.096)" fill="#1389fd"/>
    <path id="Path_16378" data-name="Path 16378" d="M75.9,390.4s.347-4.146,6.616-9.467,10.3-8.325,10.3-8.325,2.115,9.763-3.739,15.119A102.451,102.451,0,0,1,75.32,397.881Z" transform="translate(-44.954 -268.168)" fill="#1389fd"/>
    <path id="Path_16379" data-name="Path 16379" d="M78.473,415.915s-.728-4.086,4-10.855S90.3,394.4,90.3,394.4s4.518,8.909.2,15.575a101.469,101.469,0,0,1-10.745,13.3Z" transform="translate(-45.433 -271.523)" fill="#1389fd"/>
    <path id="Path_16380" data-name="Path 16380" d="M99.422,272a117.222,117.222,0,0,1-2.648,12.69c-3.266,11.658-9.619,18.824-12.792,29.332s2.276,24.823-.618,38.41-8.866,20.8-8.1,30.085,6.768,34.78,6.768,34.78" transform="translate(-44.936 -252.677)" fill="none" stroke="#263238" stroke-linecap="round" stroke-linejoin="round" stroke-width="0.528"/>
    <line id="Line_32" data-name="Line 32" y1="4.281" x2="6.641" transform="translate(52.642 25.795)" fill="none" stroke="#263238" stroke-linecap="round" stroke-linejoin="round" stroke-width="0.528"/>
    <line id="Line_33" data-name="Line 33" x1="2.234" y1="4.865" transform="translate(51.153 19.721)" fill="none" stroke="#263238" stroke-linecap="round" stroke-linejoin="round" stroke-width="0.528"/>
    <path id="Path_16381" data-name="Path 16381" d="M86,319.851s5.55-3.494,11.252-6.971" transform="translate(-46.599 -258.971)" fill="none" stroke="#263238" stroke-linecap="round" stroke-linejoin="round" stroke-width="0.528"/>
    <path id="Path_16382" data-name="Path 16382" d="M88.44,308.992s-3.655-8.9-8.13-14.992" transform="translate(-45.723 -256.064)" fill="none" stroke="#263238" stroke-linecap="round" stroke-linejoin="round" stroke-width="0.528"/>
    <path id="Path_16383" data-name="Path 16383" d="M85.7,360.554A64.848,64.848,0,0,1,98.111,346.51" transform="translate(-46.552 -264.149)" fill="none" stroke="#263238" stroke-linecap="round" stroke-linejoin="round" stroke-width="0.528"/>
    <path id="Path_16384" data-name="Path 16384" d="M82.5,366.861a74.094,74.094,0,0,0-4.78-11.218c-2.682-4.755-3.071-5.372-3.071-5.372" transform="translate(-44.851 -264.728)" fill="none" stroke="#263238" stroke-linecap="round" stroke-linejoin="round" stroke-width="0.528"/>
    <path id="Path_16385" data-name="Path 16385" d="M75.28,399.6a70.448,70.448,0,0,1,5.5-9.137,60.715,60.715,0,0,1,6.768-7.487" transform="translate(-44.948 -269.764)" fill="none" stroke="#263238" stroke-linecap="round" stroke-linejoin="round" stroke-width="0.528"/>
    <path id="Path_16386" data-name="Path 16386" d="M80,424.8a17.708,17.708,0,0,1,2.318-9.036c2.538-4.036,5.448-9.357,6.65-11.455" transform="translate(-45.674 -273.049)" fill="none" stroke="#263238" stroke-linecap="round" stroke-linejoin="round" stroke-width="0.528"/>
    <path id="Path_16387" data-name="Path 16387" d="M52.849,332.5s-.228-2.631,3.122-6.65,5.541-6.337,5.541-6.337,2.386,5.922-.711,9.89a64.833,64.833,0,0,1-7.521,7.843Z" transform="translate(-41.494 -259.992)" fill="#1389fd"/>
    <path id="Path_16388" data-name="Path 16388" d="M60.919,351.376s-.237-2.64,3.122-6.65,5.541-6.337,5.541-6.337,2.386,5.922-.711,9.882a65.3,65.3,0,0,1-7.53,7.843Z" transform="translate(-42.736 -262.899)" fill="#1389fd"/>
    <path id="Path_16389" data-name="Path 16389" d="M51.418,338.314s-.508-2.6-4.856-5.508-7.1-4.526-7.1-4.526-.635,6.328,3.452,9.306A65.782,65.782,0,0,0,52.34,343Z" transform="translate(-39.428 -261.342)" fill="#1389fd"/>
    <path id="Path_16390" data-name="Path 16390" d="M60.944,360.831s-.778-2.538-5.415-4.966S48,352.1,48,352.1s0,6.362,4.408,8.883a65.657,65.657,0,0,0,9.975,4.391Z" transform="translate(-40.748 -265.01)" fill="#1389fd"/>
    <path id="Path_16391" data-name="Path 16391" d="M62.1,385.534s-.237-2.64-4.23-5.99S51.3,374.29,51.3,374.29s-1.3,6.218,2.453,9.6a64.292,64.292,0,0,0,8.8,6.379Z" transform="translate(-41.222 -268.426)" fill="#1389fd"/>
    <path id="Path_16392" data-name="Path 16392" d="M64.72,391.112s-.609-2.538,2.14-7.022S71.445,377,71.445,377s3.2,5.491.7,9.89a65.315,65.315,0,0,1-6.354,8.858Z" transform="translate(-43.313 -268.844)" fill="#1389fd"/>
    <path id="Path_16393" data-name="Path 16393" d="M71.121,417.325s.516-2.6,4.873-5.508,7.1-4.518,7.1-4.518.626,6.328-3.469,9.306A64.7,64.7,0,0,1,70.19,422Z" transform="translate(-44.164 -273.509)" fill="#1389fd"/>
    <path id="Path_16394" data-name="Path 16394" d="M68.644,409.364s-.237-2.64-4.23-6-6.574-5.245-6.574-5.245-1.3,6.218,2.453,9.6a65.145,65.145,0,0,0,8.773,6.371Z" transform="translate(-42.229 -272.096)" fill="#1389fd"/>
    <path id="Path_16395" data-name="Path 16395" d="M67.581,425.6s.44-2.606-2.6-6.87-5.076-6.768-5.076-6.768-2.834,5.685-.059,9.907a65.073,65.073,0,0,0,6.9,8.4Z" transform="translate(-42.384 -274.227)" fill="#1389fd"/>
    <path id="Path_16396" data-name="Path 16396" d="M52.39,334.1a75.183,75.183,0,0,0,1.743,8.088c2.132,7.4,6.21,11.929,8.274,18.613s-1.328,15.8.575,24.442,5.736,13.19,5.288,19.112-4.137,22.157-4.137,22.157" transform="translate(-41.424 -262.238)" fill="none" stroke="#263238" stroke-linecap="round" stroke-linejoin="round" stroke-width="0.528"/>
    <line id="Line_34" data-name="Line 34" x1="4.247" y1="2.699" transform="translate(7.938 76.024)" fill="none" stroke="#263238" stroke-linecap="round" stroke-linejoin="round" stroke-width="0.528"/>
    <line id="Line_35" data-name="Line 35" y1="3.105" x2="1.396" transform="translate(11.685 72.115)" fill="none" stroke="#263238" stroke-linecap="round" stroke-linejoin="round" stroke-width="0.528"/>
    <path id="Path_16397" data-name="Path 16397" d="M62.631,364.5s-3.553-2.191-7.191-4.382" transform="translate(-41.893 -266.245)" fill="none" stroke="#263238" stroke-linecap="round" stroke-linejoin="round" stroke-width="0.528"/>
    <path id="Path_16398" data-name="Path 16398" d="M61.42,357.6A52.894,52.894,0,0,1,66.5,348.03" transform="translate(-42.814 -264.383)" fill="none" stroke="#263238" stroke-linecap="round" stroke-linejoin="round" stroke-width="0.528"/>
    <path id="Path_16399" data-name="Path 16399" d="M62.9,390.383a41.531,41.531,0,0,0-7.97-8.883" transform="translate(-41.815 -269.537)" fill="none" stroke="#263238" stroke-linecap="round" stroke-linejoin="round" stroke-width="0.528"/>
    <path id="Path_16400" data-name="Path 16400" d="M65.51,394.392a46.461,46.461,0,0,1,2.953-7.157c1.692-3.046,1.929-3.435,1.929-3.435" transform="translate(-43.444 -269.891)" fill="none" stroke="#263238" stroke-linecap="round" stroke-linejoin="round" stroke-width="0.528"/>
    <path id="Path_16401" data-name="Path 16401" d="M70.49,421.132a38.252,38.252,0,0,1,5.178-4.577,25.723,25.723,0,0,0,3.316-2.445" transform="translate(-44.211 -274.558)" fill="none" stroke="#263238" stroke-linecap="round" stroke-linejoin="round" stroke-width="0.528"/>
    <path id="Path_16402" data-name="Path 16402" d="M69.73,415.215a44,44,0,0,0-3.519-5.8,38.638,38.638,0,0,0-4.34-4.729" transform="translate(-42.883 -273.107)" fill="none" stroke="#263238" stroke-linecap="round" stroke-linejoin="round" stroke-width="0.528"/>
    <path id="Path_16403" data-name="Path 16403" d="M67.215,431.265A11.32,11.32,0,0,0,65.7,425.52c-1.624-2.538-3.511-5.922-4.281-7.25" transform="translate(-42.814 -275.198)" fill="none" stroke="#263238" stroke-linecap="round" stroke-linejoin="round" stroke-width="0.528"/>
  </g>
  <g id="freepik--Page--inject-13" transform="translate(37.225)">
    <rect id="Rectangle_2306" data-name="Rectangle 2306" width="275.568" height="212.785" rx="4.64" transform="translate(0)" fill="#ccc"/>
    <rect id="Rectangle_2307" data-name="Rectangle 2307" width="262.227" height="168.893" transform="translate(6.667 16)" fill="#fff"/>
    <rect id="Rectangle_2308" data-name="Rectangle 2308" width="67.784" height="168.893" transform="translate(6.667 16.108)" fill="#263238"/>
    <g id="Group_89644" data-name="Group 89644" transform="translate(20.609 45.136)" opacity="0.2">
      <path id="Path_16404" data-name="Path 16404" d="M112.3,248.76V173.683l49.366,15.584V158.26H119.438a11.608,11.608,0,0,0-11.608,11.624v85.7l53.833,20.9v-8.012Z" transform="translate(-107.83 -158.26)" fill="#fff"/>
      <path id="Path_16405" data-name="Path 16405" d="M163.126,268.35V196.709l-45.8-14.459v67.784Z" transform="translate(-109.293 -161.954)" fill="#fff"/>
      <path id="Path_16406" data-name="Path 16406" d="M161.906,305.659,112.489,285.6a2.235,2.235,0,1,0-1.692,4.137l51.109,20.711Z" transform="translate(-108.073 -177.841)" fill="#fff"/>
    </g>
    <path id="Path_16417" data-name="Path 16417" d="M329.07,104.91v10a2.775,2.775,0,0,0,2.775,2.775h56.117a2.775,2.775,0,0,0,2.775-2.775v-10Z" transform="translate(-121.285 -104.91)" fill="#a3a3a3"/>
    <path id="Path_16418" data-name="Path 16418" d="M340.348,104.91H324.79v10a2.775,2.775,0,0,0,2.775,2.775h12.783Z" transform="translate(-120.626 -104.91)" fill="#a3a3a3"/>
    <path id="Path_16419" data-name="Path 16419" d="M365.18,104.91v12.767h28.342A2.775,2.775,0,0,0,396.3,114.9V104.91Z" transform="translate(-126.845 -104.91)" fill="#263238"/>
    <rect id="Rectangle_2311" data-name="Rectangle 2311" width="18.621" height="12.775" transform="translate(219.722)" fill="#787878"/>
    <path id="Path_16420" data-name="Path 16420" d="M385.321,114.316h-2.47l-4.12-6.286h2.462Z" transform="translate(-128.932 -105.39)" fill="#fff"/>
    <path id="Path_16421" data-name="Path 16421" d="M378.73,114.316h2.462l4.129-6.286h-2.47Z" transform="translate(-128.932 -105.39)" fill="#fff"/>
    <rect id="Rectangle_2312" data-name="Rectangle 2312" width="8.926" height="2.377" transform="translate(207.531 6.438)" fill="#fff"/>
    <path id="Path_16422" data-name="Path 16422" d="M349.22,108.58V114.3h8.173V108.58Zm6.633,4.095h-5.076V110.2h5.076Z" transform="translate(-124.388 -105.475)" fill="#fff"/>
    <g id="Group_89655" data-name="Group 89655" transform="translate(-6420.096 -7260.93)">
      <path id="Path_16478" data-name="Path 16478" d="M26.457,70.483H23.836V63.93h2.621Z" transform="translate(6485 7279)" fill="#333"/>
      <path id="Path_16479" data-name="Path 16479" d="M28,70.483H25.383V63.93H28Z" transform="translate(6486.073 7279)" fill="#333"/>
      <path id="Path_16480" data-name="Path 16480" d="M29.551,70.483H26.93V63.93h2.621Z" transform="translate(6487.146 7279)" fill="#333"/>
      <path id="Path_16481" data-name="Path 16481" d="M31.1,70.483H28.476V63.93H31.1Z" transform="translate(6488.218 7279)" fill="#333"/>
      <path id="Path_16482" data-name="Path 16482" d="M32.644,70.483H30.023V63.93h2.621Z" transform="translate(6489.291 7279)" fill="#333"/>
      <path id="Path_16483" data-name="Path 16483" d="M34.191,70.483H31.57V63.93h2.621Z" transform="translate(6490.363 7279)" fill="#333"/>
      <path id="Path_16484" data-name="Path 16484" d="M35.738,70.483H33.117V63.93h2.621Z" transform="translate(6491.436 7279)" fill="#333"/>
      <path id="Path_16485" data-name="Path 16485" d="M37.285,70.483H34.664V63.93h2.621Z" transform="translate(6492.509 7279)" fill="#333"/>
      <path id="Path_16486" data-name="Path 16486" d="M38.832,70.483H36.21V63.93h2.621Z" transform="translate(6493.582 7279)" fill="#333"/>
      <path id="Path_16487" data-name="Path 16487" d="M40.378,70.483H37.757V63.93h2.621Z" transform="translate(6494.654 7279)" fill="#333"/>
      <path id="Path_16488" data-name="Path 16488" d="M41.925,70.483H39.3V63.93h2.621Z" transform="translate(6495.727 7279)" fill="#333"/>
      <path id="Path_16489" data-name="Path 16489" d="M77.5,70.483H74.881V63.93H77.5Z" transform="translate(6520.398 7279)" fill="#333"/>
      <path id="Path_16490" data-name="Path 16490" d="M79.048,70.483H76.427V63.93h2.621Z" transform="translate(6521.471 7279)" fill="#333"/>
      <path id="Path_16491" data-name="Path 16491" d="M80.6,70.483H77.974V63.93H80.6Z" transform="translate(6522.544 7279)" fill="#333"/>
      <path id="Path_16492" data-name="Path 16492" d="M82.142,70.483H79.521V63.93h2.621Z" transform="translate(6523.617 7279)" fill="#333"/>
      <path id="Path_16493" data-name="Path 16493" d="M83.689,70.483H81.068V63.93h2.621Z" transform="translate(6524.689 7279)" fill="#333"/>
      <path id="Path_16494" data-name="Path 16494" d="M85.236,70.483H82.615V63.93h2.621Z" transform="translate(6525.762 7279)" fill="#333"/>
      <path id="Path_16495" data-name="Path 16495" d="M86.782,70.483H84.161V63.93h2.621Z" transform="translate(6526.835 7279)" fill="#333"/>
      <path id="Path_16496" data-name="Path 16496" d="M88.329,70.483H85.708V63.93h2.621Z" transform="translate(6527.907 7279)" fill="#333"/>
      <path id="Path_16497" data-name="Path 16497" d="M89.876,70.483H87.255V63.93h2.621Z" transform="translate(6528.98 7279)" fill="#333"/>
      <path id="Path_16498" data-name="Path 16498" d="M91.423,70.483H88.8V63.93h2.621Z" transform="translate(6530.053 7279)" fill="#333"/>
      <path id="Path_16499" data-name="Path 16499" d="M92.97,70.483H90.349V63.93H92.97Z" transform="translate(6531.125 7279)" fill="#333"/>
      <path id="Path_16500" data-name="Path 16500" d="M28,73.459H25.383V66.906H28Z" transform="translate(6486.073 7281.064)" fill="#333"/>
      <path id="Path_16501" data-name="Path 16501" d="M29.551,73.459H26.93V66.906h2.621Z" transform="translate(6487.146 7281.064)" fill="#333"/>
      <path id="Path_16502" data-name="Path 16502" d="M31.1,73.459H28.476V66.906H31.1Z" transform="translate(6488.218 7281.064)" fill="#333"/>
      <path id="Path_16503" data-name="Path 16503" d="M41.925,73.459H39.3V66.906h2.621Z" transform="translate(6495.727 7281.064)" fill="#333"/>
      <path id="Path_16504" data-name="Path 16504" d="M79.048,73.459H76.427V66.906h2.621Z" transform="translate(6521.471 7281.064)" fill="#333"/>
      <path id="Path_16505" data-name="Path 16505" d="M80.6,73.459H77.974V66.906H80.6Z" transform="translate(6522.544 7281.064)" fill="#333"/>
      <path id="Path_16506" data-name="Path 16506" d="M82.142,73.459H79.521V66.906h2.621Z" transform="translate(6523.617 7281.064)" fill="#333"/>
      <path id="Path_16507" data-name="Path 16507" d="M91.423,73.459H88.8V66.906h2.621Z" transform="translate(6530.053 7281.064)" fill="#333"/>
      <path id="Path_16508" data-name="Path 16508" d="M92.97,73.459H90.349V66.906H92.97Z" transform="translate(6531.125 7281.064)" fill="#333"/>
      <path id="Path_16509" data-name="Path 16509" d="M94.517,73.459H91.9V66.906h2.621Z" transform="translate(6532.198 7281.064)" fill="#333"/>
      <path id="Path_16510" data-name="Path 16510" d="M28,76.436H25.383V69.883H28Z" transform="translate(6486.073 7283.128)" fill="#333"/>
      <path id="Path_16511" data-name="Path 16511" d="M29.551,76.436H26.93V69.883h2.621Z" transform="translate(6487.146 7283.128)" fill="#333"/>
      <path id="Path_16512" data-name="Path 16512" d="M31.1,76.436H28.476V69.883H31.1Z" transform="translate(6488.218 7283.128)" fill="#333"/>
      <path id="Path_16513" data-name="Path 16513" d="M37.285,76.436H34.664V69.883h2.621Z" transform="translate(6492.509 7283.128)" fill="#333"/>
      <path id="Path_16514" data-name="Path 16514" d="M46.566,76.436H43.944V69.883h2.621Z" transform="translate(6498.945 7283.128)" fill="#333"/>
      <path id="Path_16515" data-name="Path 16515" d="M48.112,76.436H45.491V69.883h2.621Z" transform="translate(6500.018 7283.128)" fill="#333"/>
      <path id="Path_16516" data-name="Path 16516" d="M49.659,76.436H47.038V69.883h2.621Z" transform="translate(6501.09 7283.128)" fill="#333"/>
      <path id="Path_16517" data-name="Path 16517" d="M51.206,76.436H48.585V69.883h2.621Z" transform="translate(6502.163 7283.128)" fill="#333"/>
      <path id="Path_16518" data-name="Path 16518" d="M52.753,76.436H50.132V69.883h2.621Z" transform="translate(6503.236 7283.128)" fill="#333"/>
      <path id="Path_16519" data-name="Path 16519" d="M54.3,76.436H51.678V69.883H54.3Z" transform="translate(6504.308 7283.128)" fill="#333"/>
      <path id="Path_16520" data-name="Path 16520" d="M58.94,76.436H56.319V69.883H58.94Z" transform="translate(6507.526 7283.128)" fill="#333"/>
      <path id="Path_16521" data-name="Path 16521" d="M60.487,76.436H57.866V69.883h2.621Z" transform="translate(6508.599 7283.128)" fill="#333"/>
      <path id="Path_16522" data-name="Path 16522" d="M62.034,76.436H59.412V69.883h2.621Z" transform="translate(6509.672 7283.128)" fill="#333"/>
      <path id="Path_16523" data-name="Path 16523" d="M63.58,76.436H60.959V69.883H63.58Z" transform="translate(6510.745 7283.128)" fill="#333"/>
      <path id="Path_16524" data-name="Path 16524" d="M65.127,76.436H62.506V69.883h2.621Z" transform="translate(6511.817 7283.128)" fill="#333"/>
      <path id="Path_16525" data-name="Path 16525" d="M68.221,76.436H65.6V69.883h2.621Z" transform="translate(6513.962 7283.128)" fill="#333"/>
      <path id="Path_16526" data-name="Path 16526" d="M69.768,76.436H67.146V69.883h2.621Z" transform="translate(6515.035 7283.128)" fill="#333"/>
      <path id="Path_16527" data-name="Path 16527" d="M71.314,76.436H68.693V69.883h2.621Z" transform="translate(6516.108 7283.128)" fill="#333"/>
      <path id="Path_16528" data-name="Path 16528" d="M72.861,76.436H70.24V69.883h2.621Z" transform="translate(6517.181 7283.128)" fill="#333"/>
      <path id="Path_16529" data-name="Path 16529" d="M74.408,76.436H71.787V69.883h2.621Z" transform="translate(6518.253 7283.128)" fill="#333"/>
      <path id="Path_16530" data-name="Path 16530" d="M79.048,76.436H76.427V69.883h2.621Z" transform="translate(6521.471 7283.128)" fill="#333"/>
      <path id="Path_16531" data-name="Path 16531" d="M80.6,76.436H77.974V69.883H80.6Z" transform="translate(6522.544 7283.128)" fill="#333"/>
      <path id="Path_16532" data-name="Path 16532" d="M82.142,76.436H79.521V69.883h2.621Z" transform="translate(6523.617 7283.128)" fill="#333"/>
      <path id="Path_16533" data-name="Path 16533" d="M91.423,76.436H88.8V69.883h2.621Z" transform="translate(6530.053 7283.128)" fill="#333"/>
      <path id="Path_16534" data-name="Path 16534" d="M92.97,76.436H90.349V69.883H92.97Z" transform="translate(6531.125 7283.128)" fill="#333"/>
      <path id="Path_16535" data-name="Path 16535" d="M94.517,76.436H91.9V69.883h2.621Z" transform="translate(6532.198 7283.128)" fill="#333"/>
      <path id="Path_16536" data-name="Path 16536" d="M97.61,76.436H94.989V69.883H97.61Z" transform="translate(6534.344 7283.128)" fill="#333"/>
      <path id="Path_16537" data-name="Path 16537" d="M99.157,76.436H96.536V69.883h2.621Z" transform="translate(6535.417 7283.128)" fill="#333"/>
      <path id="Path_16538" data-name="Path 16538" d="M100.7,76.436H98.083V69.883H100.7Z" transform="translate(6536.489 7283.128)" fill="#333"/>
      <path id="Path_16539" data-name="Path 16539" d="M102.25,76.436H99.629V69.883h2.621Z" transform="translate(6537.562 7283.128)" fill="#333"/>
      <path id="Path_16540" data-name="Path 16540" d="M103.8,76.436h-2.622V69.883H103.8Z" transform="translate(6538.634 7283.128)" fill="#333"/>
      <path id="Path_16541" data-name="Path 16541" d="M105.345,76.436h-2.622V69.883h2.622Z" transform="translate(6539.707 7283.128)" fill="#333"/>
      <path id="Path_16542" data-name="Path 16542" d="M106.892,76.436H104.27V69.883h2.622Z" transform="translate(6540.78 7283.128)" fill="#333"/>
      <path id="Path_16543" data-name="Path 16543" d="M108.437,76.436h-2.62V69.883h2.62Z" transform="translate(6541.853 7283.128)" fill="#333"/>
      <path id="Path_16544" data-name="Path 16544" d="M114.626,76.436H112V69.883h2.622Z" transform="translate(6546.143 7283.128)" fill="#333"/>
      <path id="Path_16545" data-name="Path 16545" d="M116.171,76.436h-2.62V69.883h2.62Z" transform="translate(6547.216 7283.128)" fill="#333"/>
      <path id="Path_16546" data-name="Path 16546" d="M117.719,76.436H115.1V69.883h2.622Z" transform="translate(6548.288 7283.128)" fill="#333"/>
      <path id="Path_16547" data-name="Path 16547" d="M119.266,76.436h-2.622V69.883h2.622Z" transform="translate(6549.361 7283.128)" fill="#333"/>
      <path id="Path_16548" data-name="Path 16548" d="M120.813,76.436h-2.622V69.883h2.622Z" transform="translate(6550.434 7283.128)" fill="#333"/>
      <path id="Path_16549" data-name="Path 16549" d="M122.36,76.436h-2.622V69.883h2.622Z" transform="translate(6551.507 7283.128)" fill="#333"/>
      <path id="Path_16550" data-name="Path 16550" d="M28,79.412H25.383V72.859H28Z" transform="translate(6486.073 7285.193)" fill="#333"/>
      <path id="Path_16551" data-name="Path 16551" d="M29.551,79.412H26.93V72.859h2.621Z" transform="translate(6487.146 7285.193)" fill="#333"/>
      <path id="Path_16552" data-name="Path 16552" d="M31.1,79.412H28.476V72.859H31.1Z" transform="translate(6488.218 7285.193)" fill="#333"/>
      <path id="Path_16553" data-name="Path 16553" d="M32.644,79.412H30.023V72.859h2.621Z" transform="translate(6489.291 7285.193)" fill="#333"/>
      <path id="Path_16554" data-name="Path 16554" d="M34.191,79.412H31.57V72.859h2.621Z" transform="translate(6490.363 7285.193)" fill="#333"/>
      <path id="Path_16555" data-name="Path 16555" d="M35.738,79.412H33.117V72.859h2.621Z" transform="translate(6491.436 7285.193)" fill="#333"/>
      <path id="Path_16556" data-name="Path 16556" d="M37.285,79.412H34.664V72.859h2.621Z" transform="translate(6492.509 7285.193)" fill="#333"/>
      <path id="Path_16557" data-name="Path 16557" d="M45.019,79.412H42.4V72.859h2.621Z" transform="translate(6497.872 7285.193)" fill="#333"/>
      <path id="Path_16558" data-name="Path 16558" d="M46.566,79.412H43.944V72.859h2.621Z" transform="translate(6498.945 7285.193)" fill="#333"/>
      <path id="Path_16559" data-name="Path 16559" d="M48.112,79.412H45.491V72.859h2.621Z" transform="translate(6500.018 7285.193)" fill="#333"/>
      <path id="Path_16560" data-name="Path 16560" d="M52.753,79.412H50.132V72.859h2.621Z" transform="translate(6503.236 7285.193)" fill="#333"/>
      <path id="Path_16561" data-name="Path 16561" d="M54.3,79.412H51.678V72.859H54.3Z" transform="translate(6504.308 7285.193)" fill="#333"/>
      <path id="Path_16562" data-name="Path 16562" d="M55.846,79.412H53.225V72.859h2.621Z" transform="translate(6505.381 7285.193)" fill="#333"/>
      <path id="Path_16563" data-name="Path 16563" d="M60.487,79.412H57.866V72.859h2.621Z" transform="translate(6508.599 7285.193)" fill="#333"/>
      <path id="Path_16564" data-name="Path 16564" d="M62.034,79.412H59.412V72.859h2.621Z" transform="translate(6509.672 7285.193)" fill="#333"/>
      <path id="Path_16565" data-name="Path 16565" d="M63.58,79.412H60.959V72.859H63.58Z" transform="translate(6510.745 7285.193)" fill="#333"/>
      <path id="Path_16566" data-name="Path 16566" d="M69.768,79.412H67.146V72.859h2.621Z" transform="translate(6515.035 7285.193)" fill="#333"/>
      <path id="Path_16567" data-name="Path 16567" d="M71.314,79.412H68.693V72.859h2.621Z" transform="translate(6516.108 7285.193)" fill="#333"/>
      <path id="Path_16568" data-name="Path 16568" d="M72.861,79.412H70.24V72.859h2.621Z" transform="translate(6517.181 7285.193)" fill="#333"/>
      <path id="Path_16569" data-name="Path 16569" d="M79.048,79.412H76.427V72.859h2.621Z" transform="translate(6521.471 7285.193)" fill="#333"/>
      <path id="Path_16570" data-name="Path 16570" d="M80.6,79.412H77.974V72.859H80.6Z" transform="translate(6522.544 7285.193)" fill="#333"/>
      <path id="Path_16571" data-name="Path 16571" d="M82.142,79.412H79.521V72.859h2.621Z" transform="translate(6523.617 7285.193)" fill="#333"/>
      <path id="Path_16572" data-name="Path 16572" d="M83.689,79.412H81.068V72.859h2.621Z" transform="translate(6524.689 7285.193)" fill="#333"/>
      <path id="Path_16573" data-name="Path 16573" d="M85.236,79.412H82.615V72.859h2.621Z" transform="translate(6525.762 7285.193)" fill="#333"/>
      <path id="Path_16574" data-name="Path 16574" d="M86.782,79.412H84.161V72.859h2.621Z" transform="translate(6526.835 7285.193)" fill="#333"/>
      <path id="Path_16575" data-name="Path 16575" d="M88.329,79.412H85.708V72.859h2.621Z" transform="translate(6527.907 7285.193)" fill="#333"/>
      <path id="Path_16576" data-name="Path 16576" d="M89.876,79.412H87.255V72.859h2.621Z" transform="translate(6528.98 7285.193)" fill="#333"/>
      <path id="Path_16577" data-name="Path 16577" d="M91.423,79.412H88.8V72.859h2.621Z" transform="translate(6530.053 7285.193)" fill="#333"/>
      <path id="Path_16578" data-name="Path 16578" d="M92.97,79.412H90.349V72.859H92.97Z" transform="translate(6531.125 7285.193)" fill="#333"/>
      <path id="Path_16579" data-name="Path 16579" d="M99.157,79.412H96.536V72.859h2.621Z" transform="translate(6535.417 7285.193)" fill="#333"/>
      <path id="Path_16580" data-name="Path 16580" d="M100.7,79.412H98.083V72.859H100.7Z" transform="translate(6536.489 7285.193)" fill="#333"/>
      <path id="Path_16581" data-name="Path 16581" d="M102.25,79.412H99.629V72.859h2.621Z" transform="translate(6537.562 7285.193)" fill="#333"/>
      <path id="Path_16582" data-name="Path 16582" d="M106.892,79.412H104.27V72.859h2.622Z" transform="translate(6540.78 7285.193)" fill="#333"/>
      <path id="Path_16583" data-name="Path 16583" d="M108.437,79.412h-2.62V72.859h2.62Z" transform="translate(6541.853 7285.193)" fill="#333"/>
      <path id="Path_16584" data-name="Path 16584" d="M109.985,79.412h-2.622V72.859h2.622Z" transform="translate(6542.925 7285.193)" fill="#333"/>
      <path id="Path_16585" data-name="Path 16585" d="M113.078,79.412h-2.622V72.859h2.622Z" transform="translate(6545.07 7285.193)" fill="#333"/>
      <path id="Path_16586" data-name="Path 16586" d="M114.626,79.412H112V72.859h2.622Z" transform="translate(6546.143 7285.193)" fill="#333"/>
      <path id="Path_16587" data-name="Path 16587" d="M116.171,79.412h-2.62V72.859h2.62Z" transform="translate(6547.216 7285.193)" fill="#333"/>
      <path id="Path_16588" data-name="Path 16588" d="M120.813,79.412h-2.622V72.859h2.622Z" transform="translate(6550.434 7285.193)" fill="#333"/>
      <path id="Path_16589" data-name="Path 16589" d="M122.36,79.412h-2.622V72.859h2.622Z" transform="translate(6551.507 7285.193)" fill="#333"/>
      <path id="Path_16590" data-name="Path 16590" d="M123.9,79.412h-2.62V72.859h2.62Z" transform="translate(6552.58 7285.193)" fill="#333"/>
      <path id="Path_16591" data-name="Path 16591" d="M28,82.389H25.383V75.836H28Z" transform="translate(6486.073 7287.257)" fill="#333"/>
      <path id="Path_16592" data-name="Path 16592" d="M29.551,82.389H26.93V75.836h2.621Z" transform="translate(6487.146 7287.257)" fill="#333"/>
      <path id="Path_16593" data-name="Path 16593" d="M31.1,82.389H28.476V75.836H31.1Z" transform="translate(6488.218 7287.257)" fill="#333"/>
      <path id="Path_16594" data-name="Path 16594" d="M37.285,82.389H34.664V75.836h2.621Z" transform="translate(6492.509 7287.257)" fill="#333"/>
      <path id="Path_16595" data-name="Path 16595" d="M45.019,82.389H42.4V75.836h2.621Z" transform="translate(6497.872 7287.257)" fill="#333"/>
      <path id="Path_16596" data-name="Path 16596" d="M46.566,82.389H43.944V75.836h2.621Z" transform="translate(6498.945 7287.257)" fill="#333"/>
      <path id="Path_16597" data-name="Path 16597" d="M48.112,82.389H45.491V75.836h2.621Z" transform="translate(6500.018 7287.257)" fill="#333"/>
      <path id="Path_16598" data-name="Path 16598" d="M52.753,82.389H50.132V75.836h2.621Z" transform="translate(6503.236 7287.257)" fill="#333"/>
      <path id="Path_16599" data-name="Path 16599" d="M54.3,82.389H51.678V75.836H54.3Z" transform="translate(6504.308 7287.257)" fill="#333"/>
      <path id="Path_16600" data-name="Path 16600" d="M55.846,82.389H53.225V75.836h2.621Z" transform="translate(6505.381 7287.257)" fill="#333"/>
      <path id="Path_16601" data-name="Path 16601" d="M63.58,82.389H60.959V75.836H63.58Z" transform="translate(6510.745 7287.257)" fill="#333"/>
      <path id="Path_16602" data-name="Path 16602" d="M65.127,82.389H62.506V75.836h2.621Z" transform="translate(6511.817 7287.257)" fill="#333"/>
      <path id="Path_16603" data-name="Path 16603" d="M66.674,82.389H64.053V75.836h2.621Z" transform="translate(6512.89 7287.257)" fill="#333"/>
      <path id="Path_16604" data-name="Path 16604" d="M68.221,82.389H65.6V75.836h2.621Z" transform="translate(6513.962 7287.257)" fill="#333"/>
      <path id="Path_16605" data-name="Path 16605" d="M69.768,82.389H67.146V75.836h2.621Z" transform="translate(6515.035 7287.257)" fill="#333"/>
      <path id="Path_16606" data-name="Path 16606" d="M79.048,82.389H76.427V75.836h2.621Z" transform="translate(6521.471 7287.257)" fill="#333"/>
      <path id="Path_16607" data-name="Path 16607" d="M80.6,82.389H77.974V75.836H80.6Z" transform="translate(6522.544 7287.257)" fill="#333"/>
      <path id="Path_16608" data-name="Path 16608" d="M82.142,82.389H79.521V75.836h2.621Z" transform="translate(6523.617 7287.257)" fill="#333"/>
      <path id="Path_16609" data-name="Path 16609" d="M99.157,82.389H96.536V75.836h2.621Z" transform="translate(6535.417 7287.257)" fill="#333"/>
      <path id="Path_16610" data-name="Path 16610" d="M100.7,82.389H98.083V75.836H100.7Z" transform="translate(6536.489 7287.257)" fill="#333"/>
      <path id="Path_16611" data-name="Path 16611" d="M102.25,82.389H99.629V75.836h2.621Z" transform="translate(6537.562 7287.257)" fill="#333"/>
      <path id="Path_16612" data-name="Path 16612" d="M113.078,82.389h-2.622V75.836h2.622Z" transform="translate(6545.07 7287.257)" fill="#333"/>
      <path id="Path_16613" data-name="Path 16613" d="M114.626,82.389H112V75.836h2.622Z" transform="translate(6546.143 7287.257)" fill="#333"/>
      <path id="Path_16614" data-name="Path 16614" d="M116.171,82.389h-2.62V75.836h2.62Z" transform="translate(6547.216 7287.257)" fill="#333"/>
      <path id="Path_16615" data-name="Path 16615" d="M120.813,82.389h-2.622V75.836h2.622Z" transform="translate(6550.434 7287.257)" fill="#333"/>
      <path id="Path_16616" data-name="Path 16616" d="M122.36,82.389h-2.622V75.836h2.622Z" transform="translate(6551.507 7287.257)" fill="#333"/>
      <path id="Path_16617" data-name="Path 16617" d="M123.9,82.389h-2.62V75.836h2.62Z" transform="translate(6552.58 7287.257)" fill="#333"/>
      <path id="Path_16618" data-name="Path 16618" d="M28,85.365H25.383V78.813H28Z" transform="translate(6486.073 7289.321)" fill="#333"/>
      <path id="Path_16619" data-name="Path 16619" d="M29.551,85.365H26.93V78.813h2.621Z" transform="translate(6487.146 7289.321)" fill="#333"/>
      <path id="Path_16620" data-name="Path 16620" d="M31.1,85.365H28.476V78.813H31.1Z" transform="translate(6488.218 7289.321)" fill="#333"/>
      <path id="Path_16621" data-name="Path 16621" d="M45.019,85.365H42.4V78.813h2.621Z" transform="translate(6497.872 7289.321)" fill="#333"/>
      <path id="Path_16622" data-name="Path 16622" d="M46.566,85.365H43.944V78.813h2.621Z" transform="translate(6498.945 7289.321)" fill="#333"/>
      <path id="Path_16623" data-name="Path 16623" d="M48.112,85.365H45.491V78.813h2.621Z" transform="translate(6500.018 7289.321)" fill="#333"/>
      <path id="Path_16624" data-name="Path 16624" d="M52.753,85.365H50.132V78.813h2.621Z" transform="translate(6503.236 7289.321)" fill="#333"/>
      <path id="Path_16625" data-name="Path 16625" d="M54.3,85.365H51.678V78.813H54.3Z" transform="translate(6504.308 7289.321)" fill="#333"/>
      <path id="Path_16626" data-name="Path 16626" d="M55.846,85.365H53.225V78.813h2.621Z" transform="translate(6505.381 7289.321)" fill="#333"/>
      <path id="Path_16627" data-name="Path 16627" d="M60.487,85.365H57.866V78.813h2.621Z" transform="translate(6508.599 7289.321)" fill="#333"/>
      <path id="Path_16628" data-name="Path 16628" d="M62.034,85.365H59.412V78.813h2.621Z" transform="translate(6509.672 7289.321)" fill="#333"/>
      <path id="Path_16629" data-name="Path 16629" d="M63.58,85.365H60.959V78.813H63.58Z" transform="translate(6510.745 7289.321)" fill="#333"/>
      <path id="Path_16630" data-name="Path 16630" d="M69.768,85.365H67.146V78.813h2.621Z" transform="translate(6515.035 7289.321)" fill="#333"/>
      <path id="Path_16631" data-name="Path 16631" d="M71.314,85.365H68.693V78.813h2.621Z" transform="translate(6516.108 7289.321)" fill="#333"/>
      <path id="Path_16632" data-name="Path 16632" d="M72.861,85.365H70.24V78.813h2.621Z" transform="translate(6517.181 7289.321)" fill="#333"/>
      <path id="Path_16633" data-name="Path 16633" d="M79.048,85.365H76.427V78.813h2.621Z" transform="translate(6521.471 7289.321)" fill="#333"/>
      <path id="Path_16634" data-name="Path 16634" d="M80.6,85.365H77.974V78.813H80.6Z" transform="translate(6522.544 7289.321)" fill="#333"/>
      <path id="Path_16635" data-name="Path 16635" d="M82.142,85.365H79.521V78.813h2.621Z" transform="translate(6523.617 7289.321)" fill="#333"/>
      <path id="Path_16636" data-name="Path 16636" d="M99.157,85.365H96.536V78.813h2.621Z" transform="translate(6535.417 7289.321)" fill="#333"/>
      <path id="Path_16637" data-name="Path 16637" d="M100.7,85.365H98.083V78.813H100.7Z" transform="translate(6536.489 7289.321)" fill="#333"/>
      <path id="Path_16638" data-name="Path 16638" d="M102.25,85.365H99.629V78.813h2.621Z" transform="translate(6537.562 7289.321)" fill="#333"/>
      <path id="Path_16639" data-name="Path 16639" d="M113.078,85.365h-2.622V78.813h2.622Z" transform="translate(6545.07 7289.321)" fill="#333"/>
      <path id="Path_16640" data-name="Path 16640" d="M114.626,85.365H112V78.813h2.622Z" transform="translate(6546.143 7289.321)" fill="#333"/>
      <path id="Path_16641" data-name="Path 16641" d="M116.171,85.365h-2.62V78.813h2.62Z" transform="translate(6547.216 7289.321)" fill="#333"/>
      <path id="Path_16642" data-name="Path 16642" d="M120.813,85.365h-2.622V78.813h2.622Z" transform="translate(6550.434 7289.321)" fill="#333"/>
      <path id="Path_16643" data-name="Path 16643" d="M122.36,85.365h-2.622V78.813h2.622Z" transform="translate(6551.507 7289.321)" fill="#333"/>
      <path id="Path_16644" data-name="Path 16644" d="M123.9,85.365h-2.62V78.813h2.62Z" transform="translate(6552.58 7289.321)" fill="#333"/>
      <path id="Path_16645" data-name="Path 16645" d="M26.457,88.342H23.836V81.789h2.621Z" transform="translate(6485 7291.385)" fill="#333"/>
      <path id="Path_16646" data-name="Path 16646" d="M28,88.342H25.383V81.789H28Z" transform="translate(6486.073 7291.385)" fill="#333"/>
      <path id="Path_16647" data-name="Path 16647" d="M29.551,88.342H26.93V81.789h2.621Z" transform="translate(6487.146 7291.385)" fill="#333"/>
      <path id="Path_16648" data-name="Path 16648" d="M31.1,88.342H28.476V81.789H31.1Z" transform="translate(6488.218 7291.385)" fill="#333"/>
      <path id="Path_16649" data-name="Path 16649" d="M32.644,88.342H30.023V81.789h2.621Z" transform="translate(6489.291 7291.385)" fill="#333"/>
      <path id="Path_16650" data-name="Path 16650" d="M46.566,88.342H43.944V81.789h2.621Z" transform="translate(6498.945 7291.385)" fill="#333"/>
      <path id="Path_16651" data-name="Path 16651" d="M48.112,88.342H45.491V81.789h2.621Z" transform="translate(6500.018 7291.385)" fill="#333"/>
      <path id="Path_16652" data-name="Path 16652" d="M49.659,88.342H47.038V81.789h2.621Z" transform="translate(6501.09 7291.385)" fill="#333"/>
      <path id="Path_16653" data-name="Path 16653" d="M51.206,88.342H48.585V81.789h2.621Z" transform="translate(6502.163 7291.385)" fill="#333"/>
      <path id="Path_16654" data-name="Path 16654" d="M52.753,88.342H50.132V81.789h2.621Z" transform="translate(6503.236 7291.385)" fill="#333"/>
      <path id="Path_16655" data-name="Path 16655" d="M54.3,88.342H51.678V81.789H54.3Z" transform="translate(6504.308 7291.385)" fill="#333"/>
      <path id="Path_16656" data-name="Path 16656" d="M58.94,88.342H56.319V81.789H58.94Z" transform="translate(6507.526 7291.385)" fill="#333"/>
      <path id="Path_16657" data-name="Path 16657" d="M60.487,88.342H57.866V81.789h2.621Z" transform="translate(6508.599 7291.385)" fill="#333"/>
      <path id="Path_16658" data-name="Path 16658" d="M62.034,88.342H59.412V81.789h2.621Z" transform="translate(6509.672 7291.385)" fill="#333"/>
      <path id="Path_16659" data-name="Path 16659" d="M63.58,88.342H60.959V81.789H63.58Z" transform="translate(6510.745 7291.385)" fill="#333"/>
      <path id="Path_16660" data-name="Path 16660" d="M65.127,88.342H62.506V81.789h2.621Z" transform="translate(6511.817 7291.385)" fill="#333"/>
      <path id="Path_16661" data-name="Path 16661" d="M68.221,88.342H65.6V81.789h2.621Z" transform="translate(6513.962 7291.385)" fill="#333"/>
      <path id="Path_16662" data-name="Path 16662" d="M69.768,88.342H67.146V81.789h2.621Z" transform="translate(6515.035 7291.385)" fill="#333"/>
      <path id="Path_16663" data-name="Path 16663" d="M71.314,88.342H68.693V81.789h2.621Z" transform="translate(6516.108 7291.385)" fill="#333"/>
      <path id="Path_16664" data-name="Path 16664" d="M72.861,88.342H70.24V81.789h2.621Z" transform="translate(6517.181 7291.385)" fill="#333"/>
      <path id="Path_16665" data-name="Path 16665" d="M74.408,88.342H71.787V81.789h2.621Z" transform="translate(6518.253 7291.385)" fill="#333"/>
      <path id="Path_16666" data-name="Path 16666" d="M77.5,88.342H74.881V81.789H77.5Z" transform="translate(6520.398 7291.385)" fill="#333"/>
      <path id="Path_16667" data-name="Path 16667" d="M79.048,88.342H76.427V81.789h2.621Z" transform="translate(6521.471 7291.385)" fill="#333"/>
      <path id="Path_16668" data-name="Path 16668" d="M80.6,88.342H77.974V81.789H80.6Z" transform="translate(6522.544 7291.385)" fill="#333"/>
      <path id="Path_16669" data-name="Path 16669" d="M82.142,88.342H79.521V81.789h2.621Z" transform="translate(6523.617 7291.385)" fill="#333"/>
      <path id="Path_16670" data-name="Path 16670" d="M83.689,88.342H81.068V81.789h2.621Z" transform="translate(6524.689 7291.385)" fill="#333"/>
      <path id="Path_16671" data-name="Path 16671" d="M97.61,88.342H94.989V81.789H97.61Z" transform="translate(6534.344 7291.385)" fill="#333"/>
      <path id="Path_16672" data-name="Path 16672" d="M99.157,88.342H96.536V81.789h2.621Z" transform="translate(6535.417 7291.385)" fill="#333"/>
      <path id="Path_16673" data-name="Path 16673" d="M100.7,88.342H98.083V81.789H100.7Z" transform="translate(6536.489 7291.385)" fill="#333"/>
      <path id="Path_16674" data-name="Path 16674" d="M102.25,88.342H99.629V81.789h2.621Z" transform="translate(6537.562 7291.385)" fill="#333"/>
      <path id="Path_16675" data-name="Path 16675" d="M103.8,88.342h-2.622V81.789H103.8Z" transform="translate(6538.634 7291.385)" fill="#333"/>
      <path id="Path_16676" data-name="Path 16676" d="M114.626,88.342H112V81.789h2.622Z" transform="translate(6546.143 7291.385)" fill="#333"/>
      <path id="Path_16677" data-name="Path 16677" d="M116.171,88.342h-2.62V81.789h2.62Z" transform="translate(6547.216 7291.385)" fill="#333"/>
      <path id="Path_16678" data-name="Path 16678" d="M117.719,88.342H115.1V81.789h2.622Z" transform="translate(6548.288 7291.385)" fill="#333"/>
      <path id="Path_16679" data-name="Path 16679" d="M119.266,88.342h-2.622V81.789h2.622Z" transform="translate(6549.361 7291.385)" fill="#333"/>
      <path id="Path_16680" data-name="Path 16680" d="M120.813,88.342h-2.622V81.789h2.622Z" transform="translate(6550.434 7291.385)" fill="#333"/>
      <path id="Path_16681" data-name="Path 16681" d="M122.36,88.342h-2.622V81.789h2.622Z" transform="translate(6551.507 7291.385)" fill="#333"/>
    </g>
  </g>
  <g id="freepik--Device--inject-13" transform="translate(4.943 287.413)">
    <line id="Line_44" data-name="Line 44" x1="340.197" fill="none" stroke="#93c2f7" stroke-linejoin="round" stroke-width="1.055"/>
  </g>
  <g id="Group_89649" data-name="Group 89649" transform="translate(76.989 149.983)">
    <g id="freepik--Character--inject-13" transform="translate(49.896)">
      <ellipse id="Ellipse_942" data-name="Ellipse 942" cx="10.288" cy="11.785" rx="10.288" ry="11.785" transform="translate(107.516 21.135)" fill="#263238" stroke="#263238" stroke-linejoin="round" stroke-width="1.055"/>
      <path id="Path_16434" data-name="Path 16434" d="M241.118,317.393a32.6,32.6,0,0,1-8.968-3.7c-4.746-2.809-4.924-7.208-3.519-10.55s14.772-17.4,28.317-20.4,23.74,6.506,28.13,17.411,1.058,23.384-1.929,27.073-10.558,6.328-13.9,3.866-8.79-9.848-15.3-12.834A19.087,19.087,0,0,0,241.118,317.393Z" transform="translate(-173.518 -282.189)" fill="#263238" stroke="#263238" stroke-linejoin="round" stroke-width="1.055"/>
      <path id="Path_16435" data-name="Path 16435" d="M252.35,297.62s12.995,14.619,34.12,13.012" transform="translate(-177.288 -284.565)" fill="none" stroke="#636363" stroke-miterlimit="10" stroke-width="1.055"/>
      <path id="Path_16436" data-name="Path 16436" d="M255,292.715l7.149-5.855s17.868.33,25.668,17.877" transform="translate(-177.696 -282.908)" fill="none" stroke="#636363" stroke-miterlimit="10" stroke-width="1.055"/>
      <path id="Path_16437" data-name="Path 16437" d="M241.478,304.53s-14.619,6.5-10.4,9.425,6.827.651,6.827.651" transform="translate(-173.895 -285.629)" fill="none" stroke="#636363" stroke-miterlimit="10" stroke-width="1.055"/>
      <path id="Path_16438" data-name="Path 16438" d="M233.52,302.349s2.276-3.579,10.728-3.579" transform="translate(-174.389 -284.742)" fill="none" stroke="#636363" stroke-miterlimit="10" stroke-width="1.055"/>
      <path id="Path_16439" data-name="Path 16439" d="M247.35,301.84A32.784,32.784,0,0,0,268.5,316.468c14.628,2.927,19.5-.651,19.5-.651" transform="translate(-176.518 -285.215)" fill="none" stroke="#636363" stroke-miterlimit="10" stroke-width="1.055"/>
      <path id="Path_16440" data-name="Path 16440" d="M261.135,383.2c-.135,9.374-8.325,35.669-12.225,47.682h41.117l10.5-68.96-9.848-4.746s-7.564-3.519-12.69-2.293-11.608,5.076-11.608,5.076l-5.448,1.937S261.3,370.89,261.135,383.2Z" transform="translate(-176.758 -293.342)" fill="#fff"/>
      <g id="Group_89645" data-name="Group 89645" transform="translate(72.152 61.281)" clip-path="url(#clip-path)">
        <path id="Path_16441" data-name="Path 16441" d="M261.156,431.731c.846-3.723,2.6-11.337,5.44-23.689,4.289-18.613,4.653-47.9,4.653-47.9-.313,7.7-12.555,57.826-15.939,71.582Z" transform="translate(-249.895 -355.473)" opacity="0.2"/>
      </g>
      <path id="Path_16443" data-name="Path 16443" d="M261.135,383.2c-.135,9.374-8.325,35.669-12.225,47.682h41.117l10.5-68.96-9.848-4.746s-7.564-3.519-12.69-2.293-11.608,5.076-11.608,5.076l-5.448,1.937S261.3,370.89,261.135,383.2Z" transform="translate(-176.758 -293.342)" fill="none" stroke="#263238" stroke-linejoin="round" stroke-width="1.055"/>
      <path id="Path_16444" data-name="Path 16444" d="M269.18,347.459s3.3,3.6,3.9,6.3-1.5,13.215,3.6,15.914,10.8-2.4,13.807-8.41S292,351.689,292,351.689s-7.208-7.208-10.508-12.606A46.813,46.813,0,0,1,276.684,328s-1.8,9.907-4.23,13.536A32.726,32.726,0,0,0,269.18,347.459Z" transform="translate(-179.879 -289.243)" fill="#fff"/>
      <g id="Group_89646" data-name="Group 89646" transform="translate(89.301 38.757)" clip-path="url(#clip-path-2)">
        <path id="Path_16445" data-name="Path 16445" d="M271.516,349.932l-.516.6a16.776,16.776,0,0,1,1.971,3.257,12.124,12.124,0,0,0,5.694-4.577c1.76-2.6,1.929-7.674,1.777-11.337-.406-.8-.787-1.574-1.117-2.327C277.9,339.01,274.706,346.21,271.516,349.932Z" transform="translate(-269.46 -329.163)" opacity="0.2"/>
      </g>
      <path id="Path_16447" data-name="Path 16447" d="M269.18,347.459s3.3,3.6,3.9,6.3-1.5,13.215,3.6,15.914,10.8-2.4,13.807-8.41S292,351.689,292,351.689s-7.208-7.208-10.508-12.606A46.813,46.813,0,0,1,276.684,328s-1.8,9.907-4.23,13.536A32.726,32.726,0,0,0,269.18,347.459Z" transform="translate(-179.879 -289.243)" fill="none" stroke="#263238" stroke-linecap="round" stroke-linejoin="round" stroke-width="1.055"/>
      <path id="Path_16448" data-name="Path 16448" d="M244.494,308.41s13.536,10.508,20.11,12.91,14.382,1.2,14.382,1.2a3.9,3.9,0,0,1-.905,3.6,24.8,24.8,0,0,0-2.7,3.3s.3,9-2.7,13.536-6.912,6.9-12.31,4.8-9.907-4.8-12.614-9.306-2.394-9-3.6-12.005l-3.6-9S242.091,310.813,244.494,308.41Z" transform="translate(-175.473 -286.226)" fill="#fff" stroke="#263238" stroke-linecap="round" stroke-linejoin="round" stroke-width="1.055"/>
      <path id="Path_16449" data-name="Path 16449" d="M252.67,326.71s.711,9.67,1.76,10.025,4.044-.7,4.044-.7" transform="translate(-177.337 -289.044)" fill="none" stroke="#263238" stroke-linecap="round" stroke-linejoin="round" stroke-width="1.055"/>
      <path id="Path_16450" data-name="Path 16450" d="M257.87,341.577s4.23.355,5.8-2.817" transform="translate(-178.138 -290.899)" fill="none" stroke="#263238" stroke-linecap="round" stroke-linejoin="round" stroke-width="1.055"/>
      <path id="Path_16451" data-name="Path 16451" d="M250.631,328.689c.355,1.108.152,2.166-.448,2.36s-1.371-.558-1.692-1.692-.161-2.166.44-2.352S250.276,327.58,250.631,328.689Z" transform="translate(-176.669 -289.085)" fill="#263238"/>
      <path id="Path_16452" data-name="Path 16452" d="M260.571,325.357c.355,1.117.152,2.166-.448,2.36s-1.379-.55-1.734-1.692-.152-2.166.448-2.36S260.241,324.248,260.571,325.357Z" transform="translate(-178.191 -288.57)" fill="#263238"/>
      <path id="Path_16453" data-name="Path 16453" d="M245.61,324.924s-.178-2.107,3.511-1.751" transform="translate(-176.25 -288.493)" fill="none" stroke="#263238" stroke-linecap="round" stroke-linejoin="round" stroke-width="1.055"/>
      <path id="Path_16454" data-name="Path 16454" d="M254.13,321.572a3.909,3.909,0,0,1,5.076-1.582" transform="translate(-177.562 -287.95)" fill="none" stroke="#263238" stroke-linecap="round" stroke-linejoin="round" stroke-width="1.055"/>
      <path id="Path_16455" data-name="Path 16455" d="M250.753,325.912c1.438,3.452.457,7.141-2.183,8.249s-5.922-.8-7.394-4.23-.465-7.141,2.183-8.249S249.315,322.461,250.753,325.912Z" transform="translate(-175.463 -288.221)" fill="none" stroke="#263238" stroke-linejoin="round" stroke-width="1.055"/>
      <path id="Path_16456" data-name="Path 16456" d="M264.473,321.172c1.438,3.452.457,7.14-2.183,8.249s-5.922-.8-7.394-4.23-.465-7.141,2.183-8.249S263.035,317.686,264.473,321.172Z" transform="translate(-177.575 -287.491)" fill="none" stroke="#263238" stroke-linejoin="round" stroke-width="1.055"/>
      <line id="Line_43" data-name="Line 43" y1="1.049" x2="2.107" transform="translate(74.808 35.382)" fill="none" stroke="#263238" stroke-linejoin="round" stroke-width="1.055"/>
      <path id="Path_16457" data-name="Path 16457" d="M312.406,431.094c3.164-17.97,11.844-68.3,9.789-69.315-2.428-1.227-28.528-5.778-28.528-5.778s-2.953,21.261-6.819,40.779c-2.538,12.961-5.288,26.608-6.827,34.323Z" transform="translate(-181.548 -293.554)" fill="#1389fd" stroke="#263238" stroke-linejoin="round" stroke-width="1.055"/>
      <path id="Path_16458" data-name="Path 16458" d="M248.2,367.2s-4.848,4.078-5.152,7.09-5.415,39.129-5.415,39.129a2.559,2.559,0,0,0-2.707-.9,5.66,5.66,0,0,0-2.411,2.107s-.541-1.971-2.107-.6-2.707,6.616-2.707,6.616,2.4,7.834,4.23,9.036,4.518-.6,4.518-.6-.3,1.2,3,1.2,3.917-5.118,5.118-7.225,4.822-24.687,6.624-37.031S248.2,367.2,248.2,367.2Z" transform="translate(-173.493 -295.278)" fill="#1389fd" stroke="#263238" stroke-linecap="round" stroke-linejoin="round" stroke-width="1.055"/>
      <path id="Path_16459" data-name="Path 16459" d="M240.93,431.474h15.229c1.506-5.922,3.9-15.584,6.362-25.88,4.052-16.878,6.193-47.124,6.193-47.124l-18.494,7.386a214.815,214.815,0,0,1-.355,30.592C248.908,407.988,243.933,423.14,240.93,431.474Z" transform="translate(-175.53 -293.934)" fill="#1389fd" stroke="#263238" stroke-linejoin="round" stroke-width="1.055"/>
      <path id="Path_16460" data-name="Path 16460" d="M310.3,367.168l-10.533,43.655-4.518-1.2-2.107,1.8s-1.506-2.107-3.012.3a15.543,15.543,0,0,1-3.012,3.613l2.107,12.344s8.943,3.663,10.237,3.308a3.672,3.672,0,0,0,2.707-4.23,9.466,9.466,0,0,0,3.613,1.2c.787,0,2.9-1.481,4.729-2.9a12.115,12.115,0,0,0,4.23-6.049c3.173-10.237,12.225-39.476,13.663-43.427,3.613-9.941-5.719-13.536-6.921-13.536" transform="translate(-182.642 -294.485)" fill="#1389fd" stroke="#263238" stroke-linecap="round" stroke-linejoin="round" stroke-width="1.055"/>
      <path id="Path_16461" data-name="Path 16461" d="M169.746,428.992s-6.667,3.13-6.083,3.722,5.076-1.565,6.083-1.768S171.9,428.62,169.746,428.992Z" transform="translate(-163.627 -304.786)" fill="#fff" stroke="#263238" stroke-linecap="round" stroke-linejoin="round" stroke-width="1.055"/>
      <path id="Path_16462" data-name="Path 16462" d="M173.048,426.466s-2.157-.4-2.538.584-2.157,6.278-1.963,7.454,1.963-1.176,2.75-2.352S173.048,426.466,173.048,426.466Z" transform="translate(-164.382 -304.391)" fill="#fff" stroke="#263238" stroke-linecap="round" stroke-linejoin="round" stroke-width="1.055"/>
      <path id="Path_16463" data-name="Path 16463" d="M177.306,426.4s-3.528-.981-4.12,0-3.723,7.843-3.723,7.843-.389.787,1.371,0S177.306,426.4,177.306,426.4Z" transform="translate(-164.52 -304.326)" fill="#fff" stroke="#263238" stroke-linecap="round" stroke-linejoin="round" stroke-width="1.055"/>
      <path id="Path_16464" data-name="Path 16464" d="M219.55,426.258l-22.361,2.132s-15.491-3.139-17.259-3.333a5.1,5.1,0,0,0-4.306,2.352c-.778,1.176-5.694,7.453-5.694,7.453l1.176.389,6.87-5.491s3.723-.195,4.9-.195-3.333,2.538-4.7,2.741-2.944.4-2.75,1.176,3.731.981,4.509.981a61.678,61.678,0,0,0,6.278-1.963,30.446,30.446,0,0,1,3.139.2c1.768.195,4.907-1.184,4.907-1.184s27.843,6.675,29.806,6.472S226.166,427.544,219.55,426.258Z" transform="translate(-164.598 -304.184)" fill="#fff" stroke="#263238" stroke-linecap="round" stroke-linejoin="round" stroke-width="1.055"/>
      <path id="Path_16465" data-name="Path 16465" d="M219.206,427.3s-3.926,2.157-5.694,2.352-1.565,1.768,0,2.36,7.064-2.157,8.24-2.157,10.389.778,12.352.981,3.139-1.768-1.76-3.333S219.206,427.3,219.206,427.3Z" transform="translate(-171.115 -304.447)" fill="#fff" stroke="#263238" stroke-linecap="round" stroke-linejoin="round" stroke-width="1.055"/>
      <path id="Path_16466" data-name="Path 16466" d="M223.985,424.107s-3.638-.846-4.1.668-4.721,7.53-4.822,8.1,1.413,1.049,3.139-.846S223.985,424.107,223.985,424.107Z" transform="translate(-171.546 -304.004)" fill="#fff" stroke="#263238" stroke-linecap="round" stroke-linejoin="round" stroke-width="1.055"/>
      <path id="Path_16467" data-name="Path 16467" d="M226.955,423.166s-3.139-.787-3.926,0-6.269,10-6.269,10.787,2.157.389,2.157.389l6.269-8.629,1.963-1.76Z" transform="translate(-171.808 -303.842)" fill="#fff" stroke="#263238" stroke-linecap="round" stroke-linejoin="round" stroke-width="1.055"/>
      <path id="Path_16468" data-name="Path 16468" d="M285.055,437.283a5.364,5.364,0,0,0,4.712-5.076c.389-4.7-4.712-9.213-8.24-9.408s-20,3.528-26.667,3.722-12.555.195-13.926-.389-12.944-2.944-13.731-2.944-8.824,11.176-8.824,11.176.592,1.379,2.157,0,6.667-6.074,6.667-6.074h5.685s-5.3,3.139-6.074,3.723-3.926,3.926-3.139,4.12,4.9-3.333,4.9-3.333l5.922-1.574s4.315,2.75,8.232,2.944a17.936,17.936,0,0,0,6.87-.981S272.314,437.477,285.055,437.283Z" transform="translate(-172.058 -303.838)" fill="#fff" stroke="#263238" stroke-linecap="round" stroke-linejoin="round" stroke-width="1.055"/>
    </g>
    <g id="Group_89648" data-name="Group 89648" transform="translate(0 84.671)">
      <path id="Path_16469" data-name="Path 16469" d="M187.745,431.162,168.269,382.27H107.55l24.332,48.892Z" transform="translate(-105.097 -382.27)" fill="#263238" stroke="#263238" stroke-linejoin="round" stroke-width="1.055"/>
      <g id="Group_89647" data-name="Group 89647">
        <rect id="Rectangle_2316" data-name="Rectangle 2316" width="105.364" height="3.866" transform="translate(24.332 48.892)" fill="#fff" stroke="#263238" stroke-linejoin="round" stroke-width="1.055"/>
        <rect id="Rectangle_2317" data-name="Rectangle 2317" width="49.501" height="3.866" transform="translate(80.195 48.892)" fill="#263238" stroke="#263238" stroke-linejoin="round" stroke-width="1.055"/>
        <path id="Path_16470" data-name="Path 16470" d="M184.845,431.162,165.369,382.27H104.65l24.332,48.892Z" transform="translate(-104.65 -382.27)" fill="#fff" stroke="#263238" stroke-linejoin="round" stroke-width="1.055"/>
      </g>
    </g>
  </g>
</svg>
