<svg xmlns="http://www.w3.org/2000/svg" xmlns:xlink="http://www.w3.org/1999/xlink" width="850" height="371" viewBox="0 0 850 371">
  <defs>
    <linearGradient id="linear-gradient" x1="1" y1="0.5" x2="0.005" y2="0.5" gradientUnits="objectBoundingBox">
      <stop offset="0" stop-color="#ff6a3b"/>
      <stop offset="0.586" stop-color="#fec724"/>
      <stop offset="1" stop-color="#fbdf8d"/>
    </linearGradient>
  </defs>
  <g id="popularapproch" transform="translate(-530 -5571)">
    <g id="Rectangle_2321" data-name="Rectangle 2321" transform="translate(530 5571)" fill="#fff" stroke="rgba(19,137,253,0.2)" stroke-width="1">
      <rect width="850" height="371" rx="8" stroke="none"/>
      <rect x="0.5" y="0.5" width="849" height="370" rx="7.5" fill="none"/>
    </g>
    <g id="Group_89673" data-name="Group 89673" transform="translate(580 5600)">
      <g id="Group_89661" data-name="Group 89661">
        <path id="Path_30349" data-name="Path 30349" d="M-87.136-5.6a5.85,5.85,0,0,1,.744-2.952,5.313,5.313,0,0,1,2.032-2.032,5.766,5.766,0,0,1,2.888-.728,5.681,5.681,0,0,1,3.28.96A5.02,5.02,0,0,1-76.224-7.7H-78.8a2.67,2.67,0,0,0-1.08-1.2,3.169,3.169,0,0,0-1.608-.4,3.308,3.308,0,0,0-1.736.456,3.112,3.112,0,0,0-1.184,1.288A4.246,4.246,0,0,0-84.832-5.6a4.258,4.258,0,0,0,.424,1.944,3.1,3.1,0,0,0,1.184,1.3,3.308,3.308,0,0,0,1.736.456,3.12,3.12,0,0,0,1.608-.408A2.718,2.718,0,0,0-78.8-3.52h2.576a4.992,4.992,0,0,1-1.96,2.664A5.705,5.705,0,0,1-81.472.1,5.766,5.766,0,0,1-84.36-.632a5.329,5.329,0,0,1-2.032-2.024A5.806,5.806,0,0,1-87.136-5.6ZM-70.368.144a4.669,4.669,0,0,1-2.3-.568A4.09,4.09,0,0,1-74.28-2.032a4.818,4.818,0,0,1-.584-2.4,4.716,4.716,0,0,1,.6-2.4,4.17,4.17,0,0,1,1.64-1.608,4.76,4.76,0,0,1,2.32-.568,4.76,4.76,0,0,1,2.32.568,4.17,4.17,0,0,1,1.64,1.608,4.716,4.716,0,0,1,.6,2.4,4.62,4.62,0,0,1-.616,2.4A4.266,4.266,0,0,1-68.024-.424,4.839,4.839,0,0,1-70.368.144Zm0-1.952a2.33,2.33,0,0,0,1.144-.3,2.151,2.151,0,0,0,.856-.888,2.992,2.992,0,0,0,.32-1.44,2.668,2.668,0,0,0-.664-1.944,2.183,2.183,0,0,0-1.624-.68,2.131,2.131,0,0,0-1.608.68,2.709,2.709,0,0,0-.648,1.944,2.752,2.752,0,0,0,.632,1.944A2.081,2.081,0,0,0-70.368-1.808Zm17.28-7.184a3.559,3.559,0,0,1,2.632,1,3.774,3.774,0,0,1,1,2.792V0H-51.7V-4.9a2.215,2.215,0,0,0-.528-1.592,1.9,1.9,0,0,0-1.44-.552,1.925,1.925,0,0,0-1.448.552A2.194,2.194,0,0,0-55.648-4.9V0h-2.24V-4.9a2.215,2.215,0,0,0-.528-1.592,1.9,1.9,0,0,0-1.44-.552,1.946,1.946,0,0,0-1.464.552A2.194,2.194,0,0,0-61.856-4.9V0H-64.1V-8.864h2.24v1.072a2.981,2.981,0,0,1,1.112-.88,3.469,3.469,0,0,1,1.5-.32,3.848,3.848,0,0,1,1.856.44A3.083,3.083,0,0,1-56.128-7.3a3.209,3.209,0,0,1,1.256-1.232A3.576,3.576,0,0,1-53.088-8.992Zm8,1.408A3.4,3.4,0,0,1-43.9-8.6a3.613,3.613,0,0,1,1.736-.408,3.876,3.876,0,0,1,2.056.56,3.94,3.94,0,0,1,1.456,1.592,5.118,5.118,0,0,1,.536,2.392,5.215,5.215,0,0,1-.536,2.408A4.031,4.031,0,0,1-40.1-.432,3.8,3.8,0,0,1-42.16.144a3.577,3.577,0,0,1-1.72-.4,3.69,3.69,0,0,1-1.208-1.008V4.224h-2.24V-8.864h2.24Zm4.688,3.12a2.782,2.782,0,0,0-.328-1.384,2.271,2.271,0,0,0-.864-.888,2.312,2.312,0,0,0-1.16-.3,2.237,2.237,0,0,0-1.144.312,2.316,2.316,0,0,0-.864.9,2.827,2.827,0,0,0-.328,1.392A2.827,2.827,0,0,0-44.76-3.04a2.316,2.316,0,0,0,.864.9,2.237,2.237,0,0,0,1.144.312,2.223,2.223,0,0,0,1.16-.32,2.375,2.375,0,0,0,.864-.912A2.862,2.862,0,0,0-40.4-4.464Zm6.16-7.376V0h-2.24V-11.84Zm10.448,7.216a5.287,5.287,0,0,1-.064.864h-6.48a2.2,2.2,0,0,0,.672,1.5,2.072,2.072,0,0,0,1.456.544,1.829,1.829,0,0,0,1.776-1.072h2.416a4.038,4.038,0,0,1-1.472,2.1A4.3,4.3,0,0,1-28.16.144a4.624,4.624,0,0,1-2.3-.568A4,4,0,0,1-32.04-2.032a4.927,4.927,0,0,1-.568-2.4,5.019,5.019,0,0,1,.56-2.416,3.907,3.907,0,0,1,1.568-1.6,4.7,4.7,0,0,1,2.32-.56,4.66,4.66,0,0,1,2.264.544A3.829,3.829,0,0,1-24.344-6.92,4.672,4.672,0,0,1-23.792-4.624Zm-2.32-.64a1.776,1.776,0,0,0-.624-1.384,2.211,2.211,0,0,0-1.488-.52,2.033,2.033,0,0,0-1.4.5,2.216,2.216,0,0,0-.7,1.4ZM-17.264,0l-1.824-2.752L-20.7,0h-2.4l2.9-4.448-2.928-4.416h2.528L-18.8-6.128l1.632-2.736h2.4L-17.68-4.448-14.736,0Zm4.88-9.92a1.365,1.365,0,0,1-.984-.376,1.244,1.244,0,0,1-.392-.936,1.244,1.244,0,0,1,.392-.936,1.365,1.365,0,0,1,.984-.376,1.365,1.365,0,0,1,.984.376,1.244,1.244,0,0,1,.392.936,1.244,1.244,0,0,1-.392.936A1.365,1.365,0,0,1-12.384-9.92Zm1.1,1.056V0h-2.24V-8.864Zm4.816,1.84v4.288a.847.847,0,0,0,.216.648,1.061,1.061,0,0,0,.728.2h1.04V0H-5.888Q-8.72,0-8.72-2.752V-7.024H-9.776v-1.84H-8.72v-2.192h2.256v2.192H-4.48v1.84Zm12.08-1.84L.128,4.192H-2.256L-.336-.224l-3.552-8.64h2.512L.912-2.672l2.32-6.192ZM17.472-2.128H13.024L12.288,0H9.936l4.016-11.184H16.56L20.576,0H18.208ZM16.864-3.92,15.248-8.592,13.632-3.92ZM26.992-8.992a3.417,3.417,0,0,1,2.56,1A3.828,3.828,0,0,1,30.528-5.2V0h-2.24V-4.9A2.3,2.3,0,0,0,27.76-6.52a1.87,1.87,0,0,0-1.44-.568,1.916,1.916,0,0,0-1.464.568A2.277,2.277,0,0,0,24.32-4.9V0H22.08V-8.864h2.24v1.1a3.094,3.094,0,0,1,1.144-.9A3.539,3.539,0,0,1,26.992-8.992ZM32.08-4.464a5.13,5.13,0,0,1,.536-2.384,3.91,3.91,0,0,1,1.464-1.6,3.918,3.918,0,0,1,2.064-.56,3.765,3.765,0,0,1,1.648.376,3.3,3.3,0,0,1,1.248,1V-11.84h2.272V0H39.04V-1.312A3.036,3.036,0,0,1,37.872-.256a3.659,3.659,0,0,1-1.744.4A3.807,3.807,0,0,1,34.08-.432a4.011,4.011,0,0,1-1.464-1.624A5.215,5.215,0,0,1,32.08-4.464Zm6.976.032a2.873,2.873,0,0,0-.32-1.4,2.256,2.256,0,0,0-.864-.9A2.309,2.309,0,0,0,36.7-7.04a2.269,2.269,0,0,0-1.152.3,2.289,2.289,0,0,0-.856.888,2.782,2.782,0,0,0-.328,1.384,2.873,2.873,0,0,0,.328,1.4,2.362,2.362,0,0,0,.864.92,2.195,2.195,0,0,0,1.144.32,2.309,2.309,0,0,0,1.168-.312,2.256,2.256,0,0,0,.864-.9A2.873,2.873,0,0,0,39.056-4.432ZM53.072,0,50.608-4.352H49.552V0h-2.24V-11.168H51.5a4.9,4.9,0,0,1,2.208.456A3.186,3.186,0,0,1,55.08-9.48a3.362,3.362,0,0,1,.456,1.736,3.325,3.325,0,0,1-.64,1.992,3.288,3.288,0,0,1-1.9,1.224L55.664,0Zm-3.52-6.032h1.872a1.87,1.87,0,0,0,1.36-.44A1.637,1.637,0,0,0,53.232-7.7a1.562,1.562,0,0,0-.448-1.192,1.915,1.915,0,0,0-1.36-.424H49.552ZM58.7-9.92a1.365,1.365,0,0,1-.984-.376,1.244,1.244,0,0,1-.392-.936,1.244,1.244,0,0,1,.392-.936,1.365,1.365,0,0,1,.984-.376,1.365,1.365,0,0,1,.984.376,1.244,1.244,0,0,1,.392.936,1.244,1.244,0,0,1-.392.936A1.365,1.365,0,0,1,58.7-9.92Zm1.1,1.056V0h-2.24V-8.864Zm5.6,9.008a4.674,4.674,0,0,1-1.952-.392,3.449,3.449,0,0,1-1.368-1.064A2.7,2.7,0,0,1,61.536-2.8h2.256a1.229,1.229,0,0,0,.5.848,1.753,1.753,0,0,0,1.1.336,1.7,1.7,0,0,0,1-.256.775.775,0,0,0,.36-.656.692.692,0,0,0-.44-.648,8.28,8.28,0,0,0-1.4-.472,11.864,11.864,0,0,1-1.624-.5A2.819,2.819,0,0,1,62.2-4.928a2.1,2.1,0,0,1-.456-1.424A2.3,2.3,0,0,1,62.168-7.7a2.847,2.847,0,0,1,1.216-.96,4.559,4.559,0,0,1,1.864-.352,3.806,3.806,0,0,1,2.528.792,2.934,2.934,0,0,1,1.04,2.136H66.672a1.161,1.161,0,0,0-.44-.84,1.635,1.635,0,0,0-1.048-.312,1.651,1.651,0,0,0-.936.224.714.714,0,0,0-.328.624.733.733,0,0,0,.448.68,6.957,6.957,0,0,0,1.392.472,11.816,11.816,0,0,1,1.584.5,2.8,2.8,0,0,1,1.08.792A2.175,2.175,0,0,1,68.9-2.528a2.348,2.348,0,0,1-.424,1.376A2.793,2.793,0,0,1,67.256-.2,4.607,4.607,0,0,1,65.408.144ZM75.984,0,72.976-3.776V0h-2.24V-11.84h2.24V-5.1l2.976-3.76h2.912l-3.9,4.448L78.9,0Zm7.488.144A4.674,4.674,0,0,1,81.52-.248a3.449,3.449,0,0,1-1.368-1.064A2.7,2.7,0,0,1,79.6-2.8h2.256a1.229,1.229,0,0,0,.5.848,1.753,1.753,0,0,0,1.1.336,1.7,1.7,0,0,0,1-.256.775.775,0,0,0,.36-.656.692.692,0,0,0-.44-.648,8.28,8.28,0,0,0-1.4-.472,11.864,11.864,0,0,1-1.624-.5,2.819,2.819,0,0,1-1.088-.784,2.1,2.1,0,0,1-.456-1.424A2.3,2.3,0,0,1,80.232-7.7a2.847,2.847,0,0,1,1.216-.96,4.559,4.559,0,0,1,1.864-.352,3.806,3.806,0,0,1,2.528.792A2.934,2.934,0,0,1,86.88-6.08H84.736a1.161,1.161,0,0,0-.44-.84,1.635,1.635,0,0,0-1.048-.312,1.651,1.651,0,0,0-.936.224.714.714,0,0,0-.328.624.733.733,0,0,0,.448.68,6.957,6.957,0,0,0,1.392.472,11.816,11.816,0,0,1,1.584.5,2.8,2.8,0,0,1,1.08.792,2.175,2.175,0,0,1,.472,1.416,2.348,2.348,0,0,1-.424,1.376A2.793,2.793,0,0,1,85.32-.2,4.607,4.607,0,0,1,83.472.144Z" transform="translate(375 17)" fill="#0b0e30"/>
        <g id="Group_89660" data-name="Group 89660" transform="translate(0 31)">
          <rect id="Rectangle_2319" data-name="Rectangle 2319" width="750" height="6" rx="3" fill="url(#linear-gradient)"/>
        </g>
      </g>
      <g id="Group_89662" data-name="Group 89662" transform="translate(0 277.757)">
        <path id="Path_30348" data-name="Path 30348" d="M-26.032-11.168V0h-2.24V-11.168Zm13.216,2.176a3.559,3.559,0,0,1,2.632,1,3.774,3.774,0,0,1,1,2.792V0h-2.24V-4.9a2.215,2.215,0,0,0-.528-1.592,1.9,1.9,0,0,0-1.44-.552,1.925,1.925,0,0,0-1.448.552A2.194,2.194,0,0,0-15.376-4.9V0h-2.24V-4.9a2.215,2.215,0,0,0-.528-1.592,1.9,1.9,0,0,0-1.44-.552,1.946,1.946,0,0,0-1.464.552A2.194,2.194,0,0,0-21.584-4.9V0h-2.24V-8.864h2.24v1.072a2.981,2.981,0,0,1,1.112-.88,3.469,3.469,0,0,1,1.5-.32,3.848,3.848,0,0,1,1.856.44A3.083,3.083,0,0,1-15.856-7.3,3.209,3.209,0,0,1-14.6-8.528,3.576,3.576,0,0,1-12.816-8.992Zm8,1.408A3.4,3.4,0,0,1-3.624-8.6a3.613,3.613,0,0,1,1.736-.408,3.876,3.876,0,0,1,2.056.56A3.94,3.94,0,0,1,1.624-6.856,5.118,5.118,0,0,1,2.16-4.464a5.215,5.215,0,0,1-.536,2.408A4.031,4.031,0,0,1,.168-.432,3.8,3.8,0,0,1-1.888.144a3.577,3.577,0,0,1-1.72-.4A3.69,3.69,0,0,1-4.816-1.264V4.224h-2.24V-8.864h2.24Zm4.688,3.12A2.782,2.782,0,0,0-.456-5.848a2.271,2.271,0,0,0-.864-.888,2.312,2.312,0,0,0-1.16-.3,2.237,2.237,0,0,0-1.144.312,2.316,2.316,0,0,0-.864.9,2.827,2.827,0,0,0-.328,1.392A2.827,2.827,0,0,0-4.488-3.04a2.316,2.316,0,0,0,.864.9,2.237,2.237,0,0,0,1.144.312,2.223,2.223,0,0,0,1.16-.32,2.375,2.375,0,0,0,.864-.912A2.862,2.862,0,0,0-.128-4.464Zm3.344,0a5.13,5.13,0,0,1,.536-2.384,3.929,3.929,0,0,1,1.456-1.6,3.876,3.876,0,0,1,2.056-.56A3.612,3.612,0,0,1,9-8.608,3.523,3.523,0,0,1,10.192-7.6V-8.864h2.256V0H10.192V-1.3A3.332,3.332,0,0,1,9-.264,3.647,3.647,0,0,1,7.248.144a3.767,3.767,0,0,1-2.04-.576A4.031,4.031,0,0,1,3.752-2.056,5.215,5.215,0,0,1,3.216-4.464Zm6.976.032a2.873,2.873,0,0,0-.32-1.4,2.256,2.256,0,0,0-.864-.9A2.309,2.309,0,0,0,7.84-7.04a2.269,2.269,0,0,0-1.152.3,2.289,2.289,0,0,0-.856.888A2.782,2.782,0,0,0,5.5-4.464a2.873,2.873,0,0,0,.328,1.4,2.362,2.362,0,0,0,.864.92,2.195,2.195,0,0,0,1.144.32,2.309,2.309,0,0,0,1.168-.312,2.256,2.256,0,0,0,.864-.9A2.873,2.873,0,0,0,10.192-4.432Zm3.872,0a4.972,4.972,0,0,1,.56-2.408,4,4,0,0,1,1.552-1.6,4.49,4.49,0,0,1,2.272-.568,4.368,4.368,0,0,1,2.728.824,4.008,4.008,0,0,1,1.448,2.312H20.208a1.767,1.767,0,0,0-.648-.9A1.881,1.881,0,0,0,18.432-7.1a1.847,1.847,0,0,0-1.52.7,3.081,3.081,0,0,0-.56,1.976,3.052,3.052,0,0,0,.56,1.96,1.847,1.847,0,0,0,1.52.7,1.7,1.7,0,0,0,1.776-1.216h2.416A4.089,4.089,0,0,1,21.168-.7a4.291,4.291,0,0,1-2.72.848,4.49,4.49,0,0,1-2.272-.568,4,4,0,0,1-1.552-1.6A4.972,4.972,0,0,1,14.064-4.432ZM26.88-7.024v4.288a.847.847,0,0,0,.216.648,1.061,1.061,0,0,0,.728.2h1.04V0H27.456q-2.832,0-2.832-2.752V-7.024H23.568v-1.84h1.056v-2.192H26.88v2.192h1.984v1.84Z" transform="translate(375 31)" fill="#0b0e30"/>
        <g id="Group_89660-2" data-name="Group 89660">
          <rect id="Rectangle_2319-2" data-name="Rectangle 2319" width="750" height="6" rx="3" fill="url(#linear-gradient)"/>
        </g>
      </g>
      <g id="Group_89672" data-name="Group 89672" transform="translate(0 76.878)">
        <line id="Line_45" data-name="Line 45" x2="679.5" transform="translate(70.5 21.5)" fill="none" stroke="#8ac2f8" stroke-width="1" opacity="0.5"/>
        <line id="Line_47" data-name="Line 47" x2="679.5" transform="translate(70.5 83.5)" fill="none" stroke="#8ac2f8" stroke-width="1" opacity="0.5"/>
        <line id="Line_49" data-name="Line 49" x2="539" transform="translate(211.5 145.5)" fill="none" stroke="#8ac2f8" stroke-width="1" opacity="0.5"/>
        <g id="Group_89664" data-name="Group 89664" transform="translate(448)">
          <g id="Rectangle_2322" data-name="Rectangle 2322" fill="#fff" stroke="#c4e0fb" stroke-width="1">
            <rect width="141" height="43" rx="21.5" stroke="none"/>
            <rect x="0.5" y="0.5" width="140" height="42" rx="21" fill="none"/>
          </g>
          <path id="Path_30350" data-name="Path 30350" d="M-41.3-8.19v2.45h3.29v1.554H-41.3V-1.6h3.71V0h-5.67V-9.786h5.67v1.6Zm9.786.322a2.989,2.989,0,0,1,2.24.875A3.35,3.35,0,0,1-28.42-4.55V0h-1.96V-4.284a2.011,2.011,0,0,0-.462-1.421,1.636,1.636,0,0,0-1.26-.5,1.677,1.677,0,0,0-1.281.5,1.992,1.992,0,0,0-.469,1.421V0h-1.96V-7.756h1.96v.966a2.708,2.708,0,0,1,1-.791A3.1,3.1,0,0,1-31.514-7.868Zm4.452,3.99a4.35,4.35,0,0,1,.49-2.107,3.5,3.5,0,0,1,1.358-1.4,3.929,3.929,0,0,1,1.988-.5,3.822,3.822,0,0,1,2.387.721,3.507,3.507,0,0,1,1.267,2.023h-2.114a1.546,1.546,0,0,0-.567-.791,1.646,1.646,0,0,0-.987-.287,1.616,1.616,0,0,0-1.33.609,2.7,2.7,0,0,0-.49,1.729,2.671,2.671,0,0,0,.49,1.715,1.616,1.616,0,0,0,1.33.609,1.487,1.487,0,0,0,1.554-1.064h2.114a3.577,3.577,0,0,1-1.274,2,3.754,3.754,0,0,1-2.38.742,3.929,3.929,0,0,1-1.988-.5,3.5,3.5,0,0,1-1.358-1.4A4.35,4.35,0,0,1-27.062-3.878Zm8.428-.028a4.489,4.489,0,0,1,.469-2.086,3.438,3.438,0,0,1,1.274-1.4,3.392,3.392,0,0,1,1.8-.49,3.16,3.16,0,0,1,1.519.35,3.082,3.082,0,0,1,1.043.882V-7.756h1.974V0H-12.53V-1.134a2.915,2.915,0,0,1-1.043.9,3.191,3.191,0,0,1-1.533.357,3.3,3.3,0,0,1-1.785-.5A3.527,3.527,0,0,1-18.165-1.8,4.564,4.564,0,0,1-18.634-3.906Zm6.1.028A2.514,2.514,0,0,0-12.81-5.1a1.974,1.974,0,0,0-.756-.784,2.021,2.021,0,0,0-1.022-.273,1.985,1.985,0,0,0-1.008.266,2,2,0,0,0-.749.777,2.434,2.434,0,0,0-.287,1.211,2.514,2.514,0,0,0,.287,1.225,2.066,2.066,0,0,0,.756.805,1.92,1.92,0,0,0,1,.28,2.021,2.021,0,0,0,1.022-.273,1.974,1.974,0,0,0,.756-.784A2.514,2.514,0,0,0-12.53-3.878Zm5.852-2.758a2.976,2.976,0,0,1,1.043-.889,3.161,3.161,0,0,1,1.519-.357,3.392,3.392,0,0,1,1.8.49A3.448,3.448,0,0,1-1.043-6,4.478,4.478,0,0,1-.574-3.906,4.564,4.564,0,0,1-1.043-1.8,3.527,3.527,0,0,1-2.317-.378a3.321,3.321,0,0,1-1.8.5,3.13,3.13,0,0,1-1.505-.35,3.229,3.229,0,0,1-1.057-.882V3.7h-1.96V-7.756h1.96Zm4.1,2.73a2.434,2.434,0,0,0-.287-1.211,1.987,1.987,0,0,0-.756-.777A2.023,2.023,0,0,0-4.634-6.16a1.958,1.958,0,0,0-1,.273,2.026,2.026,0,0,0-.756.791,2.474,2.474,0,0,0-.287,1.218A2.474,2.474,0,0,0-6.391-2.66a2.026,2.026,0,0,0,.756.791,1.958,1.958,0,0,0,1,.273,1.945,1.945,0,0,0,1.015-.28,2.079,2.079,0,0,0,.756-.8A2.5,2.5,0,0,0-2.576-3.906ZM3.822.126A4.09,4.09,0,0,1,2.114-.217a3.018,3.018,0,0,1-1.2-.931,2.359,2.359,0,0,1-.483-1.3H2.408a1.075,1.075,0,0,0,.441.742,1.534,1.534,0,0,0,.959.294,1.489,1.489,0,0,0,.875-.224A.678.678,0,0,0,5-2.212a.605.605,0,0,0-.385-.567,7.245,7.245,0,0,0-1.225-.413,10.381,10.381,0,0,1-1.421-.434,2.467,2.467,0,0,1-.952-.686,1.841,1.841,0,0,1-.4-1.246A2.01,2.01,0,0,1,.987-6.734a2.491,2.491,0,0,1,1.064-.84,3.989,3.989,0,0,1,1.631-.308,3.33,3.33,0,0,1,2.212.693A2.568,2.568,0,0,1,6.8-5.32H4.928a1.016,1.016,0,0,0-.385-.735,1.431,1.431,0,0,0-.917-.273,1.445,1.445,0,0,0-.819.2.625.625,0,0,0-.287.546.642.642,0,0,0,.392.6,6.087,6.087,0,0,0,1.218.413,10.339,10.339,0,0,1,1.386.434,2.449,2.449,0,0,1,.945.693,1.9,1.9,0,0,1,.413,1.239,2.055,2.055,0,0,1-.371,1.2,2.444,2.444,0,0,1-1.064.833A4.031,4.031,0,0,1,3.822.126ZM15.806-7.756V0H13.832V-.98a2.588,2.588,0,0,1-.987.791A3.064,3.064,0,0,1,11.522.1a3.286,3.286,0,0,1-1.61-.385,2.714,2.714,0,0,1-1.1-1.134,3.747,3.747,0,0,1-.4-1.785v-4.55h1.96v4.27a2.011,2.011,0,0,0,.462,1.421,1.636,1.636,0,0,0,1.26.5,1.654,1.654,0,0,0,1.274-.5,2.011,2.011,0,0,0,.462-1.421v-4.27Zm3.892-2.6V0h-1.96V-10.36Zm1.428,6.454A4.489,4.489,0,0,1,21.6-5.992a3.438,3.438,0,0,1,1.274-1.4,3.392,3.392,0,0,1,1.8-.49,3.16,3.16,0,0,1,1.519.35,3.082,3.082,0,0,1,1.043.882V-7.756H29.2V0H27.23V-1.134a2.915,2.915,0,0,1-1.043.9,3.191,3.191,0,0,1-1.533.357,3.3,3.3,0,0,1-1.785-.5A3.527,3.527,0,0,1,21.6-1.8,4.564,4.564,0,0,1,21.126-3.906Zm6.1.028A2.514,2.514,0,0,0,26.95-5.1a1.974,1.974,0,0,0-.756-.784,2.021,2.021,0,0,0-1.022-.273,1.985,1.985,0,0,0-1.008.266,2,2,0,0,0-.749.777,2.434,2.434,0,0,0-.287,1.211,2.514,2.514,0,0,0,.287,1.225,2.066,2.066,0,0,0,.756.805,1.92,1.92,0,0,0,1,.28,2.021,2.021,0,0,0,1.022-.273,1.974,1.974,0,0,0,.756-.784A2.514,2.514,0,0,0,27.23-3.878ZM33.4-6.146v3.752a.742.742,0,0,0,.189.567.929.929,0,0,0,.637.175h.91V0H33.908A2.16,2.16,0,0,1,31.43-2.408V-6.146h-.924v-1.61h.924V-9.674H33.4v1.918H35.14v1.61Zm10.36,2.1a4.625,4.625,0,0,1-.056.756h-5.67a1.928,1.928,0,0,0,.588,1.316A1.813,1.813,0,0,0,39.9-1.5a1.6,1.6,0,0,0,1.554-.938h2.114A3.533,3.533,0,0,1,42.28-.6a3.76,3.76,0,0,1-2.338.721,4.046,4.046,0,0,1-2.009-.5,3.5,3.5,0,0,1-1.386-1.407,4.311,4.311,0,0,1-.5-2.1,4.391,4.391,0,0,1,.49-2.114,3.419,3.419,0,0,1,1.372-1.4,4.11,4.11,0,0,1,2.03-.49,4.078,4.078,0,0,1,1.981.476,3.35,3.35,0,0,1,1.358,1.351A4.088,4.088,0,0,1,43.764-4.046Zm-2.03-.56a1.554,1.554,0,0,0-.546-1.211,1.934,1.934,0,0,0-1.3-.455,1.779,1.779,0,0,0-1.225.441,1.939,1.939,0,0,0-.609,1.225Z" transform="translate(71 27)" fill="#0b0e30"/>
        </g>
        <g id="Group_89667" data-name="Group 89667" transform="translate(448 62)">
          <g id="Rectangle_2322-2" data-name="Rectangle 2322" fill="#fff" stroke="#c4e0fb" stroke-width="1">
            <rect width="141" height="43" rx="21.5" stroke="none"/>
            <rect x="0.5" y="0.5" width="140" height="42" rx="21" fill="none"/>
          </g>
          <path id="Path_30351" data-name="Path 30351" d="M-24.185,0l-2.156-3.808h-.924V0h-1.96V-9.772h3.668a4.283,4.283,0,0,1,1.932.4,2.787,2.787,0,0,1,1.2,1.078,2.942,2.942,0,0,1,.4,1.519,2.91,2.91,0,0,1-.56,1.743,2.877,2.877,0,0,1-1.666,1.071L-21.917,0Zm-3.08-5.278h1.638a1.637,1.637,0,0,0,1.19-.385,1.433,1.433,0,0,0,.392-1.071,1.367,1.367,0,0,0-.392-1.043,1.676,1.676,0,0,0-1.19-.371h-1.638Zm14.224,1.232a4.626,4.626,0,0,1-.056.756h-5.67a1.928,1.928,0,0,0,.588,1.316A1.813,1.813,0,0,0-16.9-1.5a1.6,1.6,0,0,0,1.554-.938h2.114A3.533,3.533,0,0,1-14.525-.6a3.76,3.76,0,0,1-2.338.721,4.046,4.046,0,0,1-2.009-.5,3.5,3.5,0,0,1-1.386-1.407,4.311,4.311,0,0,1-.5-2.1,4.391,4.391,0,0,1,.49-2.114,3.419,3.419,0,0,1,1.372-1.4,4.11,4.11,0,0,1,2.03-.49,4.078,4.078,0,0,1,1.981.476,3.35,3.35,0,0,1,1.358,1.351A4.088,4.088,0,0,1-13.041-4.046Zm-2.03-.56a1.554,1.554,0,0,0-.546-1.211,1.934,1.934,0,0,0-1.3-.455,1.779,1.779,0,0,0-1.225.441,1.939,1.939,0,0,0-.609,1.225Zm7.014-1.54H-9.415V0H-11.4V-6.146h-.882v-1.61h.882v-.392a2.571,2.571,0,0,1,.812-2.1,3.628,3.628,0,0,1,2.45-.63v1.652a1.455,1.455,0,0,0-.994.238,1.192,1.192,0,0,0-.28.91v.322h1.358Zm.77,2.24a4.489,4.489,0,0,1,.469-2.086,3.438,3.438,0,0,1,1.274-1.4,3.392,3.392,0,0,1,1.8-.49,3.16,3.16,0,0,1,1.519.35,3.082,3.082,0,0,1,1.043.882V-7.756H.791V0H-1.183V-1.134a2.915,2.915,0,0,1-1.043.9A3.191,3.191,0,0,1-3.759.126a3.3,3.3,0,0,1-1.785-.5A3.527,3.527,0,0,1-6.818-1.8,4.564,4.564,0,0,1-7.287-3.906Zm6.1.028A2.514,2.514,0,0,0-1.463-5.1a1.974,1.974,0,0,0-.756-.784A2.021,2.021,0,0,0-3.241-6.16a1.985,1.985,0,0,0-1.008.266A2,2,0,0,0-5-5.117a2.434,2.434,0,0,0-.287,1.211A2.514,2.514,0,0,0-5-2.681a2.066,2.066,0,0,0,.756.805,1.92,1.92,0,0,0,1,.28,2.021,2.021,0,0,0,1.022-.273,1.974,1.974,0,0,0,.756-.784A2.514,2.514,0,0,0-1.183-3.878Zm3.388,0A4.35,4.35,0,0,1,2.7-5.985a3.5,3.5,0,0,1,1.358-1.4,3.929,3.929,0,0,1,1.988-.5,3.822,3.822,0,0,1,2.387.721A3.507,3.507,0,0,1,9.7-5.138H7.581a1.546,1.546,0,0,0-.567-.791,1.646,1.646,0,0,0-.987-.287,1.616,1.616,0,0,0-1.33.609,2.7,2.7,0,0,0-.49,1.729A2.671,2.671,0,0,0,4.7-2.163a1.616,1.616,0,0,0,1.33.609A1.487,1.487,0,0,0,7.581-2.618H9.7a3.577,3.577,0,0,1-1.274,2,3.754,3.754,0,0,1-2.38.742,3.929,3.929,0,0,1-1.988-.5A3.5,3.5,0,0,1,2.7-1.771,4.35,4.35,0,0,1,2.205-3.878ZM13.419-6.146v3.752a.742.742,0,0,0,.189.567.929.929,0,0,0,.637.175h.91V0H13.923a2.16,2.16,0,0,1-2.478-2.408V-6.146h-.924v-1.61h.924V-9.674h1.974v1.918h1.736v1.61ZM20.013.126A4.085,4.085,0,0,1,18-.371,3.579,3.579,0,0,1,16.59-1.778a4.216,4.216,0,0,1-.511-2.1,4.126,4.126,0,0,1,.525-2.1,3.648,3.648,0,0,1,1.435-1.407,4.165,4.165,0,0,1,2.03-.5,4.165,4.165,0,0,1,2.03.5,3.648,3.648,0,0,1,1.435,1.407,4.126,4.126,0,0,1,.525,2.1,4.042,4.042,0,0,1-.539,2.1A3.732,3.732,0,0,1,22.064-.371,4.234,4.234,0,0,1,20.013.126Zm0-1.708a2.039,2.039,0,0,0,1-.259,1.882,1.882,0,0,0,.749-.777,2.618,2.618,0,0,0,.28-1.26,2.335,2.335,0,0,0-.581-1.7,1.91,1.91,0,0,0-1.421-.595,1.865,1.865,0,0,0-1.407.595,2.37,2.37,0,0,0-.567,1.7,2.408,2.408,0,0,0,.553,1.7A1.821,1.821,0,0,0,20.013-1.582Zm7.448-4.97a2.756,2.756,0,0,1,.987-.966,2.745,2.745,0,0,1,1.393-.35V-5.81h-.518a1.985,1.985,0,0,0-1.393.434,2,2,0,0,0-.469,1.512V0H25.5V-7.756h1.96Z" transform="translate(71 27)" fill="#0b0e30"/>
        </g>
        <g id="Group_89669" data-name="Group 89669" transform="translate(450.5 121)">
          <g id="Rectangle_2322-3" data-name="Rectangle 2322" fill="#fff" stroke="#c4e0fb" stroke-width="1">
            <rect width="141" height="43" rx="21.5" stroke="none"/>
            <rect x="0.5" y="0.5" width="140" height="42" rx="21" fill="none"/>
          </g>
          <path id="Path_30352" data-name="Path 30352" d="M-20.811,0l-2.156-3.808h-.924V0h-1.96V-9.772h3.668a4.283,4.283,0,0,1,1.932.4,2.787,2.787,0,0,1,1.2,1.078,2.942,2.942,0,0,1,.4,1.519,2.91,2.91,0,0,1-.56,1.743,2.877,2.877,0,0,1-1.666,1.071L-18.543,0Zm-3.08-5.278h1.638a1.637,1.637,0,0,0,1.19-.385,1.433,1.433,0,0,0,.392-1.071,1.367,1.367,0,0,0-.392-1.043,1.676,1.676,0,0,0-1.19-.371h-1.638ZM-9.667-4.046a4.626,4.626,0,0,1-.056.756h-5.67A1.928,1.928,0,0,0-14.8-1.974a1.813,1.813,0,0,0,1.274.476,1.6,1.6,0,0,0,1.554-.938h2.114A3.533,3.533,0,0,1-11.151-.6a3.76,3.76,0,0,1-2.338.721,4.046,4.046,0,0,1-2.009-.5,3.5,3.5,0,0,1-1.386-1.407,4.311,4.311,0,0,1-.5-2.1,4.391,4.391,0,0,1,.49-2.114,3.419,3.419,0,0,1,1.372-1.4,4.11,4.11,0,0,1,2.03-.49,4.078,4.078,0,0,1,1.981.476A3.35,3.35,0,0,1-10.15-6.055,4.088,4.088,0,0,1-9.667-4.046Zm-2.03-.56a1.554,1.554,0,0,0-.546-1.211,1.934,1.934,0,0,0-1.3-.455,1.779,1.779,0,0,0-1.225.441,1.939,1.939,0,0,0-.609,1.225Zm5.418-2.016a2.8,2.8,0,0,1,1.043-.91,3.212,3.212,0,0,1,1.519-.35,3.392,3.392,0,0,1,1.8.49A3.448,3.448,0,0,1-.644-6,4.478,4.478,0,0,1-.175-3.906,4.564,4.564,0,0,1-.644-1.8,3.527,3.527,0,0,1-1.918-.378a3.321,3.321,0,0,1-1.8.5A3.213,3.213,0,0,1-5.236-.217a2.951,2.951,0,0,1-1.043-.889V0h-1.96V-10.36h1.96Zm4.1,2.716a2.434,2.434,0,0,0-.287-1.211,1.987,1.987,0,0,0-.756-.777A2.023,2.023,0,0,0-4.235-6.16a1.958,1.958,0,0,0-1,.273,2.026,2.026,0,0,0-.756.791,2.474,2.474,0,0,0-.287,1.218A2.474,2.474,0,0,0-5.992-2.66a2.026,2.026,0,0,0,.756.791,1.958,1.958,0,0,0,1,.273,1.945,1.945,0,0,0,1.015-.28,2.079,2.079,0,0,0,.756-.8A2.5,2.5,0,0,0-2.177-3.906ZM8.575-7.756V0H6.6V-.98a2.588,2.588,0,0,1-.987.791A3.064,3.064,0,0,1,4.291.1a3.286,3.286,0,0,1-1.61-.385,2.714,2.714,0,0,1-1.1-1.134,3.747,3.747,0,0,1-.4-1.785v-4.55h1.96v4.27a2.011,2.011,0,0,0,.462,1.421,1.636,1.636,0,0,0,1.26.5,1.654,1.654,0,0,0,1.274-.5A2.011,2.011,0,0,0,6.6-3.486v-4.27ZM11.5-8.68a1.194,1.194,0,0,1-.861-.329,1.089,1.089,0,0,1-.343-.819,1.089,1.089,0,0,1,.343-.819,1.194,1.194,0,0,1,.861-.329,1.194,1.194,0,0,1,.861.329,1.089,1.089,0,0,1,.343.819,1.089,1.089,0,0,1-.343.819A1.194,1.194,0,0,1,11.5-8.68Zm.966.924V0h-1.96V-7.756Zm3.892-2.6V0H14.4V-10.36Zm1.428,6.454a4.489,4.489,0,0,1,.469-2.086,3.421,3.421,0,0,1,1.281-1.4,3.428,3.428,0,0,1,1.806-.49,3.294,3.294,0,0,1,1.442.329,2.883,2.883,0,0,1,1.092.875V-10.36h1.988V0H23.877V-1.148a2.656,2.656,0,0,1-1.022.924,3.2,3.2,0,0,1-1.526.35,3.331,3.331,0,0,1-1.792-.5A3.51,3.51,0,0,1,18.256-1.8,4.564,4.564,0,0,1,17.787-3.906Zm6.1.028a2.514,2.514,0,0,0-.28-1.225,1.974,1.974,0,0,0-.756-.784,2.021,2.021,0,0,0-1.022-.273,1.985,1.985,0,0,0-1.008.266,2,2,0,0,0-.749.777,2.434,2.434,0,0,0-.287,1.211,2.514,2.514,0,0,0,.287,1.225,2.066,2.066,0,0,0,.756.805,1.92,1.92,0,0,0,1,.28,2.021,2.021,0,0,0,1.022-.273,1.974,1.974,0,0,0,.756-.784A2.514,2.514,0,0,0,23.891-3.878Z" transform="translate(71 27)" fill="#0b0e30"/>
        </g>
        <g id="Group_89665" data-name="Group 89665" transform="translate(609)">
          <g id="Rectangle_2322-4" data-name="Rectangle 2322" fill="#fff" stroke="#c4e0fb" stroke-width="1">
            <rect width="141" height="43" rx="21.5" stroke="none"/>
            <rect x="0.5" y="0.5" width="140" height="42" rx="21" fill="none"/>
          </g>
          <path id="Path_30355" data-name="Path 30355" d="M-18.424,0-20.58-3.808H-21.5V0h-1.96V-9.772H-19.8a4.283,4.283,0,0,1,1.932.4,2.787,2.787,0,0,1,1.2,1.078,2.942,2.942,0,0,1,.4,1.519,2.91,2.91,0,0,1-.56,1.743,2.877,2.877,0,0,1-1.666,1.071L-16.156,0ZM-21.5-5.278h1.638a1.637,1.637,0,0,0,1.19-.385,1.433,1.433,0,0,0,.392-1.071,1.367,1.367,0,0,0-.392-1.043,1.676,1.676,0,0,0-1.19-.371H-21.5ZM-7.28-4.046a4.626,4.626,0,0,1-.056.756h-5.67a1.928,1.928,0,0,0,.588,1.316,1.813,1.813,0,0,0,1.274.476A1.6,1.6,0,0,0-9.59-2.436h2.114A3.533,3.533,0,0,1-8.764-.6,3.76,3.76,0,0,1-11.1.126a4.046,4.046,0,0,1-2.009-.5A3.5,3.5,0,0,1-14.5-1.778a4.311,4.311,0,0,1-.5-2.1,4.391,4.391,0,0,1,.49-2.114,3.419,3.419,0,0,1,1.372-1.4,4.11,4.11,0,0,1,2.03-.49,4.078,4.078,0,0,1,1.981.476A3.35,3.35,0,0,1-7.763-6.055,4.088,4.088,0,0,1-7.28-4.046Zm-2.03-.56a1.554,1.554,0,0,0-.546-1.211,1.934,1.934,0,0,0-1.3-.455,1.779,1.779,0,0,0-1.225.441,1.939,1.939,0,0,0-.609,1.225Zm7.826-3.262a3.149,3.149,0,0,1,1.568.385A2.653,2.653,0,0,1,1.155-6.349a3.893,3.893,0,0,1,.385,1.8V0H-.42V-4.284A2.011,2.011,0,0,0-.882-5.705a1.636,1.636,0,0,0-1.26-.5,1.677,1.677,0,0,0-1.281.5,1.992,1.992,0,0,0-.469,1.421V0h-1.96V-10.36h1.96v3.57a2.555,2.555,0,0,1,1.008-.791A3.338,3.338,0,0,1-1.484-7.868ZM6.846.126a4.085,4.085,0,0,1-2.016-.5A3.579,3.579,0,0,1,3.423-1.778a4.216,4.216,0,0,1-.511-2.1,4.126,4.126,0,0,1,.525-2.1A3.648,3.648,0,0,1,4.872-7.385a4.165,4.165,0,0,1,2.03-.5,4.165,4.165,0,0,1,2.03.5,3.648,3.648,0,0,1,1.435,1.407,4.126,4.126,0,0,1,.525,2.1,4.042,4.042,0,0,1-.539,2.1A3.732,3.732,0,0,1,8.9-.371,4.234,4.234,0,0,1,6.846.126Zm0-1.708a2.039,2.039,0,0,0,1-.259A1.882,1.882,0,0,0,8.6-2.618a2.618,2.618,0,0,0,.28-1.26,2.335,2.335,0,0,0-.581-1.7,1.91,1.91,0,0,0-1.421-.595,1.865,1.865,0,0,0-1.407.595,2.37,2.37,0,0,0-.567,1.7,2.408,2.408,0,0,0,.553,1.7A1.821,1.821,0,0,0,6.846-1.582ZM15.3.126a4.09,4.09,0,0,1-1.708-.343,3.018,3.018,0,0,1-1.2-.931,2.359,2.359,0,0,1-.483-1.3h1.974a1.075,1.075,0,0,0,.441.742,1.534,1.534,0,0,0,.959.294,1.489,1.489,0,0,0,.875-.224.678.678,0,0,0,.315-.574.605.605,0,0,0-.385-.567,7.245,7.245,0,0,0-1.225-.413,10.381,10.381,0,0,1-1.421-.434,2.467,2.467,0,0,1-.952-.686,1.841,1.841,0,0,1-.4-1.246,2.01,2.01,0,0,1,.371-1.176,2.491,2.491,0,0,1,1.064-.84,3.989,3.989,0,0,1,1.631-.308,3.33,3.33,0,0,1,2.212.693,2.568,2.568,0,0,1,.91,1.869H16.408a1.016,1.016,0,0,0-.385-.735,1.431,1.431,0,0,0-.917-.273,1.445,1.445,0,0,0-.819.2A.625.625,0,0,0,14-5.586a.642.642,0,0,0,.392.6,6.087,6.087,0,0,0,1.218.413A10.339,10.339,0,0,1,17-4.144a2.449,2.449,0,0,1,.945.693,1.9,1.9,0,0,1,.413,1.239,2.055,2.055,0,0,1-.371,1.2,2.444,2.444,0,0,1-1.064.833A4.031,4.031,0,0,1,15.3.126Zm6.944-6.272v3.752a.742.742,0,0,0,.189.567.929.929,0,0,0,.637.175h.91V0H22.75a2.16,2.16,0,0,1-2.478-2.408V-6.146h-.924v-1.61h.924V-9.674h1.974v1.918h1.736v1.61Z" transform="translate(71 27)" fill="#0b0e30"/>
        </g>
        <g id="Group_89668" data-name="Group 89668" transform="translate(609 62)">
          <g id="Rectangle_2322-5" data-name="Rectangle 2322" fill="#fff" stroke="#c4e0fb" stroke-width="1">
            <rect width="141" height="43" rx="21.5" stroke="none"/>
            <rect x="0.5" y="0.5" width="140" height="42" rx="21" fill="none"/>
          </g>
          <path id="Path_30354" data-name="Path 30354" d="M-34,0l-2.156-3.808h-.924V0h-1.96V-9.772h3.668a4.283,4.283,0,0,1,1.932.4,2.787,2.787,0,0,1,1.2,1.078,2.942,2.942,0,0,1,.4,1.519,2.91,2.91,0,0,1-.56,1.743,2.877,2.877,0,0,1-1.666,1.071L-31.731,0Zm-3.08-5.278h1.638a1.637,1.637,0,0,0,1.19-.385,1.433,1.433,0,0,0,.392-1.071,1.367,1.367,0,0,0-.392-1.043,1.676,1.676,0,0,0-1.19-.371h-1.638Zm14.224,1.232a4.626,4.626,0,0,1-.056.756h-5.67a1.928,1.928,0,0,0,.588,1.316,1.813,1.813,0,0,0,1.274.476,1.6,1.6,0,0,0,1.554-.938h2.114A3.533,3.533,0,0,1-24.339-.6a3.76,3.76,0,0,1-2.338.721,4.046,4.046,0,0,1-2.009-.5,3.5,3.5,0,0,1-1.386-1.407,4.311,4.311,0,0,1-.5-2.1,4.391,4.391,0,0,1,.49-2.114,3.419,3.419,0,0,1,1.372-1.4,4.11,4.11,0,0,1,2.03-.49,4.078,4.078,0,0,1,1.981.476,3.35,3.35,0,0,1,1.358,1.351A4.088,4.088,0,0,1-22.855-4.046Zm-2.03-.56a1.554,1.554,0,0,0-.546-1.211,1.934,1.934,0,0,0-1.3-.455,1.779,1.779,0,0,0-1.225.441,1.939,1.939,0,0,0-.609,1.225Zm5.418-2.03a2.976,2.976,0,0,1,1.043-.889A3.161,3.161,0,0,1-16.9-7.882a3.392,3.392,0,0,1,1.8.49A3.448,3.448,0,0,1-13.832-6a4.478,4.478,0,0,1,.469,2.093A4.564,4.564,0,0,1-13.832-1.8,3.527,3.527,0,0,1-15.106-.378a3.321,3.321,0,0,1-1.8.5,3.13,3.13,0,0,1-1.505-.35,3.229,3.229,0,0,1-1.057-.882V3.7h-1.96V-7.756h1.96Zm4.1,2.73a2.434,2.434,0,0,0-.287-1.211,1.987,1.987,0,0,0-.756-.777,2.023,2.023,0,0,0-1.015-.266,1.958,1.958,0,0,0-1,.273,2.026,2.026,0,0,0-.756.791,2.474,2.474,0,0,0-.287,1.218A2.474,2.474,0,0,0-19.18-2.66a2.026,2.026,0,0,0,.756.791,1.958,1.958,0,0,0,1,.273,1.945,1.945,0,0,0,1.015-.28,2.079,2.079,0,0,0,.756-.8A2.5,2.5,0,0,0-15.365-3.906Zm5.39-6.454V0h-1.96V-10.36Zm1.428,6.454a4.489,4.489,0,0,1,.469-2.086A3.438,3.438,0,0,1-6.8-7.392,3.392,3.392,0,0,1-5-7.882a3.16,3.16,0,0,1,1.519.35,3.082,3.082,0,0,1,1.043.882V-7.756H-.469V0H-2.443V-1.134a2.915,2.915,0,0,1-1.043.9A3.191,3.191,0,0,1-5.019.126,3.3,3.3,0,0,1-6.8-.378,3.527,3.527,0,0,1-8.078-1.8,4.564,4.564,0,0,1-8.547-3.906Zm6.1.028A2.514,2.514,0,0,0-2.723-5.1a1.974,1.974,0,0,0-.756-.784A2.021,2.021,0,0,0-4.5-6.16a1.985,1.985,0,0,0-1.008.266,2,2,0,0,0-.749.777,2.434,2.434,0,0,0-.287,1.211,2.514,2.514,0,0,0,.287,1.225,2.066,2.066,0,0,0,.756.805,1.92,1.92,0,0,0,1,.28,2.021,2.021,0,0,0,1.022-.273,1.974,1.974,0,0,0,.756-.784A2.514,2.514,0,0,0-2.443-3.878ZM3.731-6.146v3.752a.742.742,0,0,0,.189.567.929.929,0,0,0,.637.175h.91V0H4.235A2.16,2.16,0,0,1,1.757-2.408V-6.146H.833v-1.61h.924V-9.674H3.731v1.918H5.467v1.61Zm6.706,0H9.079V0H7.091V-6.146H6.209v-1.61h.882v-.392a2.571,2.571,0,0,1,.812-2.1,3.628,3.628,0,0,1,2.45-.63v1.652a1.455,1.455,0,0,0-.994.238,1.192,1.192,0,0,0-.28.91v.322h1.358ZM15.155.126a4.085,4.085,0,0,1-2.016-.5,3.579,3.579,0,0,1-1.407-1.407,4.216,4.216,0,0,1-.511-2.1,4.126,4.126,0,0,1,.525-2.1,3.648,3.648,0,0,1,1.435-1.407,4.165,4.165,0,0,1,2.03-.5,4.165,4.165,0,0,1,2.03.5,3.648,3.648,0,0,1,1.435,1.407,4.126,4.126,0,0,1,.525,2.1,4.042,4.042,0,0,1-.539,2.1A3.732,3.732,0,0,1,17.206-.371,4.234,4.234,0,0,1,15.155.126Zm0-1.708a2.039,2.039,0,0,0,1-.259,1.882,1.882,0,0,0,.749-.777,2.618,2.618,0,0,0,.28-1.26,2.335,2.335,0,0,0-.581-1.7,1.91,1.91,0,0,0-1.421-.595,1.865,1.865,0,0,0-1.407.595,2.37,2.37,0,0,0-.567,1.7,2.408,2.408,0,0,0,.553,1.7A1.821,1.821,0,0,0,15.155-1.582ZM22.6-6.552a2.756,2.756,0,0,1,.987-.966,2.745,2.745,0,0,1,1.393-.35V-5.81h-.518a1.985,1.985,0,0,0-1.393.434A2,2,0,0,0,22.6-3.864V0h-1.96V-7.756H22.6ZM35.931-7.868a3.114,3.114,0,0,1,2.3.875,3.3,3.3,0,0,1,.875,2.443V0h-1.96V-4.284a1.938,1.938,0,0,0-.462-1.393,1.661,1.661,0,0,0-1.26-.483,1.684,1.684,0,0,0-1.267.483,1.92,1.92,0,0,0-.469,1.393V0h-1.96V-4.284a1.938,1.938,0,0,0-.462-1.393,1.661,1.661,0,0,0-1.26-.483,1.7,1.7,0,0,0-1.281.483,1.92,1.92,0,0,0-.469,1.393V0H26.3V-7.756h1.96v.938a2.609,2.609,0,0,1,.973-.77,3.035,3.035,0,0,1,1.309-.28,3.367,3.367,0,0,1,1.624.385,2.7,2.7,0,0,1,1.106,1.1,2.808,2.808,0,0,1,1.1-1.078A3.129,3.129,0,0,1,35.931-7.868Z" transform="translate(71 27)" fill="#0b0e30"/>
        </g>
        <g id="Group_89670" data-name="Group 89670" transform="translate(611.5 121)">
          <g id="Rectangle_2322-6" data-name="Rectangle 2322" fill="#fff" stroke="#c4e0fb" stroke-width="1">
            <rect width="141" height="43" rx="21.5" stroke="none"/>
            <rect x="0.5" y="0.5" width="140" height="42" rx="21" fill="none"/>
          </g>
          <path id="Path_30353" data-name="Path 30353" d="M-51.247,0-53.4-3.808h-.924V0h-1.96V-9.772h3.668a4.283,4.283,0,0,1,1.932.4A2.787,2.787,0,0,1-49.49-8.3a2.942,2.942,0,0,1,.4,1.519,2.91,2.91,0,0,1-.56,1.743,2.877,2.877,0,0,1-1.666,1.071L-48.979,0Zm-3.08-5.278h1.638a1.637,1.637,0,0,0,1.19-.385,1.433,1.433,0,0,0,.392-1.071A1.367,1.367,0,0,0-51.5-7.777a1.676,1.676,0,0,0-1.19-.371h-1.638ZM-40.1-4.046a4.625,4.625,0,0,1-.056.756h-5.67a1.928,1.928,0,0,0,.588,1.316,1.813,1.813,0,0,0,1.274.476,1.6,1.6,0,0,0,1.554-.938H-40.3A3.533,3.533,0,0,1-41.587-.6a3.76,3.76,0,0,1-2.338.721,4.046,4.046,0,0,1-2.009-.5A3.5,3.5,0,0,1-47.32-1.778a4.311,4.311,0,0,1-.5-2.1,4.391,4.391,0,0,1,.49-2.114,3.419,3.419,0,0,1,1.372-1.4,4.11,4.11,0,0,1,2.03-.49,4.078,4.078,0,0,1,1.981.476,3.35,3.35,0,0,1,1.358,1.351A4.088,4.088,0,0,1-40.1-4.046Zm-2.03-.56a1.554,1.554,0,0,0-.546-1.211,1.934,1.934,0,0,0-1.3-.455,1.779,1.779,0,0,0-1.225.441,1.939,1.939,0,0,0-.609,1.225Zm9.422-1.218v1.652h-5.936V-5.824Zm8.19,3.962h-3.892L-29.057,0h-2.058L-27.6-9.786h2.282L-21.805,0h-2.072Zm-.532-1.568-1.414-4.088L-27.881-3.43Zm6.524-3.122a2.756,2.756,0,0,1,.987-.966,2.745,2.745,0,0,1,1.393-.35V-5.81h-.518a1.985,1.985,0,0,0-1.393.434,2,2,0,0,0-.469,1.512V0h-1.96V-7.756h1.96Zm3.192,2.674a4.35,4.35,0,0,1,.49-2.107,3.5,3.5,0,0,1,1.358-1.4,3.929,3.929,0,0,1,1.988-.5,3.822,3.822,0,0,1,2.387.721A3.507,3.507,0,0,1-7.847-5.138H-9.961a1.546,1.546,0,0,0-.567-.791,1.646,1.646,0,0,0-.987-.287,1.616,1.616,0,0,0-1.33.609,2.7,2.7,0,0,0-.49,1.729,2.671,2.671,0,0,0,.49,1.715,1.616,1.616,0,0,0,1.33.609A1.487,1.487,0,0,0-9.961-2.618h2.114a3.577,3.577,0,0,1-1.274,2A3.754,3.754,0,0,1-11.5.126a3.929,3.929,0,0,1-1.988-.5,3.5,3.5,0,0,1-1.358-1.4A4.35,4.35,0,0,1-15.337-3.878Zm13.3-3.99a3.149,3.149,0,0,1,1.568.385A2.653,2.653,0,0,1,.6-6.349a3.893,3.893,0,0,1,.385,1.8V0H-.973V-4.284a2.011,2.011,0,0,0-.462-1.421,1.636,1.636,0,0,0-1.26-.5,1.677,1.677,0,0,0-1.281.5,1.992,1.992,0,0,0-.469,1.421V0H-6.4V-10.36h1.96v3.57a2.555,2.555,0,0,1,1.008-.791A3.338,3.338,0,0,1-2.037-7.868Zm5.88-.812a1.194,1.194,0,0,1-.861-.329,1.089,1.089,0,0,1-.343-.819,1.089,1.089,0,0,1,.343-.819,1.194,1.194,0,0,1,.861-.329,1.194,1.194,0,0,1,.861.329,1.089,1.089,0,0,1,.343.819,1.089,1.089,0,0,1-.343.819A1.194,1.194,0,0,1,3.843-8.68Zm.966.924V0H2.849V-7.756Zm4.214,1.61v3.752a.742.742,0,0,0,.189.567.929.929,0,0,0,.637.175h.91V0H9.527A2.16,2.16,0,0,1,7.049-2.408V-6.146H6.125v-1.61h.924V-9.674H9.023v1.918h1.736v1.61Zm10.36,2.1a4.626,4.626,0,0,1-.056.756h-5.67a1.928,1.928,0,0,0,.588,1.316,1.813,1.813,0,0,0,1.274.476,1.6,1.6,0,0,0,1.554-.938h2.114A3.533,3.533,0,0,1,17.9-.6a3.76,3.76,0,0,1-2.338.721,4.046,4.046,0,0,1-2.009-.5,3.5,3.5,0,0,1-1.386-1.407,4.311,4.311,0,0,1-.5-2.1,4.391,4.391,0,0,1,.49-2.114,3.419,3.419,0,0,1,1.372-1.4,4.11,4.11,0,0,1,2.03-.49,4.078,4.078,0,0,1,1.981.476A3.35,3.35,0,0,1,18.9-6.055,4.088,4.088,0,0,1,19.383-4.046Zm-2.03-.56a1.554,1.554,0,0,0-.546-1.211,1.934,1.934,0,0,0-1.3-.455,1.779,1.779,0,0,0-1.225.441,1.939,1.939,0,0,0-.609,1.225Zm2.954.728a4.35,4.35,0,0,1,.49-2.107,3.5,3.5,0,0,1,1.358-1.4,3.929,3.929,0,0,1,1.988-.5,3.822,3.822,0,0,1,2.387.721A3.507,3.507,0,0,1,27.8-5.138H25.683a1.546,1.546,0,0,0-.567-.791,1.646,1.646,0,0,0-.987-.287,1.616,1.616,0,0,0-1.33.609,2.7,2.7,0,0,0-.49,1.729,2.671,2.671,0,0,0,.49,1.715,1.616,1.616,0,0,0,1.33.609,1.487,1.487,0,0,0,1.554-1.064H27.8a3.577,3.577,0,0,1-1.274,2,3.754,3.754,0,0,1-2.38.742,3.929,3.929,0,0,1-1.988-.5,3.5,3.5,0,0,1-1.358-1.4A4.35,4.35,0,0,1,20.307-3.878ZM31.521-6.146v3.752a.742.742,0,0,0,.189.567.929.929,0,0,0,.637.175h.91V0H32.025a2.16,2.16,0,0,1-2.478-2.408V-6.146h-.924v-1.61h.924V-9.674h1.974v1.918h1.736v1.61Zm10.472-1.61V0H40.019V-.98a2.588,2.588,0,0,1-.987.791A3.064,3.064,0,0,1,37.709.1,3.286,3.286,0,0,1,36.1-.287,2.714,2.714,0,0,1,35-1.421a3.747,3.747,0,0,1-.4-1.785v-4.55h1.96v4.27a2.011,2.011,0,0,0,.462,1.421,1.636,1.636,0,0,0,1.26.5,1.654,1.654,0,0,0,1.274-.5,2.011,2.011,0,0,0,.462-1.421v-4.27Zm3.892,1.2a2.756,2.756,0,0,1,.987-.966,2.745,2.745,0,0,1,1.393-.35V-5.81h-.518a1.985,1.985,0,0,0-1.393.434,2,2,0,0,0-.469,1.512V0h-1.96V-7.756h1.96ZM56.791-4.046a4.625,4.625,0,0,1-.056.756h-5.67a1.928,1.928,0,0,0,.588,1.316,1.813,1.813,0,0,0,1.274.476,1.6,1.6,0,0,0,1.554-.938H56.6A3.533,3.533,0,0,1,55.307-.6a3.76,3.76,0,0,1-2.338.721,4.046,4.046,0,0,1-2.009-.5,3.5,3.5,0,0,1-1.386-1.407,4.311,4.311,0,0,1-.5-2.1,4.391,4.391,0,0,1,.49-2.114,3.419,3.419,0,0,1,1.372-1.4,4.11,4.11,0,0,1,2.03-.49,4.078,4.078,0,0,1,1.981.476,3.35,3.35,0,0,1,1.358,1.351A4.088,4.088,0,0,1,56.791-4.046Zm-2.03-.56a1.554,1.554,0,0,0-.546-1.211,1.934,1.934,0,0,0-1.3-.455,1.779,1.779,0,0,0-1.225.441,1.939,1.939,0,0,0-.609,1.225Z" transform="translate(71 27)" fill="#0b0e30"/>
        </g>
        <line id="Line_46" data-name="Line 46" y2="62" transform="translate(70.5 21.5)" fill="none" stroke="#8ac2f8" stroke-width="1" opacity="0.5"/>
        <line id="Line_48" data-name="Line 48" y2="62" transform="translate(211.5 83.5)" fill="none" stroke="#8ac2f8" stroke-width="1" opacity="0.5"/>
        <g id="Group_89663" data-name="Group 89663">
          <rect id="Rectangle_2322-7" data-name="Rectangle 2322" width="141" height="43" rx="21.5" fill="#1389fd"/>
          <path id="Path_30345" data-name="Path 30345" d="M-34.069-9.772V-8.19h-2.6V0h-1.96V-8.19h-2.6V-9.772Zm8.638,5.726a4.626,4.626,0,0,1-.056.756h-5.67a1.928,1.928,0,0,0,.588,1.316A1.813,1.813,0,0,0-29.3-1.5a1.6,1.6,0,0,0,1.554-.938h2.114A3.533,3.533,0,0,1-26.915-.6a3.76,3.76,0,0,1-2.338.721,4.046,4.046,0,0,1-2.009-.5,3.5,3.5,0,0,1-1.386-1.407,4.311,4.311,0,0,1-.5-2.1,4.391,4.391,0,0,1,.49-2.114,3.419,3.419,0,0,1,1.372-1.4,4.11,4.11,0,0,1,2.03-.49,4.078,4.078,0,0,1,1.981.476,3.35,3.35,0,0,1,1.358,1.351A4.088,4.088,0,0,1-25.431-4.046Zm-2.03-.56a1.554,1.554,0,0,0-.546-1.211,1.934,1.934,0,0,0-1.3-.455,1.779,1.779,0,0,0-1.225.441,1.939,1.939,0,0,0-.609,1.225Zm2.954.728a4.35,4.35,0,0,1,.49-2.107,3.5,3.5,0,0,1,1.358-1.4,3.929,3.929,0,0,1,1.988-.5,3.822,3.822,0,0,1,2.387.721,3.507,3.507,0,0,1,1.267,2.023h-2.114a1.546,1.546,0,0,0-.567-.791,1.646,1.646,0,0,0-.987-.287,1.616,1.616,0,0,0-1.33.609,2.7,2.7,0,0,0-.49,1.729,2.671,2.671,0,0,0,.49,1.715,1.616,1.616,0,0,0,1.33.609,1.487,1.487,0,0,0,1.554-1.064h2.114a3.577,3.577,0,0,1-1.274,2,3.754,3.754,0,0,1-2.38.742,3.929,3.929,0,0,1-1.988-.5,3.5,3.5,0,0,1-1.358-1.4A4.35,4.35,0,0,1-24.507-3.878Zm13.3-3.99a3.149,3.149,0,0,1,1.568.385A2.653,2.653,0,0,1-8.568-6.349a3.893,3.893,0,0,1,.385,1.8V0h-1.96V-4.284a2.011,2.011,0,0,0-.462-1.421,1.636,1.636,0,0,0-1.26-.5,1.677,1.677,0,0,0-1.281.5,1.992,1.992,0,0,0-.469,1.421V0h-1.96V-10.36h1.96v3.57a2.555,2.555,0,0,1,1.008-.791A3.338,3.338,0,0,1-11.207-7.868Zm9.184,0a2.989,2.989,0,0,1,2.24.875A3.35,3.35,0,0,1,1.071-4.55V0H-.889V-4.284a2.011,2.011,0,0,0-.462-1.421,1.636,1.636,0,0,0-1.26-.5,1.677,1.677,0,0,0-1.281.5,1.992,1.992,0,0,0-.469,1.421V0h-1.96V-7.756h1.96v.966a2.708,2.708,0,0,1,1-.791A3.1,3.1,0,0,1-2.023-7.868ZM6.377.126a4.085,4.085,0,0,1-2.016-.5A3.579,3.579,0,0,1,2.954-1.778a4.216,4.216,0,0,1-.511-2.1,4.126,4.126,0,0,1,.525-2.1A3.648,3.648,0,0,1,4.4-7.385a4.165,4.165,0,0,1,2.03-.5,4.165,4.165,0,0,1,2.03.5A3.648,3.648,0,0,1,9.9-5.978a4.126,4.126,0,0,1,.525,2.1,4.042,4.042,0,0,1-.539,2.1A3.732,3.732,0,0,1,8.428-.371,4.234,4.234,0,0,1,6.377.126Zm0-1.708a2.039,2.039,0,0,0,1-.259,1.882,1.882,0,0,0,.749-.777,2.618,2.618,0,0,0,.28-1.26,2.335,2.335,0,0,0-.581-1.7A1.91,1.91,0,0,0,6.4-6.174,1.865,1.865,0,0,0,5-5.579a2.37,2.37,0,0,0-.567,1.7,2.408,2.408,0,0,0,.553,1.7A1.821,1.821,0,0,0,6.377-1.582Zm7.448-8.778V0h-1.96V-10.36ZM19.2.126a4.085,4.085,0,0,1-2.016-.5,3.579,3.579,0,0,1-1.407-1.407,4.216,4.216,0,0,1-.511-2.1,4.126,4.126,0,0,1,.525-2.1,3.648,3.648,0,0,1,1.435-1.407,4.165,4.165,0,0,1,2.03-.5,4.165,4.165,0,0,1,2.03.5,3.648,3.648,0,0,1,1.435,1.407,4.126,4.126,0,0,1,.525,2.1,4.042,4.042,0,0,1-.539,2.1A3.732,3.732,0,0,1,21.252-.371,4.234,4.234,0,0,1,19.2.126Zm0-1.708a2.039,2.039,0,0,0,1-.259,1.882,1.882,0,0,0,.749-.777,2.618,2.618,0,0,0,.28-1.26,2.335,2.335,0,0,0-.581-1.7,1.91,1.91,0,0,0-1.421-.595,1.865,1.865,0,0,0-1.407.595,2.37,2.37,0,0,0-.567,1.7,2.408,2.408,0,0,0,.553,1.7A1.821,1.821,0,0,0,19.2-1.582Zm8.526-6.3a3.255,3.255,0,0,1,1.526.343,2.81,2.81,0,0,1,1.036.889V-7.756h1.974V.056a4.161,4.161,0,0,1-.434,1.925,3.222,3.222,0,0,1-1.3,1.344,4.162,4.162,0,0,1-2.1.5,4.486,4.486,0,0,1-2.709-.77,2.854,2.854,0,0,1-1.2-2.1h1.946a1.449,1.449,0,0,0,.665.847,2.317,2.317,0,0,0,1.239.315A1.917,1.917,0,0,0,29.757,1.6,2.052,2.052,0,0,0,30.289.056v-1.2a2.977,2.977,0,0,1-1.043.91,3.112,3.112,0,0,1-1.519.364,3.331,3.331,0,0,1-1.792-.5A3.51,3.51,0,0,1,24.654-1.8a4.564,4.564,0,0,1-.469-2.107,4.489,4.489,0,0,1,.469-2.086,3.438,3.438,0,0,1,1.274-1.4A3.392,3.392,0,0,1,27.727-7.882Zm2.562,4a2.514,2.514,0,0,0-.28-1.225,1.974,1.974,0,0,0-.756-.784,2.021,2.021,0,0,0-1.022-.273,1.985,1.985,0,0,0-1.008.266,2,2,0,0,0-.749.777,2.434,2.434,0,0,0-.287,1.211,2.514,2.514,0,0,0,.287,1.225,2.066,2.066,0,0,0,.756.805,1.92,1.92,0,0,0,1,.28,2.021,2.021,0,0,0,1.022-.273,1.974,1.974,0,0,0,.756-.784A2.514,2.514,0,0,0,30.289-3.878ZM41.6-7.756,36.8,3.668H34.713L36.393-.2l-3.108-7.56h2.2l2,5.418,2.03-5.418Z" transform="translate(71 27)" fill="#fff"/>
        </g>
        <g id="Group_89666" data-name="Group 89666" transform="translate(141 62)">
          <rect id="Rectangle_2322-8" data-name="Rectangle 2322" width="141" height="43" rx="21.5" fill="#1389fd"/>
          <path id="Path_30346" data-name="Path 30346" d="M-37.408-1.862H-41.3L-41.944,0H-44l3.514-9.786h2.282L-34.692,0h-2.072ZM-37.94-3.43l-1.414-4.088L-40.768-3.43Zm6.524-3.122a2.756,2.756,0,0,1,.987-.966,2.745,2.745,0,0,1,1.393-.35V-5.81h-.518a1.985,1.985,0,0,0-1.393.434,2,2,0,0,0-.469,1.512V0h-1.96V-7.756h1.96Zm3.192,2.674a4.35,4.35,0,0,1,.49-2.107,3.5,3.5,0,0,1,1.358-1.4,3.929,3.929,0,0,1,1.988-.5A3.822,3.822,0,0,1-22-7.161a3.507,3.507,0,0,1,1.267,2.023h-2.114a1.546,1.546,0,0,0-.567-.791,1.646,1.646,0,0,0-.987-.287,1.616,1.616,0,0,0-1.33.609,2.7,2.7,0,0,0-.49,1.729,2.671,2.671,0,0,0,.49,1.715,1.616,1.616,0,0,0,1.33.609,1.487,1.487,0,0,0,1.554-1.064h2.114a3.577,3.577,0,0,1-1.274,2,3.754,3.754,0,0,1-2.38.742,3.929,3.929,0,0,1-1.988-.5,3.5,3.5,0,0,1-1.358-1.4A4.35,4.35,0,0,1-28.224-3.878Zm13.3-3.99a3.149,3.149,0,0,1,1.568.385,2.653,2.653,0,0,1,1.071,1.134,3.893,3.893,0,0,1,.385,1.8V0h-1.96V-4.284a2.011,2.011,0,0,0-.462-1.421,1.636,1.636,0,0,0-1.26-.5,1.677,1.677,0,0,0-1.281.5,1.992,1.992,0,0,0-.469,1.421V0h-1.96V-10.36h1.96v3.57a2.555,2.555,0,0,1,1.008-.791A3.338,3.338,0,0,1-14.924-7.868Zm5.88-.812A1.194,1.194,0,0,1-9.9-9.009a1.089,1.089,0,0,1-.343-.819,1.089,1.089,0,0,1,.343-.819,1.194,1.194,0,0,1,.861-.329,1.194,1.194,0,0,1,.861.329,1.089,1.089,0,0,1,.343.819,1.089,1.089,0,0,1-.343.819A1.194,1.194,0,0,1-9.044-8.68Zm.966.924V0h-1.96V-7.756Zm4.214,1.61v3.752a.742.742,0,0,0,.189.567.929.929,0,0,0,.637.175h.91V0H-3.36A2.16,2.16,0,0,1-5.838-2.408V-6.146h-.924v-1.61h.924V-9.674h1.974v1.918h1.736v1.61ZM6.5-4.046a4.626,4.626,0,0,1-.056.756H.77a1.928,1.928,0,0,0,.588,1.316A1.813,1.813,0,0,0,2.632-1.5a1.6,1.6,0,0,0,1.554-.938H6.3A3.533,3.533,0,0,1,5.012-.6,3.76,3.76,0,0,1,2.674.126a4.046,4.046,0,0,1-2.009-.5A3.5,3.5,0,0,1-.721-1.778a4.311,4.311,0,0,1-.5-2.1,4.391,4.391,0,0,1,.49-2.114,3.419,3.419,0,0,1,1.372-1.4,4.11,4.11,0,0,1,2.03-.49,4.078,4.078,0,0,1,1.981.476A3.35,3.35,0,0,1,6.013-6.055,4.088,4.088,0,0,1,6.5-4.046Zm-2.03-.56A1.554,1.554,0,0,0,3.92-5.817a1.934,1.934,0,0,0-1.3-.455,1.779,1.779,0,0,0-1.225.441A1.939,1.939,0,0,0,.784-4.606Zm2.954.728a4.35,4.35,0,0,1,.49-2.107,3.5,3.5,0,0,1,1.358-1.4,3.929,3.929,0,0,1,1.988-.5,3.822,3.822,0,0,1,2.387.721A3.507,3.507,0,0,1,14.91-5.138H12.8a1.546,1.546,0,0,0-.567-.791,1.646,1.646,0,0,0-.987-.287,1.616,1.616,0,0,0-1.33.609,2.7,2.7,0,0,0-.49,1.729,2.671,2.671,0,0,0,.49,1.715,1.616,1.616,0,0,0,1.33.609A1.487,1.487,0,0,0,12.8-2.618H14.91a3.577,3.577,0,0,1-1.274,2,3.754,3.754,0,0,1-2.38.742,3.929,3.929,0,0,1-1.988-.5,3.5,3.5,0,0,1-1.358-1.4A4.35,4.35,0,0,1,7.42-3.878ZM18.634-6.146v3.752a.742.742,0,0,0,.189.567.929.929,0,0,0,.637.175h.91V0H19.138A2.16,2.16,0,0,1,16.66-2.408V-6.146h-.924v-1.61h.924V-9.674h1.974v1.918H20.37v1.61Zm10.472-1.61V0H27.132V-.98a2.588,2.588,0,0,1-.987.791A3.064,3.064,0,0,1,24.822.1a3.286,3.286,0,0,1-1.61-.385,2.714,2.714,0,0,1-1.1-1.134,3.747,3.747,0,0,1-.4-1.785v-4.55h1.96v4.27a2.011,2.011,0,0,0,.462,1.421,1.636,1.636,0,0,0,1.26.5,1.654,1.654,0,0,0,1.274-.5,2.011,2.011,0,0,0,.462-1.421v-4.27ZM33-6.552a2.756,2.756,0,0,1,.987-.966,2.745,2.745,0,0,1,1.393-.35V-5.81H34.86a1.985,1.985,0,0,0-1.393.434A2,2,0,0,0,33-3.864V0h-1.96V-7.756H33ZM43.9-4.046a4.625,4.625,0,0,1-.056.756h-5.67a1.928,1.928,0,0,0,.588,1.316A1.813,1.813,0,0,0,40.04-1.5a1.6,1.6,0,0,0,1.554-.938h2.114A3.533,3.533,0,0,1,42.42-.6a3.76,3.76,0,0,1-2.338.721,4.046,4.046,0,0,1-2.009-.5,3.5,3.5,0,0,1-1.386-1.407,4.311,4.311,0,0,1-.5-2.1,4.391,4.391,0,0,1,.49-2.114,3.419,3.419,0,0,1,1.372-1.4,4.11,4.11,0,0,1,2.03-.49,4.078,4.078,0,0,1,1.981.476,3.35,3.35,0,0,1,1.358,1.351A4.088,4.088,0,0,1,43.9-4.046Zm-2.03-.56a1.554,1.554,0,0,0-.546-1.211,1.934,1.934,0,0,0-1.3-.455,1.779,1.779,0,0,0-1.225.441,1.939,1.939,0,0,0-.609,1.225Z" transform="translate(71 27)" fill="#fff"/>
        </g>
        <g id="Group_89671" data-name="Group 89671" transform="translate(284.5 121)">
          <rect id="Rectangle_2322-9" data-name="Rectangle 2322" width="141" height="43" rx="21.5" fill="#1389fd"/>
          <path id="Path_30347" data-name="Path 30347" d="M-39.522-9.772V-8.19H-43.6v2.506h3.122V-4.13H-43.6V0h-1.96V-9.772Zm8.708,2.016V0h-1.974V-.98a2.588,2.588,0,0,1-.987.791A3.064,3.064,0,0,1-35.1.1a3.286,3.286,0,0,1-1.61-.385,2.714,2.714,0,0,1-1.1-1.134,3.747,3.747,0,0,1-.4-1.785v-4.55h1.96v4.27a2.011,2.011,0,0,0,.462,1.421,1.636,1.636,0,0,0,1.26.5,1.654,1.654,0,0,0,1.274-.5,2.011,2.011,0,0,0,.462-1.421v-4.27Zm6.23-.112a2.989,2.989,0,0,1,2.24.875A3.35,3.35,0,0,1-21.49-4.55V0h-1.96V-4.284a2.011,2.011,0,0,0-.462-1.421,1.636,1.636,0,0,0-1.26-.5,1.677,1.677,0,0,0-1.281.5,1.992,1.992,0,0,0-.469,1.421V0h-1.96V-7.756h1.96v.966a2.708,2.708,0,0,1,1-.791A3.1,3.1,0,0,1-24.584-7.868Zm4.452,3.99a4.35,4.35,0,0,1,.49-2.107,3.5,3.5,0,0,1,1.358-1.4,3.929,3.929,0,0,1,1.988-.5,3.822,3.822,0,0,1,2.387.721,3.507,3.507,0,0,1,1.267,2.023h-2.114a1.546,1.546,0,0,0-.567-.791,1.646,1.646,0,0,0-.987-.287,1.616,1.616,0,0,0-1.33.609,2.7,2.7,0,0,0-.49,1.729,2.671,2.671,0,0,0,.49,1.715,1.616,1.616,0,0,0,1.33.609,1.487,1.487,0,0,0,1.554-1.064h2.114a3.577,3.577,0,0,1-1.274,2A3.754,3.754,0,0,1-16.3.126a3.929,3.929,0,0,1-1.988-.5,3.5,3.5,0,0,1-1.358-1.4A4.35,4.35,0,0,1-20.132-3.878ZM-8.918-6.146v3.752a.742.742,0,0,0,.189.567.929.929,0,0,0,.637.175h.91V0H-8.414a2.16,2.16,0,0,1-2.478-2.408V-6.146h-.924v-1.61h.924V-9.674h1.974v1.918h1.736v1.61ZM-4.774-8.68a1.194,1.194,0,0,1-.861-.329,1.089,1.089,0,0,1-.343-.819,1.089,1.089,0,0,1,.343-.819,1.194,1.194,0,0,1,.861-.329,1.194,1.194,0,0,1,.861.329,1.089,1.089,0,0,1,.343.819,1.089,1.089,0,0,1-.343.819A1.194,1.194,0,0,1-4.774-8.68Zm.966.924V0h-1.96V-7.756ZM1.568.126a4.085,4.085,0,0,1-2.016-.5A3.579,3.579,0,0,1-1.855-1.778a4.216,4.216,0,0,1-.511-2.1,4.126,4.126,0,0,1,.525-2.1A3.648,3.648,0,0,1-.406-7.385a4.165,4.165,0,0,1,2.03-.5,4.165,4.165,0,0,1,2.03.5A3.648,3.648,0,0,1,5.089-5.978a4.126,4.126,0,0,1,.525,2.1,4.042,4.042,0,0,1-.539,2.1A3.732,3.732,0,0,1,3.619-.371,4.234,4.234,0,0,1,1.568.126Zm0-1.708a2.039,2.039,0,0,0,1-.259,1.882,1.882,0,0,0,.749-.777,2.618,2.618,0,0,0,.28-1.26,2.335,2.335,0,0,0-.581-1.7A1.91,1.91,0,0,0,1.6-6.174a1.865,1.865,0,0,0-1.407.595,2.37,2.37,0,0,0-.567,1.7,2.408,2.408,0,0,0,.553,1.7A1.821,1.821,0,0,0,1.568-1.582Zm9.786-6.286a2.989,2.989,0,0,1,2.24.875,3.35,3.35,0,0,1,.854,2.443V0h-1.96V-4.284a2.011,2.011,0,0,0-.462-1.421,1.636,1.636,0,0,0-1.26-.5,1.677,1.677,0,0,0-1.281.5,1.992,1.992,0,0,0-.469,1.421V0H7.056V-7.756h1.96v.966a2.708,2.708,0,0,1,1-.791A3.1,3.1,0,0,1,11.354-7.868Zm4.452,3.962a4.489,4.489,0,0,1,.469-2.086,3.438,3.438,0,0,1,1.274-1.4,3.392,3.392,0,0,1,1.8-.49,3.16,3.16,0,0,1,1.519.35,3.082,3.082,0,0,1,1.043.882V-7.756h1.974V0H21.91V-1.134a2.915,2.915,0,0,1-1.043.9,3.191,3.191,0,0,1-1.533.357,3.3,3.3,0,0,1-1.785-.5A3.527,3.527,0,0,1,16.275-1.8,4.564,4.564,0,0,1,15.806-3.906Zm6.1.028A2.514,2.514,0,0,0,21.63-5.1a1.974,1.974,0,0,0-.756-.784,2.021,2.021,0,0,0-1.022-.273,1.985,1.985,0,0,0-1.008.266,2,2,0,0,0-.749.777,2.434,2.434,0,0,0-.287,1.211A2.514,2.514,0,0,0,18.1-2.681a2.066,2.066,0,0,0,.756.805,1.92,1.92,0,0,0,1,.28,2.021,2.021,0,0,0,1.022-.273,1.974,1.974,0,0,0,.756-.784A2.514,2.514,0,0,0,21.91-3.878Zm5.852-6.482V0H25.8V-10.36Zm2.926,1.68a1.194,1.194,0,0,1-.861-.329,1.089,1.089,0,0,1-.343-.819,1.089,1.089,0,0,1,.343-.819,1.194,1.194,0,0,1,.861-.329,1.194,1.194,0,0,1,.861.329,1.089,1.089,0,0,1,.343.819,1.089,1.089,0,0,1-.343.819A1.194,1.194,0,0,1,30.688-8.68Zm.966.924V0h-1.96V-7.756Zm4.214,1.61v3.752a.742.742,0,0,0,.189.567.929.929,0,0,0,.637.175h.91V0H36.372a2.16,2.16,0,0,1-2.478-2.408V-6.146H32.97v-1.61h.924V-9.674h1.974v1.918H37.6v1.61Zm10.57-1.61-4.8,11.424H39.55L41.23-.2l-3.108-7.56h2.2l2,5.418,2.03-5.418Z" transform="translate(71 27)" fill="#fff"/>
        </g>
      </g>
    </g>
  </g>
</svg>
