<svg xmlns="http://www.w3.org/2000/svg" xmlns:xlink="http://www.w3.org/1999/xlink" width="17" height="17" viewBox="0 0 17 17">
  <defs>
    <clipPath id="clip-path">
      <rect id="Rectangle_4" data-name="Rectangle 4" width="17" height="17" transform="translate(1658 47)" fill="#06b05c"/>
    </clipPath>
  </defs>
  <g id="Mask_Group_1" data-name="Mask Group 1" transform="translate(-1658 -47)" clip-path="url(#clip-path)">
    <path id="arrow-right" d="M16.378,7.02,13.637,4.25a.708.708,0,0,0-1.006,0h0a.708.708,0,0,0,0,1l2.522,2.543H.708A.708.708,0,0,0,0,8.5H0a.708.708,0,0,0,.708.708H15.2l-2.564,2.557a.708.708,0,0,0,0,1.006h0a.708.708,0,0,0,1.006,0l2.742-2.749A2.125,2.125,0,0,0,16.378,7.02Z" transform="translate(1658 46.989)" fill="#06b05c"/>
  </g>
</svg>
