<svg xmlns="http://www.w3.org/2000/svg" xmlns:xlink="http://www.w3.org/1999/xlink" width="46.667" height="46.667" viewBox="0 0 46.667 46.667">
  <defs>
    <clipPath id="clip-path">
      <rect id="Rectangle_61" data-name="Rectangle 61" width="46.667" height="46.667" rx="8" fill="#fff"/>
    </clipPath>
  </defs>
  <g id="software-assesment" clip-path="url(#clip-path)">
    <path id="solar-system" d="M15.556,19.444a3.889,3.889,0,1,1,3.889-3.889A3.888,3.888,0,0,1,15.556,19.444ZM37.917,13.61a4.861,4.861,0,1,0-4.861-4.861A4.86,4.86,0,0,0,37.917,13.61ZM26.25,23.332a2.917,2.917,0,1,0-2.917,2.917A2.918,2.918,0,0,0,26.25,23.332ZM45.788,16.97a1.943,1.943,0,1,0-3.739,1.06A19.421,19.421,0,1,1,28.638,4.619,1.943,1.943,0,0,0,29.7.88a23.31,23.31,0,1,0,16.09,16.09Zm-24.4-5.3a1.943,1.943,0,0,0,1.944,1.944,9.722,9.722,0,1,1-9.722,9.722,1.944,1.944,0,1,0-3.889,0A13.611,13.611,0,1,0,23.333,9.721,1.943,1.943,0,0,0,21.389,11.666Z" transform="translate(0 0)" fill="#fff"/>
  </g>
</svg>
