<svg xmlns="http://www.w3.org/2000/svg" xmlns:xlink="http://www.w3.org/1999/xlink" width="47" height="47" viewBox="0 0 47 47">
  <defs>
    <clipPath id="clip-path">
      <rect id="Rectangle_61" data-name="Rectangle 61" width="47" height="47" transform="translate(334 905)" fill="#fff"/>
    </clipPath>
  </defs>
  <g id="software-re-architecting" transform="translate(-334 -905)" clip-path="url(#clip-path)">
    <path id="send-back" d="M39.167,25.458H35.25V19.583a7.841,7.841,0,0,0-7.833-7.833H21.542V7.833A7.841,7.841,0,0,0,13.708,0H7.833A7.841,7.841,0,0,0,0,7.833v5.875a7.841,7.841,0,0,0,7.833,7.833H11.75v5.875a7.841,7.841,0,0,0,7.833,7.833h5.875v3.917A7.841,7.841,0,0,0,33.292,47h5.875A7.841,7.841,0,0,0,47,39.167V33.292A7.841,7.841,0,0,0,39.167,25.458ZM3.917,13.708V7.833A3.921,3.921,0,0,1,7.833,3.917h5.875a3.921,3.921,0,0,1,3.917,3.917v5.875a3.921,3.921,0,0,1-3.917,3.917H7.833A3.921,3.921,0,0,1,3.917,13.708Zm11.75,13.708V21.293a7.857,7.857,0,0,0,5.626-5.626h6.124a3.921,3.921,0,0,1,3.917,3.917v6.124a7.857,7.857,0,0,0-5.626,5.626H19.583A3.921,3.921,0,0,1,15.667,27.417Zm27.417,11.75a3.921,3.921,0,0,1-3.917,3.917H33.292a3.921,3.921,0,0,1-3.917-3.917V33.292a3.921,3.921,0,0,1,3.917-3.917h5.875a3.921,3.921,0,0,1,3.917,3.917Z" transform="translate(334 905)" fill="#fff"/>
  </g>
</svg>
