<svg id="clients" xmlns="http://www.w3.org/2000/svg" width="80" height="80" viewBox="0 0 80 80">
  <circle id="Ellipse_902" data-name="Ellipse 902" cx="40" cy="40" r="40" fill="none"/>
  <path id="reputation" d="M27.516,13.8l2.608,2.1-.878,3.229a1.035,1.035,0,0,0,1.568,1.139l2.8-1.833,2.8,1.833a1.036,1.036,0,0,0,1.568-1.139L37.1,15.9l2.608-2.1a1.036,1.036,0,0,0-.6-1.843L35.77,11.8,34.582,8.668A1.028,1.028,0,0,0,33.614,8h0a1.028,1.028,0,0,0-.969.667L31.457,11.8l-3.343.163a1.036,1.036,0,0,0-.6,1.843Zm4.338-.493a1.036,1.036,0,0,0,.919-.667l.841-2.215.841,2.215a1.036,1.036,0,0,0,.919.667l2.367.115-1.847,1.484a1.036,1.036,0,0,0-.351,1.08l.622,2.286-1.982-1.3a1.036,1.036,0,0,0-1.135,0l-1.982,1.3.622-2.286a1.036,1.036,0,0,0-.351-1.08l-1.847-1.484ZM20.988,23.291l2.8,1.833a1.036,1.036,0,0,0,1.568-1.139l-.878-3.229,2.608-2.1a1.036,1.036,0,0,0-.6-1.843l-3.343-.163-1.188-3.129a1.028,1.028,0,0,0-.969-.667h0a1.028,1.028,0,0,0-.969.667l-1.188,3.129-3.343.163a1.036,1.036,0,0,0-.6,1.843l2.608,2.1-.878,3.229a1.035,1.035,0,0,0,1.568,1.139Zm-4.126-5.01,2.367-.115a1.036,1.036,0,0,0,.918-.667l.841-2.215.841,2.215a1.036,1.036,0,0,0,.918.667l2.367.115-1.847,1.484a1.036,1.036,0,0,0-.351,1.08l.622,2.286-1.982-1.3a1.036,1.036,0,0,0-1.135,0l-1.982,1.3.622-2.286a1.036,1.036,0,0,0-.351-1.08Zm22.943-.75a1.029,1.029,0,0,0,.336,1.128l2.608,2.1-.878,3.229a1.035,1.035,0,0,0,1.568,1.139l2.8-1.833,2.8,1.833a1.036,1.036,0,0,0,1.568-1.139l-.878-3.229,2.608-2.1a1.036,1.036,0,0,0-.6-1.843L48.4,16.653l-1.188-3.128a1.037,1.037,0,0,0-1.938,0l-1.188,3.129-3.342.163a1.029,1.029,0,0,0-.935.715Zm4.675.635A1.036,1.036,0,0,0,45.4,17.5l.841-2.215L47.08,17.5a1.036,1.036,0,0,0,.919.667l2.367.115-1.847,1.484a1.036,1.036,0,0,0-.351,1.08l.622,2.286-1.982-1.3a1.037,1.037,0,0,0-1.135,0l-1.982,1.3.622-2.286a1.036,1.036,0,0,0-.351-1.08l-1.847-1.484ZM51.589,37.23a9.088,9.088,0,0,0-7.091,3.4,15.636,15.636,0,0,0-6.921-3.917,8.259,8.259,0,1,0-7.93,0,15.594,15.594,0,0,0-11.53,13.4.765.765,0,0,0,.761.846H43.754A9.1,9.1,0,1,0,51.589,37.23Zm-24.7-7.758a6.729,6.729,0,1,1,6.73,6.729h0a6.737,6.737,0,0,1-6.728-6.729ZM19.754,49.429a14.022,14.022,0,0,1,13.859-11.7h0a14.089,14.089,0,0,1,10.012,4.195,9.093,9.093,0,0,0-.6,7.5ZM51.589,53.9a7.571,7.571,0,1,1,7.571-7.571A7.58,7.58,0,0,1,51.589,53.9Zm5.244-11.478a2,2,0,0,0-2.829.01l-3.512,3.548-1.319-1.319a2,2,0,0,0-2.831,2.831l2.74,2.74a2,2,0,0,0,2.83,0c1.04-1.04,2.089-2.1,3.1-3.132q.913-.926,1.827-1.85A2,2,0,0,0,56.833,42.425Zm-1.078,1.749q-.917.925-1.83,1.853c-1.012,1.027-2.059,2.089-3.1,3.125a.472.472,0,0,1-.667,0l-2.74-2.739a.471.471,0,0,1,.667-.667l1.863,1.863a.765.765,0,0,0,.541.224h0a.765.765,0,0,0,.542-.227l4.053-4.094a.463.463,0,0,1,.33-.138.448.448,0,0,1,.333.137A.47.47,0,0,1,55.755,44.174Z" transform="translate(5.902 8.284)" fill="#1389fd"/>
</svg>
