<svg xmlns="http://www.w3.org/2000/svg" xmlns:xlink="http://www.w3.org/1999/xlink" width="87" height="87" viewBox="0 0 87 87">
  <defs>
    <clipPath id="clip-path">
      <rect id="Rectangle_6187" data-name="Rectangle 6187" width="55" height="55" transform="translate(251.5 0.5)" fill="#fff"/>
    </clipPath>
  </defs>
  <g id="corevalicon02" transform="translate(-330.5 -1516)">
    <rect id="Rectangle_6185" data-name="Rectangle 6185" width="87" height="87" rx="8" transform="translate(330.5 1516)" fill="none"/>
    <g id="Mask_Group_266" data-name="Mask Group 266" transform="translate(95 1531.5)" clip-path="url(#clip-path)">
      <g id="_002-good-review" data-name="002-good-review" transform="translate(252.809 1.82)">
        <path id="Path_30331" data-name="Path 30331" d="M14.19,55.386l-3.383-.492a1.058,1.058,0,0,1-.8-.579L8.5,51.25a1.058,1.058,0,0,0-1.9,0L5.087,54.315a1.058,1.058,0,0,1-.8.579l-3.383.492a1.058,1.058,0,0,0-.586,1.8l2.448,2.386a1.058,1.058,0,0,1,.3.936L2.5,63.882A1.058,1.058,0,0,0,4.03,65l3.026-1.591a1.058,1.058,0,0,1,.985,0L11.067,65A1.058,1.058,0,0,0,12.6,63.882l-.578-3.369a1.058,1.058,0,0,1,.3-.936l2.448-2.386a1.058,1.058,0,0,0-.586-1.8Z" transform="translate(0 -12.762)" fill="#fff"/>
        <path id="Path_30332" data-name="Path 30332" d="M39.1,55.386l-3.383-.492a1.058,1.058,0,0,1-.8-.579L33.41,51.25a1.058,1.058,0,0,0-1.9,0L30,54.315a1.058,1.058,0,0,1-.8.579l-3.383.492a1.058,1.058,0,0,0-.586,1.8l2.448,2.386a1.058,1.058,0,0,1,.3.936l-.578,3.369A1.058,1.058,0,0,0,28.943,65l3.026-1.591a1.058,1.058,0,0,1,.985,0L35.979,65a1.058,1.058,0,0,0,1.535-1.115l-.578-3.369a1.058,1.058,0,0,1,.3-.936l2.448-2.386a1.058,1.058,0,0,0-.586-1.8Z" transform="translate(-6.27 -12.762)" fill="#fff"/>
        <path id="Path_30333" data-name="Path 30333" d="M64.6,57.19a1.058,1.058,0,0,0-.586-1.8l-3.383-.492a1.058,1.058,0,0,1-.8-.579L58.323,51.25a1.058,1.058,0,0,0-1.9,0l-1.513,3.066a1.058,1.058,0,0,1-.8.579l-3.383.492a1.058,1.058,0,0,0-.586,1.8l2.448,2.386a1.058,1.058,0,0,1,.3.936l-.578,3.369A1.058,1.058,0,0,0,53.855,65l3.026-1.591a1.058,1.058,0,0,1,.985,0L60.892,65a1.058,1.058,0,0,0,1.535-1.115l-.578-3.369a1.058,1.058,0,0,1,.3-.936Z" transform="translate(-12.541 -12.762)" fill="#fff"/>
        <path id="Path_30334" data-name="Path 30334" d="M29.412,33.244A16.615,16.615,0,1,0,12.8,16.629,16.615,16.615,0,0,0,29.412,33.244Zm5.258-23.3a1.535,1.535,0,1,1-1.535,1.535A1.535,1.535,0,0,1,34.67,9.945Zm-10.516,0a1.535,1.535,0,1,1-1.535,1.535A1.535,1.535,0,0,1,24.153,9.945Zm-2.777,9.036a1.535,1.535,0,0,1,1.868,1.1,6.474,6.474,0,0,0,6.183,4.453,6.557,6.557,0,0,0,6.157-4.479,1.535,1.535,0,1,1,2.959.815,9.559,9.559,0,0,1-18.272-.026,1.535,1.535,0,0,1,1.1-1.868Z" transform="translate(-3.221 -0.014)" fill="#fff"/>
      </g>
    </g>
  </g>
</svg>
