<svg xmlns="http://www.w3.org/2000/svg" xmlns:xlink="http://www.w3.org/1999/xlink" width="87" height="87" viewBox="0 0 87 87">
  <defs>
    <clipPath id="clip-path">
      <rect id="Rectangle_6188" data-name="Rectangle 6188" width="56" height="56" transform="translate(237 -14)" fill="#fff"/>
    </clipPath>
  </defs>
  <g id="corevalicon03" transform="translate(-330 -1516)">
    <rect id="Rectangle_6185" data-name="Rectangle 6185" width="87" height="87" rx="8" transform="translate(330 1516)" fill="none"/>
    <g id="Mask_Group_267" data-name="Mask Group 267" transform="translate(108.5 1546)" clip-path="url(#clip-path)">
      <g id="_003-quality" data-name="003-quality" transform="translate(237 -14)">
        <path id="Path_30335" data-name="Path 30335" d="M53.65,16.5l-5.717-3.421L46.644,7.745a4.912,4.912,0,0,0-5.164-3.752L34.939,4.5,31.192,1.181a4.9,4.9,0,0,0-6.383,0L21.061,4.5l-6.542-.506a4.886,4.886,0,0,0-5.1,3.558L7.523,13.433,2.351,16.5A4.9,4.9,0,0,0,.377,22.569l2.232,5.409L.379,33.385a4.9,4.9,0,0,0,1.972,6.071l5.711,3.4,1.293,5.356a4.912,4.912,0,0,0,5.164,3.752l6.471-.5,3.818,3.357a4.9,4.9,0,0,0,6.383,0l3.818-3.357,6.471.5a4.876,4.876,0,0,0,5.164-3.752l1.288-5.332,5.717-3.421a4.9,4.9,0,0,0,1.972-6.071L53.39,27.978l2.233-5.411A4.9,4.9,0,0,0,53.65,16.5ZM28,46.047A18.047,18.047,0,1,1,46.047,28,18.067,18.067,0,0,1,28,46.047Z" transform="translate(0 0)" fill="#fff"/>
        <path id="Path_30336" data-name="Path 30336" d="M31.309,16.543A14.766,14.766,0,1,0,46.074,31.309,14.782,14.782,0,0,0,31.309,16.543Zm8.563,11.8L30.028,38.19a1.64,1.64,0,0,1-2.32,0l-4.962-4.963a1.64,1.64,0,0,1,2.32-2.32l3.8,3.8,8.684-8.684a1.64,1.64,0,1,1,2.32,2.32Z" transform="translate(-3.309 -3.309)" fill="#fff"/>
      </g>
    </g>
  </g>
</svg>
