<svg xmlns="http://www.w3.org/2000/svg" xmlns:xlink="http://www.w3.org/1999/xlink" width="87" height="87" viewBox="0 0 87 87">
  <defs>
    <clipPath id="clip-path">
      <rect id="Rectangle_6189" data-name="Rectangle 6189" width="56" height="56" transform="translate(251)" fill="#fff"/>
    </clipPath>
  </defs>
  <g id="corevalicon04" transform="translate(-330.5 -1516)">
    <rect id="Rectangle_6185" data-name="Rectangle 6185" width="87" height="87" rx="8" transform="translate(330.5 1516)" fill="none"/>
    <g id="Mask_Group_268" data-name="Mask Group 268" transform="translate(95.5 1532)" clip-path="url(#clip-path)">
      <g id="_004-24-hours" data-name="004-24-hours" transform="translate(251 0)">
        <path id="Path_30337" data-name="Path 30337" d="M38.895.01a1.64,1.64,0,1,0-.407,3.256A24.789,24.789,0,0,1,44.956,5.2a1.641,1.641,0,0,0,1.275-3.025A28.149,28.149,0,0,0,38.895.01Z" transform="translate(-7.41 0)" fill="#fff"/>
        <path id="Path_30338" data-name="Path 30338" d="M60.462,14.667a1.641,1.641,0,0,0,.316-2.3A28,28,0,0,0,55.412,7a1.641,1.641,0,0,0-1.984,2.615,24.634,24.634,0,0,1,4.734,4.734A1.642,1.642,0,0,0,60.462,14.667Z" transform="translate(-10.556 -1.334)" fill="#fff"/>
        <path id="Path_30339" data-name="Path 30339" d="M64.2,20.212a1.643,1.643,0,0,0-.875,2.15,25.8,25.8,0,0,1,2.043,6.577,1.64,1.64,0,0,0,3.256-.407,29.159,29.159,0,0,0-2.274-7.446,1.647,1.647,0,0,0-2.15-.875Z" transform="translate(-12.64 -4.017)" fill="#fff"/>
        <path id="Path_30340" data-name="Path 30340" d="M21.223,2.177A1.641,1.641,0,1,0,22.5,5.2a24.788,24.788,0,0,1,6.468-1.937A1.64,1.64,0,1,0,28.559.01a28.149,28.149,0,0,0-7.336,2.168Z" transform="translate(-4.044 0)" fill="#fff"/>
        <path id="Path_30341" data-name="Path 30341" d="M28,57.5A28.324,28.324,0,0,0,55.987,32.989a1.64,1.64,0,1,0-3.256-.407A24.828,24.828,0,0,1,3.281,29.5,25.073,25.073,0,0,1,9.516,13.257V13.8a1.641,1.641,0,1,0,3.281,0V9.16A1.64,1.64,0,0,0,11.156,7.52H6.515a1.64,1.64,0,1,0,0,3.28H7.3A28.342,28.342,0,0,0,0,29.5a28.109,28.109,0,0,0,28,28Z" transform="translate(0 -1.504)" fill="#fff"/>
        <path id="Path_30342" data-name="Path 30342" d="M10.254,30.051a19.8,19.8,0,1,0,19.8-19.8A19.9,19.9,0,0,0,10.254,30.051Zm21.437-6.562a1.641,1.641,0,0,1,3.281,0V28.41h3.281V23.488a1.641,1.641,0,1,1,3.281,0V36.613a1.641,1.641,0,0,1-3.281,0V31.691H33.332a1.64,1.64,0,0,1-1.641-1.641Zm-8.2,1.641a1.642,1.642,0,0,0-1.641,1.641,1.641,1.641,0,0,1-3.281,0,4.922,4.922,0,1,1,9.844,0c0,3.281-2.184,4.919-3.938,6.234a8.858,8.858,0,0,0-2.1,1.969h4.4a1.641,1.641,0,1,1,0,3.281H20.207a1.64,1.64,0,0,1-1.641-1.641c0-3.281,2.184-4.919,3.938-6.234,1.676-1.258,2.624-2.046,2.624-3.61A1.642,1.642,0,0,0,23.488,25.129Z" transform="translate(-2.051 -2.051)" fill="#fff"/>
      </g>
    </g>
  </g>
</svg>
