<svg xmlns="http://www.w3.org/2000/svg" xmlns:xlink="http://www.w3.org/1999/xlink" width="32" height="32" viewBox="0 0 32 32">
  <defs>
    <clipPath id="clip-path">
      <rect id="Rectangle_2235" data-name="Rectangle 2235" width="32" height="32" transform="translate(664 10157)" fill="#fff"/>
    </clipPath>
  </defs>
  <g id="indiaflag" transform="translate(-664 -10157)" clip-path="url(#clip-path)">
    <g id="india" transform="translate(664 10162.333)">
      <rect id="Rectangle_2245" data-name="Rectangle 2245" width="32" height="21.333" fill="#f93"/>
      <rect id="Rectangle_2246" data-name="Rectangle 2246" width="32" height="7.111" transform="translate(0 7.111)" fill="#fff"/>
      <rect id="Rectangle_2247" data-name="Rectangle 2247" width="32" height="7.111" transform="translate(0 14.222)" fill="#128807"/>
      <g id="Group_89525" data-name="Group 89525" transform="translate(16 10.667)">
        <circle id="Ellipse_911" data-name="Ellipse 911" cx="2.844" cy="2.844" r="2.844" transform="translate(-2.844 -2.844)" fill="#008"/>
        <circle id="Ellipse_912" data-name="Ellipse 912" cx="2.489" cy="2.489" r="2.489" transform="translate(-2.489 -2.489)" fill="#fff"/>
        <circle id="Ellipse_913" data-name="Ellipse 913" cx="0.498" cy="0.498" r="0.498" transform="translate(-0.498 -0.498)" fill="#008"/>
        <g id="d">
          <g id="c">
            <g id="b">
              <g id="a">
                <circle id="Ellipse_914" data-name="Ellipse 914" cx="0.124" cy="0.124" r="0.124" transform="matrix(0.991, 0.131, -0.131, 0.991, 2.36, 0.185)" fill="#008"/>
                <path id="Path_16130" data-name="Path 16130" d="M0,2.489.085,1,0,.284-.085,1Z" fill="#008"/>
              </g>
              <g id="Group_89502" data-name="Group 89502" transform="matrix(0.966, 0.259, -0.259, 0.966, 0, 0)">
                <circle id="Ellipse_915" data-name="Ellipse 915" cx="0.124" cy="0.124" r="0.124" transform="matrix(0.991, 0.131, -0.131, 0.991, 2.36, 0.185)" fill="#008"/>
                <path id="Path_16131" data-name="Path 16131" d="M0,2.489.085,1,0,.284-.085,1Z" fill="#008"/>
              </g>
            </g>
            <g id="Group_89504" data-name="Group 89504" transform="matrix(0.866, 0.5, -0.5, 0.866, 0, 0)">
              <g id="a-2" data-name="a">
                <circle id="Ellipse_916" data-name="Ellipse 916" cx="0.124" cy="0.124" r="0.124" transform="matrix(0.991, 0.131, -0.131, 0.991, 2.36, 0.185)" fill="#008"/>
                <path id="Path_16132" data-name="Path 16132" d="M0,2.489.085,1,0,.284-.085,1Z" fill="#008"/>
              </g>
              <g id="Group_89503" data-name="Group 89503" transform="matrix(0.966, 0.259, -0.259, 0.966, 0, 0)">
                <circle id="Ellipse_917" data-name="Ellipse 917" cx="0.124" cy="0.124" r="0.124" transform="matrix(0.991, 0.131, -0.131, 0.991, 2.36, 0.185)" fill="#008"/>
                <path id="Path_16133" data-name="Path 16133" d="M0,2.489.085,1,0,.284-.085,1Z" fill="#008"/>
              </g>
            </g>
          </g>
          <g id="Group_89508" data-name="Group 89508" transform="matrix(0.5, 0.866, -0.866, 0.5, 0, 0)">
            <g id="b-2" data-name="b">
              <g id="a-3" data-name="a">
                <circle id="Ellipse_918" data-name="Ellipse 918" cx="0.124" cy="0.124" r="0.124" transform="matrix(0.991, 0.131, -0.131, 0.991, 2.36, 0.185)" fill="#008"/>
                <path id="Path_16134" data-name="Path 16134" d="M0,2.489.085,1,0,.284-.085,1Z" fill="#008"/>
              </g>
              <g id="Group_89505" data-name="Group 89505" transform="matrix(0.966, 0.259, -0.259, 0.966, 0, 0)">
                <circle id="Ellipse_919" data-name="Ellipse 919" cx="0.124" cy="0.124" r="0.124" transform="matrix(0.991, 0.131, -0.131, 0.991, 2.36, 0.185)" fill="#008"/>
                <path id="Path_16135" data-name="Path 16135" d="M0,2.489.085,1,0,.284-.085,1Z" fill="#008"/>
              </g>
            </g>
            <g id="Group_89507" data-name="Group 89507" transform="matrix(0.866, 0.5, -0.5, 0.866, 0, 0)">
              <g id="a-4" data-name="a">
                <circle id="Ellipse_920" data-name="Ellipse 920" cx="0.124" cy="0.124" r="0.124" transform="matrix(0.991, 0.131, -0.131, 0.991, 2.36, 0.185)" fill="#008"/>
                <path id="Path_16136" data-name="Path 16136" d="M0,2.489.085,1,0,.284-.085,1Z" fill="#008"/>
              </g>
              <g id="Group_89506" data-name="Group 89506" transform="matrix(0.966, 0.259, -0.259, 0.966, 0, 0)">
                <circle id="Ellipse_921" data-name="Ellipse 921" cx="0.124" cy="0.124" r="0.124" transform="matrix(0.991, 0.131, -0.131, 0.991, 2.36, 0.185)" fill="#008"/>
                <path id="Path_16137" data-name="Path 16137" d="M0,2.489.085,1,0,.284-.085,1Z" fill="#008"/>
              </g>
            </g>
          </g>
        </g>
        <g id="Group_89516" data-name="Group 89516" transform="matrix(-0.5, 0.866, -0.866, -0.5, 0, 0)">
          <g id="c-2" data-name="c">
            <g id="b-3" data-name="b">
              <g id="a-5" data-name="a">
                <circle id="Ellipse_922" data-name="Ellipse 922" cx="0.124" cy="0.124" r="0.124" transform="matrix(0.991, 0.131, -0.131, 0.991, 2.36, 0.185)" fill="#008"/>
                <path id="Path_16138" data-name="Path 16138" d="M0,2.489.085,1,0,.284-.085,1Z" fill="#008"/>
              </g>
              <g id="Group_89509" data-name="Group 89509" transform="matrix(0.966, 0.259, -0.259, 0.966, 0, 0)">
                <circle id="Ellipse_923" data-name="Ellipse 923" cx="0.124" cy="0.124" r="0.124" transform="matrix(0.991, 0.131, -0.131, 0.991, 2.36, 0.185)" fill="#008"/>
                <path id="Path_16139" data-name="Path 16139" d="M0,2.489.085,1,0,.284-.085,1Z" fill="#008"/>
              </g>
            </g>
            <g id="Group_89511" data-name="Group 89511" transform="matrix(0.866, 0.5, -0.5, 0.866, 0, 0)">
              <g id="a-6" data-name="a">
                <circle id="Ellipse_924" data-name="Ellipse 924" cx="0.124" cy="0.124" r="0.124" transform="matrix(0.991, 0.131, -0.131, 0.991, 2.36, 0.185)" fill="#008"/>
                <path id="Path_16140" data-name="Path 16140" d="M0,2.489.085,1,0,.284-.085,1Z" fill="#008"/>
              </g>
              <g id="Group_89510" data-name="Group 89510" transform="matrix(0.966, 0.259, -0.259, 0.966, 0, 0)">
                <circle id="Ellipse_925" data-name="Ellipse 925" cx="0.124" cy="0.124" r="0.124" transform="matrix(0.991, 0.131, -0.131, 0.991, 2.36, 0.185)" fill="#008"/>
                <path id="Path_16141" data-name="Path 16141" d="M0,2.489.085,1,0,.284-.085,1Z" fill="#008"/>
              </g>
            </g>
          </g>
          <g id="Group_89515" data-name="Group 89515" transform="matrix(0.5, 0.866, -0.866, 0.5, 0, 0)">
            <g id="b-4" data-name="b">
              <g id="a-7" data-name="a">
                <circle id="Ellipse_926" data-name="Ellipse 926" cx="0.124" cy="0.124" r="0.124" transform="matrix(0.991, 0.131, -0.131, 0.991, 2.36, 0.185)" fill="#008"/>
                <path id="Path_16142" data-name="Path 16142" d="M0,2.489.085,1,0,.284-.085,1Z" fill="#008"/>
              </g>
              <g id="Group_89512" data-name="Group 89512" transform="matrix(0.966, 0.259, -0.259, 0.966, 0, 0)">
                <circle id="Ellipse_927" data-name="Ellipse 927" cx="0.124" cy="0.124" r="0.124" transform="matrix(0.991, 0.131, -0.131, 0.991, 2.36, 0.185)" fill="#008"/>
                <path id="Path_16143" data-name="Path 16143" d="M0,2.489.085,1,0,.284-.085,1Z" fill="#008"/>
              </g>
            </g>
            <g id="Group_89514" data-name="Group 89514" transform="matrix(0.866, 0.5, -0.5, 0.866, 0, 0)">
              <g id="a-8" data-name="a">
                <circle id="Ellipse_928" data-name="Ellipse 928" cx="0.124" cy="0.124" r="0.124" transform="matrix(0.991, 0.131, -0.131, 0.991, 2.36, 0.185)" fill="#008"/>
                <path id="Path_16144" data-name="Path 16144" d="M0,2.489.085,1,0,.284-.085,1Z" fill="#008"/>
              </g>
              <g id="Group_89513" data-name="Group 89513" transform="matrix(0.966, 0.259, -0.259, 0.966, 0, 0)">
                <circle id="Ellipse_929" data-name="Ellipse 929" cx="0.124" cy="0.124" r="0.124" transform="matrix(0.991, 0.131, -0.131, 0.991, 2.36, 0.185)" fill="#008"/>
                <path id="Path_16145" data-name="Path 16145" d="M0,2.489.085,1,0,.284-.085,1Z" fill="#008"/>
              </g>
            </g>
          </g>
        </g>
        <g id="Group_89524" data-name="Group 89524" transform="matrix(-0.5, -0.866, 0.866, -0.5, 0, 0)">
          <g id="c-3" data-name="c">
            <g id="b-5" data-name="b">
              <g id="a-9" data-name="a">
                <circle id="Ellipse_930" data-name="Ellipse 930" cx="0.124" cy="0.124" r="0.124" transform="matrix(0.991, 0.131, -0.131, 0.991, 2.36, 0.185)" fill="#008"/>
                <path id="Path_16146" data-name="Path 16146" d="M0,2.489.085,1,0,.284-.085,1Z" fill="#008"/>
              </g>
              <g id="Group_89517" data-name="Group 89517" transform="matrix(0.966, 0.259, -0.259, 0.966, 0, 0)">
                <circle id="Ellipse_931" data-name="Ellipse 931" cx="0.124" cy="0.124" r="0.124" transform="matrix(0.991, 0.131, -0.131, 0.991, 2.36, 0.185)" fill="#008"/>
                <path id="Path_16147" data-name="Path 16147" d="M0,2.489.085,1,0,.284-.085,1Z" fill="#008"/>
              </g>
            </g>
            <g id="Group_89519" data-name="Group 89519" transform="matrix(0.866, 0.5, -0.5, 0.866, 0, 0)">
              <g id="a-10" data-name="a">
                <circle id="Ellipse_932" data-name="Ellipse 932" cx="0.124" cy="0.124" r="0.124" transform="matrix(0.991, 0.131, -0.131, 0.991, 2.36, 0.185)" fill="#008"/>
                <path id="Path_16148" data-name="Path 16148" d="M0,2.489.085,1,0,.284-.085,1Z" fill="#008"/>
              </g>
              <g id="Group_89518" data-name="Group 89518" transform="matrix(0.966, 0.259, -0.259, 0.966, 0, 0)">
                <circle id="Ellipse_933" data-name="Ellipse 933" cx="0.124" cy="0.124" r="0.124" transform="matrix(0.991, 0.131, -0.131, 0.991, 2.36, 0.185)" fill="#008"/>
                <path id="Path_16149" data-name="Path 16149" d="M0,2.489.085,1,0,.284-.085,1Z" fill="#008"/>
              </g>
            </g>
          </g>
          <g id="Group_89523" data-name="Group 89523" transform="matrix(0.5, 0.866, -0.866, 0.5, 0, 0)">
            <g id="b-6" data-name="b">
              <g id="a-11" data-name="a">
                <circle id="Ellipse_934" data-name="Ellipse 934" cx="0.124" cy="0.124" r="0.124" transform="matrix(0.991, 0.131, -0.131, 0.991, 2.36, 0.185)" fill="#008"/>
                <path id="Path_16150" data-name="Path 16150" d="M0,2.489.085,1,0,.284-.085,1Z" fill="#008"/>
              </g>
              <g id="Group_89520" data-name="Group 89520" transform="matrix(0.966, 0.259, -0.259, 0.966, 0, 0)">
                <circle id="Ellipse_935" data-name="Ellipse 935" cx="0.124" cy="0.124" r="0.124" transform="matrix(0.991, 0.131, -0.131, 0.991, 2.36, 0.185)" fill="#008"/>
                <path id="Path_16151" data-name="Path 16151" d="M0,2.489.085,1,0,.284-.085,1Z" fill="#008"/>
              </g>
            </g>
            <g id="Group_89522" data-name="Group 89522" transform="matrix(0.866, 0.5, -0.5, 0.866, 0, 0)">
              <g id="a-12" data-name="a">
                <circle id="Ellipse_936" data-name="Ellipse 936" cx="0.124" cy="0.124" r="0.124" transform="matrix(0.991, 0.131, -0.131, 0.991, 2.36, 0.185)" fill="#008"/>
                <path id="Path_16152" data-name="Path 16152" d="M0,2.489.085,1,0,.284-.085,1Z" fill="#008"/>
              </g>
              <g id="Group_89521" data-name="Group 89521" transform="matrix(0.966, 0.259, -0.259, 0.966, 0, 0)">
                <circle id="Ellipse_937" data-name="Ellipse 937" cx="0.124" cy="0.124" r="0.124" transform="matrix(0.991, 0.131, -0.131, 0.991, 2.36, 0.185)" fill="#008"/>
                <path id="Path_16153" data-name="Path 16153" d="M0,2.489.085,1,0,.284-.085,1Z" fill="#008"/>
              </g>
            </g>
          </g>
        </g>
      </g>
    </g>
  </g>
</svg>
