<svg xmlns="http://www.w3.org/2000/svg" width="80" height="80" viewBox="0 0 80 80">
  <g id="iso" transform="translate(-0.449 0)">
    <circle id="Ellipse_902" data-name="Ellipse 902" cx="40" cy="40" r="40" transform="translate(0.449 0)" fill="none"/>
    <g id="award" transform="translate(20.194 13.889)">
      <path id="Path_30054" data-name="Path 30054" d="M7.718,22.442a3.489,3.489,0,0,1,.446,2.211v.025a5.2,5.2,0,0,0,2.016,4.865,3.492,3.492,0,0,1,1.27,1.9,5.2,5.2,0,0,0,2.793,3.365L9.8,45.007a2.657,2.657,0,0,0,2.452,3.686h3.7a.355.355,0,0,1,.249.1l2.1,2.1a2.663,2.663,0,0,0,4.312-.8l4.2-9.255L31,50.075a2.663,2.663,0,0,0,4.318.815l2.1-2.094a.354.354,0,0,1,.248-.1h3.7A2.657,2.657,0,0,0,43.813,45L39.371,34.813a5.207,5.207,0,0,0,2.793-3.372,3.482,3.482,0,0,1,1.269-1.894,5.205,5.205,0,0,0,2.016-4.865V24.66a3.511,3.511,0,0,1,.452-2.225,5.212,5.212,0,0,0-.006-5.264,3.489,3.489,0,0,1-.446-2.211v-.025a5.2,5.2,0,0,0-2.016-4.865,3.492,3.492,0,0,1-1.27-1.9,5.211,5.211,0,0,0-3.723-3.718,3.482,3.482,0,0,1-1.894-1.269,5.191,5.191,0,0,0-4.865-2.016h-.022a3.493,3.493,0,0,1-2.227-.45,5.211,5.211,0,0,0-5.264.006,3.476,3.476,0,0,1-2.211.446h-.025A5.184,5.184,0,0,0,17.067,3.18a3.492,3.492,0,0,1-1.9,1.27,5.211,5.211,0,0,0-3.718,3.723,3.482,3.482,0,0,1-1.269,1.894,5.205,5.205,0,0,0-2.016,4.865v.022a3.5,3.5,0,0,1-.452,2.225,5.212,5.212,0,0,0,.009,5.262ZM21.029,49.384a.942.942,0,0,1-1.524.286l-2.1-2.092a2.086,2.086,0,0,0-1.464-.6h-3.7a.925.925,0,0,1-.783-.419.909.909,0,0,1-.086-.866l4.472-10.255a3.467,3.467,0,0,1,1.218,1,5.192,5.192,0,0,0,4.865,2.016h.022a3.5,3.5,0,0,1,2.225.452,5.2,5.2,0,0,0,1.364.55Zm21.2-3.708a.935.935,0,0,1-.861,1.292h-3.7a2.086,2.086,0,0,0-1.464.6l-2.1,2.093a.943.943,0,0,1-1.529-.3l-4.51-9.92a5.221,5.221,0,0,0,1.378-.555,3.481,3.481,0,0,1,2.211-.446h.025a5.192,5.192,0,0,0,4.865-2.016,3.462,3.462,0,0,1,1.218-1ZM9.2,18.04A5.222,5.222,0,0,0,9.867,14.7v-.022a3.481,3.481,0,0,1,1.353-3.235,5.221,5.221,0,0,0,1.9-2.842,3.482,3.482,0,0,1,2.488-2.485A5.218,5.218,0,0,0,18.442,4.22a3.476,3.476,0,0,1,3.23-1.352H21.7A5.242,5.242,0,0,0,25.05,2.2a3.481,3.481,0,0,1,3.521,0,5.226,5.226,0,0,0,3.343.663h.022A3.481,3.481,0,0,1,35.17,4.22a5.221,5.221,0,0,0,2.842,1.9A3.482,3.482,0,0,1,40.5,8.606a5.218,5.218,0,0,0,1.894,2.836,3.478,3.478,0,0,1,1.352,3.23V14.7a5.234,5.234,0,0,0,.667,3.351,3.472,3.472,0,0,1,0,3.512l.744.436-.748-.431a5.222,5.222,0,0,0-.663,3.343v.022a3.481,3.481,0,0,1-1.352,3.239A5.221,5.221,0,0,0,40.5,31.012,3.482,3.482,0,0,1,38,33.5a5.218,5.218,0,0,0-2.836,1.894,3.486,3.486,0,0,1-3.23,1.352h-.027a5.235,5.235,0,0,0-3.351.667,3.481,3.481,0,0,1-3.521,0,5.22,5.22,0,0,0-2.632-.712,5.166,5.166,0,0,0-.71.049h-.022a3.489,3.489,0,0,1-3.235-1.356A5.221,5.221,0,0,0,15.6,33.5a3.482,3.482,0,0,1-2.485-2.492,5.218,5.218,0,0,0-1.894-2.836,3.478,3.478,0,0,1-1.352-3.23v-.027A5.234,5.234,0,0,0,9.2,21.561a3.48,3.48,0,0,1,0-3.521Z" transform="translate(-7.001 -0.002)" fill="#1389fd"/>
      <path id="Path_30055" data-name="Path 30055" d="M27.639,35.277A14.639,14.639,0,1,0,13,20.639,14.639,14.639,0,0,0,27.639,35.277Zm0-27.555A12.917,12.917,0,1,1,14.722,20.639,12.917,12.917,0,0,1,27.639,7.722Z" transform="translate(-7.834 -0.835)" fill="#1389fd"/>
      <path id="Path_30056" data-name="Path 30056" d="M28.444,26.333a1.722,1.722,0,0,1-1.722-1.722.861.861,0,1,0-1.722,0,3.444,3.444,0,1,0,3.444-3.444,1.722,1.722,0,1,1,1.722-1.722.861.861,0,0,0,1.722,0,3.444,3.444,0,1,0-3.444,3.444,1.722,1.722,0,0,1,0,3.444Z" transform="translate(-9.501 -2.224)" fill="#1389fd"/>
      <path id="Path_30057" data-name="Path 30057" d="M37.583,28.055a2.583,2.583,0,0,0,2.583-2.583V18.583a2.583,2.583,0,1,0-5.167,0v6.889A2.583,2.583,0,0,0,37.583,28.055Zm-.861-9.472a.861.861,0,1,1,1.722,0v6.889a.861.861,0,1,1-1.722,0Z" transform="translate(-10.89 -2.224)" fill="#1389fd"/>
      <path id="Path_30058" data-name="Path 30058" d="M21.583,28.055a.861.861,0,0,0,0-1.722V17.722a.861.861,0,0,0,0-1.722H19.861a.861.861,0,0,0,0,1.722v8.611a.861.861,0,0,0,0,1.722Z" transform="translate(-8.667 -2.224)" fill="#1389fd"/>
    </g>
  </g>
</svg>
