<svg id="techexperts" xmlns="http://www.w3.org/2000/svg" width="80" height="80" viewBox="0 0 80 80">
  <circle id="Ellipse_902" data-name="Ellipse 902" cx="40" cy="40" r="40" fill="none"/>
  <g id="Client_rating_x2C__testimonial_x2C__customers_x2C__star_team_x2C__team_x2C__group" transform="translate(14 13.999)">
    <g id="XMLID_720_">
      <g id="XMLID_852_">
        <g id="XMLID_739_" transform="translate(5.2 4.333)">
          <g id="Group_109053" data-name="Group 109053">
            <path id="Path_30311" data-name="Path 30311" d="M11.8,19.032a.867.867,0,0,1-.867-.867V15.027a.861.861,0,0,1,.343-.69,3.441,3.441,0,0,0,1.39-2.758v-2.6a3.467,3.467,0,1,0-6.933,0v2.6a3.441,3.441,0,0,0,1.39,2.758.864.864,0,0,1,.343.692v3.139a.867.867,0,1,1-1.733,0v-2.73A5.141,5.141,0,0,1,4,11.579v-2.6a5.2,5.2,0,1,1,10.4,0v2.6a5.144,5.144,0,0,1-1.733,3.857v2.73a.867.867,0,0,1-.867.867Z" transform="translate(-4 -3.779)" fill="#1389fd"/>
          </g>
        </g>
        <g id="XMLID_737_" transform="translate(10.407 11.267)">
          <g id="Group_109054" data-name="Group 109054">
            <path id="Path_30312" data-name="Path 30312" d="M7.869,13.759A.866.866,0,0,1,7.7,12.045a3.483,3.483,0,0,0,2.766-3.4.867.867,0,0,1,1.733,0A5.219,5.219,0,0,1,8.044,13.74a.859.859,0,0,1-.175.019Z" transform="translate(-7.004 -7.779)" fill="#1389fd"/>
          </g>
        </g>
        <g id="XMLID_735_" transform="translate(12.134 17.816)">
          <g id="Group_109055" data-name="Group 109055">
            <path id="Path_30313" data-name="Path 30313" d="M12.115,14.687a.85.85,0,0,1-.341-.071l-3.248-1.4a.867.867,0,0,1,.683-1.593l3.248,1.4a.867.867,0,0,1-.341,1.664Z" transform="translate(-8 -11.558)" fill="#1389fd"/>
          </g>
        </g>
        <g id="XMLID_721_" transform="translate(0 17.8)">
          <g id="Group_109056" data-name="Group 109056">
            <path id="Path_30314" data-name="Path 30314" d="M6.2,25.186a.854.854,0,0,1-.359-.078L2.524,23.6A2.61,2.61,0,0,1,1,21.232v-2.4a6.036,6.036,0,0,1,3.664-5.564L8.455,11.62a.866.866,0,1,1,.69,1.589L5.351,14.857a4.313,4.313,0,0,0-2.617,3.973v2.4a.872.872,0,0,0,.508.79L6.559,23.53A.867.867,0,0,1,6.2,25.186Z" transform="translate(-1 -11.548)" fill="#1389fd"/>
          </g>
        </g>
        <g id="XMLID_5197_" transform="translate(5.2 4.333)">
          <g id="Group_109057" data-name="Group 109057">
            <path id="Path_30315" data-name="Path 30315" d="M12.561,10.556A7.545,7.545,0,0,1,7.789,8.837.865.865,0,1,1,8.876,7.49a5.723,5.723,0,0,0,3.787,1.333,3.467,3.467,0,0,0-6.93.156V9.62A.867.867,0,1,1,4,9.62V8.979a5.2,5.2,0,0,1,10.4,0v.607a.868.868,0,0,1-.73.856,6.928,6.928,0,0,1-1.109.114Z" transform="translate(-4 -3.779)" fill="#1389fd"/>
          </g>
        </g>
        <g id="XMLID_5195_" transform="translate(36.4 4.335)">
          <g id="Group_109058" data-name="Group 109058">
            <path id="Path_30316" data-name="Path 30316" d="M29.8,19.032a.867.867,0,0,1-.867-.867V15.026a.861.861,0,0,1,.343-.69,3.441,3.441,0,0,0,1.39-2.758v-2.6a3.467,3.467,0,1,0-6.933,0v2.6a3.441,3.441,0,0,0,1.39,2.758.864.864,0,0,1,.343.692v3.139a.867.867,0,1,1-1.733,0v-2.73A5.141,5.141,0,0,1,22,11.58V8.98a5.2,5.2,0,0,1,10.4,0v2.6a5.144,5.144,0,0,1-1.733,3.857v2.73A.867.867,0,0,1,29.8,19.032Z" transform="translate(-22 -3.78)" fill="#1389fd"/>
          </g>
        </g>
        <g id="XMLID_5194_" transform="translate(41.607 11.267)">
          <g id="Group_109059" data-name="Group 109059">
            <path id="Path_30317" data-name="Path 30317" d="M25.869,13.759a.866.866,0,0,1-.172-1.714,3.483,3.483,0,0,0,2.766-3.4.867.867,0,1,1,1.733,0,5.219,5.219,0,0,1-4.153,5.094.859.859,0,0,1-.175.019Z" transform="translate(-25.004 -7.779)" fill="#1389fd"/>
          </g>
        </g>
        <g id="XMLID_730_" transform="translate(35.14 17.817)">
          <g id="Group_109060" data-name="Group 109060">
            <path id="Path_30318" data-name="Path 30318" d="M22.14,14.578a.867.867,0,0,1-.341-1.664l2.993-1.286a.867.867,0,0,1,.683,1.593l-2.993,1.286A.844.844,0,0,1,22.14,14.578Z" transform="translate(-21.273 -11.558)" fill="#1389fd"/>
          </g>
        </g>
        <g id="XMLID_715_" transform="translate(43.333 17.799)">
          <g id="Group_109061" data-name="Group 109061">
            <path id="Path_30319" data-name="Path 30319" d="M29.467,25.186a.867.867,0,0,1-.359-1.655l3.318-1.508a.87.87,0,0,0,.508-.79v-2.4a4.308,4.308,0,0,0-2.612-3.969l-3.8-1.65a.866.866,0,1,1,.69-1.589l3.794,1.647a6.034,6.034,0,0,1,3.661,5.562v2.4A2.61,2.61,0,0,1,33.143,23.6l-3.318,1.508a.881.881,0,0,1-.359.078Z" transform="translate(-26 -11.548)" fill="#1389fd"/>
          </g>
        </g>
        <g id="XMLID_724_" transform="translate(21.538 4.87)">
          <g id="Group_109062" data-name="Group 109062">
            <path id="Path_30320" data-name="Path 30320" d="M20.159,7.74A10.239,10.239,0,0,1,13.714,5.6a.866.866,0,1,1,1.158-1.288c1.709,1.536,5.8,2.338,8.148,1.08a.867.867,0,0,1,.82,1.527,7.869,7.869,0,0,1-3.682.822Z" transform="translate(-13.426 -4.089)" fill="#1389fd"/>
          </g>
        </g>
        <g id="XMLID_710_" transform="translate(8.667)">
          <g id="XMLID_712_" transform="translate(12.51 19.66)">
            <g id="Group_109063" data-name="Group 109063">
              <path id="Path_30321" data-name="Path 30321" d="M18.028,17.228a5.1,5.1,0,0,1-4.767-3.43A.866.866,0,0,1,14.9,13.25a3.388,3.388,0,0,0,3.123,2.243,3.54,3.54,0,0,0,3.2-2.3.867.867,0,0,1,1.635.577,5.258,5.258,0,0,1-4.833,3.456Z" transform="translate(-13.218 -12.621)" fill="#1389fd"/>
            </g>
          </g>
          <g id="XMLID_726_" transform="translate(19.933 16.122)">
            <g id="Group_109064" data-name="Group 109064">
              <path id="Path_30322" data-name="Path 30322" d="M31.367,25.658a.867.867,0,0,1-.867-.867v-.484a6.06,6.06,0,0,0-4.032-5.717l-7.23-2.565A2.6,2.6,0,0,1,17.5,13.579V11.447a.867.867,0,1,1,1.733,0v2.132a.863.863,0,0,0,.581.811l7.231,2.567a7.793,7.793,0,0,1,5.188,7.351v.485a.866.866,0,0,1-.867.865Z" transform="translate(-17.5 -10.58)" fill="#1389fd"/>
            </g>
          </g>
          <g id="XMLID_725_" transform="translate(0 16.12)">
            <g id="Group_109065" data-name="Group 109065">
              <path id="Path_30323" data-name="Path 30323" d="M6.867,25.659A.867.867,0,0,1,6,24.792v-.468a7.822,7.822,0,0,1,5.2-7.368l7.214-2.531A.865.865,0,0,0,19,13.612V11.446a.867.867,0,1,1,1.733,0v2.167a2.6,2.6,0,0,1-1.742,2.449L11.782,18.59a6.083,6.083,0,0,0-4.049,5.734v.468A.866.866,0,0,1,6.867,25.659Z" transform="translate(-6 -10.579)" fill="#1389fd"/>
            </g>
          </g>
          <g id="XMLID_706_" transform="translate(10.4)">
            <g id="Group_109066" data-name="Group 109066">
              <path id="Path_30324" data-name="Path 30324" d="M18.933,20.346a.867.867,0,1,1,0-1.733c1.8,0,5.2-1.629,5.2-7.8v-2.6a5.2,5.2,0,1,0-10.4,0v2.6c0,2.988.8,5.275,2.309,6.611a.866.866,0,0,1-1.147,1.3C13.574,17.553,12,15.234,12,10.812v-2.6a6.933,6.933,0,1,1,13.867,0v2.6c0,7.542-4.534,9.533-6.933,9.533Z" transform="translate(-12 -1.279)" fill="#1389fd"/>
            </g>
          </g>
        </g>
      </g>
      <g id="XMLID_1069_" transform="translate(0.848 31.879)">
        <g id="XMLID_908_" transform="translate(34.845)">
          <g id="Group_109067" data-name="Group 109067">
            <path id="Path_30325" data-name="Path 30325" d="M25.1,34.592a.866.866,0,0,1-.383-1.643l4.287-2.123a.867.867,0,0,1,.768,0l2.8,1.388-.456-3.092a.866.866,0,0,1,.239-.731l2.189-2.238-3.085-.525a.872.872,0,0,1-.622-.452L29.392,22.4l-1.451,2.77a.872.872,0,0,1-.622.452l-3.084.525,2.187,2.238A.867.867,0,0,1,25.183,29.6l-3.344-3.42a.866.866,0,0,1,.475-1.459l4.292-.731,2.019-3.855a.867.867,0,0,1,1.536,0l2.018,3.855,4.293.731a.866.866,0,0,1,.475,1.459L33.9,29.293l.634,4.306a.871.871,0,0,1-.348.827.859.859,0,0,1-.894.075l-3.9-1.933-3.9,1.933a.851.851,0,0,1-.388.092Z" transform="translate(-21.592 -19.671)" fill="#1389fd"/>
          </g>
        </g>
        <g id="XMLID_1071_" transform="translate(16.084 2.341)">
          <g id="Group_109068" data-name="Group 109068">
            <path id="Path_30326" data-name="Path 30326" d="M14.768,38.318a.866.866,0,0,1-.858-.993l.759-5.171-3.654-3.737a.866.866,0,0,1,.475-1.459l5.155-.877,2.423-4.63a.9.9,0,0,1,1.537,0l2.423,4.63,5.155.877a.866.866,0,0,1,.475,1.459L25,32.154l.761,5.171a.871.871,0,0,1-.348.827.859.859,0,0,1-.894.075L19.837,35.9l-4.683,2.321A.861.861,0,0,1,14.768,38.318Zm-1.357-9.93,2.8,2.862a.873.873,0,0,1,.239.731l-.582,3.957,3.586-1.777a.855.855,0,0,1,.768,0L23.8,35.938l-.582-3.957a.866.866,0,0,1,.239-.731l2.8-2.862-3.947-.673a.872.872,0,0,1-.622-.452l-1.855-3.545-1.855,3.545a.872.872,0,0,1-.622.452Z" transform="translate(-10.768 -21.021)" fill="#1389fd"/>
          </g>
        </g>
        <g id="XMLID_760_" transform="translate(0 0.002)">
          <g id="Group_109069" data-name="Group 109069">
            <path id="Path_30327" data-name="Path 30327" d="M13.577,34.591a.875.875,0,0,1-.385-.09l-3.9-1.933L5.391,34.5a.868.868,0,0,1-1.243-.9l.634-4.306L1.737,26.182a.866.866,0,0,1,.475-1.459l4.293-.731,2.019-3.855a.867.867,0,0,1,1.536,0l2.018,3.855,4.292.731a.866.866,0,0,1,.475,1.459L13.5,29.6a.867.867,0,1,1-1.239-1.212l2.187-2.238-3.084-.525a.868.868,0,0,1-.622-.452L9.294,22.4l-1.451,2.77a.872.872,0,0,1-.622.452l-3.085.525,2.189,2.238a.873.873,0,0,1,.239.731l-.456,3.092,2.8-1.388a.867.867,0,0,1,.768,0l4.285,2.123a.867.867,0,0,1,.393,1.161.878.878,0,0,1-.78.482Z" transform="translate(-1.489 -19.672)" fill="#1389fd"/>
          </g>
        </g>
      </g>
    </g>
  </g>
</svg>
