<svg xmlns="http://www.w3.org/2000/svg" xmlns:xlink="http://www.w3.org/1999/xlink" width="32" height="32" viewBox="0 0 32 32">
  <defs>
    <clipPath id="clip-path">
      <rect id="Rectangle_2234" data-name="Rectangle 2234" width="32" height="32" fill="#fff"/>
    </clipPath>
  </defs>
  <g id="usaflag" clip-path="url(#clip-path)">
    <g id="united-states" transform="translate(0 5.517)">
      <path id="Path_16064" data-name="Path 16064" d="M31.448,26.483H.552A.552.552,0,0,1,0,25.931V6.069a.552.552,0,0,1,.552-.552h30.9A.552.552,0,0,1,32,6.069V25.931A.552.552,0,0,1,31.448,26.483Z" transform="translate(0 -5.517)" fill="#f5f5f5"/>
      <g id="Group_89490" data-name="Group 89490">
        <path id="Path_16065" data-name="Path 16065" d="M32,7.13H0V6.069a.552.552,0,0,1,.552-.552h30.9A.552.552,0,0,1,32,6.069V7.13Z" transform="translate(0 -5.517)" fill="#ff4b55"/>
        <rect id="Rectangle_2236" data-name="Rectangle 2236" width="32" height="1.613" transform="translate(0 6.451)" fill="#ff4b55"/>
        <rect id="Rectangle_2237" data-name="Rectangle 2237" width="32" height="1.613" transform="translate(0 3.225)" fill="#ff4b55"/>
        <path id="Path_16066" data-name="Path 16066" d="M32,16.806H.552A.552.552,0,0,1,0,16.255V15.194H32Z" transform="translate(0 -5.517)" fill="#ff4b55"/>
        <rect id="Rectangle_2238" data-name="Rectangle 2238" width="32" height="1.613" transform="translate(0 16.128)" fill="#ff4b55"/>
        <path id="Path_16067" data-name="Path 16067" d="M31.448,26.483H.552A.552.552,0,0,1,0,25.931V24.87H32v1.061A.552.552,0,0,1,31.448,26.483Z" transform="translate(0 -5.517)" fill="#ff4b55"/>
        <rect id="Rectangle_2239" data-name="Rectangle 2239" width="32" height="1.613" transform="translate(0 12.902)" fill="#ff4b55"/>
      </g>
      <path id="Path_16068" data-name="Path 16068" d="M14.345,5.517H.552A.552.552,0,0,0,0,6.069V16.255a.552.552,0,0,0,.552.552H14.345a.552.552,0,0,0,.552-.552V6.069A.552.552,0,0,0,14.345,5.517Z" transform="translate(0 -5.517)" fill="#41479b"/>
      <g id="Group_89491" data-name="Group 89491" transform="translate(0.891 1.231)">
        <path id="Path_16069" data-name="Path 16069" d="M1.549,6.784l.122.366.386,0a.052.052,0,0,1,.03.094l-.311.229.116.368a.052.052,0,0,1-.08.058L1.5,7.678,1.186,7.9a.052.052,0,0,1-.08-.058l.116-.368L.912,7.247a.052.052,0,0,1,.03-.094l.386,0,.122-.366A.052.052,0,0,1,1.549,6.784Z" transform="translate(-0.891 -6.748)" fill="#f5f5f5"/>
        <path id="Path_16070" data-name="Path 16070" d="M1.549,8.7l.122.366.386,0a.052.052,0,0,1,.03.094l-.311.229.116.368a.052.052,0,0,1-.08.058L1.5,9.594l-.314.224a.052.052,0,0,1-.08-.058l.116-.368L.912,9.163a.052.052,0,0,1,.03-.094l.386,0L1.451,8.7A.052.052,0,0,1,1.549,8.7Z" transform="translate(-0.891 -6.748)" fill="#f5f5f5"/>
        <path id="Path_16071" data-name="Path 16071" d="M1.549,10.615l.122.366.386,0a.052.052,0,0,1,.03.094l-.311.229.116.368a.052.052,0,0,1-.08.058L1.5,11.509l-.314.224a.052.052,0,0,1-.08-.058l.116-.368-.311-.229a.052.052,0,0,1,.03-.094l.386,0,.122-.366A.052.052,0,0,1,1.549,10.615Z" transform="translate(-0.891 -6.748)" fill="#f5f5f5"/>
        <path id="Path_16072" data-name="Path 16072" d="M1.549,12.531l.122.366.386,0a.052.052,0,0,1,.03.094l-.311.229.116.368a.052.052,0,0,1-.08.058L1.5,13.425l-.314.224a.052.052,0,0,1-.08-.058l.116-.368-.311-.229a.052.052,0,0,1,.03-.094l.386,0,.122-.366A.052.052,0,0,1,1.549,12.531Z" transform="translate(-0.891 -6.748)" fill="#f5f5f5"/>
        <path id="Path_16073" data-name="Path 16073" d="M1.549,14.447l.122.366.386,0a.052.052,0,0,1,.03.094l-.311.229.116.368a.052.052,0,0,1-.08.058L1.5,15.341l-.314.224a.052.052,0,0,1-.08-.058l.116-.368L.912,14.91a.052.052,0,0,1,.03-.094l.386,0,.122-.366A.052.052,0,0,1,1.549,14.447Z" transform="translate(-0.891 -6.748)" fill="#f5f5f5"/>
        <path id="Path_16074" data-name="Path 16074" d="M3.036,7.723l.122.366.386,0a.052.052,0,0,1,.03.094l-.311.229.116.368a.052.052,0,0,1-.08.058l-.314-.224-.314.224a.052.052,0,0,1-.08-.058l.116-.368L2.4,8.186a.052.052,0,0,1,.03-.094l.386,0,.122-.366A.052.052,0,0,1,3.036,7.723Z" transform="translate(-0.891 -6.748)" fill="#f5f5f5"/>
        <path id="Path_16075" data-name="Path 16075" d="M3.036,9.639l.122.366.386,0a.052.052,0,0,1,.03.094l-.311.229.116.368a.052.052,0,0,1-.08.058l-.314-.224-.314.224a.052.052,0,0,1-.08-.058l.116-.368L2.4,10.1a.052.052,0,0,1,.03-.094l.386,0,.122-.366A.052.052,0,0,1,3.036,9.639Z" transform="translate(-0.891 -6.748)" fill="#f5f5f5"/>
        <path id="Path_16076" data-name="Path 16076" d="M3.036,11.555l.122.366.386,0a.052.052,0,0,1,.03.094l-.311.229.116.368a.052.052,0,0,1-.08.058l-.314-.224-.314.224a.052.052,0,0,1-.08-.058l.116-.368L2.4,12.018a.052.052,0,0,1,.03-.094l.386,0,.122-.366A.052.052,0,0,1,3.036,11.555Z" transform="translate(-0.891 -6.748)" fill="#f5f5f5"/>
        <path id="Path_16077" data-name="Path 16077" d="M3.036,13.471l.122.366.386,0a.052.052,0,0,1,.03.094l-.311.229.116.368a.052.052,0,0,1-.08.058l-.314-.224-.314.224a.052.052,0,0,1-.08-.058l.116-.368L2.4,13.934a.052.052,0,0,1,.03-.094l.386,0,.122-.366A.052.052,0,0,1,3.036,13.471Z" transform="translate(-0.891 -6.748)" fill="#f5f5f5"/>
        <path id="Path_16078" data-name="Path 16078" d="M4.523,6.784l.122.366.386,0a.052.052,0,0,1,.03.094l-.311.229.116.368a.052.052,0,0,1-.08.058l-.314-.224L4.16,7.9a.052.052,0,0,1-.08-.058L4.2,7.476l-.311-.229a.052.052,0,0,1,.03-.094l.386,0,.122-.366A.052.052,0,0,1,4.523,6.784Z" transform="translate(-0.891 -6.748)" fill="#f5f5f5"/>
        <path id="Path_16079" data-name="Path 16079" d="M4.523,8.7l.122.366.386,0a.052.052,0,0,1,.03.094l-.311.229.116.368a.052.052,0,0,1-.08.058l-.314-.224-.314.224a.052.052,0,0,1-.08-.058L4.2,9.392l-.311-.229a.052.052,0,0,1,.03-.094l.386,0L4.425,8.7A.052.052,0,0,1,4.523,8.7Z" transform="translate(-0.891 -6.748)" fill="#f5f5f5"/>
        <path id="Path_16080" data-name="Path 16080" d="M4.523,10.615l.122.366.386,0a.052.052,0,0,1,.03.094l-.311.229.116.368a.052.052,0,0,1-.08.058l-.314-.224-.314.224a.052.052,0,0,1-.08-.058l.116-.368-.311-.229a.052.052,0,0,1,.03-.094l.386,0,.122-.366A.052.052,0,0,1,4.523,10.615Z" transform="translate(-0.891 -6.748)" fill="#f5f5f5"/>
        <path id="Path_16081" data-name="Path 16081" d="M4.523,12.531l.122.366.386,0a.052.052,0,0,1,.03.094l-.311.229.116.368a.052.052,0,0,1-.08.058l-.314-.224-.314.224a.052.052,0,0,1-.08-.058l.116-.368-.311-.229a.052.052,0,0,1,.03-.094l.386,0,.122-.366A.052.052,0,0,1,4.523,12.531Z" transform="translate(-0.891 -6.748)" fill="#f5f5f5"/>
        <path id="Path_16082" data-name="Path 16082" d="M4.523,14.447l.122.366.386,0a.052.052,0,0,1,.03.094l-.311.229.116.368a.052.052,0,0,1-.08.058l-.314-.224-.314.224a.052.052,0,0,1-.08-.058L4.2,15.14l-.311-.229a.052.052,0,0,1,.03-.094l.386,0,.122-.366A.052.052,0,0,1,4.523,14.447Z" transform="translate(-0.891 -6.748)" fill="#f5f5f5"/>
        <path id="Path_16083" data-name="Path 16083" d="M6.011,7.723l.122.366.386,0a.052.052,0,0,1,.03.094l-.311.229.116.368a.052.052,0,0,1-.08.058l-.314-.224-.314.224a.052.052,0,0,1-.08-.058l.116-.368-.311-.229a.052.052,0,0,1,.03-.094l.386,0,.122-.366A.052.052,0,0,1,6.011,7.723Z" transform="translate(-0.891 -6.748)" fill="#f5f5f5"/>
        <path id="Path_16084" data-name="Path 16084" d="M6.011,9.639l.122.366.386,0a.052.052,0,0,1,.03.094l-.311.229.116.368a.052.052,0,0,1-.08.058l-.314-.224-.314.224a.052.052,0,0,1-.08-.058l.116-.368L5.373,10.1a.052.052,0,0,1,.03-.094l.386,0,.122-.366A.052.052,0,0,1,6.011,9.639Z" transform="translate(-0.891 -6.748)" fill="#f5f5f5"/>
        <path id="Path_16085" data-name="Path 16085" d="M6.011,11.555l.122.366.386,0a.052.052,0,0,1,.03.094l-.311.229.116.368a.052.052,0,0,1-.08.058l-.314-.224-.314.224a.052.052,0,0,1-.08-.058l.116-.368-.311-.229a.052.052,0,0,1,.03-.094l.386,0,.122-.366A.052.052,0,0,1,6.011,11.555Z" transform="translate(-0.891 -6.748)" fill="#f5f5f5"/>
        <path id="Path_16086" data-name="Path 16086" d="M6.011,13.471l.122.366.386,0a.052.052,0,0,1,.03.094l-.311.229.116.368a.052.052,0,0,1-.08.058l-.314-.224-.314.224a.052.052,0,0,1-.08-.058l.116-.368-.311-.229a.052.052,0,0,1,.03-.094l.386,0,.122-.366A.052.052,0,0,1,6.011,13.471Z" transform="translate(-0.891 -6.748)" fill="#f5f5f5"/>
        <path id="Path_16087" data-name="Path 16087" d="M7.5,6.784l.122.366.386,0a.052.052,0,0,1,.031.094l-.311.229.116.368a.052.052,0,0,1-.08.058l-.314-.224L7.134,7.9a.052.052,0,0,1-.08-.058l.116-.368L6.86,7.247a.052.052,0,0,1,.03-.094l.386,0L7.4,6.784A.052.052,0,0,1,7.5,6.784Z" transform="translate(-0.891 -6.748)" fill="#f5f5f5"/>
        <path id="Path_16088" data-name="Path 16088" d="M7.5,8.7l.122.366.386,0a.052.052,0,0,1,.031.094l-.311.229.116.368a.052.052,0,0,1-.08.058l-.314-.224-.314.224a.052.052,0,0,1-.08-.058l.116-.368L6.86,9.163a.052.052,0,0,1,.03-.094l.386,0L7.4,8.7A.052.052,0,0,1,7.5,8.7Z" transform="translate(-0.891 -6.748)" fill="#f5f5f5"/>
        <path id="Path_16089" data-name="Path 16089" d="M7.5,10.615l.122.366.386,0a.052.052,0,0,1,.031.094l-.311.229.116.368a.052.052,0,0,1-.08.058l-.314-.224-.314.224a.052.052,0,0,1-.08-.058l.116-.368-.311-.229a.052.052,0,0,1,.03-.094l.386,0,.122-.366A.052.052,0,0,1,7.5,10.615Z" transform="translate(-0.891 -6.748)" fill="#f5f5f5"/>
        <path id="Path_16090" data-name="Path 16090" d="M7.5,12.531l.122.366.386,0a.052.052,0,0,1,.031.094l-.311.229.116.368a.052.052,0,0,1-.08.058l-.314-.224-.314.224a.052.052,0,0,1-.08-.058l.116-.368-.311-.229a.052.052,0,0,1,.03-.094l.386,0,.122-.366A.052.052,0,0,1,7.5,12.531Z" transform="translate(-0.891 -6.748)" fill="#f5f5f5"/>
        <path id="Path_16091" data-name="Path 16091" d="M7.5,14.447l.122.366.386,0a.052.052,0,0,1,.031.094l-.311.229.116.368a.052.052,0,0,1-.08.058l-.314-.224-.314.224a.052.052,0,0,1-.08-.058l.116-.368L6.86,14.91a.052.052,0,0,1,.03-.094l.386,0,.122-.366A.052.052,0,0,1,7.5,14.447Z" transform="translate(-0.891 -6.748)" fill="#f5f5f5"/>
        <path id="Path_16092" data-name="Path 16092" d="M8.985,7.723l.122.366.386,0a.052.052,0,0,1,.031.094l-.311.229.116.368a.052.052,0,0,1-.08.058l-.314-.224-.314.224a.052.052,0,0,1-.08-.058l.116-.368-.311-.229a.052.052,0,0,1,.031-.094l.386,0,.122-.366A.052.052,0,0,1,8.985,7.723Z" transform="translate(-0.891 -6.748)" fill="#f5f5f5"/>
        <path id="Path_16093" data-name="Path 16093" d="M8.985,9.639l.122.366.386,0a.052.052,0,0,1,.031.094l-.311.229.116.368a.052.052,0,0,1-.08.058l-.314-.224-.314.224a.052.052,0,0,1-.08-.058l.116-.368L8.347,10.1a.052.052,0,0,1,.031-.094l.386,0,.122-.366A.052.052,0,0,1,8.985,9.639Z" transform="translate(-0.891 -6.748)" fill="#f5f5f5"/>
        <path id="Path_16094" data-name="Path 16094" d="M8.985,11.555l.122.366.386,0a.052.052,0,0,1,.031.094l-.311.229.116.368a.052.052,0,0,1-.08.058l-.314-.224-.314.224a.052.052,0,0,1-.08-.058l.116-.368-.311-.229a.052.052,0,0,1,.031-.094l.386,0,.122-.366A.052.052,0,0,1,8.985,11.555Z" transform="translate(-0.891 -6.748)" fill="#f5f5f5"/>
        <path id="Path_16095" data-name="Path 16095" d="M8.985,13.471l.122.366.386,0a.052.052,0,0,1,.031.094l-.311.229.116.368a.052.052,0,0,1-.08.058l-.314-.224-.314.224a.052.052,0,0,1-.08-.058l.116-.368-.311-.229a.052.052,0,0,1,.031-.094l.386,0,.122-.366A.052.052,0,0,1,8.985,13.471Z" transform="translate(-0.891 -6.748)" fill="#f5f5f5"/>
        <path id="Path_16096" data-name="Path 16096" d="M10.472,6.784l.122.366.386,0a.052.052,0,0,1,.031.094l-.311.229.116.368a.052.052,0,0,1-.08.058l-.314-.224-.314.224a.052.052,0,0,1-.08-.058l.116-.368-.311-.229a.052.052,0,0,1,.031-.094l.386,0,.122-.366A.052.052,0,0,1,10.472,6.784Z" transform="translate(-0.891 -6.748)" fill="#f5f5f5"/>
        <path id="Path_16097" data-name="Path 16097" d="M10.472,8.7l.122.366.386,0a.052.052,0,0,1,.031.094l-.311.229.116.368a.052.052,0,0,1-.08.058l-.314-.224-.314.224a.052.052,0,0,1-.08-.058l.116-.368-.311-.229a.052.052,0,0,1,.031-.094l.386,0,.122-.366A.052.052,0,0,1,10.472,8.7Z" transform="translate(-0.891 -6.748)" fill="#f5f5f5"/>
        <path id="Path_16098" data-name="Path 16098" d="M10.472,10.615l.122.366.386,0a.052.052,0,0,1,.031.094l-.311.229.116.368a.052.052,0,0,1-.08.058l-.314-.224-.314.224a.052.052,0,0,1-.08-.058l.116-.368-.311-.229a.052.052,0,0,1,.031-.094l.386,0,.122-.366A.052.052,0,0,1,10.472,10.615Z" transform="translate(-0.891 -6.748)" fill="#f5f5f5"/>
        <path id="Path_16099" data-name="Path 16099" d="M10.472,12.531l.122.366.386,0a.052.052,0,0,1,.031.094l-.311.229.116.368a.052.052,0,0,1-.08.058l-.314-.224-.314.224a.052.052,0,0,1-.08-.058l.116-.368-.311-.229a.052.052,0,0,1,.031-.094l.386,0,.122-.366A.052.052,0,0,1,10.472,12.531Z" transform="translate(-0.891 -6.748)" fill="#f5f5f5"/>
        <path id="Path_16100" data-name="Path 16100" d="M10.472,14.447l.122.366.386,0a.052.052,0,0,1,.031.094l-.311.229.116.368a.052.052,0,0,1-.08.058l-.314-.224-.314.224a.052.052,0,0,1-.08-.058l.116-.368-.311-.229a.052.052,0,0,1,.031-.094l.386,0,.122-.366A.052.052,0,0,1,10.472,14.447Z" transform="translate(-0.891 -6.748)" fill="#f5f5f5"/>
        <path id="Path_16101" data-name="Path 16101" d="M11.959,7.723l.122.366.386,0a.052.052,0,0,1,.031.094l-.311.229.116.368a.052.052,0,0,1-.08.058l-.314-.224-.314.224a.052.052,0,0,1-.08-.058l.116-.368-.311-.229a.052.052,0,0,1,.031-.094l.386,0,.122-.366A.052.052,0,0,1,11.959,7.723Z" transform="translate(-0.891 -6.748)" fill="#f5f5f5"/>
        <path id="Path_16102" data-name="Path 16102" d="M11.959,9.639l.122.366.386,0a.052.052,0,0,1,.031.094l-.311.229.116.368a.052.052,0,0,1-.08.058l-.314-.224-.314.224a.052.052,0,0,1-.08-.058l.116-.368-.311-.229a.052.052,0,0,1,.031-.094l.386,0,.122-.366A.052.052,0,0,1,11.959,9.639Z" transform="translate(-0.891 -6.748)" fill="#f5f5f5"/>
        <path id="Path_16103" data-name="Path 16103" d="M11.959,11.555l.122.366.386,0a.052.052,0,0,1,.031.094l-.311.229.116.368a.052.052,0,0,1-.08.058l-.314-.224-.314.224a.052.052,0,0,1-.08-.058l.116-.368-.311-.229a.052.052,0,0,1,.031-.094l.386,0,.122-.366A.052.052,0,0,1,11.959,11.555Z" transform="translate(-0.891 -6.748)" fill="#f5f5f5"/>
        <path id="Path_16104" data-name="Path 16104" d="M11.959,13.471l.122.366.386,0a.052.052,0,0,1,.031.094l-.311.229.116.368a.052.052,0,0,1-.08.058l-.314-.224-.314.224a.052.052,0,0,1-.08-.058l.116-.368-.311-.229a.052.052,0,0,1,.031-.094l.386,0,.122-.366A.052.052,0,0,1,11.959,13.471Z" transform="translate(-0.891 -6.748)" fill="#f5f5f5"/>
        <path id="Path_16105" data-name="Path 16105" d="M13.446,6.784l.122.366.386,0a.052.052,0,0,1,.031.094l-.311.229.116.368a.052.052,0,0,1-.08.058L13.4,7.678l-.314.224A.052.052,0,0,1,13,7.844l.116-.368-.311-.229a.052.052,0,0,1,.031-.094l.386,0,.122-.366A.052.052,0,0,1,13.446,6.784Z" transform="translate(-0.891 -6.748)" fill="#f5f5f5"/>
        <path id="Path_16106" data-name="Path 16106" d="M13.446,8.7l.122.366.386,0a.052.052,0,0,1,.031.094l-.311.229.116.368a.052.052,0,0,1-.08.058L13.4,9.593l-.314.224A.052.052,0,0,1,13,9.76l.116-.368-.311-.229a.052.052,0,0,1,.031-.094l.386,0,.122-.366A.052.052,0,0,1,13.446,8.7Z" transform="translate(-0.891 -6.748)" fill="#f5f5f5"/>
        <path id="Path_16107" data-name="Path 16107" d="M13.446,10.615l.122.366.386,0a.052.052,0,0,1,.031.094l-.311.229.116.368a.052.052,0,0,1-.08.058l-.314-.224-.314.224a.052.052,0,0,1-.08-.058l.116-.368-.311-.229a.052.052,0,0,1,.031-.094l.386,0,.122-.366A.052.052,0,0,1,13.446,10.615Z" transform="translate(-0.891 -6.748)" fill="#f5f5f5"/>
        <path id="Path_16108" data-name="Path 16108" d="M13.446,12.531l.122.366.386,0a.052.052,0,0,1,.031.094l-.311.229.116.368a.052.052,0,0,1-.08.058l-.314-.224-.314.224a.052.052,0,0,1-.08-.058l.116-.368-.311-.229a.052.052,0,0,1,.031-.094l.386,0,.122-.366A.052.052,0,0,1,13.446,12.531Z" transform="translate(-0.891 -6.748)" fill="#f5f5f5"/>
        <path id="Path_16109" data-name="Path 16109" d="M13.446,14.447l.122.366.386,0a.052.052,0,0,1,.031.094l-.311.229.116.368a.052.052,0,0,1-.08.058l-.314-.224-.314.224a.052.052,0,0,1-.08-.058l.116-.368-.311-.229a.052.052,0,0,1,.031-.094l.386,0,.122-.366A.052.052,0,0,1,13.446,14.447Z" transform="translate(-0.891 -6.748)" fill="#f5f5f5"/>
      </g>
    </g>
  </g>
</svg>
